<?xml version="1.0" encoding="utf-8" standalone="no"?>
<!DOCTYPE svg PUBLIC "-//W3C//DTD SVG 1.1//EN"
  "http://www.w3.org/Graphics/SVG/1.1/DTD/svg11.dtd">
<!-- Created with matplotlib (http://matplotlib.org/) -->
<svg height="216pt" version="1.1" viewBox="0 0 1080 216" width="1080pt" xmlns="http://www.w3.org/2000/svg" xmlns:xlink="http://www.w3.org/1999/xlink">
 <defs>
  <style type="text/css">
*{stroke-linecap:butt;stroke-linejoin:round;}
  </style>
 </defs>
 <g id="figure_1">
  <g id="patch_1">
   <path d="M 0 216 
L 1080 216 
L 1080 0 
L 0 0 
z
" style="fill:none;"/>
  </g>
  <g id="axes_1">
   <g id="patch_2">
    <path d="M 40.925 180.1 
L 960 180.1 
L 960 32.8 
L 40.925 32.8 
z
" style="fill:#ffffff;"/>
   </g>
   <g id="matplotlib.axis_1">
    <g id="xtick_1">
     <g id="line2d_1">
      <path clip-path="url(#p07c6d32ead)" d="M 128.95845 180.1 
L 128.95845 32.8 
" style="fill:none;stroke:#cccccc;stroke-linecap:round;stroke-width:0.8;"/>
     </g>
     <g id="line2d_2"/>
     <g id="text_1">
      <!-- Feb -->
      <defs>
       <path d="M 8.203125 0 
L 8.203125 71.578125 
L 56.5 71.578125 
L 56.5 63.140625 
L 17.671875 63.140625 
L 17.671875 40.96875 
L 51.265625 40.96875 
L 51.265625 32.515625 
L 17.671875 32.515625 
L 17.671875 0 
z
" id="ArialMT-46"/>
       <path d="M 42.09375 16.703125 
L 51.171875 15.578125 
Q 49.03125 7.625 43.21875 3.21875 
Q 37.40625 -1.171875 28.375 -1.171875 
Q 17 -1.171875 10.328125 5.828125 
Q 3.65625 12.84375 3.65625 25.484375 
Q 3.65625 38.578125 10.390625 45.796875 
Q 17.140625 53.03125 27.875 53.03125 
Q 38.28125 53.03125 44.875 45.953125 
Q 51.46875 38.875 51.46875 26.03125 
Q 51.46875 25.25 51.421875 23.6875 
L 12.75 23.6875 
Q 13.234375 15.140625 17.578125 10.59375 
Q 21.921875 6.0625 28.421875 6.0625 
Q 33.25 6.0625 36.671875 8.59375 
Q 40.09375 11.140625 42.09375 16.703125 
z
M 13.234375 30.90625 
L 42.1875 30.90625 
Q 41.609375 37.453125 38.875 40.71875 
Q 34.671875 45.796875 27.984375 45.796875 
Q 21.921875 45.796875 17.796875 41.75 
Q 13.671875 37.703125 13.234375 30.90625 
z
" id="ArialMT-65"/>
       <path d="M 14.703125 0 
L 6.546875 0 
L 6.546875 71.578125 
L 15.328125 71.578125 
L 15.328125 46.046875 
Q 20.90625 53.03125 29.546875 53.03125 
Q 34.328125 53.03125 38.59375 51.09375 
Q 42.875 49.171875 45.625 45.671875 
Q 48.390625 42.1875 49.953125 37.25 
Q 51.515625 32.328125 51.515625 26.703125 
Q 51.515625 13.375 44.921875 6.09375 
Q 38.328125 -1.171875 29.109375 -1.171875 
Q 19.921875 -1.171875 14.703125 6.5 
z
M 14.59375 26.3125 
Q 14.59375 17 17.140625 12.84375 
Q 21.296875 6.0625 28.375 6.0625 
Q 34.125 6.0625 38.328125 11.0625 
Q 42.53125 16.0625 42.53125 25.984375 
Q 42.53125 36.140625 38.5 40.96875 
Q 34.46875 45.796875 28.765625 45.796875 
Q 23 45.796875 18.796875 40.796875 
Q 14.59375 35.796875 14.59375 26.3125 
z
" id="ArialMT-62"/>
      </defs>
      <g style="fill:#262626;" transform="translate(118.620637 192.189375)scale(0.12 -0.12)">
       <use xlink:href="#ArialMT-46"/>
       <use x="61.083984" xlink:href="#ArialMT-65"/>
       <use x="116.699219" xlink:href="#ArialMT-62"/>
      </g>
      <!-- 2016 -->
      <defs>
       <path d="M 50.34375 8.453125 
L 50.34375 0 
L 3.03125 0 
Q 2.9375 3.171875 4.046875 6.109375 
Q 5.859375 10.9375 9.828125 15.625 
Q 13.8125 20.3125 21.34375 26.46875 
Q 33.015625 36.03125 37.109375 41.625 
Q 41.21875 47.21875 41.21875 52.203125 
Q 41.21875 57.421875 37.46875 61 
Q 33.734375 64.59375 27.734375 64.59375 
Q 21.390625 64.59375 17.578125 60.78125 
Q 13.765625 56.984375 13.71875 50.25 
L 4.6875 51.171875 
Q 5.609375 61.28125 11.65625 66.578125 
Q 17.71875 71.875 27.9375 71.875 
Q 38.234375 71.875 44.234375 66.15625 
Q 50.25 60.453125 50.25 52 
Q 50.25 47.703125 48.484375 43.546875 
Q 46.734375 39.40625 42.65625 34.8125 
Q 38.578125 30.21875 29.109375 22.21875 
Q 21.1875 15.578125 18.9375 13.203125 
Q 16.703125 10.84375 15.234375 8.453125 
z
" id="ArialMT-32"/>
       <path d="M 4.15625 35.296875 
Q 4.15625 48 6.765625 55.734375 
Q 9.375 63.484375 14.515625 67.671875 
Q 19.671875 71.875 27.484375 71.875 
Q 33.25 71.875 37.59375 69.546875 
Q 41.9375 67.234375 44.765625 62.859375 
Q 47.609375 58.5 49.21875 52.21875 
Q 50.828125 45.953125 50.828125 35.296875 
Q 50.828125 22.703125 48.234375 14.96875 
Q 45.65625 7.234375 40.5 3 
Q 35.359375 -1.21875 27.484375 -1.21875 
Q 17.140625 -1.21875 11.234375 6.203125 
Q 4.15625 15.140625 4.15625 35.296875 
z
M 13.1875 35.296875 
Q 13.1875 17.671875 17.3125 11.828125 
Q 21.4375 6 27.484375 6 
Q 33.546875 6 37.671875 11.859375 
Q 41.796875 17.71875 41.796875 35.296875 
Q 41.796875 52.984375 37.671875 58.78125 
Q 33.546875 64.59375 27.390625 64.59375 
Q 21.34375 64.59375 17.71875 59.46875 
Q 13.1875 52.9375 13.1875 35.296875 
z
" id="ArialMT-30"/>
       <path d="M 37.25 0 
L 28.46875 0 
L 28.46875 56 
Q 25.296875 52.984375 20.140625 49.953125 
Q 14.984375 46.921875 10.890625 45.40625 
L 10.890625 53.90625 
Q 18.265625 57.375 23.78125 62.296875 
Q 29.296875 67.234375 31.59375 71.875 
L 37.25 71.875 
z
" id="ArialMT-31"/>
       <path d="M 49.75 54.046875 
L 41.015625 53.375 
Q 39.84375 58.546875 37.703125 60.890625 
Q 34.125 64.65625 28.90625 64.65625 
Q 24.703125 64.65625 21.53125 62.3125 
Q 17.390625 59.28125 14.984375 53.46875 
Q 12.59375 47.65625 12.5 36.921875 
Q 15.671875 41.75 20.265625 44.09375 
Q 24.859375 46.4375 29.890625 46.4375 
Q 38.671875 46.4375 44.84375 39.96875 
Q 51.03125 33.5 51.03125 23.25 
Q 51.03125 16.5 48.125 10.71875 
Q 45.21875 4.9375 40.140625 1.859375 
Q 35.0625 -1.21875 28.609375 -1.21875 
Q 17.625 -1.21875 10.6875 6.859375 
Q 3.765625 14.9375 3.765625 33.5 
Q 3.765625 54.25 11.421875 63.671875 
Q 18.109375 71.875 29.4375 71.875 
Q 37.890625 71.875 43.28125 67.140625 
Q 48.6875 62.40625 49.75 54.046875 
z
M 13.875 23.1875 
Q 13.875 18.65625 15.796875 14.5 
Q 17.71875 10.359375 21.1875 8.171875 
Q 24.65625 6 28.46875 6 
Q 34.03125 6 38.03125 10.484375 
Q 42.046875 14.984375 42.046875 22.703125 
Q 42.046875 30.125 38.078125 34.390625 
Q 34.125 38.671875 28.125 38.671875 
Q 22.171875 38.671875 18.015625 34.390625 
Q 13.875 30.125 13.875 23.1875 
z
" id="ArialMT-36"/>
      </defs>
      <g style="fill:#262626;" transform="translate(115.6122 204.881625)scale(0.12 -0.12)">
       <use xlink:href="#ArialMT-32"/>
       <use x="55.615234" xlink:href="#ArialMT-30"/>
       <use x="111.230469" xlink:href="#ArialMT-31"/>
       <use x="166.845703" xlink:href="#ArialMT-36"/>
      </g>
     </g>
    </g>
    <g id="xtick_2">
     <g id="line2d_3">
      <path clip-path="url(#p07c6d32ead)" d="M 212.799831 180.1 
L 212.799831 32.8 
" style="fill:none;stroke:#cccccc;stroke-linecap:round;stroke-width:0.8;"/>
     </g>
     <g id="line2d_4"/>
     <g id="text_2">
      <!-- Mar -->
      <defs>
       <path d="M 7.421875 0 
L 7.421875 71.578125 
L 21.6875 71.578125 
L 38.625 20.90625 
Q 40.96875 13.8125 42.046875 10.296875 
Q 43.265625 14.203125 45.84375 21.78125 
L 62.984375 71.578125 
L 75.734375 71.578125 
L 75.734375 0 
L 66.609375 0 
L 66.609375 59.90625 
L 45.796875 0 
L 37.25 0 
L 16.546875 60.9375 
L 16.546875 0 
z
" id="ArialMT-4d"/>
       <path d="M 40.4375 6.390625 
Q 35.546875 2.25 31.03125 0.53125 
Q 26.515625 -1.171875 21.34375 -1.171875 
Q 12.796875 -1.171875 8.203125 3 
Q 3.609375 7.171875 3.609375 13.671875 
Q 3.609375 17.484375 5.34375 20.625 
Q 7.078125 23.78125 9.890625 25.6875 
Q 12.703125 27.59375 16.21875 28.5625 
Q 18.796875 29.25 24.03125 29.890625 
Q 34.671875 31.15625 39.703125 32.90625 
Q 39.75 34.71875 39.75 35.203125 
Q 39.75 40.578125 37.25 42.78125 
Q 33.890625 45.75 27.25 45.75 
Q 21.046875 45.75 18.09375 43.578125 
Q 15.140625 41.40625 13.71875 35.890625 
L 5.125 37.0625 
Q 6.296875 42.578125 8.984375 45.96875 
Q 11.671875 49.359375 16.75 51.1875 
Q 21.828125 53.03125 28.515625 53.03125 
Q 35.15625 53.03125 39.296875 51.46875 
Q 43.453125 49.90625 45.40625 47.53125 
Q 47.359375 45.171875 48.140625 41.546875 
Q 48.578125 39.3125 48.578125 33.453125 
L 48.578125 21.734375 
Q 48.578125 9.46875 49.140625 6.21875 
Q 49.703125 2.984375 51.375 0 
L 42.1875 0 
Q 40.828125 2.734375 40.4375 6.390625 
z
M 39.703125 26.03125 
Q 34.90625 24.078125 25.34375 22.703125 
Q 19.921875 21.921875 17.671875 20.9375 
Q 15.4375 19.96875 14.203125 18.09375 
Q 12.984375 16.21875 12.984375 13.921875 
Q 12.984375 10.40625 15.640625 8.0625 
Q 18.3125 5.71875 23.4375 5.71875 
Q 28.515625 5.71875 32.46875 7.9375 
Q 36.421875 10.15625 38.28125 14.015625 
Q 39.703125 17 39.703125 22.796875 
z
" id="ArialMT-61"/>
       <path d="M 6.5 0 
L 6.5 51.859375 
L 14.40625 51.859375 
L 14.40625 44 
Q 17.4375 49.515625 20 51.265625 
Q 22.5625 53.03125 25.640625 53.03125 
Q 30.078125 53.03125 34.671875 50.203125 
L 31.640625 42.046875 
Q 28.421875 43.953125 25.203125 43.953125 
Q 22.3125 43.953125 20.015625 42.21875 
Q 17.71875 40.484375 16.75 37.40625 
Q 15.28125 32.71875 15.28125 27.15625 
L 15.28125 0 
z
" id="ArialMT-72"/>
      </defs>
      <g style="fill:#262626;" transform="translate(202.467643 192.189375)scale(0.12 -0.12)">
       <use xlink:href="#ArialMT-4d"/>
       <use x="83.300781" xlink:href="#ArialMT-61"/>
       <use x="138.916016" xlink:href="#ArialMT-72"/>
      </g>
     </g>
    </g>
    <g id="xtick_3">
     <g id="line2d_5">
      <path clip-path="url(#p07c6d32ead)" d="M 302.423376 180.1 
L 302.423376 32.8 
" style="fill:none;stroke:#cccccc;stroke-linecap:round;stroke-width:0.8;"/>
     </g>
     <g id="line2d_6"/>
     <g id="text_3">
      <!-- Apr -->
      <defs>
       <path d="M -0.140625 0 
L 27.34375 71.578125 
L 37.546875 71.578125 
L 66.84375 0 
L 56.0625 0 
L 47.703125 21.6875 
L 17.78125 21.6875 
L 9.90625 0 
z
M 20.515625 29.390625 
L 44.78125 29.390625 
L 37.3125 49.21875 
Q 33.890625 58.25 32.234375 64.0625 
Q 30.859375 57.171875 28.375 50.390625 
z
" id="ArialMT-41"/>
       <path d="M 6.59375 -19.875 
L 6.59375 51.859375 
L 14.59375 51.859375 
L 14.59375 45.125 
Q 17.4375 49.078125 21 51.046875 
Q 24.5625 53.03125 29.640625 53.03125 
Q 36.28125 53.03125 41.359375 49.609375 
Q 46.4375 46.1875 49.015625 39.953125 
Q 51.609375 33.734375 51.609375 26.3125 
Q 51.609375 18.359375 48.75 11.984375 
Q 45.90625 5.609375 40.453125 2.21875 
Q 35.015625 -1.171875 29 -1.171875 
Q 24.609375 -1.171875 21.109375 0.6875 
Q 17.625 2.546875 15.375 5.375 
L 15.375 -19.875 
z
M 14.546875 25.640625 
Q 14.546875 15.625 18.59375 10.84375 
Q 22.65625 6.0625 28.421875 6.0625 
Q 34.28125 6.0625 38.453125 11.015625 
Q 42.625 15.96875 42.625 26.375 
Q 42.625 36.28125 38.546875 41.203125 
Q 34.46875 46.140625 28.8125 46.140625 
Q 23.1875 46.140625 18.859375 40.890625 
Q 14.546875 35.640625 14.546875 25.640625 
z
" id="ArialMT-70"/>
      </defs>
      <g style="fill:#262626;" transform="translate(293.086814 192.189375)scale(0.12 -0.12)">
       <use xlink:href="#ArialMT-41"/>
       <use x="66.699219" xlink:href="#ArialMT-70"/>
       <use x="122.314453" xlink:href="#ArialMT-72"/>
      </g>
     </g>
    </g>
    <g id="xtick_4">
     <g id="line2d_7">
      <path clip-path="url(#p07c6d32ead)" d="M 389.155839 180.1 
L 389.155839 32.8 
" style="fill:none;stroke:#cccccc;stroke-linecap:round;stroke-width:0.8;"/>
     </g>
     <g id="line2d_8"/>
     <g id="text_4">
      <!-- May -->
      <defs>
       <path d="M 6.203125 -19.96875 
L 5.21875 -11.71875 
Q 8.109375 -12.5 10.25 -12.5 
Q 13.1875 -12.5 14.9375 -11.515625 
Q 16.703125 -10.546875 17.828125 -8.796875 
Q 18.65625 -7.46875 20.515625 -2.25 
Q 20.75 -1.515625 21.296875 -0.09375 
L 1.609375 51.859375 
L 11.078125 51.859375 
L 21.875 21.828125 
Q 23.96875 16.109375 25.640625 9.8125 
Q 27.15625 15.875 29.25 21.625 
L 40.328125 51.859375 
L 49.125 51.859375 
L 29.390625 -0.875 
Q 26.21875 -9.421875 24.46875 -12.640625 
Q 22.125 -17 19.09375 -19.015625 
Q 16.0625 -21.046875 11.859375 -21.046875 
Q 9.328125 -21.046875 6.203125 -19.96875 
z
" id="ArialMT-79"/>
      </defs>
      <g style="fill:#262626;" transform="translate(377.821464 192.189375)scale(0.12 -0.12)">
       <use xlink:href="#ArialMT-4d"/>
       <use x="83.300781" xlink:href="#ArialMT-61"/>
       <use x="138.916016" xlink:href="#ArialMT-79"/>
      </g>
     </g>
    </g>
    <g id="xtick_5">
     <g id="line2d_9">
      <path clip-path="url(#p07c6d32ead)" d="M 478.779384 180.1 
L 478.779384 32.8 
" style="fill:none;stroke:#cccccc;stroke-linecap:round;stroke-width:0.8;"/>
     </g>
     <g id="line2d_10"/>
     <g id="text_5">
      <!-- Jun -->
      <defs>
       <path d="M 2.875 20.3125 
L 11.421875 21.484375 
Q 11.765625 13.28125 14.5 10.25 
Q 17.234375 7.234375 22.078125 7.234375 
Q 25.640625 7.234375 28.21875 8.859375 
Q 30.8125 10.5 31.78125 13.296875 
Q 32.765625 16.109375 32.765625 22.265625 
L 32.765625 71.578125 
L 42.234375 71.578125 
L 42.234375 22.796875 
Q 42.234375 13.8125 40.0625 8.875 
Q 37.890625 3.953125 33.171875 1.359375 
Q 28.46875 -1.21875 22.125 -1.21875 
Q 12.703125 -1.21875 7.6875 4.203125 
Q 2.6875 9.625 2.875 20.3125 
z
" id="ArialMT-4a"/>
       <path d="M 40.578125 0 
L 40.578125 7.625 
Q 34.515625 -1.171875 24.125 -1.171875 
Q 19.53125 -1.171875 15.546875 0.578125 
Q 11.578125 2.34375 9.640625 5 
Q 7.71875 7.671875 6.9375 11.53125 
Q 6.390625 14.109375 6.390625 19.734375 
L 6.390625 51.859375 
L 15.1875 51.859375 
L 15.1875 23.09375 
Q 15.1875 16.21875 15.71875 13.8125 
Q 16.546875 10.359375 19.234375 8.375 
Q 21.921875 6.390625 25.875 6.390625 
Q 29.828125 6.390625 33.296875 8.421875 
Q 36.765625 10.453125 38.203125 13.9375 
Q 39.65625 17.4375 39.65625 24.078125 
L 39.65625 51.859375 
L 48.4375 51.859375 
L 48.4375 0 
z
" id="ArialMT-75"/>
       <path d="M 6.59375 0 
L 6.59375 51.859375 
L 14.5 51.859375 
L 14.5 44.484375 
Q 20.21875 53.03125 31 53.03125 
Q 35.6875 53.03125 39.625 51.34375 
Q 43.5625 49.65625 45.515625 46.921875 
Q 47.46875 44.1875 48.25 40.4375 
Q 48.734375 37.984375 48.734375 31.890625 
L 48.734375 0 
L 39.9375 0 
L 39.9375 31.546875 
Q 39.9375 36.921875 38.90625 39.578125 
Q 37.890625 42.234375 35.28125 43.8125 
Q 32.671875 45.40625 29.15625 45.40625 
Q 23.53125 45.40625 19.453125 41.84375 
Q 15.375 38.28125 15.375 28.328125 
L 15.375 0 
z
" id="ArialMT-6e"/>
      </defs>
      <g style="fill:#262626;" transform="translate(469.106259 192.189375)scale(0.12 -0.12)">
       <use xlink:href="#ArialMT-4a"/>
       <use x="50" xlink:href="#ArialMT-75"/>
       <use x="105.615234" xlink:href="#ArialMT-6e"/>
      </g>
     </g>
    </g>
    <g id="xtick_6">
     <g id="line2d_11">
      <path clip-path="url(#p07c6d32ead)" d="M 565.511847 180.1 
L 565.511847 32.8 
" style="fill:none;stroke:#cccccc;stroke-linecap:round;stroke-width:0.8;"/>
     </g>
     <g id="line2d_12"/>
     <g id="text_6">
      <!-- Jul -->
      <defs>
       <path d="M 6.390625 0 
L 6.390625 71.578125 
L 15.1875 71.578125 
L 15.1875 0 
z
" id="ArialMT-6c"/>
      </defs>
      <g style="fill:#262626;" transform="translate(557.84216 192.189375)scale(0.12 -0.12)">
       <use xlink:href="#ArialMT-4a"/>
       <use x="50" xlink:href="#ArialMT-75"/>
       <use x="105.615234" xlink:href="#ArialMT-6c"/>
      </g>
     </g>
    </g>
    <g id="xtick_7">
     <g id="line2d_13">
      <path clip-path="url(#p07c6d32ead)" d="M 655.135392 180.1 
L 655.135392 32.8 
" style="fill:none;stroke:#cccccc;stroke-linecap:round;stroke-width:0.8;"/>
     </g>
     <g id="line2d_14"/>
     <g id="text_7">
      <!-- Aug -->
      <defs>
       <path d="M 4.984375 -4.296875 
L 13.53125 -5.5625 
Q 14.0625 -9.515625 16.5 -11.328125 
Q 19.78125 -13.765625 25.4375 -13.765625 
Q 31.546875 -13.765625 34.859375 -11.328125 
Q 38.1875 -8.890625 39.359375 -4.5 
Q 40.046875 -1.8125 39.984375 6.78125 
Q 34.234375 0 25.640625 0 
Q 14.9375 0 9.078125 7.71875 
Q 3.21875 15.4375 3.21875 26.21875 
Q 3.21875 33.640625 5.90625 39.90625 
Q 8.59375 46.1875 13.6875 49.609375 
Q 18.796875 53.03125 25.6875 53.03125 
Q 34.859375 53.03125 40.828125 45.609375 
L 40.828125 51.859375 
L 48.921875 51.859375 
L 48.921875 7.03125 
Q 48.921875 -5.078125 46.453125 -10.125 
Q 44 -15.1875 38.640625 -18.109375 
Q 33.296875 -21.046875 25.484375 -21.046875 
Q 16.21875 -21.046875 10.5 -16.875 
Q 4.78125 -12.703125 4.984375 -4.296875 
z
M 12.25 26.859375 
Q 12.25 16.65625 16.296875 11.96875 
Q 20.359375 7.28125 26.46875 7.28125 
Q 32.515625 7.28125 36.609375 11.9375 
Q 40.71875 16.609375 40.71875 26.5625 
Q 40.71875 36.078125 36.5 40.90625 
Q 32.28125 45.75 26.3125 45.75 
Q 20.453125 45.75 16.34375 40.984375 
Q 12.25 36.234375 12.25 26.859375 
z
" id="ArialMT-67"/>
      </defs>
      <g style="fill:#262626;" transform="translate(644.46008 192.189375)scale(0.12 -0.12)">
       <use xlink:href="#ArialMT-41"/>
       <use x="66.699219" xlink:href="#ArialMT-75"/>
       <use x="122.314453" xlink:href="#ArialMT-67"/>
      </g>
     </g>
    </g>
    <g id="xtick_8">
     <g id="line2d_15">
      <path clip-path="url(#p07c6d32ead)" d="M 744.758938 180.1 
L 744.758938 32.8 
" style="fill:none;stroke:#cccccc;stroke-linecap:round;stroke-width:0.8;"/>
     </g>
     <g id="line2d_16"/>
     <g id="text_8">
      <!-- Sep -->
      <defs>
       <path d="M 4.5 23 
L 13.421875 23.78125 
Q 14.0625 18.40625 16.375 14.96875 
Q 18.703125 11.53125 23.578125 9.40625 
Q 28.46875 7.28125 34.578125 7.28125 
Q 39.984375 7.28125 44.140625 8.890625 
Q 48.296875 10.5 50.3125 13.296875 
Q 52.34375 16.109375 52.34375 19.4375 
Q 52.34375 22.796875 50.390625 25.3125 
Q 48.4375 27.828125 43.953125 29.546875 
Q 41.0625 30.671875 31.203125 33.03125 
Q 21.34375 35.40625 17.390625 37.5 
Q 12.25 40.1875 9.734375 44.15625 
Q 7.234375 48.140625 7.234375 53.078125 
Q 7.234375 58.5 10.296875 63.203125 
Q 13.375 67.921875 19.28125 70.359375 
Q 25.203125 72.796875 32.421875 72.796875 
Q 40.375 72.796875 46.453125 70.234375 
Q 52.546875 67.671875 55.8125 62.6875 
Q 59.078125 57.71875 59.328125 51.421875 
L 50.25 50.734375 
Q 49.515625 57.515625 45.28125 60.984375 
Q 41.0625 64.453125 32.8125 64.453125 
Q 24.21875 64.453125 20.28125 61.296875 
Q 16.359375 58.15625 16.359375 53.71875 
Q 16.359375 49.859375 19.140625 47.359375 
Q 21.875 44.875 33.421875 42.265625 
Q 44.96875 39.65625 49.265625 37.703125 
Q 55.515625 34.8125 58.484375 30.390625 
Q 61.46875 25.984375 61.46875 20.21875 
Q 61.46875 14.5 58.203125 9.4375 
Q 54.9375 4.390625 48.796875 1.578125 
Q 42.671875 -1.21875 35.015625 -1.21875 
Q 25.296875 -1.21875 18.71875 1.609375 
Q 12.15625 4.4375 8.421875 10.125 
Q 4.6875 15.828125 4.5 23 
z
" id="ArialMT-53"/>
      </defs>
      <g style="fill:#262626;" transform="translate(734.083625 192.335625)scale(0.12 -0.12)">
       <use xlink:href="#ArialMT-53"/>
       <use x="66.699219" xlink:href="#ArialMT-65"/>
       <use x="122.314453" xlink:href="#ArialMT-70"/>
      </g>
     </g>
    </g>
    <g id="xtick_9">
     <g id="line2d_17">
      <path clip-path="url(#p07c6d32ead)" d="M 831.491401 180.1 
L 831.491401 32.8 
" style="fill:none;stroke:#cccccc;stroke-linecap:round;stroke-width:0.8;"/>
     </g>
     <g id="line2d_18"/>
     <g id="text_9">
      <!-- Oct -->
      <defs>
       <path d="M 4.828125 34.859375 
Q 4.828125 52.6875 14.390625 62.765625 
Q 23.96875 72.859375 39.109375 72.859375 
Q 49.03125 72.859375 56.984375 68.109375 
Q 64.9375 63.375 69.109375 54.90625 
Q 73.296875 46.4375 73.296875 35.6875 
Q 73.296875 24.8125 68.890625 16.21875 
Q 64.5 7.625 56.4375 3.203125 
Q 48.390625 -1.21875 39.0625 -1.21875 
Q 28.953125 -1.21875 20.984375 3.65625 
Q 13.03125 8.546875 8.921875 16.984375 
Q 4.828125 25.4375 4.828125 34.859375 
z
M 14.59375 34.71875 
Q 14.59375 21.78125 21.546875 14.328125 
Q 28.515625 6.890625 39.015625 6.890625 
Q 49.703125 6.890625 56.609375 14.40625 
Q 63.53125 21.921875 63.53125 35.75 
Q 63.53125 44.484375 60.578125 51 
Q 57.625 57.515625 51.921875 61.109375 
Q 46.234375 64.703125 39.15625 64.703125 
Q 29.109375 64.703125 21.84375 57.78125 
Q 14.59375 50.875 14.59375 34.71875 
z
" id="ArialMT-4f"/>
       <path d="M 40.4375 19 
L 49.078125 17.875 
Q 47.65625 8.9375 41.8125 3.875 
Q 35.984375 -1.171875 27.484375 -1.171875 
Q 16.84375 -1.171875 10.375 5.78125 
Q 3.90625 12.75 3.90625 25.734375 
Q 3.90625 34.125 6.6875 40.421875 
Q 9.46875 46.734375 15.15625 49.875 
Q 20.84375 53.03125 27.546875 53.03125 
Q 35.984375 53.03125 41.359375 48.75 
Q 46.734375 44.484375 48.25 36.625 
L 39.703125 35.296875 
Q 38.484375 40.53125 35.375 43.15625 
Q 32.28125 45.796875 27.875 45.796875 
Q 21.234375 45.796875 17.078125 41.03125 
Q 12.9375 36.28125 12.9375 25.984375 
Q 12.9375 15.53125 16.9375 10.796875 
Q 20.953125 6.0625 27.390625 6.0625 
Q 32.5625 6.0625 36.03125 9.234375 
Q 39.5 12.40625 40.4375 19 
z
" id="ArialMT-63"/>
       <path d="M 25.78125 7.859375 
L 27.046875 0.09375 
Q 23.34375 -0.6875 20.40625 -0.6875 
Q 15.625 -0.6875 12.984375 0.828125 
Q 10.359375 2.34375 9.28125 4.8125 
Q 8.203125 7.28125 8.203125 15.1875 
L 8.203125 45.015625 
L 1.765625 45.015625 
L 1.765625 51.859375 
L 8.203125 51.859375 
L 8.203125 64.703125 
L 16.9375 69.96875 
L 16.9375 51.859375 
L 25.78125 51.859375 
L 25.78125 45.015625 
L 16.9375 45.015625 
L 16.9375 14.703125 
Q 16.9375 10.9375 17.40625 9.859375 
Q 17.875 8.796875 18.921875 8.15625 
Q 19.96875 7.515625 21.921875 7.515625 
Q 23.390625 7.515625 25.78125 7.859375 
z
" id="ArialMT-74"/>
      </defs>
      <g style="fill:#262626;" transform="translate(822.157651 192.189375)scale(0.12 -0.12)">
       <use xlink:href="#ArialMT-4f"/>
       <use x="77.783203" xlink:href="#ArialMT-63"/>
       <use x="127.783203" xlink:href="#ArialMT-74"/>
      </g>
     </g>
    </g>
    <g id="xtick_10">
     <g id="line2d_19">
      <path clip-path="url(#p07c6d32ead)" d="M 921.114946 180.1 
L 921.114946 32.8 
" style="fill:none;stroke:#cccccc;stroke-linecap:round;stroke-width:0.8;"/>
     </g>
     <g id="line2d_20"/>
     <g id="text_10">
      <!-- Nov -->
      <defs>
       <path d="M 7.625 0 
L 7.625 71.578125 
L 17.328125 71.578125 
L 54.9375 15.375 
L 54.9375 71.578125 
L 64.015625 71.578125 
L 64.015625 0 
L 54.296875 0 
L 16.703125 56.25 
L 16.703125 0 
z
" id="ArialMT-4e"/>
       <path d="M 3.328125 25.921875 
Q 3.328125 40.328125 11.328125 47.265625 
Q 18.015625 53.03125 27.640625 53.03125 
Q 38.328125 53.03125 45.109375 46.015625 
Q 51.90625 39.015625 51.90625 26.65625 
Q 51.90625 16.65625 48.90625 10.90625 
Q 45.90625 5.171875 40.15625 2 
Q 34.421875 -1.171875 27.640625 -1.171875 
Q 16.75 -1.171875 10.03125 5.8125 
Q 3.328125 12.796875 3.328125 25.921875 
z
M 12.359375 25.921875 
Q 12.359375 15.96875 16.703125 11.015625 
Q 21.046875 6.0625 27.640625 6.0625 
Q 34.1875 6.0625 38.53125 11.03125 
Q 42.875 16.015625 42.875 26.21875 
Q 42.875 35.84375 38.5 40.796875 
Q 34.125 45.75 27.640625 45.75 
Q 21.046875 45.75 16.703125 40.8125 
Q 12.359375 35.890625 12.359375 25.921875 
z
" id="ArialMT-6f"/>
       <path d="M 21 0 
L 1.265625 51.859375 
L 10.546875 51.859375 
L 21.6875 20.796875 
Q 23.484375 15.765625 25 10.359375 
Q 26.171875 14.453125 28.265625 20.21875 
L 39.796875 51.859375 
L 48.828125 51.859375 
L 29.203125 0 
z
" id="ArialMT-76"/>
      </defs>
      <g style="fill:#262626;" transform="translate(910.445258 192.189375)scale(0.12 -0.12)">
       <use xlink:href="#ArialMT-4e"/>
       <use x="72.216797" xlink:href="#ArialMT-6f"/>
       <use x="127.832031" xlink:href="#ArialMT-76"/>
      </g>
     </g>
    </g>
    <g id="xtick_11">
     <g id="line2d_21">
      <path clip-path="url(#p07c6d32ead)" d="M 958.699013 180.1 
L 958.699013 32.8 
" style="fill:none;stroke:#cccccc;stroke-linecap:round;stroke-width:0.8;"/>
     </g>
     <g id="line2d_22"/>
    </g>
    <g id="xtick_12">
     <g id="line2d_23"/>
    </g>
    <g id="xtick_13">
     <g id="line2d_24"/>
    </g>
    <g id="xtick_14">
     <g id="line2d_25"/>
    </g>
    <g id="xtick_15">
     <g id="line2d_26"/>
    </g>
    <g id="xtick_16">
     <g id="line2d_27"/>
    </g>
    <g id="xtick_17">
     <g id="line2d_28"/>
    </g>
    <g id="xtick_18">
     <g id="line2d_29"/>
    </g>
    <g id="xtick_19">
     <g id="line2d_30"/>
    </g>
    <g id="xtick_20">
     <g id="line2d_31"/>
    </g>
    <g id="xtick_21">
     <g id="line2d_32"/>
    </g>
    <g id="xtick_22">
     <g id="line2d_33"/>
    </g>
    <g id="xtick_23">
     <g id="line2d_34"/>
    </g>
    <g id="xtick_24">
     <g id="line2d_35"/>
    </g>
    <g id="xtick_25">
     <g id="line2d_36"/>
    </g>
    <g id="xtick_26">
     <g id="line2d_37"/>
    </g>
    <g id="xtick_27">
     <g id="line2d_38"/>
    </g>
    <g id="xtick_28">
     <g id="line2d_39"/>
    </g>
    <g id="xtick_29">
     <g id="line2d_40"/>
    </g>
    <g id="xtick_30">
     <g id="line2d_41"/>
    </g>
    <g id="xtick_31">
     <g id="line2d_42"/>
    </g>
    <g id="xtick_32">
     <g id="line2d_43"/>
    </g>
    <g id="xtick_33">
     <g id="line2d_44"/>
    </g>
    <g id="xtick_34">
     <g id="line2d_45"/>
    </g>
    <g id="xtick_35">
     <g id="line2d_46"/>
    </g>
    <g id="xtick_36">
     <g id="line2d_47"/>
    </g>
    <g id="xtick_37">
     <g id="line2d_48"/>
    </g>
    <g id="xtick_38">
     <g id="line2d_49"/>
    </g>
    <g id="xtick_39">
     <g id="line2d_50"/>
    </g>
    <g id="xtick_40">
     <g id="line2d_51"/>
    </g>
    <g id="xtick_41">
     <g id="line2d_52"/>
    </g>
    <g id="xtick_42">
     <g id="line2d_53"/>
    </g>
    <g id="xtick_43">
     <g id="line2d_54"/>
    </g>
    <g id="xtick_44">
     <g id="line2d_55"/>
    </g>
    <g id="xtick_45">
     <g id="line2d_56"/>
    </g>
    <g id="xtick_46">
     <g id="line2d_57"/>
    </g>
    <g id="xtick_47">
     <g id="line2d_58"/>
    </g>
    <g id="xtick_48">
     <g id="line2d_59"/>
    </g>
    <g id="xtick_49">
     <g id="line2d_60"/>
    </g>
    <g id="xtick_50">
     <g id="line2d_61"/>
    </g>
    <g id="xtick_51">
     <g id="line2d_62"/>
    </g>
    <g id="xtick_52">
     <g id="line2d_63"/>
    </g>
    <g id="xtick_53">
     <g id="line2d_64"/>
    </g>
    <g id="xtick_54">
     <g id="line2d_65"/>
    </g>
    <g id="xtick_55">
     <g id="line2d_66"/>
    </g>
   </g>
   <g id="matplotlib.axis_2">
    <g id="ytick_1">
     <g id="line2d_67">
      <path clip-path="url(#p07c6d32ead)" d="M 40.925 180.1 
L 960 180.1 
" style="fill:none;stroke:#cccccc;stroke-linecap:round;stroke-width:0.8;"/>
     </g>
     <g id="line2d_68"/>
     <g id="text_11">
      <!-- 0 -->
      <g style="fill:#262626;" transform="translate(30.751875 184.394688)scale(0.12 -0.12)">
       <use xlink:href="#ArialMT-30"/>
      </g>
     </g>
    </g>
    <g id="ytick_2">
     <g id="line2d_69">
      <path clip-path="url(#p07c6d32ead)" d="M 40.925 143.275 
L 960 143.275 
" style="fill:none;stroke:#cccccc;stroke-linecap:round;stroke-width:0.8;"/>
     </g>
     <g id="line2d_70"/>
     <g id="text_12">
      <!-- 500 -->
      <defs>
       <path d="M 4.15625 18.75 
L 13.375 19.53125 
Q 14.40625 12.796875 18.140625 9.390625 
Q 21.875 6 27.15625 6 
Q 33.5 6 37.890625 10.78125 
Q 42.28125 15.578125 42.28125 23.484375 
Q 42.28125 31 38.0625 35.34375 
Q 33.84375 39.703125 27 39.703125 
Q 22.75 39.703125 19.328125 37.765625 
Q 15.921875 35.84375 13.96875 32.765625 
L 5.71875 33.84375 
L 12.640625 70.609375 
L 48.25 70.609375 
L 48.25 62.203125 
L 19.671875 62.203125 
L 15.828125 42.96875 
Q 22.265625 47.46875 29.34375 47.46875 
Q 38.71875 47.46875 45.15625 40.96875 
Q 51.609375 34.46875 51.609375 24.265625 
Q 51.609375 14.546875 45.953125 7.46875 
Q 39.0625 -1.21875 27.15625 -1.21875 
Q 17.390625 -1.21875 11.203125 4.25 
Q 5.03125 9.71875 4.15625 18.75 
z
" id="ArialMT-35"/>
      </defs>
      <g style="fill:#262626;" transform="translate(17.405625 147.569687)scale(0.12 -0.12)">
       <use xlink:href="#ArialMT-35"/>
       <use x="55.615234" xlink:href="#ArialMT-30"/>
       <use x="111.230469" xlink:href="#ArialMT-30"/>
      </g>
     </g>
    </g>
    <g id="ytick_3">
     <g id="line2d_71">
      <path clip-path="url(#p07c6d32ead)" d="M 40.925 106.45 
L 960 106.45 
" style="fill:none;stroke:#cccccc;stroke-linecap:round;stroke-width:0.8;"/>
     </g>
     <g id="line2d_72"/>
     <g id="text_13">
      <!-- 1000 -->
      <g style="fill:#262626;" transform="translate(10.7325 110.744687)scale(0.12 -0.12)">
       <use xlink:href="#ArialMT-31"/>
       <use x="55.615234" xlink:href="#ArialMT-30"/>
       <use x="111.230469" xlink:href="#ArialMT-30"/>
       <use x="166.845703" xlink:href="#ArialMT-30"/>
      </g>
     </g>
    </g>
    <g id="ytick_4">
     <g id="line2d_73">
      <path clip-path="url(#p07c6d32ead)" d="M 40.925 69.625 
L 960 69.625 
" style="fill:none;stroke:#cccccc;stroke-linecap:round;stroke-width:0.8;"/>
     </g>
     <g id="line2d_74"/>
     <g id="text_14">
      <!-- 1500 -->
      <g style="fill:#262626;" transform="translate(10.7325 73.919688)scale(0.12 -0.12)">
       <use xlink:href="#ArialMT-31"/>
       <use x="55.615234" xlink:href="#ArialMT-35"/>
       <use x="111.230469" xlink:href="#ArialMT-30"/>
       <use x="166.845703" xlink:href="#ArialMT-30"/>
      </g>
     </g>
    </g>
    <g id="ytick_5">
     <g id="line2d_75">
      <path clip-path="url(#p07c6d32ead)" d="M 40.925 32.8 
L 960 32.8 
" style="fill:none;stroke:#cccccc;stroke-linecap:round;stroke-width:0.8;"/>
     </g>
     <g id="line2d_76"/>
     <g id="text_15">
      <!-- 2000 -->
      <g style="fill:#262626;" transform="translate(10.7325 37.094688)scale(0.12 -0.12)">
       <use xlink:href="#ArialMT-32"/>
       <use x="55.615234" xlink:href="#ArialMT-30"/>
       <use x="111.230469" xlink:href="#ArialMT-30"/>
       <use x="166.845703" xlink:href="#ArialMT-30"/>
      </g>
     </g>
    </g>
   </g>
   <g id="line2d_77">
    <path clip-path="url(#p07c6d32ead)" d="M 82.701136 162.095389 
L 85.592218 144.217672 
L 88.483301 137.376669 
L 91.374383 124.703784 
L 94.265465 123.308421 
L 97.156547 128.633828 
L 100.047629 145.315945 
L 102.938711 159.295546 
L 105.829793 148.285719 
L 108.720875 137.862327 
L 111.611957 132.278484 
L 114.503039 132.842955 
L 117.394122 137.39027 
L 120.285204 151.227645 
L 123.176286 158.64722 
L 126.067368 138.590546 
L 128.95845 134.1004 
L 131.849532 136.755025 
L 134.740614 142.694983 
L 137.631696 140.700288 
L 140.522778 153.364756 
L 143.41386 142.050082 
L 146.304943 140.290421 
L 149.196025 132.630058 
L 152.087107 128.51525 
L 154.978189 128.347214 
L 157.869271 136.931035 
L 160.760353 137.034572 
L 163.651435 158.897079 
L 166.542517 156.433966 
L 169.433599 125.524382 
L 172.324682 161.587508 
L 175.215764 133.008056 
L 178.106846 134.880122 
L 180.997928 150.681632 
L 183.88901 160.578265 
L 189.671174 136.860426 
L 192.562256 131.163651 
L 195.453338 126.707198 
L 198.34442 139.353956 
L 201.235503 149.769285 
L 204.126585 160.775389 
L 207.017667 136.913196 
L 209.908749 128.197058 
L 212.799831 130.803086 
L 215.690913 127.492924 
L 218.581995 130.89707 
L 221.473077 148.504787 
L 224.364159 156.397615 
L 227.255241 137.87468 
L 230.146324 132.162397 
L 233.037406 121.719826 
L 235.928488 130.997522 
L 238.81957 137.149518 
L 241.710652 149.123506 
L 244.601734 155.562976 
L 247.492816 131.090733 
L 250.383898 129.536435 
L 253.27498 131.356221 
L 256.166062 138.678215 
L 259.057145 136.621149 
L 261.573995 217 
M 262.384812 217 
L 264.839309 149.807895 
L 267.730391 128.819794 
L 270.621473 121.42711 
L 273.512555 130.124925 
L 276.403637 128.20382 
L 279.294719 134.20112 
L 282.185801 147.384169 
L 285.076883 143.128074 
L 287.967966 130.138125 
L 290.859048 121.51743 
L 293.75013 117.617247 
L 296.641212 125.363681 
L 299.532294 148.740342 
L 302.423376 115.855808 
L 305.314458 149.503654 
L 308.20554 139.072248 
L 311.096622 142.593508 
L 313.987704 129.907417 
L 316.878787 137.07469 
L 319.769869 137.7146 
L 322.660951 148.162652 
L 325.552033 152.408303 
L 328.443115 131.333837 
L 331.334197 130.842482 
L 334.225279 132.789707 
L 337.116361 126.997923 
L 340.007443 130.080294 
L 342.898525 144.704816 
L 345.789608 154.173394 
L 348.68069 133.616001 
L 351.571772 130.515447 
L 354.462854 133.673634 
L 357.353936 131.389807 
L 360.245018 139.458591 
L 363.1361 153.188351 
L 366.027182 161.025533 
L 368.918264 129.464228 
L 371.809346 115.143487 
L 374.700429 125.50561 
L 377.591511 125.810024 
L 380.482593 128.294985 
L 383.373675 142.01567 
L 386.264757 144.330067 
L 389.155839 128.321377 
L 392.046921 124.110944 
L 394.938003 126.824606 
L 397.829085 133.726338 
L 400.720168 144.746161 
L 403.61125 148.151743 
L 406.502332 161.138544 
L 409.393414 134.091854 
L 412.284496 122.395706 
L 415.175578 130.091998 
L 418.06666 137.157689 
L 420.957742 118.828021 
L 423.848824 108.711042 
L 426.739906 153.04762 
L 429.630989 127.561196 
L 431.943831 -1 
M 433.148809 -1 
L 435.413153 115.125664 
L 438.304235 98.991435 
L 441.195317 104.602671 
L 444.086399 123.573658 
L 446.977481 136.108527 
L 449.868563 103.55016 
L 452.759645 93.028403 
L 455.650727 103.296731 
L 458.54181 103.250964 
L 461.432892 159.734884 
L 464.323974 129.933357 
L 467.215056 123.854231 
L 470.106138 121.841713 
L 472.99722 114.762931 
L 475.888302 131.652735 
L 478.779384 81.75515 
L 481.670466 89.093398 
L 484.561548 97.012477 
L 487.452631 127.618073 
L 490.343713 125.314915 
L 493.234795 100.608947 
L 496.125877 102.137489 
L 499.016959 95.712653 
L 501.908041 90.736794 
L 504.799123 116.918576 
L 507.690205 116.10652 
L 510.581287 84.758888 
L 513.472369 91.872334 
L 516.363452 73.567676 
L 519.254534 79.129849 
L 522.145616 73.522789 
L 525.036698 116.33041 
L 527.92778 142.515082 
L 530.818862 86.788353 
L 533.709944 91.865798 
L 536.601026 109.859202 
L 539.492108 97.07027 
L 542.38319 103.62879 
L 545.274273 130.550263 
L 548.165355 142.02434 
L 551.056437 118.041019 
L 553.947519 129.376334 
L 556.838601 106.67615 
L 559.729683 116.492588 
L 562.620765 90.083158 
L 565.511847 109.719128 
L 568.402929 137.387799 
L 571.294011 118.597238 
L 574.185094 125.696895 
L 577.076176 125.392855 
L 579.967258 119.873106 
L 582.85834 130.290282 
L 585.749422 135.84953 
L 588.640504 137.43953 
L 591.531586 136.137001 
L 594.422668 141.672908 
L 597.31375 136.992642 
L 600.204832 128.936991 
L 603.095915 131.315927 
L 605.986997 147.536723 
L 608.878079 143.419389 
L 611.769161 146.009184 
L 614.660243 140.313344 
L 617.551325 141.593159 
L 620.442407 143.004934 
L 623.333489 144.68012 
L 629.115654 152.915248 
L 632.006736 149.332323 
L 634.897818 145.103453 
L 637.7889 144.557999 
L 640.679982 137.606502 
L 643.571064 136.725155 
L 646.462146 151.211783 
L 649.353228 152.111929 
L 652.24431 143.079696 
L 655.135392 142.914369 
L 658.026475 137.471608 
L 663.808639 145.171087 
L 666.699721 153.431884 
L 669.590803 171.460844 
L 672.481885 159.651828 
L 675.372967 155.780315 
L 678.264049 130.001818 
L 681.155131 139.603083 
L 684.046213 141.159267 
L 686.937296 159.837407 
L 689.828378 171.115651 
L 692.71946 142.453529 
L 695.610542 200.982251 
L 698.501624 113.986568 
L 701.392706 126.203258 
L 704.283788 133.647691 
L 707.17487 146.499374 
L 710.065952 151.768236 
L 712.957034 100.625377 
L 715.848117 131.289172 
L 718.739199 117.381846 
L 721.630281 123.555585 
L 724.521363 127.932123 
L 727.412445 150.801072 
L 730.303527 152.549153 
L 733.194609 129.201473 
L 736.085691 118.974343 
L 738.976773 103.392876 
L 741.867855 113.273453 
L 744.758938 119.74588 
L 747.65002 146.244128 
L 750.541102 144.038183 
L 753.432184 122.224597 
L 756.323266 119.521151 
L 759.214348 119.276498 
L 762.10543 116.260552 
L 763.308194 -1 
M 766.469676 -1 
L 767.887594 157.425817 
L 770.778676 169.757043 
L 773.669759 158.514518 
L 776.560841 134.891785 
L 779.451923 104.469446 
L 782.343005 115.253771 
L 785.234087 116.793919 
L 788.125169 136.435784 
L 791.016251 133.763105 
L 793.907333 115.528146 
L 796.798415 102.476253 
L 799.689497 102.093911 
L 802.58058 106.913469 
L 805.471662 111.985985 
L 808.362744 133.813084 
L 811.253826 135.195362 
L 814.144908 123.282346 
L 817.03599 114.766001 
L 819.927072 110.078827 
L 822.818154 113.806823 
L 825.709236 122.315479 
L 828.600318 138.761675 
L 831.491401 138.985795 
L 834.382483 121.212501 
L 837.273565 114.022756 
L 840.164647 114.12903 
L 843.055729 123.850949 
L 845.946811 117.552492 
L 848.837893 138.957057 
L 851.728975 143.916092 
L 854.620057 114.179927 
L 857.51114 111.716349 
L 860.402222 118.079709 
L 863.293304 127.50234 
L 866.184386 123.134406 
L 869.075468 146.963392 
L 871.96655 146.954599 
L 874.857632 126.486725 
L 877.748714 121.416772 
L 880.639796 120.478945 
L 883.530878 125.864474 
L 886.421961 138.819085 
L 889.313043 149.077725 
L 892.204125 153.4456 
L 895.095207 123.279513 
L 897.986289 120.022844 
L 900.877371 127.520721 
L 903.768453 120.314199 
L 906.659535 124.757592 
L 909.550617 150.240861 
L 912.441699 165.127098 
L 915.332782 121.17252 
L 918.223864 122.502466 
L 918.223864 122.502466 
" style="fill:none;stroke:#4c72b0;stroke-linecap:round;stroke-opacity:0.8;stroke-width:1.5;"/>
   </g>
   <g id="line2d_78">
    <path clip-path="url(#p07c6d32ead)" d="M 82.701136 157.855473 
L 85.592218 140.658403 
L 88.483301 137.397634 
L 91.374383 120.458629 
L 94.265465 132.976771 
L 97.156547 126.482054 
L 100.047629 138.007363 
L 102.938711 152.831552 
L 105.829793 146.304316 
L 108.720875 141.213393 
L 111.611957 132.426032 
L 114.503039 132.685458 
L 117.394122 137.275539 
L 120.285204 150.973739 
L 123.176286 158.340503 
L 126.067368 140.519208 
L 128.95845 132.681183 
L 131.849532 134.342955 
L 134.740614 140.333246 
L 137.631696 139.718899 
L 140.522778 153.395938 
L 143.41386 155.858067 
L 146.304943 158.602001 
L 149.196025 131.746428 
L 152.087107 127.449826 
L 154.978189 126.036494 
L 157.869271 169.420099 
L 160.760353 148.769843 
L 163.651435 156.516831 
L 166.542517 131.570461 
L 169.433599 123.063927 
L 172.324682 134.340701 
L 175.215764 132.582741 
L 178.106846 136.575509 
L 180.997928 145.83121 
L 183.88901 158.658877 
L 186.780092 145.609835 
L 189.671174 137.130028 
L 195.453338 124.912544 
L 198.34442 139.013939 
L 204.126585 159.775772 
L 207.017667 136.777098 
L 209.908749 128.081744 
L 212.799831 130.451928 
L 215.690913 126.727161 
L 218.581995 130.867751 
L 221.473077 146.314663 
L 224.364159 152.752183 
L 227.255241 137.563446 
L 230.146324 129.825818 
L 233.037406 120.246846 
L 235.928488 130.847367 
L 238.81957 138.521224 
L 241.710652 155.104072 
L 244.601734 154.225686 
L 247.492816 130.477369 
L 250.383898 129.406642 
L 253.27498 131.276297 
L 256.166062 138.37592 
L 259.057145 125.105509 
L 261.948227 148.265063 
L 264.839309 154.098953 
L 267.730391 133.741291 
L 270.621473 123.90777 
L 273.512555 129.86084 
L 276.403637 127.593948 
L 279.294719 134.168835 
L 282.185801 147.693562 
L 285.076883 142.566656 
L 287.967966 122.998438 
L 290.859048 115.469261 
L 293.75013 109.946248 
L 299.532294 150.700843 
L 302.423376 171.198763 
L 305.314458 144.280979 
L 308.20554 120.269001 
L 311.096622 137.844802 
L 313.987704 127.494311 
L 316.878787 133.716078 
L 319.769869 135.840458 
L 322.660951 149.760419 
L 325.552033 152.59718 
L 328.443115 131.579558 
L 331.334197 130.402549 
L 334.225279 132.64215 
L 337.116361 126.764411 
L 340.007443 129.401882 
L 342.898525 142.998913 
L 345.789608 151.91513 
L 348.68069 131.431227 
L 351.571772 127.347409 
L 354.462854 128.740736 
L 357.353936 100.191922 
L 360.245018 132.211313 
L 363.1361 88.406764 
L 366.027182 151.616279 
L 368.918264 129.896888 
L 371.809346 127.30661 
L 374.700429 123.116659 
L 377.591511 124.414234 
L 380.482593 131.67232 
L 383.373675 142.342752 
L 386.264757 154.263998 
L 389.155839 127.067745 
L 392.046921 123.818748 
L 394.938003 125.15705 
L 397.829085 144.250129 
L 400.720168 134.268472 
L 403.61125 142.007801 
L 406.502332 78.104779 
L 409.393414 120.864428 
L 412.284496 111.162459 
L 415.175578 111.746713 
L 418.06666 111.288883 
L 420.957742 88.693169 
L 423.848824 68.238144 
L 426.739906 106.783151 
L 429.630989 45.078397 
L 432.522071 90.614089 
L 435.413153 80.166326 
L 438.304235 62.977486 
L 441.195317 43.760696 
L 444.086399 70.936781 
L 446.977481 111.400897 
L 449.868563 43.360414 
L 452.759645 60.664171 
L 455.650727 84.345113 
L 458.54181 90.620282 
L 461.432892 95.31689 
L 464.323974 118.436478 
L 467.215056 112.290796 
L 470.106138 114.012113 
L 472.99722 158.146017 
L 475.888302 140.088794 
L 478.779384 79.979232 
L 481.670466 87.601993 
L 484.561548 94.498391 
L 487.452631 126.666719 
L 490.343713 107.798149 
L 493.234795 75.743744 
L 496.125877 74.700397 
L 499.016959 84.334243 
L 501.908041 89.370187 
L 504.799123 112.720718 
L 507.690205 115.497415 
L 510.581287 82.559135 
L 513.472369 83.754963 
L 516.363452 66.546935 
L 519.254534 71.256447 
L 522.145616 64.292923 
L 525.036698 107.156991 
L 527.92778 117.57714 
L 530.818862 81.880673 
L 533.709944 86.175302 
L 536.601026 90.239071 
L 539.492108 96.977176 
L 542.38319 103.030484 
L 545.274273 131.484105 
L 548.165355 145.92641 
L 551.056437 121.319901 
L 553.947519 127.965589 
L 556.838601 114.105888 
L 559.729683 123.111328 
L 562.620765 126.620039 
L 565.511847 107.496294 
L 568.402929 142.958195 
L 571.294011 118.760479 
L 574.185094 143.375513 
L 577.076176 131.628405 
L 579.967258 124.122244 
L 582.85834 151.407366 
L 585.749422 130.216264 
L 588.640504 143.68869 
L 591.531586 140.687231 
L 594.422668 142.105346 
L 597.31375 130.61049 
L 600.204832 132.380319 
L 603.095915 141.430756 
L 605.986997 142.005629 
L 608.878079 144.089474 
L 611.769161 144.155399 
L 614.660243 142.977693 
L 617.551325 143.789589 
L 620.442407 139.74573 
L 623.333489 144.190483 
L 626.224571 150.45531 
L 629.115654 151.521474 
L 632.006736 146.732659 
L 634.897818 143.247672 
L 637.7889 143.092208 
L 640.679982 137.980869 
L 643.571064 137.186816 
L 646.462146 150.595749 
L 649.353228 151.98806 
L 652.24431 143.297593 
L 655.135392 135.934574 
L 657.41557 -1 
M 658.625839 -1 
L 660.917557 139.277565 
L 663.808639 137.754342 
L 666.699721 138.196142 
L 669.590803 148.950309 
L 672.481885 153.431105 
L 675.372967 131.329142 
L 678.264049 112.394133 
L 681.155131 113.359619 
L 684.046213 113.558022 
L 686.937296 114.142582 
L 689.828378 131.432417 
L 692.71946 104.724473 
L 695.610542 108.070171 
L 698.501624 89.945219 
L 701.392706 122.899532 
L 704.283788 127.050546 
L 707.17487 128.500801 
L 710.065952 146.229424 
L 712.957034 123.661114 
L 715.848117 123.244646 
L 718.739199 105.279809 
L 724.521363 122.116697 
L 727.412445 144.27421 
L 730.303527 139.577449 
L 733.194609 126.635428 
L 736.085691 111.240018 
L 738.976773 127.748247 
L 741.867855 110.142953 
L 744.758938 118.934063 
L 747.65002 146.088006 
L 750.541102 144.109142 
L 753.432184 122.211502 
L 756.323266 118.617858 
L 759.214348 110.526083 
L 762.10543 113.524941 
L 764.996512 138.722068 
L 767.887594 157.242843 
L 770.778676 174.626796 
L 773.669759 157.17059 
L 776.560841 117.55554 
L 779.451923 89.974533 
L 782.343005 99.100861 
L 785.234087 111.359185 
L 788.125169 130.755497 
L 791.016251 134.826116 
L 793.907333 117.116769 
L 796.798415 104.071025 
L 799.689497 102.180041 
L 802.58058 107.16039 
L 805.471662 112.362945 
L 808.362744 134.378077 
L 811.253826 134.639164 
L 814.144908 122.483654 
L 817.03599 114.665574 
L 819.927072 108.892455 
L 822.818154 111.259701 
L 825.709236 122.861468 
L 828.600318 140.724623 
L 831.491401 139.156964 
L 834.382483 124.031151 
L 837.273565 116.605322 
L 840.164647 115.996645 
L 843.055729 117.969864 
L 845.946811 122.471268 
L 848.837893 141.032867 
L 851.728975 145.934854 
L 854.620057 117.907249 
L 857.51114 115.280854 
L 860.402222 118.342661 
L 863.293304 126.418469 
L 866.184386 125.881344 
L 869.075468 141.522227 
L 871.96655 150.243657 
L 874.857632 127.954381 
L 877.748714 124.165923 
L 880.639796 114.536532 
L 883.530878 120.457854 
L 886.421961 123.491294 
L 889.313043 147.591427 
L 892.204125 151.687452 
L 895.095207 122.581508 
L 897.986289 117.714779 
L 900.877371 128.363609 
L 903.768453 121.20284 
L 906.659535 123.724702 
L 909.550617 140.08285 
L 912.441699 165.011584 
L 915.332782 121.003848 
L 918.223864 122.467215 
L 918.223864 122.467215 
" style="fill:none;stroke:#55a868;stroke-linecap:round;stroke-opacity:0.8;stroke-width:1.5;"/>
   </g>
   <g id="line2d_79">
    <path clip-path="url(#p07c6d32ead)" d="M 82.701136 188.079611 
L 85.592218 149.798649 
L 88.483301 147.127471 
L 91.374383 128.451607 
L 94.265465 128.276614 
L 97.156547 134.127215 
L 100.047629 148.947847 
L 102.938711 162.299069 
L 105.829793 149.352886 
L 108.720875 148.142118 
L 111.611957 124.794785 
L 114.503039 134.747335 
L 117.394122 142.828961 
L 120.285204 159.569973 
L 123.176286 161.377959 
L 126.067368 140.155137 
L 128.95845 131.778477 
L 131.849532 132.725904 
L 134.740614 138.498369 
L 137.631696 138.603204 
L 140.522778 146.108335 
L 143.41386 154.364883 
L 146.304943 134.269638 
L 149.196025 132.092525 
L 152.087107 126.835226 
L 153.010594 -1 
M 157.173597 -1 
L 157.869271 85.306982 
L 160.760353 148.994384 
L 163.651435 160.50596 
L 166.542517 137.814213 
L 169.433599 128.253127 
L 172.324682 140.772237 
L 175.215764 142.559289 
L 178.106846 137.112628 
L 180.997928 152.278157 
L 183.88901 165.526064 
L 186.780092 150.659091 
L 189.671174 144.003632 
L 192.562256 127.75455 
L 195.453338 122.023486 
L 198.34442 134.690155 
L 204.126585 167.932815 
L 207.017667 143.30242 
L 209.908749 124.964584 
L 212.799831 129.32829 
L 215.690913 127.895265 
L 218.581995 127.52119 
L 221.473077 148.872335 
L 221.798934 217 
M 226.93976 217 
L 227.255241 151.307324 
L 230.146324 131.57616 
L 233.037406 115.256581 
L 235.928488 129.04722 
L 238.81957 138.525589 
L 241.710652 151.586916 
L 244.601734 157.769836 
L 247.492816 137.678023 
L 250.383898 130.744332 
L 253.27498 132.188357 
L 256.166062 133.80301 
L 259.057145 127.370846 
L 261.948227 148.607159 
L 264.839309 155.731211 
L 267.730391 130.934975 
L 270.621473 119.664879 
L 273.512555 129.071142 
L 276.403637 126.001187 
L 279.294719 133.162742 
L 282.185801 155.714354 
L 285.076883 148.658717 
L 287.967966 132.133222 
L 290.859048 123.627714 
L 293.75013 133.460841 
L 296.641212 140.958554 
L 299.532294 151.190358 
L 302.423376 171.341193 
L 305.314458 150.273409 
L 308.20554 116.309916 
L 311.096622 136.436455 
L 313.987704 121.180971 
L 319.769869 133.561597 
L 322.660951 144.988733 
L 325.552033 151.561831 
L 328.443115 126.819644 
L 331.334197 122.731891 
L 334.225279 121.252068 
L 337.116361 125.162541 
L 340.007443 127.377901 
L 342.898525 147.203117 
L 345.789608 160.017223 
L 348.68069 139.693247 
L 351.571772 134.554774 
L 354.462854 128.664005 
L 357.353936 48.984856 
L 360.245018 138.925226 
L 363.1361 154.294337 
L 366.027182 163.74444 
L 368.918264 128.652977 
L 371.809346 120.726159 
L 374.700429 127.929631 
L 377.591511 125.798061 
L 380.482593 139.824044 
L 383.373675 150.014339 
L 386.264757 139.617492 
L 389.155839 125.1121 
L 392.046921 125.02526 
L 394.938003 119.314998 
L 397.829085 122.477706 
L 400.720168 134.646814 
L 403.61125 148.338121 
L 406.502332 24.119406 
L 409.393414 77.532516 
L 412.284496 110.777174 
L 415.175578 128.157048 
L 418.06666 119.985114 
L 420.957742 93.401873 
L 423.848824 105.153527 
L 426.739906 157.019139 
L 429.630989 127.017029 
L 432.522071 95.17386 
L 435.413153 107.534497 
L 438.304235 104.211584 
L 441.195317 97.703788 
L 444.086399 142.723031 
L 446.977481 143.922262 
L 449.868563 113.52872 
L 452.759645 116.248866 
L 455.650727 154.167957 
L 458.54181 157.444471 
L 461.432892 173.650788 
L 464.323974 159.46075 
L 470.106138 112.365651 
L 472.99722 119.2169 
L 475.888302 130.199019 
L 478.779384 83.839994 
L 481.670466 75.556092 
L 484.561548 99.471089 
L 487.452631 144.380018 
L 490.343713 124.418778 
L 493.234795 88.544922 
L 496.125877 70.627039 
L 499.016959 83.022896 
L 501.908041 53.32036 
L 504.561589 -1 
M 505.738663 -1 
L 507.690205 9.10006 
L 510.581287 48.524014 
L 513.472369 72.646262 
L 516.363452 47.780671 
L 519.254534 62.789499 
L 522.145616 66.749735 
L 525.036698 122.653696 
L 527.92778 158.959456 
L 530.818862 110.476473 
L 533.709944 104.088246 
L 536.601026 146.047471 
L 539.492108 136.99485 
L 542.38319 136.389261 
L 545.274273 152.798003 
L 548.165355 171.078919 
L 551.056437 141.789201 
L 553.947519 130.03031 
L 556.838601 112.751827 
L 559.729683 105.522831 
L 562.620765 113.558709 
L 565.511847 106.149056 
L 568.402929 129.118971 
L 571.294011 109.974336 
L 574.185094 122.762863 
L 577.076176 116.099858 
L 579.967258 101.845428 
L 582.85834 114.144598 
L 585.749422 125.19993 
L 588.640504 135.043839 
L 591.531586 135.104554 
L 594.422668 126.012667 
L 597.31375 131.444598 
L 600.204832 122.509195 
L 603.095915 132.196229 
L 605.986997 147.728285 
L 608.878079 119.157155 
L 611.769161 145.118588 
L 614.660243 141.620593 
L 617.551325 141.859836 
L 620.442407 137.95315 
L 623.333489 145.542886 
L 626.224571 149.644037 
L 629.115654 145.41052 
L 632.006736 142.158511 
L 634.897818 141.431335 
L 637.7889 142.130477 
L 640.679982 136.079406 
L 643.571064 131.610609 
L 646.462146 149.937349 
L 649.353228 152.256365 
L 652.24431 142.666245 
L 655.135392 135.152834 
L 658.026475 132.814547 
L 660.917557 137.881131 
L 663.808639 140.175259 
L 666.699721 139.327834 
L 669.590803 153.099022 
L 672.481885 150.483101 
L 675.372967 144.254686 
L 678.264049 118.945379 
L 681.155131 129.252575 
L 684.046213 131.463325 
L 686.937296 154.498078 
L 689.828378 167.814881 
L 692.71946 136.023477 
L 695.610542 132.427092 
L 698.501624 112.518988 
L 701.392706 133.266905 
L 704.283788 140.963965 
L 707.17487 146.98359 
L 710.065952 161.20141 
L 712.957034 140.803429 
L 715.848117 132.43074 
L 718.739199 123.598867 
L 721.630281 126.81248 
L 724.521363 132.716052 
L 727.412445 159.137864 
L 730.303527 149.086147 
L 733.194609 124.20633 
L 736.085691 119.371978 
L 738.976773 107.270671 
L 741.867855 93.538809 
L 744.758938 134.512814 
L 747.65002 150.720182 
L 750.541102 142.159816 
L 753.432184 119.081774 
L 756.323266 118.925684 
L 759.214348 111.760779 
L 762.10543 114.586116 
L 764.996512 124.089308 
L 767.887594 134.559397 
L 770.778676 159.219879 
L 773.669759 154.522279 
L 776.560841 118.959958 
L 779.451923 88.978042 
L 782.343005 100.177652 
L 785.234087 103.835993 
L 788.125169 131.657156 
L 791.016251 144.841323 
L 793.907333 126.249662 
L 796.798415 124.383163 
L 799.689497 93.167904 
L 802.58058 110.361394 
L 805.471662 115.156526 
L 808.362744 141.903979 
L 811.253826 144.311153 
L 814.144908 130.175743 
L 817.03599 133.896633 
L 819.927072 111.048453 
L 822.818154 114.832196 
L 825.709236 120.082269 
L 828.600318 142.084925 
L 831.491401 139.779698 
L 834.382483 118.402039 
L 837.273565 116.481082 
L 840.164647 111.804203 
L 845.946811 117.187161 
L 848.837893 142.430998 
L 851.728975 145.439881 
L 854.620057 113.467049 
L 857.51114 112.631355 
L 860.402222 121.481822 
L 863.293304 127.004968 
L 866.184386 121.565984 
L 869.075468 139.945765 
L 871.96655 151.795505 
L 874.857632 130.029353 
L 877.748714 123.788704 
L 880.639796 117.075985 
L 883.530878 120.067278 
L 886.421961 152.069649 
L 889.313043 150.124765 
L 892.204125 156.309369 
L 895.095207 121.288551 
L 897.986289 119.626291 
L 900.877371 116.849406 
L 903.768453 127.846319 
L 906.659535 110.137905 
L 909.550617 140.192467 
L 912.441699 137.582501 
L 915.332782 122.159842 
L 918.223864 120.989536 
L 918.223864 120.989536 
" style="fill:none;stroke:#c44e52;stroke-linecap:round;stroke-opacity:0.8;stroke-width:1.5;"/>
   </g>
   <g id="line2d_80">
    <path clip-path="url(#p07c6d32ead)" d="M 82.701136 173.202008 
L 85.592218 140.283554 
L 88.483301 143.860746 
L 91.374383 125.790461 
L 94.265465 124.582979 
L 97.156547 130.446836 
L 100.047629 143.903801 
L 102.938711 158.391261 
L 105.829793 148.74156 
L 108.720875 142.190183 
L 111.611957 133.921723 
L 114.503039 135.104132 
L 117.394122 137.972819 
L 120.285204 159.116838 
L 123.176286 160.854636 
L 126.067368 140.69425 
L 128.95845 135.024792 
L 131.849532 136.135948 
L 134.740614 142.118138 
L 137.631696 140.117054 
L 140.522778 145.152447 
L 143.41386 150.917687 
L 146.304943 130.026622 
L 149.196025 130.218393 
L 152.087107 124.284772 
L 154.978189 125.302057 
L 157.869271 131.03523 
L 160.760353 142.959169 
L 163.651435 160.307524 
L 166.542517 129.991626 
L 169.433599 121.057964 
L 172.324682 132.672129 
L 175.215764 140.350626 
L 178.106846 134.13125 
L 183.88901 159.123306 
L 186.780092 145.211029 
L 189.671174 136.528445 
L 192.562256 121.197576 
L 195.453338 123.23777 
L 198.34442 139.303503 
L 204.126585 157.824053 
L 207.017667 129.959557 
L 209.908749 124.742789 
L 212.799831 130.07835 
L 215.690913 129.68042 
L 218.581995 127.612683 
L 221.473077 147.056322 
L 221.599261 217 
M 226.977958 217 
L 227.255241 54.416465 
L 230.146324 129.661626 
L 233.037406 117.223393 
L 235.928488 128.718549 
L 238.81957 135.703465 
L 241.710652 146.020206 
L 244.601734 151.101451 
L 247.492816 131.510246 
L 250.383898 126.952708 
L 253.27498 128.969827 
L 256.166062 132.103252 
L 259.057145 125.738819 
L 261.948227 145.326959 
L 264.839309 150.845457 
L 267.730391 126.041277 
L 270.621473 117.604847 
L 273.512555 127.138114 
L 276.403637 126.822941 
L 279.294719 132.938075 
L 282.185801 147.921961 
L 285.076883 148.877836 
L 287.967966 134.126275 
L 290.859048 127.013924 
L 293.75013 129.591882 
L 296.641212 137.326339 
L 299.532294 155.002602 
L 302.423376 174.43729 
L 305.314458 151.830366 
L 308.20554 117.967178 
L 311.096622 140.192585 
L 313.987704 124.108448 
L 319.769869 135.574829 
L 322.660951 145.862842 
L 325.552033 151.188057 
L 328.443115 126.390319 
L 331.334197 123.387631 
L 334.225279 129.757054 
L 337.116361 125.955329 
L 340.007443 125.813244 
L 342.898525 141.990533 
L 345.789608 152.604653 
L 348.68069 132.182804 
L 351.571772 128.65267 
L 354.462854 120.937701 
L 357.353936 119.97104 
L 360.245018 126.976366 
L 363.1361 139.739387 
L 366.027182 147.17231 
L 368.918264 112.531285 
L 371.809346 110.113081 
L 374.700429 121.143975 
L 377.591511 122.348904 
L 380.482593 135.105609 
L 383.373675 138.768162 
L 386.264757 133.190305 
L 389.155839 129.822219 
L 392.046921 123.5717 
L 394.938003 115.386377 
L 397.829085 119.2691 
L 400.720168 128.624784 
L 403.61125 138.3704 
L 406.502332 183.288425 
L 409.393414 56.997228 
L 412.284496 92.451802 
L 415.175578 91.219899 
L 418.06666 91.192963 
L 420.957742 56.992981 
L 423.848824 61.128615 
L 426.739906 105.830913 
L 429.630989 75.032246 
L 432.522071 46.845045 
L 435.413153 54.864216 
L 438.304235 43.268734 
L 441.195317 39.381024 
L 444.086399 81.597569 
L 446.977481 89.659631 
L 449.868563 61.749976 
L 452.759645 72.851399 
L 455.650727 117.060549 
L 458.54181 127.4109 
L 461.432892 136.290347 
L 464.323974 135.95044 
L 467.215056 113.300046 
L 470.106138 97.400457 
L 472.99722 136.687625 
L 475.888302 134.398309 
L 478.779384 88.714619 
L 481.670466 82.997599 
L 484.561548 107.152739 
L 487.452631 22.894294 
L 490.343713 135.539474 
L 493.234795 102.373706 
L 496.125877 83.300597 
L 499.016959 96.414588 
L 501.908041 75.821367 
L 504.799123 101.03282 
L 507.690205 106.81921 
L 510.581287 65.422772 
L 513.472369 72.882598 
L 516.363452 37.079427 
L 519.254534 53.208334 
L 522.145616 49.046176 
L 525.036698 98.017517 
L 527.92778 128.266167 
L 530.818862 81.375705 
L 533.709944 81.773612 
L 536.601026 135.588924 
L 539.492108 135.441927 
L 542.38319 131.542391 
L 545.274273 157.69811 
L 548.165355 176.510242 
L 551.056437 148.313087 
L 553.947519 139.767479 
L 556.838601 128.180923 
L 559.729683 125.467406 
L 562.620765 136.884044 
L 565.511847 129.275914 
L 568.402929 153.567796 
L 571.294011 135.112544 
L 574.185094 149.280941 
L 577.076176 146.110231 
L 579.967258 135.285796 
L 582.85834 146.813959 
L 585.749422 156.444329 
L 588.640504 163.029386 
L 591.531586 160.643085 
L 594.422668 152.185832 
L 597.31375 139.328838 
L 600.204832 142.55894 
L 603.095915 151.171993 
L 605.986997 162.896985 
L 608.878079 151.228387 
L 611.769161 151.391656 
L 614.660243 148.315557 
L 617.551325 147.401327 
L 620.442407 143.756161 
L 623.333489 151.432678 
L 626.224571 154.474988 
L 629.115654 149.072944 
L 632.006736 145.562189 
L 634.897818 145.65301 
L 637.7889 146.553611 
L 640.679982 126.898012 
L 643.571064 124.036755 
L 646.462146 146.796702 
L 649.353228 152.480035 
L 652.24431 138.773935 
L 655.135392 133.133468 
L 658.026475 130.132513 
L 660.917557 134.509869 
L 663.808639 135.354529 
L 666.699721 129.287072 
L 669.590803 144.265082 
L 672.481885 144.926785 
L 675.372967 129.72081 
L 678.264049 113.528095 
L 681.155131 112.218247 
L 684.046213 108.640294 
L 686.937296 126.038929 
L 689.828378 138.378231 
L 692.71946 108.019747 
L 695.610542 90.528759 
L 698.501624 90.427671 
L 704.283788 132.106734 
L 707.17487 124.658699 
L 710.065952 139.319456 
L 712.957034 122.333433 
L 715.848117 117.74841 
L 718.739199 106.636295 
L 721.630281 56.776239 
L 724.521363 120.985125 
L 727.412445 139.516829 
L 730.303527 135.678492 
L 733.194609 115.043985 
L 736.085691 131.21437 
L 738.976773 105.243216 
L 741.867855 112.375246 
L 744.758938 127.005468 
L 747.65002 151.075565 
L 750.541102 146.510459 
L 753.432184 118.938706 
L 756.323266 120.414352 
L 759.214348 121.254941 
L 762.10543 118.293095 
L 764.996512 125.494256 
L 767.887594 128.88426 
L 770.778676 147.984208 
L 773.669759 121.886773 
L 776.560841 108.467737 
L 779.451923 78.351906 
L 782.343005 90.254807 
L 785.234087 92.411883 
L 788.125169 116.373854 
L 791.016251 127.855177 
L 793.907333 110.894452 
L 796.798415 115.038981 
L 799.689497 97.47067 
L 802.58058 100.233125 
L 805.471662 111.554854 
L 808.362744 137.483284 
L 811.253826 138.624402 
L 814.144908 125.754218 
L 819.927072 113.190374 
L 822.818154 119.134419 
L 825.709236 123.823275 
L 828.600318 145.75182 
L 831.491401 143.15855 
L 834.382483 122.47611 
L 837.273565 121.972478 
L 840.164647 117.530859 
L 843.055729 122.209558 
L 845.946811 127.131945 
L 848.837893 150.511213 
L 851.728975 152.336528 
L 854.620057 122.417181 
L 857.51114 119.114885 
L 860.402222 128.085226 
L 863.293304 141.008668 
L 866.184386 127.973095 
L 871.96655 156.216828 
L 874.857632 132.724337 
L 877.748714 127.117206 
L 880.639796 120.498322 
L 883.530878 125.397603 
L 886.421961 155.852636 
L 889.313043 149.723855 
L 892.204125 157.575597 
L 895.095207 121.778916 
L 897.986289 126.516084 
L 900.877371 116.784596 
L 903.768453 93.386782 
L 906.659535 124.835132 
L 909.550617 140.414397 
L 912.441699 135.58873 
L 915.332782 120.486534 
L 918.223864 121.468516 
L 918.223864 121.468516 
" style="fill:none;stroke:#8172b2;stroke-linecap:round;stroke-opacity:0.8;stroke-width:1.5;"/>
   </g>
   <g id="line2d_81">
    <path clip-path="url(#p07c6d32ead)" d="M 85.240547 -1 
L 85.592218 159.328537 
L 88.483301 164.23073 
L 91.374383 142.680598 
L 94.265465 145.577629 
L 97.156547 142.78252 
L 100.047629 142.914527 
L 102.938711 149.024639 
L 105.829793 133.720189 
L 108.720875 153.825847 
L 111.611957 160.056701 
L 114.503039 136.135087 
L 117.394122 135.895846 
L 120.285204 151.384562 
L 123.176286 147.879274 
L 126.067368 120.831308 
L 128.95845 145.079498 
L 131.849532 157.755999 
L 134.740614 134.964107 
L 137.631696 125.182861 
L 140.522778 139.146552 
L 143.41386 134.169452 
L 146.304943 103.028643 
L 149.196025 138.469624 
L 152.087107 159.223823 
L 154.978189 133.188734 
L 157.869271 123.129488 
L 160.760353 163.539656 
L 166.542517 113.747646 
L 169.433599 166.912874 
L 172.324682 172.400642 
L 175.215764 144.905244 
L 178.106846 141.845316 
L 180.997928 150.463882 
L 183.88901 137.257897 
L 186.780092 135.581285 
L 189.671174 140.62436 
L 192.562256 161.005245 
L 195.453338 114.176968 
L 198.34442 127.179401 
L 201.235503 99.207542 
L 204.126585 151.717749 
L 207.017667 97.25609 
L 209.908749 140.373253 
L 212.799831 162.200443 
L 215.690913 125.496262 
L 218.581995 133.631376 
L 221.473077 135.417495 
L 224.364159 134.004112 
L 227.255241 119.923773 
L 230.146324 146.974775 
L 233.037406 144.479493 
L 235.928488 130.679704 
L 238.81957 145.155664 
L 241.710652 152.559545 
L 244.601734 142.122922 
L 247.492816 112.477348 
L 250.383898 143.652484 
L 253.27498 158.630971 
L 256.166062 135.352671 
L 259.057145 117.309547 
L 261.948227 142.179081 
L 264.839309 136.580673 
L 267.730391 115.869294 
L 270.621473 145.67839 
L 273.512555 164.358256 
L 276.403637 119.648413 
L 279.294719 135.341202 
L 282.185801 143.972626 
L 285.076883 135.274777 
L 287.967966 123.334477 
L 290.859048 177.678029 
L 293.75013 164.319334 
L 296.641212 136.543447 
L 299.532294 159.515216 
L 302.423376 133.0543 
L 305.314458 111.981592 
L 308.20554 107.514323 
L 311.096622 146.988679 
L 313.987704 147.017728 
L 316.878787 127.344978 
L 319.769869 121.676178 
L 322.660951 142.319298 
L 325.552033 131.855058 
L 328.443115 101.980859 
L 331.334197 135.870211 
L 334.225279 166.757497 
L 337.116361 118.490422 
L 340.007443 127.373215 
L 342.898525 140.455179 
L 345.789608 142.581692 
L 348.68069 117.162953 
L 354.462854 163.098645 
L 357.353936 118.774469 
L 360.245018 133.229889 
L 363.1361 136.808885 
L 366.027182 148.343814 
L 368.918264 109.074916 
L 371.809346 147.478932 
L 374.700429 173.432022 
L 377.591511 125.365201 
L 380.482593 144.432602 
L 383.373675 156.913013 
L 386.264757 125.635676 
L 389.155839 129.055389 
L 392.046921 139.642021 
L 394.938003 155.351068 
L 397.829085 97.124514 
L 399.738349 -1 
M 401.66659 -1 
L 403.61125 102.681503 
L 406.502332 113.079356 
L 409.393414 90.496656 
L 412.284496 106.968627 
L 415.175578 172.064752 
L 415.267101 217 
M 420.599695 217 
L 420.957742 22.712497 
L 423.848824 34.222817 
L 426.739906 117.111552 
L 429.630989 110.12437 
L 435.413153 175.406295 
L 438.304235 104.090271 
L 441.195317 88.69947 
L 444.086399 101.049182 
L 446.977481 128.282197 
L 449.868563 70.285209 
L 452.759645 200.422546 
L 455.650727 183.061148 
L 458.54181 154.156464 
L 461.432892 139.450677 
L 464.323974 164.649908 
L 467.215056 122.791454 
L 470.106138 108.311094 
L 472.99722 128.288124 
L 475.888302 153.43361 
L 478.779384 115.288905 
L 481.670466 82.031571 
L 484.561548 108.56817 
L 487.452631 103.126677 
L 490.343713 62.975532 
L 493.234795 74.237904 
L 494.694095 217 
M 497.529868 217 
L 499.016959 68.639696 
L 501.908041 52.811634 
L 504.799123 95.207669 
L 507.690205 48.01313 
L 510.581287 7.208776 
L 513.472369 77.14454 
L 516.363452 122.549888 
L 519.254534 57.544356 
L 522.145616 53.655325 
L 525.036698 142.746685 
L 527.92778 125.765677 
L 530.818862 75.643075 
L 533.709944 130.584572 
L 536.601026 197.309584 
L 539.492108 148.917 
L 542.38319 157.939236 
L 545.274273 157.246843 
L 548.165355 145.426586 
L 551.056437 131.953039 
L 553.947519 144.81798 
L 556.838601 136.635021 
L 559.729683 122.651194 
L 562.620765 113.142555 
L 565.511847 112.719302 
L 568.402929 98.5015 
L 571.294011 106.875054 
L 574.185094 117.883143 
L 577.076176 120.430255 
L 579.967258 128.082325 
L 582.85834 114.306976 
L 585.749422 118.863426 
L 588.640504 118.002359 
L 591.531586 113.524 
L 597.31375 129.570034 
L 600.204832 115.923295 
L 603.095915 128.674192 
L 605.986997 133.425794 
L 608.878079 130.673148 
L 611.769161 125.478885 
L 614.660243 150.745285 
L 617.551325 155.949823 
L 620.442407 138.723278 
L 623.333489 139.939515 
L 626.224571 150.244686 
L 629.115654 137.196111 
L 632.006736 119.71442 
L 634.897818 146.540719 
L 637.7889 157.728869 
L 640.679982 134.484262 
L 643.571064 129.073402 
L 646.462146 138.406057 
L 649.353228 133.429009 
L 652.24431 128.831086 
L 655.135392 138.640782 
L 658.026475 157.628928 
L 660.917557 147.613515 
L 663.808639 133.036807 
L 666.699721 142.700347 
L 672.481885 114.555651 
L 675.372967 138.271625 
L 678.264049 164.337232 
L 681.155131 136.799471 
L 684.046213 105.06501 
L 686.937296 143.366745 
L 689.828378 136.063551 
L 692.71946 115.496292 
L 695.610542 134.231092 
L 698.501624 167.423233 
L 701.392706 160.668165 
L 704.283788 144.401169 
L 707.17487 150.643768 
L 710.065952 119.335634 
L 712.957034 128.784535 
L 715.848117 164.140217 
L 718.739199 166.342283 
L 721.630281 133.340836 
L 724.521363 138.026515 
L 727.412445 141.094777 
L 730.303527 110.973568 
L 733.194609 64.192078 
L 736.085691 147.472976 
L 738.976773 144.530847 
L 741.867855 124.576436 
L 744.758938 130.234535 
L 747.65002 143.090854 
L 750.541102 97.809693 
L 753.432184 102.604098 
L 756.323266 143.113419 
L 759.214348 135.175513 
L 762.10543 138.669012 
L 764.996512 49.309508 
L 767.887594 102.549423 
L 770.778676 97.58019 
L 773.669759 109.079052 
L 776.560841 96.779694 
L 779.451923 128.884688 
L 782.343005 130.215202 
L 785.234087 113.888859 
L 788.125169 140.065273 
L 791.016251 115.345813 
L 793.907333 112.410812 
L 796.798415 57.166713 
L 799.689497 157.738303 
L 802.58058 124.022165 
L 805.471662 129.489518 
L 808.362744 136.252143 
L 811.253826 111.367615 
L 814.144908 111.136403 
L 817.03599 141.99075 
L 819.927072 154.676487 
L 822.818154 111.716701 
L 825.709236 128.101057 
L 828.600318 139.857849 
L 831.491401 112.416818 
L 834.382483 99.13316 
L 837.273565 134.439891 
L 839.889252 -1 
M 840.486708 -1 
L 843.055729 112.748644 
L 845.946811 107.216817 
L 848.837893 132.278802 
L 851.728975 126.99233 
L 854.620057 88.491134 
L 857.51114 137.398409 
L 860.402222 154.367813 
L 863.293304 144.279761 
L 866.184386 105.572499 
L 869.075468 132.97314 
L 871.96655 122.866054 
L 874.857632 106.765828 
L 877.748714 139.769124 
L 880.639796 148.720768 
L 883.530878 119.630218 
L 886.421961 125.171534 
L 889.313043 142.079128 
L 892.204125 146.970953 
L 895.095207 96.487355 
L 897.986289 130.47552 
L 900.877371 167.79505 
L 901.047251 217 
M 906.319024 217 
L 906.659535 111.774531 
L 909.550617 159.906391 
L 912.441699 104.491785 
L 915.332782 81.974149 
L 918.223864 142.615748 
L 918.223864 142.615748 
" style="fill:none;stroke:#ccb974;stroke-linecap:round;stroke-opacity:0.8;stroke-width:1.5;"/>
   </g>
   <g id="line2d_82">
    <path clip-path="url(#p07c6d32ead)" d="M 82.701136 47.954813 
L 85.592218 99.022605 
L 88.483301 163.614488 
L 91.374383 140.402488 
L 94.265465 142.390152 
L 97.156547 139.590781 
L 100.047629 151.494816 
L 102.938711 145.583857 
L 105.829793 125.06669 
L 108.720875 155.499596 
L 111.611957 161.537393 
L 114.503039 135.585074 
L 117.394122 135.678645 
L 120.285204 144.32296 
L 123.176286 147.404514 
L 126.067368 121.269477 
L 128.95845 147.715653 
L 131.849532 160.532483 
L 134.740614 138.666363 
L 137.631696 126.466001 
L 140.522778 138.276491 
L 143.41386 130.959095 
L 146.304943 98.973739 
L 149.196025 136.763197 
L 152.087107 156.88259 
L 154.978189 131.411669 
L 157.869271 119.625165 
L 160.760353 140.864433 
L 163.651435 183.317182 
L 166.542517 106.627046 
L 169.433599 162.141951 
L 172.324682 169.368447 
L 175.215764 143.616814 
L 178.106846 139.132741 
L 180.997928 143.363455 
L 183.88901 131.429516 
L 186.780092 132.578442 
L 189.671174 156.961627 
L 192.562256 160.260728 
L 195.453338 130.377964 
L 198.34442 126.850079 
L 201.235503 161.76822 
L 204.126585 163.566758 
L 207.017667 98.869761 
L 209.908749 140.483868 
L 212.799831 162.809535 
L 215.690913 126.955901 
L 218.581995 133.706464 
L 221.473077 133.605773 
L 224.364159 131.004068 
L 227.255241 116.645812 
L 230.146324 145.232899 
L 233.037406 142.014136 
L 235.928488 129.505687 
L 238.81957 142.792661 
L 241.710652 142.481923 
L 244.601734 135.994597 
L 247.492816 106.998593 
L 250.383898 140.428473 
L 253.27498 155.699112 
L 256.166062 133.813128 
L 259.057145 116.134138 
L 261.948227 139.187394 
L 264.839309 131.952503 
L 267.730391 111.601071 
L 270.621473 141.415427 
L 273.512555 162.597543 
L 276.403637 120.315194 
L 279.294719 135.14432 
L 282.185801 142.619988 
L 285.076883 135.449905 
L 287.967966 124.952118 
L 290.859048 180.432568 
L 293.75013 167.25256 
L 296.641212 139.504881 
L 299.532294 159.717375 
L 302.423376 135.602145 
L 305.314458 113.241339 
L 308.20554 108.882139 
L 311.096622 149.489407 
L 313.987704 151.470428 
L 316.878787 132.625312 
L 319.769869 123.312233 
L 322.660951 143.029826 
L 325.552033 131.514556 
L 328.443115 101.589697 
L 331.334197 136.40356 
L 334.225279 159.729157 
L 337.116361 119.135546 
L 340.007443 125.947604 
L 342.898525 136.042069 
L 345.789608 135.833231 
L 351.571772 134.327378 
L 354.462854 156.072216 
L 357.353936 114.282811 
L 360.245018 122.354553 
L 363.1361 123.559786 
L 366.027182 133.258549 
L 368.918264 94.398735 
L 371.809346 83.020693 
L 374.700429 169.301413 
L 377.591511 122.225454 
L 380.482593 132.03707 
L 383.373675 144.767736 
L 386.264757 116.22342 
L 389.155839 124.981281 
L 392.046921 138.319348 
L 394.938003 150.024833 
L 397.829085 94.20399 
L 400.720168 96.895258 
L 403.61125 93.60657 
L 406.502332 122.999449 
L 409.393414 71.804272 
L 412.284496 89.286192 
L 415.175578 149.676728 
L 418.06666 41.660295 
L 420.957742 36.974737 
L 421.981634 -1 
M 425.271113 -1 
L 426.739906 70.515824 
L 429.630989 38.993457 
L 432.522071 98.410705 
L 435.413153 127.457908 
L 438.304235 32.192017 
L 441.195317 56.2624 
L 444.086399 45.380756 
L 446.977481 73.914548 
L 449.868563 23.148665 
L 452.759645 160.916032 
L 455.650727 149.20018 
L 458.54181 126.849393 
L 461.432892 115.809438 
L 464.323974 143.248821 
L 467.215056 102.539696 
L 470.106138 94.690082 
L 475.888302 156.848936 
L 478.779384 121.167568 
L 481.670466 88.082497 
L 484.561548 126.170627 
L 487.452631 113.398014 
L 490.343713 72.019208 
L 493.234795 85.482707 
L 496.125877 135.768633 
L 499.016959 79.526212 
L 501.908041 60.222362 
L 504.799123 98.371148 
L 507.690205 46.257806 
L 510.581287 4.014832 
L 513.472369 71.181607 
L 516.363452 114.074036 
L 519.254534 48.824164 
L 522.145616 37.52482 
L 525.036698 129.229385 
L 527.92778 92.472136 
L 530.818862 51.852257 
L 533.709944 109.470937 
L 536.601026 182.616865 
L 539.492108 145.968218 
L 542.38319 160.502 
L 545.274273 160.182427 
L 548.165355 153.334367 
L 551.056437 139.877395 
L 553.947519 154.844261 
L 556.838601 149.181901 
L 559.729683 139.050647 
L 562.620765 132.427785 
L 565.511847 131.524168 
L 568.402929 118.380921 
L 571.294011 126.661606 
L 574.185094 146.114495 
L 577.076176 158.697676 
L 579.967258 155.273628 
L 582.85834 138.831811 
L 585.749422 143.330835 
L 588.640504 136.702887 
L 591.531586 135.514307 
L 594.422668 138.988415 
L 597.31375 154.776112 
L 600.204832 133.917749 
L 605.986997 149.948053 
L 608.878079 142.703504 
L 611.769161 132.798136 
L 614.660243 156.189084 
L 617.551325 160.455771 
L 620.442407 142.74042 
L 623.333489 144.728059 
L 626.224571 154.171283 
L 629.115654 140.172551 
L 632.006736 122.481871 
L 634.897818 149.97308 
L 637.7889 161.362331 
L 640.679982 138.451843 
L 643.571064 131.505332 
L 646.462146 140.475489 
L 649.353228 133.489621 
L 652.24431 126.074178 
L 655.135392 136.706533 
L 658.026475 155.187958 
L 660.917557 144.544456 
L 663.808639 128.661851 
L 666.699721 139.571345 
L 669.590803 115.625226 
L 672.481885 99.994764 
L 678.264049 149.933121 
L 681.155131 116.978276 
L 684.046213 82.736052 
L 686.937296 114.761282 
L 689.828378 94.088178 
L 692.71946 115.937513 
L 695.610542 145.462223 
L 698.501624 148.522308 
L 701.392706 131.329395 
L 704.283788 121.127382 
L 707.17487 129.101979 
L 710.065952 106.199931 
L 712.957034 111.971508 
L 715.848117 141.333282 
L 718.739199 154.064696 
L 721.630281 123.114086 
L 724.521363 127.425447 
L 727.412445 140.875777 
L 730.303527 98.769245 
L 733.194609 94.216188 
L 736.085691 136.544768 
L 738.976773 141.719681 
L 741.867855 136.160702 
L 744.758938 132.010169 
L 747.65002 143.388189 
L 750.541102 97.590585 
L 753.432184 82.302411 
L 756.323266 144.323093 
L 759.214348 142.930934 
L 762.10543 155.594929 
L 764.996512 30.219389 
L 767.887594 97.382213 
L 770.778676 107.269763 
L 773.669759 80.034582 
L 776.560841 103.217362 
L 779.451923 119.210014 
L 782.343005 121.181511 
L 785.234087 103.487739 
L 788.125169 126.150958 
L 791.016251 102.671273 
L 793.907333 105.137882 
L 796.798415 118.937987 
L 799.689497 152.210192 
L 802.58058 122.522026 
L 805.471662 127.016262 
L 808.362744 132.228462 
L 811.253826 106.19153 
L 814.144908 107.113115 
L 817.03599 142.221104 
L 819.927072 156.419301 
L 822.818154 117.154426 
L 825.709236 131.159736 
L 828.600318 142.799945 
L 831.491401 121.136623 
L 834.382483 102.435675 
L 837.273565 138.902533 
L 839.988435 -1 
M 840.368043 -1 
L 843.055729 118.990671 
L 845.946811 115.078385 
L 848.837893 138.746262 
L 851.728975 131.733398 
L 854.620057 92.964736 
L 857.51114 142.485171 
L 860.402222 159.751518 
L 863.293304 142.988263 
L 864.166864 217 
M 868.148857 217 
L 869.075468 136.373555 
L 871.96655 125.258068 
L 874.857632 108.959417 
L 877.748714 142.468925 
L 880.639796 151.503955 
L 883.530878 123.153956 
L 884.408106 217 
M 888.573176 217 
L 889.313043 142.902899 
L 892.204125 123.856903 
L 895.095207 95.993228 
L 900.877371 169.260732 
L 903.768453 117.909623 
L 906.659535 113.380561 
L 909.550617 160.082623 
L 912.441699 102.677571 
L 915.332782 79.572578 
L 918.223864 152.65949 
L 918.223864 152.65949 
" style="fill:none;stroke:#64b5cd;stroke-linecap:round;stroke-opacity:0.8;stroke-width:1.5;"/>
   </g>
   <g id="patch_3">
    <path d="M 40.925 180.1 
L 40.925 32.8 
" style="fill:none;stroke:#cccccc;stroke-linecap:square;stroke-linejoin:miter;"/>
   </g>
   <g id="patch_4">
    <path d="M 960 180.1 
L 960 32.8 
" style="fill:none;stroke:#cccccc;stroke-linecap:square;stroke-linejoin:miter;"/>
   </g>
   <g id="patch_5">
    <path d="M 40.925 180.1 
L 960 180.1 
" style="fill:none;stroke:#cccccc;stroke-linecap:square;stroke-linejoin:miter;"/>
   </g>
   <g id="patch_6">
    <path d="M 40.925 32.8 
L 960 32.8 
" style="fill:none;stroke:#cccccc;stroke-linecap:square;stroke-linejoin:miter;"/>
   </g>
   <g id="text_16">
    <!-- Feed 5 - P1 All Predictors -->
    <defs>
     <path d="M 40.234375 0 
L 40.234375 6.546875 
Q 35.296875 -1.171875 25.734375 -1.171875 
Q 19.53125 -1.171875 14.328125 2.25 
Q 9.125 5.671875 6.265625 11.796875 
Q 3.421875 17.921875 3.421875 25.875 
Q 3.421875 33.640625 6 39.96875 
Q 8.59375 46.296875 13.765625 49.65625 
Q 18.953125 53.03125 25.34375 53.03125 
Q 30.03125 53.03125 33.6875 51.046875 
Q 37.359375 49.078125 39.65625 45.90625 
L 39.65625 71.578125 
L 48.390625 71.578125 
L 48.390625 0 
z
M 12.453125 25.875 
Q 12.453125 15.921875 16.640625 10.984375 
Q 20.84375 6.0625 26.5625 6.0625 
Q 32.328125 6.0625 36.34375 10.765625 
Q 40.375 15.484375 40.375 25.140625 
Q 40.375 35.796875 36.265625 40.765625 
Q 32.171875 45.75 26.171875 45.75 
Q 20.3125 45.75 16.375 40.96875 
Q 12.453125 36.1875 12.453125 25.875 
z
" id="ArialMT-64"/>
     <path id="ArialMT-20"/>
     <path d="M 3.171875 21.484375 
L 3.171875 30.328125 
L 30.171875 30.328125 
L 30.171875 21.484375 
z
" id="ArialMT-2d"/>
     <path d="M 7.71875 0 
L 7.71875 71.578125 
L 34.71875 71.578125 
Q 41.84375 71.578125 45.609375 70.90625 
Q 50.875 70.015625 54.4375 67.546875 
Q 58.015625 65.09375 60.1875 60.640625 
Q 62.359375 56.203125 62.359375 50.875 
Q 62.359375 41.75 56.546875 35.421875 
Q 50.734375 29.109375 35.546875 29.109375 
L 17.1875 29.109375 
L 17.1875 0 
z
M 17.1875 37.546875 
L 35.6875 37.546875 
Q 44.875 37.546875 48.734375 40.96875 
Q 52.59375 44.390625 52.59375 50.59375 
Q 52.59375 55.078125 50.3125 58.265625 
Q 48.046875 61.46875 44.34375 62.5 
Q 41.9375 63.140625 35.5 63.140625 
L 17.1875 63.140625 
z
" id="ArialMT-50"/>
     <path d="M 6.640625 61.46875 
L 6.640625 71.578125 
L 15.4375 71.578125 
L 15.4375 61.46875 
z
M 6.640625 0 
L 6.640625 51.859375 
L 15.4375 51.859375 
L 15.4375 0 
z
" id="ArialMT-69"/>
     <path d="M 3.078125 15.484375 
L 11.765625 16.84375 
Q 12.5 11.625 15.84375 8.84375 
Q 19.1875 6.0625 25.203125 6.0625 
Q 31.25 6.0625 34.171875 8.515625 
Q 37.109375 10.984375 37.109375 14.3125 
Q 37.109375 17.28125 34.515625 19 
Q 32.71875 20.171875 25.53125 21.96875 
Q 15.875 24.421875 12.140625 26.203125 
Q 8.40625 27.984375 6.46875 31.125 
Q 4.546875 34.28125 4.546875 38.09375 
Q 4.546875 41.546875 6.125 44.5 
Q 7.71875 47.46875 10.453125 49.421875 
Q 12.5 50.921875 16.03125 51.96875 
Q 19.578125 53.03125 23.640625 53.03125 
Q 29.734375 53.03125 34.34375 51.265625 
Q 38.96875 49.515625 41.15625 46.5 
Q 43.359375 43.5 44.1875 38.484375 
L 35.59375 37.3125 
Q 35.015625 41.3125 32.203125 43.546875 
Q 29.390625 45.796875 24.265625 45.796875 
Q 18.21875 45.796875 15.625 43.796875 
Q 13.03125 41.796875 13.03125 39.109375 
Q 13.03125 37.40625 14.109375 36.03125 
Q 15.1875 34.625 17.484375 33.6875 
Q 18.796875 33.203125 25.25 31.453125 
Q 34.578125 28.953125 38.25 27.359375 
Q 41.9375 25.78125 44.03125 22.75 
Q 46.140625 19.734375 46.140625 15.234375 
Q 46.140625 10.84375 43.578125 6.953125 
Q 41.015625 3.078125 36.171875 0.953125 
Q 31.34375 -1.171875 25.25 -1.171875 
Q 15.140625 -1.171875 9.84375 3.03125 
Q 4.546875 7.234375 3.078125 15.484375 
z
" id="ArialMT-73"/>
    </defs>
    <g style="fill:#262626;" transform="translate(375.148437 26.8)scale(0.22 -0.22)">
     <use xlink:href="#ArialMT-46"/>
     <use x="61.083984" xlink:href="#ArialMT-65"/>
     <use x="116.699219" xlink:href="#ArialMT-65"/>
     <use x="172.314453" xlink:href="#ArialMT-64"/>
     <use x="227.929688" xlink:href="#ArialMT-20"/>
     <use x="255.712891" xlink:href="#ArialMT-35"/>
     <use x="311.328125" xlink:href="#ArialMT-20"/>
     <use x="339.111328" xlink:href="#ArialMT-2d"/>
     <use x="372.412109" xlink:href="#ArialMT-20"/>
     <use x="400.195312" xlink:href="#ArialMT-50"/>
     <use x="466.894531" xlink:href="#ArialMT-31"/>
     <use x="522.509766" xlink:href="#ArialMT-20"/>
     <use x="550.214844" xlink:href="#ArialMT-41"/>
     <use x="616.914062" xlink:href="#ArialMT-6c"/>
     <use x="639.130859" xlink:href="#ArialMT-6c"/>
     <use x="661.347656" xlink:href="#ArialMT-20"/>
     <use x="689.130859" xlink:href="#ArialMT-50"/>
     <use x="755.830078" xlink:href="#ArialMT-72"/>
     <use x="789.130859" xlink:href="#ArialMT-65"/>
     <use x="844.746094" xlink:href="#ArialMT-64"/>
     <use x="900.361328" xlink:href="#ArialMT-69"/>
     <use x="922.578125" xlink:href="#ArialMT-63"/>
     <use x="972.578125" xlink:href="#ArialMT-74"/>
     <use x="1000.361328" xlink:href="#ArialMT-6f"/>
     <use x="1055.976562" xlink:href="#ArialMT-72"/>
     <use x="1089.277344" xlink:href="#ArialMT-73"/>
    </g>
   </g>
   <g id="legend_1">
    <g id="patch_7">
     <path d="M 968.4 159.244375 
L 1066.83 159.244375 
Q 1069.23 159.244375 1069.23 156.844375 
L 1069.23 56.055625 
Q 1069.23 53.655625 1066.83 53.655625 
L 968.4 53.655625 
Q 966 53.655625 966 56.055625 
L 966 156.844375 
Q 966 159.244375 968.4 159.244375 
z
" style="fill:#ffffff;opacity:0.8;stroke:#cccccc;stroke-linejoin:miter;"/>
    </g>
    <g id="line2d_83">
     <path d="M 970.8 62.880625 
L 994.8 62.880625 
" style="fill:none;stroke:#4c72b0;stroke-linecap:round;stroke-opacity:0.8;stroke-width:1.5;"/>
    </g>
    <g id="line2d_84"/>
    <g id="text_17">
     <!-- predictor_0 -->
     <defs>
      <path d="M -1.515625 -19.875 
L -1.515625 -13.53125 
L 56.734375 -13.53125 
L 56.734375 -19.875 
z
" id="ArialMT-5f"/>
     </defs>
     <g style="fill:#262626;" transform="translate(1004.4 67.080625)scale(0.12 -0.12)">
      <use xlink:href="#ArialMT-70"/>
      <use x="55.615234" xlink:href="#ArialMT-72"/>
      <use x="88.916016" xlink:href="#ArialMT-65"/>
      <use x="144.53125" xlink:href="#ArialMT-64"/>
      <use x="200.146484" xlink:href="#ArialMT-69"/>
      <use x="222.363281" xlink:href="#ArialMT-63"/>
      <use x="272.363281" xlink:href="#ArialMT-74"/>
      <use x="300.146484" xlink:href="#ArialMT-6f"/>
      <use x="355.761719" xlink:href="#ArialMT-72"/>
      <use x="389.0625" xlink:href="#ArialMT-5f"/>
      <use x="444.677734" xlink:href="#ArialMT-30"/>
     </g>
    </g>
    <g id="line2d_85">
     <path d="M 970.8 79.890625 
L 994.8 79.890625 
" style="fill:none;stroke:#55a868;stroke-linecap:round;stroke-opacity:0.8;stroke-width:1.5;"/>
    </g>
    <g id="line2d_86"/>
    <g id="text_18">
     <!-- predictor_1 -->
     <g style="fill:#262626;" transform="translate(1004.4 84.090625)scale(0.12 -0.12)">
      <use xlink:href="#ArialMT-70"/>
      <use x="55.615234" xlink:href="#ArialMT-72"/>
      <use x="88.916016" xlink:href="#ArialMT-65"/>
      <use x="144.53125" xlink:href="#ArialMT-64"/>
      <use x="200.146484" xlink:href="#ArialMT-69"/>
      <use x="222.363281" xlink:href="#ArialMT-63"/>
      <use x="272.363281" xlink:href="#ArialMT-74"/>
      <use x="300.146484" xlink:href="#ArialMT-6f"/>
      <use x="355.761719" xlink:href="#ArialMT-72"/>
      <use x="389.0625" xlink:href="#ArialMT-5f"/>
      <use x="444.677734" xlink:href="#ArialMT-31"/>
     </g>
    </g>
    <g id="line2d_87">
     <path d="M 970.8 96.900625 
L 994.8 96.900625 
" style="fill:none;stroke:#c44e52;stroke-linecap:round;stroke-opacity:0.8;stroke-width:1.5;"/>
    </g>
    <g id="line2d_88"/>
    <g id="text_19">
     <!-- predictor_2 -->
     <g style="fill:#262626;" transform="translate(1004.4 101.100625)scale(0.12 -0.12)">
      <use xlink:href="#ArialMT-70"/>
      <use x="55.615234" xlink:href="#ArialMT-72"/>
      <use x="88.916016" xlink:href="#ArialMT-65"/>
      <use x="144.53125" xlink:href="#ArialMT-64"/>
      <use x="200.146484" xlink:href="#ArialMT-69"/>
      <use x="222.363281" xlink:href="#ArialMT-63"/>
      <use x="272.363281" xlink:href="#ArialMT-74"/>
      <use x="300.146484" xlink:href="#ArialMT-6f"/>
      <use x="355.761719" xlink:href="#ArialMT-72"/>
      <use x="389.0625" xlink:href="#ArialMT-5f"/>
      <use x="444.677734" xlink:href="#ArialMT-32"/>
     </g>
    </g>
    <g id="line2d_89">
     <path d="M 970.8 113.910625 
L 994.8 113.910625 
" style="fill:none;stroke:#8172b2;stroke-linecap:round;stroke-opacity:0.8;stroke-width:1.5;"/>
    </g>
    <g id="line2d_90"/>
    <g id="text_20">
     <!-- predictor_3 -->
     <defs>
      <path d="M 4.203125 18.890625 
L 12.984375 20.0625 
Q 14.5 12.59375 18.140625 9.296875 
Q 21.78125 6 27 6 
Q 33.203125 6 37.46875 10.296875 
Q 41.75 14.59375 41.75 20.953125 
Q 41.75 27 37.796875 30.921875 
Q 33.84375 34.859375 27.734375 34.859375 
Q 25.25 34.859375 21.53125 33.890625 
L 22.515625 41.609375 
Q 23.390625 41.5 23.921875 41.5 
Q 29.546875 41.5 34.03125 44.421875 
Q 38.53125 47.359375 38.53125 53.46875 
Q 38.53125 58.296875 35.25 61.46875 
Q 31.984375 64.65625 26.8125 64.65625 
Q 21.6875 64.65625 18.265625 61.421875 
Q 14.84375 58.203125 13.875 51.765625 
L 5.078125 53.328125 
Q 6.6875 62.15625 12.390625 67.015625 
Q 18.109375 71.875 26.609375 71.875 
Q 32.46875 71.875 37.390625 69.359375 
Q 42.328125 66.84375 44.9375 62.5 
Q 47.5625 58.15625 47.5625 53.265625 
Q 47.5625 48.640625 45.0625 44.828125 
Q 42.578125 41.015625 37.703125 38.765625 
Q 44.046875 37.3125 47.5625 32.6875 
Q 51.078125 28.078125 51.078125 21.140625 
Q 51.078125 11.765625 44.234375 5.25 
Q 37.40625 -1.265625 26.953125 -1.265625 
Q 17.53125 -1.265625 11.296875 4.34375 
Q 5.078125 9.96875 4.203125 18.890625 
z
" id="ArialMT-33"/>
     </defs>
     <g style="fill:#262626;" transform="translate(1004.4 118.110625)scale(0.12 -0.12)">
      <use xlink:href="#ArialMT-70"/>
      <use x="55.615234" xlink:href="#ArialMT-72"/>
      <use x="88.916016" xlink:href="#ArialMT-65"/>
      <use x="144.53125" xlink:href="#ArialMT-64"/>
      <use x="200.146484" xlink:href="#ArialMT-69"/>
      <use x="222.363281" xlink:href="#ArialMT-63"/>
      <use x="272.363281" xlink:href="#ArialMT-74"/>
      <use x="300.146484" xlink:href="#ArialMT-6f"/>
      <use x="355.761719" xlink:href="#ArialMT-72"/>
      <use x="389.0625" xlink:href="#ArialMT-5f"/>
      <use x="444.677734" xlink:href="#ArialMT-33"/>
     </g>
    </g>
    <g id="line2d_91">
     <path d="M 970.8 130.885 
L 994.8 130.885 
" style="fill:none;stroke:#ccb974;stroke-linecap:round;stroke-opacity:0.8;stroke-width:1.5;"/>
    </g>
    <g id="line2d_92"/>
    <g id="text_21">
     <!-- predictor_4 -->
     <defs>
      <path d="M 32.328125 0 
L 32.328125 17.140625 
L 1.265625 17.140625 
L 1.265625 25.203125 
L 33.9375 71.578125 
L 41.109375 71.578125 
L 41.109375 25.203125 
L 50.78125 25.203125 
L 50.78125 17.140625 
L 41.109375 17.140625 
L 41.109375 0 
z
M 32.328125 25.203125 
L 32.328125 57.46875 
L 9.90625 25.203125 
z
" id="ArialMT-34"/>
     </defs>
     <g style="fill:#262626;" transform="translate(1004.4 135.085)scale(0.12 -0.12)">
      <use xlink:href="#ArialMT-70"/>
      <use x="55.615234" xlink:href="#ArialMT-72"/>
      <use x="88.916016" xlink:href="#ArialMT-65"/>
      <use x="144.53125" xlink:href="#ArialMT-64"/>
      <use x="200.146484" xlink:href="#ArialMT-69"/>
      <use x="222.363281" xlink:href="#ArialMT-63"/>
      <use x="272.363281" xlink:href="#ArialMT-74"/>
      <use x="300.146484" xlink:href="#ArialMT-6f"/>
      <use x="355.761719" xlink:href="#ArialMT-72"/>
      <use x="389.0625" xlink:href="#ArialMT-5f"/>
      <use x="444.677734" xlink:href="#ArialMT-34"/>
     </g>
    </g>
    <g id="line2d_93">
     <path d="M 970.8 147.859375 
L 994.8 147.859375 
" style="fill:none;stroke:#64b5cd;stroke-linecap:round;stroke-opacity:0.8;stroke-width:1.5;"/>
    </g>
    <g id="line2d_94"/>
    <g id="text_22">
     <!-- predictor_5 -->
     <g style="fill:#262626;" transform="translate(1004.4 152.059375)scale(0.12 -0.12)">
      <use xlink:href="#ArialMT-70"/>
      <use x="55.615234" xlink:href="#ArialMT-72"/>
      <use x="88.916016" xlink:href="#ArialMT-65"/>
      <use x="144.53125" xlink:href="#ArialMT-64"/>
      <use x="200.146484" xlink:href="#ArialMT-69"/>
      <use x="222.363281" xlink:href="#ArialMT-63"/>
      <use x="272.363281" xlink:href="#ArialMT-74"/>
      <use x="300.146484" xlink:href="#ArialMT-6f"/>
      <use x="355.761719" xlink:href="#ArialMT-72"/>
      <use x="389.0625" xlink:href="#ArialMT-5f"/>
      <use x="444.677734" xlink:href="#ArialMT-35"/>
     </g>
    </g>
   </g>
  </g>
 </g>
 <defs>
  <clipPath id="p07c6d32ead">
   <rect height="147.3" width="919.075" x="40.925" y="32.8"/>
  </clipPath>
 </defs>
</svg>
