<?xml version="1.0" encoding="utf-8" standalone="no"?>
<!DOCTYPE svg PUBLIC "-//W3C//DTD SVG 1.1//EN"
  "http://www.w3.org/Graphics/SVG/1.1/DTD/svg11.dtd">
<!-- Created with matplotlib (http://matplotlib.org/) -->
<svg height="216pt" version="1.1" viewBox="0 0 1080 216" width="1080pt" xmlns="http://www.w3.org/2000/svg" xmlns:xlink="http://www.w3.org/1999/xlink">
 <defs>
  <style type="text/css">
*{stroke-linecap:butt;stroke-linejoin:round;}
  </style>
 </defs>
 <g id="figure_1">
  <g id="patch_1">
   <path d="M 0 216 
L 1080 216 
L 1080 0 
L 0 0 
z
" style="fill:none;"/>
  </g>
  <g id="axes_1">
   <g id="patch_2">
    <path d="M 41.425 180.1 
L 977.825 180.1 
L 977.825 32.8 
L 41.425 32.8 
z
" style="fill:#ffffff;"/>
   </g>
   <g id="matplotlib.axis_1">
    <g id="xtick_1">
     <g id="line2d_1">
      <path clip-path="url(#p800db84c8a)" d="M 131.117922 180.1 
L 131.117922 32.8 
" style="fill:none;stroke:#cccccc;stroke-linecap:round;stroke-width:0.8;"/>
     </g>
     <g id="line2d_2"/>
     <g id="text_1">
      <!-- Feb -->
      <defs>
       <path d="M 8.203125 0 
L 8.203125 71.578125 
L 56.5 71.578125 
L 56.5 63.140625 
L 17.671875 63.140625 
L 17.671875 40.96875 
L 51.265625 40.96875 
L 51.265625 32.515625 
L 17.671875 32.515625 
L 17.671875 0 
z
" id="ArialMT-46"/>
       <path d="M 42.09375 16.703125 
L 51.171875 15.578125 
Q 49.03125 7.625 43.21875 3.21875 
Q 37.40625 -1.171875 28.375 -1.171875 
Q 17 -1.171875 10.328125 5.828125 
Q 3.65625 12.84375 3.65625 25.484375 
Q 3.65625 38.578125 10.390625 45.796875 
Q 17.140625 53.03125 27.875 53.03125 
Q 38.28125 53.03125 44.875 45.953125 
Q 51.46875 38.875 51.46875 26.03125 
Q 51.46875 25.25 51.421875 23.6875 
L 12.75 23.6875 
Q 13.234375 15.140625 17.578125 10.59375 
Q 21.921875 6.0625 28.421875 6.0625 
Q 33.25 6.0625 36.671875 8.59375 
Q 40.09375 11.140625 42.09375 16.703125 
z
M 13.234375 30.90625 
L 42.1875 30.90625 
Q 41.609375 37.453125 38.875 40.71875 
Q 34.671875 45.796875 27.984375 45.796875 
Q 21.921875 45.796875 17.796875 41.75 
Q 13.671875 37.703125 13.234375 30.90625 
z
" id="ArialMT-65"/>
       <path d="M 14.703125 0 
L 6.546875 0 
L 6.546875 71.578125 
L 15.328125 71.578125 
L 15.328125 46.046875 
Q 20.90625 53.03125 29.546875 53.03125 
Q 34.328125 53.03125 38.59375 51.09375 
Q 42.875 49.171875 45.625 45.671875 
Q 48.390625 42.1875 49.953125 37.25 
Q 51.515625 32.328125 51.515625 26.703125 
Q 51.515625 13.375 44.921875 6.09375 
Q 38.328125 -1.171875 29.109375 -1.171875 
Q 19.921875 -1.171875 14.703125 6.5 
z
M 14.59375 26.3125 
Q 14.59375 17 17.140625 12.84375 
Q 21.296875 6.0625 28.375 6.0625 
Q 34.125 6.0625 38.328125 11.0625 
Q 42.53125 16.0625 42.53125 25.984375 
Q 42.53125 36.140625 38.5 40.96875 
Q 34.46875 45.796875 28.765625 45.796875 
Q 23 45.796875 18.796875 40.796875 
Q 14.59375 35.796875 14.59375 26.3125 
z
" id="ArialMT-62"/>
      </defs>
      <g style="fill:#262626;" transform="translate(120.78011 192.189375)scale(0.12 -0.12)">
       <use xlink:href="#ArialMT-46"/>
       <use x="61.083984" xlink:href="#ArialMT-65"/>
       <use x="116.699219" xlink:href="#ArialMT-62"/>
      </g>
      <!-- 2016 -->
      <defs>
       <path d="M 50.34375 8.453125 
L 50.34375 0 
L 3.03125 0 
Q 2.9375 3.171875 4.046875 6.109375 
Q 5.859375 10.9375 9.828125 15.625 
Q 13.8125 20.3125 21.34375 26.46875 
Q 33.015625 36.03125 37.109375 41.625 
Q 41.21875 47.21875 41.21875 52.203125 
Q 41.21875 57.421875 37.46875 61 
Q 33.734375 64.59375 27.734375 64.59375 
Q 21.390625 64.59375 17.578125 60.78125 
Q 13.765625 56.984375 13.71875 50.25 
L 4.6875 51.171875 
Q 5.609375 61.28125 11.65625 66.578125 
Q 17.71875 71.875 27.9375 71.875 
Q 38.234375 71.875 44.234375 66.15625 
Q 50.25 60.453125 50.25 52 
Q 50.25 47.703125 48.484375 43.546875 
Q 46.734375 39.40625 42.65625 34.8125 
Q 38.578125 30.21875 29.109375 22.21875 
Q 21.1875 15.578125 18.9375 13.203125 
Q 16.703125 10.84375 15.234375 8.453125 
z
" id="ArialMT-32"/>
       <path d="M 4.15625 35.296875 
Q 4.15625 48 6.765625 55.734375 
Q 9.375 63.484375 14.515625 67.671875 
Q 19.671875 71.875 27.484375 71.875 
Q 33.25 71.875 37.59375 69.546875 
Q 41.9375 67.234375 44.765625 62.859375 
Q 47.609375 58.5 49.21875 52.21875 
Q 50.828125 45.953125 50.828125 35.296875 
Q 50.828125 22.703125 48.234375 14.96875 
Q 45.65625 7.234375 40.5 3 
Q 35.359375 -1.21875 27.484375 -1.21875 
Q 17.140625 -1.21875 11.234375 6.203125 
Q 4.15625 15.140625 4.15625 35.296875 
z
M 13.1875 35.296875 
Q 13.1875 17.671875 17.3125 11.828125 
Q 21.4375 6 27.484375 6 
Q 33.546875 6 37.671875 11.859375 
Q 41.796875 17.71875 41.796875 35.296875 
Q 41.796875 52.984375 37.671875 58.78125 
Q 33.546875 64.59375 27.390625 64.59375 
Q 21.34375 64.59375 17.71875 59.46875 
Q 13.1875 52.9375 13.1875 35.296875 
z
" id="ArialMT-30"/>
       <path d="M 37.25 0 
L 28.46875 0 
L 28.46875 56 
Q 25.296875 52.984375 20.140625 49.953125 
Q 14.984375 46.921875 10.890625 45.40625 
L 10.890625 53.90625 
Q 18.265625 57.375 23.78125 62.296875 
Q 29.296875 67.234375 31.59375 71.875 
L 37.25 71.875 
z
" id="ArialMT-31"/>
       <path d="M 49.75 54.046875 
L 41.015625 53.375 
Q 39.84375 58.546875 37.703125 60.890625 
Q 34.125 64.65625 28.90625 64.65625 
Q 24.703125 64.65625 21.53125 62.3125 
Q 17.390625 59.28125 14.984375 53.46875 
Q 12.59375 47.65625 12.5 36.921875 
Q 15.671875 41.75 20.265625 44.09375 
Q 24.859375 46.4375 29.890625 46.4375 
Q 38.671875 46.4375 44.84375 39.96875 
Q 51.03125 33.5 51.03125 23.25 
Q 51.03125 16.5 48.125 10.71875 
Q 45.21875 4.9375 40.140625 1.859375 
Q 35.0625 -1.21875 28.609375 -1.21875 
Q 17.625 -1.21875 10.6875 6.859375 
Q 3.765625 14.9375 3.765625 33.5 
Q 3.765625 54.25 11.421875 63.671875 
Q 18.109375 71.875 29.4375 71.875 
Q 37.890625 71.875 43.28125 67.140625 
Q 48.6875 62.40625 49.75 54.046875 
z
M 13.875 23.1875 
Q 13.875 18.65625 15.796875 14.5 
Q 17.71875 10.359375 21.1875 8.171875 
Q 24.65625 6 28.46875 6 
Q 34.03125 6 38.03125 10.484375 
Q 42.046875 14.984375 42.046875 22.703125 
Q 42.046875 30.125 38.078125 34.390625 
Q 34.125 38.671875 28.125 38.671875 
Q 22.171875 38.671875 18.015625 34.390625 
Q 13.875 30.125 13.875 23.1875 
z
" id="ArialMT-36"/>
      </defs>
      <g style="fill:#262626;" transform="translate(117.771672 204.881625)scale(0.12 -0.12)">
       <use xlink:href="#ArialMT-32"/>
       <use x="55.615234" xlink:href="#ArialMT-30"/>
       <use x="111.230469" xlink:href="#ArialMT-31"/>
       <use x="166.845703" xlink:href="#ArialMT-36"/>
      </g>
     </g>
    </g>
    <g id="xtick_2">
     <g id="line2d_3">
      <path clip-path="url(#p800db84c8a)" d="M 216.539753 180.1 
L 216.539753 32.8 
" style="fill:none;stroke:#cccccc;stroke-linecap:round;stroke-width:0.8;"/>
     </g>
     <g id="line2d_4"/>
     <g id="text_2">
      <!-- Mar -->
      <defs>
       <path d="M 7.421875 0 
L 7.421875 71.578125 
L 21.6875 71.578125 
L 38.625 20.90625 
Q 40.96875 13.8125 42.046875 10.296875 
Q 43.265625 14.203125 45.84375 21.78125 
L 62.984375 71.578125 
L 75.734375 71.578125 
L 75.734375 0 
L 66.609375 0 
L 66.609375 59.90625 
L 45.796875 0 
L 37.25 0 
L 16.546875 60.9375 
L 16.546875 0 
z
" id="ArialMT-4d"/>
       <path d="M 40.4375 6.390625 
Q 35.546875 2.25 31.03125 0.53125 
Q 26.515625 -1.171875 21.34375 -1.171875 
Q 12.796875 -1.171875 8.203125 3 
Q 3.609375 7.171875 3.609375 13.671875 
Q 3.609375 17.484375 5.34375 20.625 
Q 7.078125 23.78125 9.890625 25.6875 
Q 12.703125 27.59375 16.21875 28.5625 
Q 18.796875 29.25 24.03125 29.890625 
Q 34.671875 31.15625 39.703125 32.90625 
Q 39.75 34.71875 39.75 35.203125 
Q 39.75 40.578125 37.25 42.78125 
Q 33.890625 45.75 27.25 45.75 
Q 21.046875 45.75 18.09375 43.578125 
Q 15.140625 41.40625 13.71875 35.890625 
L 5.125 37.0625 
Q 6.296875 42.578125 8.984375 45.96875 
Q 11.671875 49.359375 16.75 51.1875 
Q 21.828125 53.03125 28.515625 53.03125 
Q 35.15625 53.03125 39.296875 51.46875 
Q 43.453125 49.90625 45.40625 47.53125 
Q 47.359375 45.171875 48.140625 41.546875 
Q 48.578125 39.3125 48.578125 33.453125 
L 48.578125 21.734375 
Q 48.578125 9.46875 49.140625 6.21875 
Q 49.703125 2.984375 51.375 0 
L 42.1875 0 
Q 40.828125 2.734375 40.4375 6.390625 
z
M 39.703125 26.03125 
Q 34.90625 24.078125 25.34375 22.703125 
Q 19.921875 21.921875 17.671875 20.9375 
Q 15.4375 19.96875 14.203125 18.09375 
Q 12.984375 16.21875 12.984375 13.921875 
Q 12.984375 10.40625 15.640625 8.0625 
Q 18.3125 5.71875 23.4375 5.71875 
Q 28.515625 5.71875 32.46875 7.9375 
Q 36.421875 10.15625 38.28125 14.015625 
Q 39.703125 17 39.703125 22.796875 
z
" id="ArialMT-61"/>
       <path d="M 6.5 0 
L 6.5 51.859375 
L 14.40625 51.859375 
L 14.40625 44 
Q 17.4375 49.515625 20 51.265625 
Q 22.5625 53.03125 25.640625 53.03125 
Q 30.078125 53.03125 34.671875 50.203125 
L 31.640625 42.046875 
Q 28.421875 43.953125 25.203125 43.953125 
Q 22.3125 43.953125 20.015625 42.21875 
Q 17.71875 40.484375 16.75 37.40625 
Q 15.28125 32.71875 15.28125 27.15625 
L 15.28125 0 
z
" id="ArialMT-72"/>
      </defs>
      <g style="fill:#262626;" transform="translate(206.207566 192.189375)scale(0.12 -0.12)">
       <use xlink:href="#ArialMT-4d"/>
       <use x="83.300781" xlink:href="#ArialMT-61"/>
       <use x="138.916016" xlink:href="#ArialMT-72"/>
      </g>
     </g>
    </g>
    <g id="xtick_3">
     <g id="line2d_5">
      <path clip-path="url(#p800db84c8a)" d="M 307.852745 180.1 
L 307.852745 32.8 
" style="fill:none;stroke:#cccccc;stroke-linecap:round;stroke-width:0.8;"/>
     </g>
     <g id="line2d_6"/>
     <g id="text_3">
      <!-- Apr -->
      <defs>
       <path d="M -0.140625 0 
L 27.34375 71.578125 
L 37.546875 71.578125 
L 66.84375 0 
L 56.0625 0 
L 47.703125 21.6875 
L 17.78125 21.6875 
L 9.90625 0 
z
M 20.515625 29.390625 
L 44.78125 29.390625 
L 37.3125 49.21875 
Q 33.890625 58.25 32.234375 64.0625 
Q 30.859375 57.171875 28.375 50.390625 
z
" id="ArialMT-41"/>
       <path d="M 6.59375 -19.875 
L 6.59375 51.859375 
L 14.59375 51.859375 
L 14.59375 45.125 
Q 17.4375 49.078125 21 51.046875 
Q 24.5625 53.03125 29.640625 53.03125 
Q 36.28125 53.03125 41.359375 49.609375 
Q 46.4375 46.1875 49.015625 39.953125 
Q 51.609375 33.734375 51.609375 26.3125 
Q 51.609375 18.359375 48.75 11.984375 
Q 45.90625 5.609375 40.453125 2.21875 
Q 35.015625 -1.171875 29 -1.171875 
Q 24.609375 -1.171875 21.109375 0.6875 
Q 17.625 2.546875 15.375 5.375 
L 15.375 -19.875 
z
M 14.546875 25.640625 
Q 14.546875 15.625 18.59375 10.84375 
Q 22.65625 6.0625 28.421875 6.0625 
Q 34.28125 6.0625 38.453125 11.015625 
Q 42.625 15.96875 42.625 26.375 
Q 42.625 36.28125 38.546875 41.203125 
Q 34.46875 46.140625 28.8125 46.140625 
Q 23.1875 46.140625 18.859375 40.890625 
Q 14.546875 35.640625 14.546875 25.640625 
z
" id="ArialMT-70"/>
      </defs>
      <g style="fill:#262626;" transform="translate(298.516182 192.189375)scale(0.12 -0.12)">
       <use xlink:href="#ArialMT-41"/>
       <use x="66.699219" xlink:href="#ArialMT-70"/>
       <use x="122.314453" xlink:href="#ArialMT-72"/>
      </g>
     </g>
    </g>
    <g id="xtick_4">
     <g id="line2d_7">
      <path clip-path="url(#p800db84c8a)" d="M 396.220156 180.1 
L 396.220156 32.8 
" style="fill:none;stroke:#cccccc;stroke-linecap:round;stroke-width:0.8;"/>
     </g>
     <g id="line2d_8"/>
     <g id="text_4">
      <!-- May -->
      <defs>
       <path d="M 6.203125 -19.96875 
L 5.21875 -11.71875 
Q 8.109375 -12.5 10.25 -12.5 
Q 13.1875 -12.5 14.9375 -11.515625 
Q 16.703125 -10.546875 17.828125 -8.796875 
Q 18.65625 -7.46875 20.515625 -2.25 
Q 20.75 -1.515625 21.296875 -0.09375 
L 1.609375 51.859375 
L 11.078125 51.859375 
L 21.875 21.828125 
Q 23.96875 16.109375 25.640625 9.8125 
Q 27.15625 15.875 29.25 21.625 
L 40.328125 51.859375 
L 49.125 51.859375 
L 29.390625 -0.875 
Q 26.21875 -9.421875 24.46875 -12.640625 
Q 22.125 -17 19.09375 -19.015625 
Q 16.0625 -21.046875 11.859375 -21.046875 
Q 9.328125 -21.046875 6.203125 -19.96875 
z
" id="ArialMT-79"/>
      </defs>
      <g style="fill:#262626;" transform="translate(384.885781 192.189375)scale(0.12 -0.12)">
       <use xlink:href="#ArialMT-4d"/>
       <use x="83.300781" xlink:href="#ArialMT-61"/>
       <use x="138.916016" xlink:href="#ArialMT-79"/>
      </g>
     </g>
    </g>
    <g id="xtick_5">
     <g id="line2d_9">
      <path clip-path="url(#p800db84c8a)" d="M 487.533147 180.1 
L 487.533147 32.8 
" style="fill:none;stroke:#cccccc;stroke-linecap:round;stroke-width:0.8;"/>
     </g>
     <g id="line2d_10"/>
     <g id="text_5">
      <!-- Jun -->
      <defs>
       <path d="M 2.875 20.3125 
L 11.421875 21.484375 
Q 11.765625 13.28125 14.5 10.25 
Q 17.234375 7.234375 22.078125 7.234375 
Q 25.640625 7.234375 28.21875 8.859375 
Q 30.8125 10.5 31.78125 13.296875 
Q 32.765625 16.109375 32.765625 22.265625 
L 32.765625 71.578125 
L 42.234375 71.578125 
L 42.234375 22.796875 
Q 42.234375 13.8125 40.0625 8.875 
Q 37.890625 3.953125 33.171875 1.359375 
Q 28.46875 -1.21875 22.125 -1.21875 
Q 12.703125 -1.21875 7.6875 4.203125 
Q 2.6875 9.625 2.875 20.3125 
z
" id="ArialMT-4a"/>
       <path d="M 40.578125 0 
L 40.578125 7.625 
Q 34.515625 -1.171875 24.125 -1.171875 
Q 19.53125 -1.171875 15.546875 0.578125 
Q 11.578125 2.34375 9.640625 5 
Q 7.71875 7.671875 6.9375 11.53125 
Q 6.390625 14.109375 6.390625 19.734375 
L 6.390625 51.859375 
L 15.1875 51.859375 
L 15.1875 23.09375 
Q 15.1875 16.21875 15.71875 13.8125 
Q 16.546875 10.359375 19.234375 8.375 
Q 21.921875 6.390625 25.875 6.390625 
Q 29.828125 6.390625 33.296875 8.421875 
Q 36.765625 10.453125 38.203125 13.9375 
Q 39.65625 17.4375 39.65625 24.078125 
L 39.65625 51.859375 
L 48.4375 51.859375 
L 48.4375 0 
z
" id="ArialMT-75"/>
       <path d="M 6.59375 0 
L 6.59375 51.859375 
L 14.5 51.859375 
L 14.5 44.484375 
Q 20.21875 53.03125 31 53.03125 
Q 35.6875 53.03125 39.625 51.34375 
Q 43.5625 49.65625 45.515625 46.921875 
Q 47.46875 44.1875 48.25 40.4375 
Q 48.734375 37.984375 48.734375 31.890625 
L 48.734375 0 
L 39.9375 0 
L 39.9375 31.546875 
Q 39.9375 36.921875 38.90625 39.578125 
Q 37.890625 42.234375 35.28125 43.8125 
Q 32.671875 45.40625 29.15625 45.40625 
Q 23.53125 45.40625 19.453125 41.84375 
Q 15.375 38.28125 15.375 28.328125 
L 15.375 0 
z
" id="ArialMT-6e"/>
      </defs>
      <g style="fill:#262626;" transform="translate(477.860022 192.189375)scale(0.12 -0.12)">
       <use xlink:href="#ArialMT-4a"/>
       <use x="50" xlink:href="#ArialMT-75"/>
       <use x="105.615234" xlink:href="#ArialMT-6e"/>
      </g>
     </g>
    </g>
    <g id="xtick_6">
     <g id="line2d_11">
      <path clip-path="url(#p800db84c8a)" d="M 575.900558 180.1 
L 575.900558 32.8 
" style="fill:none;stroke:#cccccc;stroke-linecap:round;stroke-width:0.8;"/>
     </g>
     <g id="line2d_12"/>
     <g id="text_6">
      <!-- Jul -->
      <defs>
       <path d="M 6.390625 0 
L 6.390625 71.578125 
L 15.1875 71.578125 
L 15.1875 0 
z
" id="ArialMT-6c"/>
      </defs>
      <g style="fill:#262626;" transform="translate(568.230871 192.189375)scale(0.12 -0.12)">
       <use xlink:href="#ArialMT-4a"/>
       <use x="50" xlink:href="#ArialMT-75"/>
       <use x="105.615234" xlink:href="#ArialMT-6c"/>
      </g>
     </g>
    </g>
    <g id="xtick_7">
     <g id="line2d_13">
      <path clip-path="url(#p800db84c8a)" d="M 667.21355 180.1 
L 667.21355 32.8 
" style="fill:none;stroke:#cccccc;stroke-linecap:round;stroke-width:0.8;"/>
     </g>
     <g id="line2d_14"/>
     <g id="text_7">
      <!-- Aug -->
      <defs>
       <path d="M 4.984375 -4.296875 
L 13.53125 -5.5625 
Q 14.0625 -9.515625 16.5 -11.328125 
Q 19.78125 -13.765625 25.4375 -13.765625 
Q 31.546875 -13.765625 34.859375 -11.328125 
Q 38.1875 -8.890625 39.359375 -4.5 
Q 40.046875 -1.8125 39.984375 6.78125 
Q 34.234375 0 25.640625 0 
Q 14.9375 0 9.078125 7.71875 
Q 3.21875 15.4375 3.21875 26.21875 
Q 3.21875 33.640625 5.90625 39.90625 
Q 8.59375 46.1875 13.6875 49.609375 
Q 18.796875 53.03125 25.6875 53.03125 
Q 34.859375 53.03125 40.828125 45.609375 
L 40.828125 51.859375 
L 48.921875 51.859375 
L 48.921875 7.03125 
Q 48.921875 -5.078125 46.453125 -10.125 
Q 44 -15.1875 38.640625 -18.109375 
Q 33.296875 -21.046875 25.484375 -21.046875 
Q 16.21875 -21.046875 10.5 -16.875 
Q 4.78125 -12.703125 4.984375 -4.296875 
z
M 12.25 26.859375 
Q 12.25 16.65625 16.296875 11.96875 
Q 20.359375 7.28125 26.46875 7.28125 
Q 32.515625 7.28125 36.609375 11.9375 
Q 40.71875 16.609375 40.71875 26.5625 
Q 40.71875 36.078125 36.5 40.90625 
Q 32.28125 45.75 26.3125 45.75 
Q 20.453125 45.75 16.34375 40.984375 
Q 12.25 36.234375 12.25 26.859375 
z
" id="ArialMT-67"/>
      </defs>
      <g style="fill:#262626;" transform="translate(656.538237 192.189375)scale(0.12 -0.12)">
       <use xlink:href="#ArialMT-41"/>
       <use x="66.699219" xlink:href="#ArialMT-75"/>
       <use x="122.314453" xlink:href="#ArialMT-67"/>
      </g>
     </g>
    </g>
    <g id="xtick_8">
     <g id="line2d_15">
      <path clip-path="url(#p800db84c8a)" d="M 758.526541 180.1 
L 758.526541 32.8 
" style="fill:none;stroke:#cccccc;stroke-linecap:round;stroke-width:0.8;"/>
     </g>
     <g id="line2d_16"/>
     <g id="text_8">
      <!-- Sep -->
      <defs>
       <path d="M 4.5 23 
L 13.421875 23.78125 
Q 14.0625 18.40625 16.375 14.96875 
Q 18.703125 11.53125 23.578125 9.40625 
Q 28.46875 7.28125 34.578125 7.28125 
Q 39.984375 7.28125 44.140625 8.890625 
Q 48.296875 10.5 50.3125 13.296875 
Q 52.34375 16.109375 52.34375 19.4375 
Q 52.34375 22.796875 50.390625 25.3125 
Q 48.4375 27.828125 43.953125 29.546875 
Q 41.0625 30.671875 31.203125 33.03125 
Q 21.34375 35.40625 17.390625 37.5 
Q 12.25 40.1875 9.734375 44.15625 
Q 7.234375 48.140625 7.234375 53.078125 
Q 7.234375 58.5 10.296875 63.203125 
Q 13.375 67.921875 19.28125 70.359375 
Q 25.203125 72.796875 32.421875 72.796875 
Q 40.375 72.796875 46.453125 70.234375 
Q 52.546875 67.671875 55.8125 62.6875 
Q 59.078125 57.71875 59.328125 51.421875 
L 50.25 50.734375 
Q 49.515625 57.515625 45.28125 60.984375 
Q 41.0625 64.453125 32.8125 64.453125 
Q 24.21875 64.453125 20.28125 61.296875 
Q 16.359375 58.15625 16.359375 53.71875 
Q 16.359375 49.859375 19.140625 47.359375 
Q 21.875 44.875 33.421875 42.265625 
Q 44.96875 39.65625 49.265625 37.703125 
Q 55.515625 34.8125 58.484375 30.390625 
Q 61.46875 25.984375 61.46875 20.21875 
Q 61.46875 14.5 58.203125 9.4375 
Q 54.9375 4.390625 48.796875 1.578125 
Q 42.671875 -1.21875 35.015625 -1.21875 
Q 25.296875 -1.21875 18.71875 1.609375 
Q 12.15625 4.4375 8.421875 10.125 
Q 4.6875 15.828125 4.5 23 
z
" id="ArialMT-53"/>
      </defs>
      <g style="fill:#262626;" transform="translate(747.851229 192.335625)scale(0.12 -0.12)">
       <use xlink:href="#ArialMT-53"/>
       <use x="66.699219" xlink:href="#ArialMT-65"/>
       <use x="122.314453" xlink:href="#ArialMT-70"/>
      </g>
     </g>
    </g>
    <g id="xtick_9">
     <g id="line2d_17">
      <path clip-path="url(#p800db84c8a)" d="M 846.893953 180.1 
L 846.893953 32.8 
" style="fill:none;stroke:#cccccc;stroke-linecap:round;stroke-width:0.8;"/>
     </g>
     <g id="line2d_18"/>
     <g id="text_9">
      <!-- Oct -->
      <defs>
       <path d="M 4.828125 34.859375 
Q 4.828125 52.6875 14.390625 62.765625 
Q 23.96875 72.859375 39.109375 72.859375 
Q 49.03125 72.859375 56.984375 68.109375 
Q 64.9375 63.375 69.109375 54.90625 
Q 73.296875 46.4375 73.296875 35.6875 
Q 73.296875 24.8125 68.890625 16.21875 
Q 64.5 7.625 56.4375 3.203125 
Q 48.390625 -1.21875 39.0625 -1.21875 
Q 28.953125 -1.21875 20.984375 3.65625 
Q 13.03125 8.546875 8.921875 16.984375 
Q 4.828125 25.4375 4.828125 34.859375 
z
M 14.59375 34.71875 
Q 14.59375 21.78125 21.546875 14.328125 
Q 28.515625 6.890625 39.015625 6.890625 
Q 49.703125 6.890625 56.609375 14.40625 
Q 63.53125 21.921875 63.53125 35.75 
Q 63.53125 44.484375 60.578125 51 
Q 57.625 57.515625 51.921875 61.109375 
Q 46.234375 64.703125 39.15625 64.703125 
Q 29.109375 64.703125 21.84375 57.78125 
Q 14.59375 50.875 14.59375 34.71875 
z
" id="ArialMT-4f"/>
       <path d="M 40.4375 19 
L 49.078125 17.875 
Q 47.65625 8.9375 41.8125 3.875 
Q 35.984375 -1.171875 27.484375 -1.171875 
Q 16.84375 -1.171875 10.375 5.78125 
Q 3.90625 12.75 3.90625 25.734375 
Q 3.90625 34.125 6.6875 40.421875 
Q 9.46875 46.734375 15.15625 49.875 
Q 20.84375 53.03125 27.546875 53.03125 
Q 35.984375 53.03125 41.359375 48.75 
Q 46.734375 44.484375 48.25 36.625 
L 39.703125 35.296875 
Q 38.484375 40.53125 35.375 43.15625 
Q 32.28125 45.796875 27.875 45.796875 
Q 21.234375 45.796875 17.078125 41.03125 
Q 12.9375 36.28125 12.9375 25.984375 
Q 12.9375 15.53125 16.9375 10.796875 
Q 20.953125 6.0625 27.390625 6.0625 
Q 32.5625 6.0625 36.03125 9.234375 
Q 39.5 12.40625 40.4375 19 
z
" id="ArialMT-63"/>
       <path d="M 25.78125 7.859375 
L 27.046875 0.09375 
Q 23.34375 -0.6875 20.40625 -0.6875 
Q 15.625 -0.6875 12.984375 0.828125 
Q 10.359375 2.34375 9.28125 4.8125 
Q 8.203125 7.28125 8.203125 15.1875 
L 8.203125 45.015625 
L 1.765625 45.015625 
L 1.765625 51.859375 
L 8.203125 51.859375 
L 8.203125 64.703125 
L 16.9375 69.96875 
L 16.9375 51.859375 
L 25.78125 51.859375 
L 25.78125 45.015625 
L 16.9375 45.015625 
L 16.9375 14.703125 
Q 16.9375 10.9375 17.40625 9.859375 
Q 17.875 8.796875 18.921875 8.15625 
Q 19.96875 7.515625 21.921875 7.515625 
Q 23.390625 7.515625 25.78125 7.859375 
z
" id="ArialMT-74"/>
      </defs>
      <g style="fill:#262626;" transform="translate(837.560203 192.189375)scale(0.12 -0.12)">
       <use xlink:href="#ArialMT-4f"/>
       <use x="77.783203" xlink:href="#ArialMT-63"/>
       <use x="127.783203" xlink:href="#ArialMT-74"/>
      </g>
     </g>
    </g>
    <g id="xtick_10">
     <g id="line2d_19">
      <path clip-path="url(#p800db84c8a)" d="M 938.206944 180.1 
L 938.206944 32.8 
" style="fill:none;stroke:#cccccc;stroke-linecap:round;stroke-width:0.8;"/>
     </g>
     <g id="line2d_20"/>
     <g id="text_10">
      <!-- Nov -->
      <defs>
       <path d="M 7.625 0 
L 7.625 71.578125 
L 17.328125 71.578125 
L 54.9375 15.375 
L 54.9375 71.578125 
L 64.015625 71.578125 
L 64.015625 0 
L 54.296875 0 
L 16.703125 56.25 
L 16.703125 0 
z
" id="ArialMT-4e"/>
       <path d="M 3.328125 25.921875 
Q 3.328125 40.328125 11.328125 47.265625 
Q 18.015625 53.03125 27.640625 53.03125 
Q 38.328125 53.03125 45.109375 46.015625 
Q 51.90625 39.015625 51.90625 26.65625 
Q 51.90625 16.65625 48.90625 10.90625 
Q 45.90625 5.171875 40.15625 2 
Q 34.421875 -1.171875 27.640625 -1.171875 
Q 16.75 -1.171875 10.03125 5.8125 
Q 3.328125 12.796875 3.328125 25.921875 
z
M 12.359375 25.921875 
Q 12.359375 15.96875 16.703125 11.015625 
Q 21.046875 6.0625 27.640625 6.0625 
Q 34.1875 6.0625 38.53125 11.03125 
Q 42.875 16.015625 42.875 26.21875 
Q 42.875 35.84375 38.5 40.796875 
Q 34.125 45.75 27.640625 45.75 
Q 21.046875 45.75 16.703125 40.8125 
Q 12.359375 35.890625 12.359375 25.921875 
z
" id="ArialMT-6f"/>
       <path d="M 21 0 
L 1.265625 51.859375 
L 10.546875 51.859375 
L 21.6875 20.796875 
Q 23.484375 15.765625 25 10.359375 
Q 26.171875 14.453125 28.265625 20.21875 
L 39.796875 51.859375 
L 48.828125 51.859375 
L 29.203125 0 
z
" id="ArialMT-76"/>
      </defs>
      <g style="fill:#262626;" transform="translate(927.537257 192.189375)scale(0.12 -0.12)">
       <use xlink:href="#ArialMT-4e"/>
       <use x="72.216797" xlink:href="#ArialMT-6f"/>
       <use x="127.832031" xlink:href="#ArialMT-76"/>
      </g>
     </g>
    </g>
    <g id="xtick_11">
     <g id="line2d_21">
      <path clip-path="url(#p800db84c8a)" d="M 976.499489 180.1 
L 976.499489 32.8 
" style="fill:none;stroke:#cccccc;stroke-linecap:round;stroke-width:0.8;"/>
     </g>
     <g id="line2d_22"/>
    </g>
    <g id="xtick_12">
     <g id="line2d_23"/>
    </g>
    <g id="xtick_13">
     <g id="line2d_24"/>
    </g>
    <g id="xtick_14">
     <g id="line2d_25"/>
    </g>
    <g id="xtick_15">
     <g id="line2d_26"/>
    </g>
    <g id="xtick_16">
     <g id="line2d_27"/>
    </g>
    <g id="xtick_17">
     <g id="line2d_28"/>
    </g>
    <g id="xtick_18">
     <g id="line2d_29"/>
    </g>
    <g id="xtick_19">
     <g id="line2d_30"/>
    </g>
    <g id="xtick_20">
     <g id="line2d_31"/>
    </g>
    <g id="xtick_21">
     <g id="line2d_32"/>
    </g>
    <g id="xtick_22">
     <g id="line2d_33"/>
    </g>
    <g id="xtick_23">
     <g id="line2d_34"/>
    </g>
    <g id="xtick_24">
     <g id="line2d_35"/>
    </g>
    <g id="xtick_25">
     <g id="line2d_36"/>
    </g>
    <g id="xtick_26">
     <g id="line2d_37"/>
    </g>
    <g id="xtick_27">
     <g id="line2d_38"/>
    </g>
    <g id="xtick_28">
     <g id="line2d_39"/>
    </g>
    <g id="xtick_29">
     <g id="line2d_40"/>
    </g>
    <g id="xtick_30">
     <g id="line2d_41"/>
    </g>
    <g id="xtick_31">
     <g id="line2d_42"/>
    </g>
    <g id="xtick_32">
     <g id="line2d_43"/>
    </g>
    <g id="xtick_33">
     <g id="line2d_44"/>
    </g>
    <g id="xtick_34">
     <g id="line2d_45"/>
    </g>
    <g id="xtick_35">
     <g id="line2d_46"/>
    </g>
    <g id="xtick_36">
     <g id="line2d_47"/>
    </g>
    <g id="xtick_37">
     <g id="line2d_48"/>
    </g>
    <g id="xtick_38">
     <g id="line2d_49"/>
    </g>
    <g id="xtick_39">
     <g id="line2d_50"/>
    </g>
    <g id="xtick_40">
     <g id="line2d_51"/>
    </g>
    <g id="xtick_41">
     <g id="line2d_52"/>
    </g>
    <g id="xtick_42">
     <g id="line2d_53"/>
    </g>
    <g id="xtick_43">
     <g id="line2d_54"/>
    </g>
    <g id="xtick_44">
     <g id="line2d_55"/>
    </g>
    <g id="xtick_45">
     <g id="line2d_56"/>
    </g>
    <g id="xtick_46">
     <g id="line2d_57"/>
    </g>
    <g id="xtick_47">
     <g id="line2d_58"/>
    </g>
    <g id="xtick_48">
     <g id="line2d_59"/>
    </g>
    <g id="xtick_49">
     <g id="line2d_60"/>
    </g>
    <g id="xtick_50">
     <g id="line2d_61"/>
    </g>
    <g id="xtick_51">
     <g id="line2d_62"/>
    </g>
    <g id="xtick_52">
     <g id="line2d_63"/>
    </g>
    <g id="xtick_53">
     <g id="line2d_64"/>
    </g>
    <g id="xtick_54">
     <g id="line2d_65"/>
    </g>
    <g id="xtick_55">
     <g id="line2d_66"/>
    </g>
   </g>
   <g id="matplotlib.axis_2">
    <g id="ytick_1">
     <g id="line2d_67">
      <path clip-path="url(#p800db84c8a)" d="M 41.425 180.1 
L 977.825 180.1 
" style="fill:none;stroke:#cccccc;stroke-linecap:round;stroke-width:0.8;"/>
     </g>
     <g id="line2d_68"/>
     <g id="text_11">
      <!-- −500 -->
      <defs>
       <path d="M 52.828125 31.203125 
L 5.5625 31.203125 
L 5.5625 39.40625 
L 52.828125 39.40625 
z
" id="ArialMT-2212"/>
       <path d="M 4.15625 18.75 
L 13.375 19.53125 
Q 14.40625 12.796875 18.140625 9.390625 
Q 21.875 6 27.15625 6 
Q 33.5 6 37.890625 10.78125 
Q 42.28125 15.578125 42.28125 23.484375 
Q 42.28125 31 38.0625 35.34375 
Q 33.84375 39.703125 27 39.703125 
Q 22.75 39.703125 19.328125 37.765625 
Q 15.921875 35.84375 13.96875 32.765625 
L 5.71875 33.84375 
L 12.640625 70.609375 
L 48.25 70.609375 
L 48.25 62.203125 
L 19.671875 62.203125 
L 15.828125 42.96875 
Q 22.265625 47.46875 29.34375 47.46875 
Q 38.71875 47.46875 45.15625 40.96875 
Q 51.609375 34.46875 51.609375 24.265625 
Q 51.609375 14.546875 45.953125 7.46875 
Q 39.0625 -1.21875 27.15625 -1.21875 
Q 17.390625 -1.21875 11.203125 4.25 
Q 5.03125 9.71875 4.15625 18.75 
z
" id="ArialMT-35"/>
      </defs>
      <g style="fill:#262626;" transform="translate(10.896875 184.394688)scale(0.12 -0.12)">
       <use xlink:href="#ArialMT-2212"/>
       <use x="58.398438" xlink:href="#ArialMT-35"/>
       <use x="114.013672" xlink:href="#ArialMT-30"/>
       <use x="169.628906" xlink:href="#ArialMT-30"/>
      </g>
     </g>
    </g>
    <g id="ytick_2">
     <g id="line2d_69">
      <path clip-path="url(#p800db84c8a)" d="M 41.425 155.55 
L 977.825 155.55 
" style="fill:none;stroke:#cccccc;stroke-linecap:round;stroke-width:0.8;"/>
     </g>
     <g id="line2d_70"/>
     <g id="text_12">
      <!-- −250 -->
      <g style="fill:#262626;" transform="translate(10.896875 159.844687)scale(0.12 -0.12)">
       <use xlink:href="#ArialMT-2212"/>
       <use x="58.398438" xlink:href="#ArialMT-32"/>
       <use x="114.013672" xlink:href="#ArialMT-35"/>
       <use x="169.628906" xlink:href="#ArialMT-30"/>
      </g>
     </g>
    </g>
    <g id="ytick_3">
     <g id="line2d_71">
      <path clip-path="url(#p800db84c8a)" d="M 41.425 131 
L 977.825 131 
" style="fill:none;stroke:#cccccc;stroke-linecap:round;stroke-width:0.8;"/>
     </g>
     <g id="line2d_72"/>
     <g id="text_13">
      <!-- 0 -->
      <g style="fill:#262626;" transform="translate(31.251875 135.294688)scale(0.12 -0.12)">
       <use xlink:href="#ArialMT-30"/>
      </g>
     </g>
    </g>
    <g id="ytick_4">
     <g id="line2d_73">
      <path clip-path="url(#p800db84c8a)" d="M 41.425 106.45 
L 977.825 106.45 
" style="fill:none;stroke:#cccccc;stroke-linecap:round;stroke-width:0.8;"/>
     </g>
     <g id="line2d_74"/>
     <g id="text_14">
      <!-- 250 -->
      <g style="fill:#262626;" transform="translate(17.905625 110.744687)scale(0.12 -0.12)">
       <use xlink:href="#ArialMT-32"/>
       <use x="55.615234" xlink:href="#ArialMT-35"/>
       <use x="111.230469" xlink:href="#ArialMT-30"/>
      </g>
     </g>
    </g>
    <g id="ytick_5">
     <g id="line2d_75">
      <path clip-path="url(#p800db84c8a)" d="M 41.425 81.9 
L 977.825 81.9 
" style="fill:none;stroke:#cccccc;stroke-linecap:round;stroke-width:0.8;"/>
     </g>
     <g id="line2d_76"/>
     <g id="text_15">
      <!-- 500 -->
      <g style="fill:#262626;" transform="translate(17.905625 86.194688)scale(0.12 -0.12)">
       <use xlink:href="#ArialMT-35"/>
       <use x="55.615234" xlink:href="#ArialMT-30"/>
       <use x="111.230469" xlink:href="#ArialMT-30"/>
      </g>
     </g>
    </g>
    <g id="ytick_6">
     <g id="line2d_77">
      <path clip-path="url(#p800db84c8a)" d="M 41.425 57.35 
L 977.825 57.35 
" style="fill:none;stroke:#cccccc;stroke-linecap:round;stroke-width:0.8;"/>
     </g>
     <g id="line2d_78"/>
     <g id="text_16">
      <!-- 750 -->
      <defs>
       <path d="M 4.734375 62.203125 
L 4.734375 70.65625 
L 51.078125 70.65625 
L 51.078125 63.8125 
Q 44.234375 56.546875 37.515625 44.484375 
Q 30.8125 32.421875 27.15625 19.671875 
Q 24.515625 10.6875 23.78125 0 
L 14.75 0 
Q 14.890625 8.453125 18.0625 20.40625 
Q 21.234375 32.375 27.171875 43.484375 
Q 33.109375 54.59375 39.796875 62.203125 
z
" id="ArialMT-37"/>
      </defs>
      <g style="fill:#262626;" transform="translate(17.905625 61.644688)scale(0.12 -0.12)">
       <use xlink:href="#ArialMT-37"/>
       <use x="55.615234" xlink:href="#ArialMT-35"/>
       <use x="111.230469" xlink:href="#ArialMT-30"/>
      </g>
     </g>
    </g>
    <g id="ytick_7">
     <g id="line2d_79">
      <path clip-path="url(#p800db84c8a)" d="M 41.425 32.8 
L 977.825 32.8 
" style="fill:none;stroke:#cccccc;stroke-linecap:round;stroke-width:0.8;"/>
     </g>
     <g id="line2d_80"/>
     <g id="text_17">
      <!-- 1000 -->
      <g style="fill:#262626;" transform="translate(11.2325 37.094688)scale(0.12 -0.12)">
       <use xlink:href="#ArialMT-31"/>
       <use x="55.615234" xlink:href="#ArialMT-30"/>
       <use x="111.230469" xlink:href="#ArialMT-30"/>
       <use x="166.845703" xlink:href="#ArialMT-30"/>
      </g>
     </g>
    </g>
   </g>
   <g id="line2d_81">
    <path clip-path="url(#p800db84c8a)" d="M 83.988636 100.058375 
L 86.934217 99.275722 
L 89.879797 93.147699 
L 92.825377 87.839768 
L 95.770958 95.966035 
L 98.716538 98.197449 
L 101.662119 108.609635 
L 104.607699 114.762634 
L 107.553279 103.016867 
L 110.49886 95.382614 
L 113.44444 92.244787 
L 116.39002 94.907247 
L 119.335601 100.233658 
L 122.281181 113.500691 
L 125.226762 115.227179 
L 128.172342 98.457047 
L 131.117922 90.960498 
L 134.063503 93.669996 
L 137.009083 100.547033 
L 139.954663 101.852203 
L 142.900244 114.03559 
L 145.845824 114.60632 
L 148.791405 87.953065 
L 151.736985 90.806091 
L 154.682565 95.654674 
L 157.628146 91.950381 
L 163.519306 108.575492 
L 166.464887 115.422986 
L 169.410467 93.770112 
L 172.356047 89.875082 
L 175.301628 91.873011 
L 178.247208 97.521893 
L 181.192789 99.67128 
L 184.138369 105.314522 
L 187.083949 116.357714 
L 190.02953 102.13784 
L 192.97511 91.216109 
L 195.92069 95.8089 
L 198.866271 94.561405 
L 204.757432 110.53731 
L 207.703012 112.964329 
L 210.648592 102.149305 
L 213.594173 94.560993 
L 216.539753 93.375797 
L 219.485333 94.676533 
L 222.430914 99.229977 
L 225.376494 107.608098 
L 228.322075 111.620583 
L 231.267655 93.537557 
L 234.213235 90.707386 
L 237.158816 99.522601 
L 240.104396 104.758235 
L 243.049976 105.718252 
L 245.995557 112.404723 
L 248.941137 111.512357 
L 251.886718 87.030967 
L 254.832298 87.827624 
L 257.777878 87.384388 
L 260.723459 93.535273 
L 263.669039 91.471575 
L 266.614619 103.377617 
L 269.5602 118.216949 
L 272.50578 123.313662 
L 275.45136 93.366827 
L 278.396941 156.455105 
L 281.342521 96.125978 
L 284.288102 24.856797 
L 287.233682 109.999466 
L 290.179262 106.238643 
L 293.124843 87.702617 
L 296.070423 131.625184 
L 299.016003 82.259427 
L 301.961584 85.139228 
L 304.907164 105.558695 
L 307.852745 122.018143 
L 310.798325 116.407582 
L 313.743905 94.009362 
L 316.689486 94.66048 
L 319.635066 98.788614 
L 322.580646 106.218391 
L 325.526227 97.132326 
L 328.471807 110.455507 
L 331.417388 120.445703 
L 334.362968 100.086964 
L 337.308548 57.819963 
L 340.254129 96.438199 
L 343.199709 65.457817 
L 346.145289 82.870301 
L 349.09087 103.598222 
L 352.03645 106.158023 
L 354.982031 91.16371 
L 357.927611 89.867254 
L 360.873191 104.085248 
L 363.818772 91.995406 
L 366.764352 79.218502 
L 369.709932 98.274928 
L 372.655513 104.215402 
L 375.601093 89.599338 
L 378.546673 82.42126 
L 381.492254 85.896846 
L 384.437834 81.900094 
L 387.383415 88.245714 
L 390.328995 98.784417 
L 393.274575 103.266545 
L 396.220156 90.463247 
L 399.165736 80.656859 
L 402.111316 94.815089 
L 405.056897 102.796223 
L 408.002477 95.113164 
L 410.948058 109.282731 
L 413.893638 113.526831 
L 416.839218 88.585001 
L 419.784799 81.827878 
L 422.730379 94.843346 
L 428.62154 98.04277 
L 431.56712 137.898444 
L 434.512701 107.40295 
L 437.458281 92.191081 
L 440.403861 95.528818 
L 443.349442 92.906819 
L 446.295022 94.12173 
L 449.240602 99.208086 
L 452.186183 109.973964 
L 455.131763 109.239431 
L 458.077344 88.82329 
L 460.09101 -1 
M 461.934613 -1 
L 463.968504 91.738066 
L 466.914085 102.365595 
L 469.859665 99.680751 
L 472.805245 108.915109 
L 475.750826 112.167046 
L 478.696406 89.752318 
L 481.641986 88.187565 
L 484.587567 94.83202 
L 487.533147 95.780237 
L 490.478728 100.52538 
L 493.424308 108.629545 
L 496.369888 115.931534 
L 499.315469 112.124933 
L 502.261049 97.669955 
L 505.206629 86.967591 
L 508.15221 98.607936 
L 511.09779 100.020651 
L 514.043371 112.036461 
L 516.988951 108.017345 
L 519.934531 94.93635 
L 522.880112 87.569607 
L 525.825692 94.206233 
L 528.771272 97.689155 
L 531.716853 100.51079 
L 534.662433 104.52487 
L 537.608014 98.77963 
L 540.553594 95.401923 
L 543.499174 88.573431 
L 546.444755 91.750442 
L 549.390335 94.72815 
L 552.335915 95.484332 
L 555.281496 106.441174 
L 558.227076 108.620173 
L 561.172656 100.843773 
L 564.118237 93.698528 
L 567.063817 96.633632 
L 570.009398 99.990887 
L 572.954978 107.670737 
L 575.900558 112.333253 
L 578.846139 113.751868 
L 581.791719 99.496369 
L 584.737299 96.579435 
L 587.68288 96.908111 
L 590.62846 100.49662 
L 593.574041 101.631775 
L 596.519621 111.931416 
L 599.465201 112.821729 
L 602.410782 110.014955 
L 605.356362 109.319869 
L 608.301942 111.707215 
L 611.247523 102.505599 
L 614.193103 107.909147 
L 617.138684 115.207026 
L 620.084264 112.458648 
L 623.029844 105.847202 
L 625.975425 99.868258 
L 628.921005 102.577872 
L 631.866585 102.549328 
L 634.812166 106.806266 
L 637.757746 108.951577 
L 640.703327 109.36788 
L 643.648907 101.725689 
L 646.594487 95.228524 
L 652.485648 107.49062 
L 658.376809 114.014961 
L 661.322389 114.816488 
L 664.267969 102.838017 
L 667.21355 90.018024 
L 670.15913 95.564342 
L 673.104711 103.046432 
L 676.050291 105.090486 
L 678.995871 115.628514 
L 681.941452 118.169734 
L 684.887032 102.019419 
L 687.832612 94.970271 
L 690.778193 104.092523 
L 693.723773 93.392696 
L 696.669354 96.732201 
L 699.614934 107.111084 
L 702.560514 122.444038 
L 705.506095 106.721806 
L 708.451675 87.342206 
L 711.397255 95.393354 
L 714.342836 95.04294 
L 717.288416 97.933605 
L 720.233997 112.614782 
L 723.179577 113.523428 
L 726.125157 97.03479 
L 729.070738 89.650867 
L 732.016318 95.069924 
L 734.961898 98.015393 
L 737.907479 102.103446 
L 740.853059 110.731218 
L 743.79864 113.785518 
L 746.74422 98.334315 
L 749.6898 52.045012 
L 752.635381 96.034816 
L 755.580961 98.48955 
L 758.526541 95.860607 
L 761.472122 110.411515 
L 764.417702 118.330388 
L 767.363282 97.851246 
L 770.308863 92.451315 
L 773.254443 88.196486 
L 776.200024 87.819915 
L 779.145604 96.036879 
L 782.091184 104.933036 
L 785.036765 120.465063 
L 787.982345 113.492499 
L 790.927925 92.817698 
L 793.873506 95.997881 
L 796.819086 93.768686 
L 799.764667 99.043042 
L 802.710247 106.309185 
L 805.655827 105.933155 
L 808.601408 94.799077 
L 811.546988 89.180102 
L 814.492568 94.539269 
L 817.438149 95.459077 
L 820.383729 98.350554 
L 823.32931 106.501682 
L 826.27489 104.944692 
L 829.22047 95.655378 
L 832.166051 89.143584 
L 835.111631 97.760879 
L 838.057211 95.00069 
L 841.002792 103.414488 
L 843.948372 113.659971 
L 846.893953 107.807499 
L 849.839533 91.473896 
L 852.785113 90.687782 
L 855.730694 95.340663 
L 858.676274 96.048348 
L 861.621854 98.707944 
L 864.567435 110.59276 
L 867.513015 109.91797 
L 870.458595 88.375989 
L 873.404176 92.988434 
L 876.349756 94.667313 
L 879.295337 98.804125 
L 882.240917 102.025364 
L 885.186497 112.650714 
L 888.132078 116.635719 
L 891.077658 102.876391 
L 894.023238 97.698382 
L 896.968819 95.212389 
L 899.914399 97.757026 
L 902.85998 99.136654 
L 905.80556 112.349963 
L 908.75114 112.635346 
L 911.696721 88.355026 
L 914.642301 91.846284 
L 917.587881 96.767152 
L 920.533462 95.9825 
L 923.479042 99.008854 
L 926.424623 108.684372 
L 929.370203 114.024693 
L 932.315783 87.464396 
L 935.261364 86.633557 
L 935.261364 86.633557 
" style="fill:none;stroke:#4c72b0;stroke-linecap:round;stroke-opacity:0.8;stroke-width:1.5;"/>
   </g>
   <g id="line2d_82">
    <path clip-path="url(#p800db84c8a)" d="M 83.988636 109.938155 
L 86.934217 98.117367 
L 89.879797 98.910641 
L 92.825377 88.043086 
L 95.770958 99.999361 
L 98.716538 187.804921 
L 101.662119 106.803094 
L 104.607699 113.871815 
L 107.553279 102.914289 
L 110.49886 94.103371 
L 113.44444 91.285994 
L 116.39002 98.643117 
L 119.335601 101.165162 
L 122.281181 114.639727 
L 125.226762 114.864823 
L 128.172342 99.80986 
L 131.117922 91.021248 
L 134.063503 94.658731 
L 137.009083 97.630584 
L 139.954663 107.300263 
L 142.900244 113.666309 
L 145.845824 109.913191 
L 148.791405 84.359386 
L 151.736985 94.161718 
L 154.682565 88.190721 
L 157.628146 91.749222 
L 160.573726 99.491043 
L 163.519306 107.721874 
L 166.464887 116.529269 
L 169.410467 94.022966 
L 172.356047 90.31221 
L 175.301628 91.57848 
L 178.247208 96.400635 
L 181.192789 99.932716 
L 184.138369 105.22049 
L 187.083949 116.654549 
L 190.02953 101.738758 
L 192.97511 94.833651 
L 195.92069 93.706634 
L 198.866271 88.267254 
L 201.811851 102.020783 
L 204.757432 110.401607 
L 207.703012 112.939711 
L 210.648592 92.816204 
L 213.594173 94.046053 
L 216.539753 93.105569 
L 219.485333 95.33136 
L 222.430914 99.182419 
L 225.376494 107.325714 
L 228.322075 111.084994 
L 231.267655 92.960481 
L 234.213235 89.402361 
L 237.158816 102.790194 
L 240.104396 101.301918 
L 243.049976 96.409026 
L 245.995557 105.835015 
L 248.941137 104.725411 
L 251.886718 80.837768 
L 254.832298 82.801027 
L 257.777878 84.321339 
L 260.723459 92.148495 
L 263.669039 90.038911 
L 269.5602 114.304182 
L 272.50578 95.173897 
L 275.45136 91.581578 
L 278.396941 88.899197 
L 281.342521 95.103172 
L 284.288102 97.437881 
L 287.233682 99.392571 
L 290.179262 106.903359 
L 293.124843 81.89568 
L 296.070423 82.223903 
L 299.016003 83.679507 
L 301.961584 83.039426 
L 304.907164 97.837954 
L 307.852745 122.513213 
L 310.798325 115.468878 
L 313.743905 95.648176 
L 316.689486 89.96931 
L 319.635066 96.408166 
L 322.580646 93.216556 
L 325.526227 96.528998 
L 328.471807 95.966072 
L 331.417388 103.514484 
L 334.362968 96.439191 
L 337.308548 98.622859 
L 340.254129 98.69382 
L 343.199709 63.711928 
L 346.145289 78.395948 
L 349.09087 159.716846 
L 352.03645 101.947718 
L 354.982031 87.258364 
L 357.927611 84.200575 
L 360.873191 97.084188 
L 363.818772 94.402362 
L 366.764352 73.477376 
L 369.709932 94.006157 
L 372.655513 103.220521 
L 375.601093 88.02983 
L 378.546673 81.33215 
L 381.492254 85.87701 
L 384.437834 86.022214 
L 387.383415 87.768595 
L 390.328995 99.044951 
L 393.274575 102.103846 
L 396.220156 94.045294 
L 399.165736 85.300429 
L 402.111316 94.735984 
L 405.056897 100.816648 
L 408.002477 92.785147 
L 410.948058 105.576241 
L 413.893638 109.624671 
L 416.839218 86.558006 
L 419.784799 77.405487 
L 422.730379 92.99805 
L 425.675959 95.58649 
L 428.62154 97.119526 
L 431.56712 106.812187 
L 434.512701 106.693091 
L 437.458281 89.301595 
L 440.403861 93.620629 
L 443.349442 92.403422 
L 446.295022 92.941821 
L 449.240602 98.092948 
L 452.186183 108.82716 
L 455.131763 109.351582 
L 458.077344 88.401392 
L 461.022924 94.554168 
L 463.968504 89.731492 
L 466.914085 98.817039 
L 469.859665 94.561119 
L 472.805245 108.974465 
L 475.750826 112.003967 
L 478.696406 89.347498 
L 481.641986 87.549019 
L 484.587567 78.884735 
L 487.533147 88.654946 
L 490.478728 96.407749 
L 493.424308 108.563818 
L 496.369888 117.526696 
L 499.315469 106.813815 
L 505.206629 87.159521 
L 508.15221 96.406017 
L 511.09779 100.363941 
L 514.043371 107.9534 
L 514.263647 217 
M 519.692329 217 
L 519.934531 96.126724 
L 522.880112 87.724791 
L 525.825692 94.109989 
L 528.771272 95.076201 
L 531.716853 100.978976 
L 534.662433 110.934883 
L 537.608014 106.527928 
L 540.553594 97.431301 
L 543.499174 89.759361 
L 546.444755 77.948481 
L 549.390335 85.53116 
L 552.335915 90.814316 
L 555.281496 106.424394 
L 558.227076 109.068757 
L 561.172656 101.606543 
L 564.118237 97.606769 
L 567.063817 94.637351 
L 570.009398 98.135661 
L 572.954978 104.16258 
L 575.900558 111.425923 
L 578.846139 110.505967 
L 581.791719 98.788021 
L 584.737299 96.205408 
L 587.68288 98.605562 
L 590.62846 98.152499 
L 593.574041 100.581638 
L 596.519621 109.678171 
L 599.465201 107.851781 
L 602.410782 101.767461 
L 605.356362 105.390492 
L 608.301942 98.633479 
L 611.247523 96.565129 
L 614.193103 105.609912 
L 617.138684 110.857414 
L 620.084264 112.995022 
L 623.029844 109.644843 
L 625.975425 100.050984 
L 628.921005 102.740403 
L 631.866585 102.44626 
L 634.812166 105.88304 
L 637.757746 109.509055 
L 640.703327 109.559922 
L 643.648907 102.658231 
L 646.594487 95.39024 
L 649.540068 101.355126 
L 652.485648 107.736604 
L 655.431228 112.498406 
L 658.376809 115.953998 
L 661.322389 128.003449 
L 664.267969 101.285713 
L 667.21355 90.752268 
L 670.15913 95.436007 
L 673.104711 104.080717 
L 676.050291 103.621102 
L 678.995871 114.958909 
L 681.941452 110.381461 
L 684.887032 106.887724 
L 687.832612 92.607267 
L 690.778193 92.698202 
L 693.723773 95.928488 
L 696.669354 99.544281 
L 699.614934 128.252005 
L 705.506095 98.439624 
L 708.451675 86.265353 
L 711.397255 103.399132 
L 714.342836 94.757101 
L 717.288416 99.240238 
L 720.233997 111.353376 
L 723.179577 110.595468 
L 726.125157 96.679146 
L 729.070738 89.260663 
L 732.016318 94.350521 
L 734.961898 96.811687 
L 737.907479 101.523714 
L 740.853059 110.360865 
L 743.79864 114.498898 
L 746.74422 104.958955 
L 749.6898 88.121866 
L 752.635381 95.422265 
L 755.580961 98.524819 
L 758.526541 95.800661 
L 761.472122 108.606169 
L 764.417702 114.432012 
L 767.363282 95.721593 
L 770.308863 90.773968 
L 773.254443 87.39952 
L 776.200024 85.617387 
L 779.145604 94.367042 
L 782.091184 105.954188 
L 785.036765 115.267784 
L 787.982345 111.127616 
L 790.927925 93.71888 
L 793.873506 85.350805 
L 796.819086 93.452042 
L 799.764667 99.444947 
L 802.710247 110.371485 
L 805.655827 109.913516 
L 808.601408 95.34764 
L 811.546988 87.308312 
L 814.492568 92.625415 
L 817.438149 91.844609 
L 820.383729 94.353268 
L 823.32931 106.643667 
L 826.27489 104.976314 
L 829.22047 95.104821 
L 832.166051 88.39947 
L 835.111631 96.503258 
L 838.057211 92.702123 
L 843.948372 113.470825 
L 846.893953 110.033548 
L 849.839533 92.112598 
L 852.785113 90.655467 
L 855.730694 95.470861 
L 858.676274 95.835079 
L 861.621854 98.331666 
L 864.567435 108.960572 
L 867.513015 110.013674 
L 870.458595 86.949756 
L 873.404176 93.512196 
L 876.349756 95.242639 
L 879.295337 96.738925 
L 882.240917 96.01843 
L 885.186497 112.29007 
L 888.132078 114.404976 
L 891.077658 106.421654 
L 894.023238 97.313144 
L 896.968819 95.237044 
L 899.914399 97.463263 
L 902.85998 98.940179 
L 905.80556 111.815975 
L 908.75114 112.614485 
L 911.696721 84.328928 
L 914.642301 91.190008 
L 917.587881 96.882966 
L 920.533462 93.98172 
L 923.479042 94.303023 
L 926.424623 103.82276 
L 929.370203 110.794631 
L 932.315783 91.158586 
L 935.261364 82.417238 
L 935.261364 82.417238 
" style="fill:none;stroke:#55a868;stroke-linecap:round;stroke-opacity:0.8;stroke-width:1.5;"/>
   </g>
   <g id="line2d_83">
    <path clip-path="url(#p800db84c8a)" d="M 83.988636 171.179498 
L 86.934217 100.095336 
L 89.879797 93.305268 
L 92.825377 89.65892 
L 93.406566 -1 
M 98.065953 -1 
L 98.716538 103.552532 
L 101.662119 113.177882 
L 104.607699 120.792504 
L 107.553279 105.9417 
L 110.49886 97.369676 
L 113.44444 92.704538 
L 116.39002 52.905608 
L 119.335601 102.027197 
L 122.281181 117.65093 
L 125.226762 117.718601 
L 128.172342 99.853801 
L 131.117922 88.183902 
L 134.063503 92.448707 
L 139.954663 101.226573 
L 142.900244 113.370481 
L 145.845824 115.149608 
L 148.791405 88.507815 
L 151.736985 89.503389 
L 154.682565 85.443772 
L 157.628146 91.158978 
L 163.519306 110.938737 
L 166.464887 125.892043 
L 169.410467 96.160669 
L 172.356047 92.412536 
L 178.247208 95.486984 
L 181.192789 102.892132 
L 184.138369 110.695468 
L 187.083949 117.738189 
L 190.02953 102.869768 
L 192.97511 90.165384 
L 195.92069 92.419166 
L 198.866271 82.095928 
L 201.811851 100.81707 
L 204.757432 111.576689 
L 207.703012 113.459751 
L 210.648592 93.27548 
L 213.594173 93.187529 
L 216.539753 92.252259 
L 219.485333 93.540997 
L 222.430914 101.534292 
L 225.376494 107.820996 
L 228.322075 112.955604 
L 231.267655 97.192322 
L 234.213235 89.674035 
L 237.158816 95.719743 
L 240.104396 101.466083 
L 243.049976 103.072586 
L 245.995557 111.313242 
L 248.941137 112.472187 
L 251.886718 84.156696 
L 254.832298 89.624563 
L 257.777878 87.736524 
L 260.723459 92.81279 
L 263.669039 93.349553 
L 266.614619 113.655941 
L 269.5602 108.721683 
L 272.50578 96.925927 
L 275.45136 88.081595 
L 278.396941 85.24472 
L 281.342521 94.346018 
L 284.288102 94.449105 
L 287.233682 108.013753 
L 290.179262 113.144098 
L 293.124843 100.919662 
L 296.070423 93.226398 
L 299.016003 90.735546 
L 301.961584 90.324461 
L 304.907164 109.41223 
L 307.852745 127.316175 
L 310.798325 112.637892 
L 313.743905 86.601215 
L 316.689486 86.203538 
L 319.635066 87.846176 
L 322.580646 90.772151 
L 325.526227 91.440536 
L 328.471807 91.920119 
L 331.417388 105.941223 
L 334.362968 102.378827 
L 337.308548 98.422058 
L 340.254129 80.866952 
L 343.199709 70.06839 
L 346.145289 80.152012 
L 349.09087 114.020445 
L 352.03645 111.493118 
L 354.982031 94.703836 
L 357.927611 109.802531 
L 360.873191 104.960023 
L 363.818772 91.441237 
L 366.764352 79.782564 
L 369.709932 102.178739 
L 372.655513 111.624289 
L 375.601093 94.568056 
L 378.546673 86.069835 
L 381.492254 87.970242 
L 384.437834 90.617536 
L 387.383415 93.586629 
L 390.328995 108.858923 
L 393.274575 100.300166 
L 396.220156 92.494233 
L 399.165736 83.276142 
L 402.111316 93.979946 
L 405.056897 101.722603 
L 408.002477 93.31827 
L 410.948058 104.115154 
L 413.893638 109.98529 
L 416.839218 81.376966 
L 419.784799 77.467177 
L 422.730379 93.085895 
L 428.62154 100.60256 
L 431.56712 104.910843 
L 434.512701 108.706403 
L 437.458281 85.534416 
L 440.403861 94.02746 
L 443.349442 91.909222 
L 446.295022 92.040995 
L 449.240602 98.225904 
L 452.186183 114.727596 
L 455.131763 111.976722 
L 458.077344 94.952488 
L 461.022924 91.775601 
L 463.968504 91.200207 
L 466.914085 97.640484 
L 469.859665 97.31539 
L 472.805245 110.997576 
L 475.750826 113.764604 
L 478.696406 89.735485 
L 481.641986 87.314682 
L 484.587567 93.475458 
L 487.533147 94.472603 
L 490.478728 97.93669 
L 493.424308 109.81088 
L 496.369888 120.083257 
L 499.315469 100.91715 
L 502.261049 96.489508 
L 505.206629 83.507093 
L 508.15221 85.259682 
L 511.09779 98.678649 
L 514.043371 107.713336 
L 516.988951 110.173687 
L 519.934531 98.721922 
L 522.880112 91.45549 
L 525.825692 92.569122 
L 528.771272 91.766843 
L 531.716853 97.877876 
L 534.662433 109.47457 
L 537.608014 107.704945 
L 540.553594 99.112365 
L 543.499174 87.594421 
L 546.444755 88.740047 
L 549.390335 94.525054 
L 552.335915 94.782414 
L 555.281496 101.157495 
L 558.227076 111.553316 
L 561.172656 103.369361 
L 564.118237 94.803115 
L 567.063817 97.121771 
L 570.009398 98.513212 
L 572.954978 102.888249 
L 575.900558 111.317908 
L 578.846139 115.177576 
L 581.791719 101.329647 
L 584.737299 95.688264 
L 587.68288 95.801966 
L 590.62846 98.035289 
L 593.574041 100.922711 
L 596.519621 111.482502 
L 599.465201 119.612654 
L 602.410782 212.239039 
L 605.356362 127.801553 
L 608.301942 102.863208 
L 611.247523 95.342984 
L 614.193103 101.151514 
L 617.138684 111.423636 
L 620.084264 110.018769 
L 623.029844 103.679394 
L 625.975425 98.404434 
L 628.921005 100.004628 
L 631.866585 96.498558 
L 634.812166 103.980165 
L 637.757746 108.5392 
L 640.703327 112.089338 
L 643.648907 104.033245 
L 646.594487 96.418127 
L 649.540068 100.498555 
L 652.485648 104.089684 
L 655.431228 110.259318 
L 658.376809 111.222795 
L 661.322389 115.736213 
L 664.267969 102.293487 
L 667.21355 90.53183 
L 670.15913 93.838925 
L 673.104711 105.810653 
L 676.050291 106.050239 
L 678.995871 114.151243 
L 681.941452 116.246752 
L 684.887032 102.807168 
L 687.832612 93.871567 
L 690.778193 94.321318 
L 693.723773 92.181086 
L 696.669354 99.737309 
L 699.614934 110.975623 
L 702.560514 115.768875 
L 708.451675 87.917627 
L 711.397255 93.470747 
L 714.342836 93.683702 
L 717.288416 99.940941 
L 720.233997 114.071636 
L 723.17018 -1 
M 723.190725 -1 
L 726.125157 95.932081 
L 729.070738 89.962504 
L 732.016318 94.153833 
L 734.961898 96.308788 
L 737.907479 101.144618 
L 740.853059 111.415168 
L 743.79864 108.644973 
L 746.74422 97.492482 
L 749.6898 85.490221 
L 752.635381 92.946398 
L 755.580961 96.394958 
L 758.526541 96.360247 
L 761.472122 105.441861 
L 764.417702 110.208527 
L 767.363282 94.227155 
L 770.308863 90.843898 
L 773.254443 95.083264 
L 776.200024 86.7005 
L 779.145604 95.524666 
L 782.091184 109.498195 
L 785.036765 119.879451 
L 787.982345 100.756372 
L 790.927925 103.651785 
L 793.873506 91.937147 
L 796.819086 91.028503 
L 799.764667 96.160852 
L 802.710247 110.898605 
L 805.655827 109.016328 
L 808.601408 96.927162 
L 811.546988 89.595321 
L 814.492568 102.62696 
L 817.438149 92.503271 
L 820.383729 95.264912 
L 823.32931 118.190713 
L 826.27489 109.892202 
L 829.22047 97.868541 
L 832.166051 94.722934 
L 835.111631 96.61168 
L 838.057211 91.721292 
L 841.002792 101.821877 
L 843.948372 113.449427 
L 846.893953 107.701237 
L 849.839533 89.576268 
L 852.785113 90.733212 
L 855.730694 95.000072 
L 858.676274 95.007166 
L 861.621854 99.276523 
L 864.567435 111.224884 
L 867.513015 113.153387 
L 870.458595 88.552234 
L 873.404176 90.995505 
L 876.349756 101.009154 
L 879.295337 103.397972 
L 882.240917 102.381783 
L 885.186497 111.582703 
L 888.132078 115.511527 
L 891.077658 139.007118 
L 894.023238 95.393922 
L 896.968819 90.223415 
L 899.914399 92.281846 
L 902.85998 97.387699 
L 905.80556 111.175279 
L 908.75114 113.220874 
L 911.696721 86.818225 
L 914.642301 89.638889 
L 917.587881 95.568872 
L 920.533462 93.503459 
L 923.479042 97.443569 
L 926.424623 112.373976 
L 929.370203 103.452039 
L 932.315783 91.94711 
L 935.261364 83.776424 
L 935.261364 83.776424 
" style="fill:none;stroke:#c44e52;stroke-linecap:round;stroke-opacity:0.8;stroke-width:1.5;"/>
   </g>
   <g id="line2d_84">
    <path clip-path="url(#p800db84c8a)" d="M 83.988636 180.541236 
L 86.934217 93.446526 
L 89.879797 94.576491 
L 92.825377 115.796317 
L 94.934521 -1 
M 96.672547 -1 
L 98.716538 104.008967 
L 101.662119 106.22384 
L 104.607699 114.136221 
L 107.553279 102.648505 
L 113.44444 89.797682 
L 116.39002 91.141095 
L 119.335601 98.862014 
L 122.281181 111.14288 
L 125.226762 111.605312 
L 128.172342 94.956328 
L 131.117922 87.86797 
L 134.063503 92.338521 
L 137.009083 96.50804 
L 139.954663 97.98859 
L 142.900244 112.114178 
L 145.845824 109.648101 
L 148.791405 83.55408 
L 151.736985 86.657917 
L 154.682565 87.804594 
L 157.628146 90.686311 
L 160.573726 98.226137 
L 163.519306 107.496886 
L 166.464887 120.564783 
L 169.410467 93.665877 
L 172.356047 92.727816 
L 175.301628 91.237928 
L 178.247208 97.01922 
L 184.138369 111.030077 
L 187.083949 117.866081 
L 190.02953 101.537034 
L 192.97511 90.578051 
L 195.92069 94.332854 
L 198.866271 84.832331 
L 201.811851 102.800773 
L 204.757432 112.584626 
L 207.703012 114.318101 
L 210.648592 103.069954 
L 213.594173 95.015576 
L 216.539753 93.614839 
L 219.485333 95.222987 
L 222.430914 101.822844 
L 225.376494 106.760178 
L 228.322075 110.312756 
L 231.267655 96.293292 
L 234.213235 87.795388 
L 237.158816 91.953303 
L 240.104396 101.246325 
L 243.049976 97.008713 
L 245.995557 103.240551 
L 248.941137 92.216436 
L 251.886718 74.930192 
L 254.832298 83.686281 
L 257.777878 94.138842 
L 260.723459 93.342338 
L 263.669039 91.952046 
L 266.614619 108.41963 
L 269.5602 102.546994 
L 272.50578 90.616953 
L 275.45136 84.823557 
L 278.396941 81.944738 
L 281.342521 92.416969 
L 284.288102 91.111283 
L 287.233682 104.341171 
L 290.179262 109.858056 
L 293.124843 107.272245 
L 296.070423 96.025118 
L 299.016003 93.380613 
L 301.961584 93.317331 
L 304.907164 111.56324 
L 307.852745 134.177916 
L 310.798325 113.516286 
L 313.743905 88.259863 
L 316.689486 89.007517 
L 319.635066 90.290708 
L 322.580646 93.390984 
L 325.526227 92.050034 
L 328.471807 100.801114 
L 331.417388 96.361054 
L 334.362968 82.108159 
L 337.308548 90.60388 
L 340.254129 82.31604 
L 343.199709 55.150666 
L 346.145289 71.92857 
L 349.09087 97.528702 
L 352.03645 96.976525 
L 354.982031 77.25006 
L 357.927611 97.637789 
L 360.873191 93.056626 
L 363.818772 80.5457 
L 366.764352 66.779654 
L 369.709932 87.819902 
L 372.655513 98.023738 
L 375.601093 83.579309 
L 378.546673 81.115308 
L 381.492254 87.794023 
L 384.437834 92.206479 
L 387.383415 95.219712 
L 390.328995 110.286078 
L 393.274575 107.450795 
L 396.220156 95.681911 
L 399.165736 88.377618 
L 402.111316 99.477758 
L 405.056897 107.88948 
L 408.002477 99.045975 
L 410.948058 109.739324 
L 413.893638 115.690391 
L 416.839218 85.729632 
L 419.784799 82.134621 
L 422.730379 95.992407 
L 425.675959 102.406463 
L 428.62154 104.990646 
L 431.56712 110.272936 
L 434.512701 107.842137 
L 437.458281 89.547027 
L 440.403861 97.269973 
L 443.349442 95.031768 
L 446.295022 95.728652 
L 449.240602 100.325608 
L 452.186183 111.654381 
L 455.131763 112.495374 
L 458.077344 93.847395 
L 461.022924 93.46286 
L 463.968504 94.035344 
L 466.914085 99.363796 
L 469.859665 98.437226 
L 472.805245 111.096563 
L 475.750826 113.803779 
L 478.696406 90.338939 
L 481.641986 89.085337 
L 484.587567 96.968753 
L 487.533147 98.039871 
L 490.478728 102.70931 
L 493.424308 109.884748 
L 496.369888 117.690328 
L 499.315469 115.539262 
L 502.261049 98.851295 
L 505.206629 83.766774 
L 508.15221 86.05822 
L 511.09779 97.287397 
L 514.043371 105.16729 
L 516.988951 106.759821 
L 519.934531 96.662672 
L 522.880112 91.087762 
L 525.825692 88.244285 
L 528.771272 92.381152 
L 531.716853 97.745857 
L 534.662433 106.621356 
L 537.608014 104.607429 
L 540.553594 97.406658 
L 543.499174 87.601504 
L 546.444755 87.992519 
L 549.390335 94.113755 
L 552.335915 96.437192 
L 555.281496 108.95573 
L 558.227076 105.898185 
L 561.172656 104.405741 
L 564.118237 97.431223 
L 570.009398 101.625754 
L 572.954978 107.428476 
L 575.900558 114.351557 
L 578.846139 114.831585 
L 581.791719 102.734268 
L 584.737299 98.378833 
L 587.68288 99.909979 
L 590.62846 102.939754 
L 593.574041 104.775717 
L 596.519621 115.997146 
L 599.465201 116.475097 
L 602.410782 116.530803 
L 605.356362 112.460793 
L 611.247523 97.937355 
L 614.193103 106.374119 
L 617.138684 112.06185 
L 620.084264 110.078178 
L 623.029844 102.817558 
L 625.975425 98.071739 
L 628.921005 99.515993 
L 631.866585 100.600526 
L 637.757746 107.127768 
L 640.703327 109.742229 
L 643.648907 101.809312 
L 646.594487 96.055207 
L 649.540068 100.420602 
L 652.485648 103.398154 
L 655.431228 107.330538 
L 658.376809 110.083754 
L 661.322389 110.532221 
L 664.267969 95.692367 
L 667.21355 86.247481 
L 670.15913 90.84341 
L 673.104711 102.831863 
L 676.050291 103.198681 
L 678.995871 109.997251 
L 681.941452 110.695046 
L 684.887032 97.585468 
L 687.832612 90.234334 
L 690.778193 89.308707 
L 693.723773 90.753871 
L 696.669354 95.538213 
L 699.614934 105.238837 
L 702.560514 103.851957 
L 708.451675 85.150267 
L 711.397255 91.309832 
L 714.342836 92.078459 
L 717.288416 97.146269 
L 720.233997 110.292097 
L 723.179577 110.59734 
L 726.125157 96.304909 
L 729.070738 90.423681 
L 732.016318 94.925758 
L 734.961898 97.302052 
L 737.907479 101.574071 
L 740.853059 128.45499 
L 743.79864 108.446781 
L 746.74422 72.768442 
L 749.6898 85.866455 
L 752.635381 93.377091 
L 755.580961 98.182316 
L 758.526541 97.519812 
L 761.472122 103.006185 
L 764.417702 105.963549 
L 767.363282 90.920083 
L 770.308863 89.108873 
L 776.200024 88.764141 
L 779.145604 99.617361 
L 782.091184 108.195723 
L 785.036765 116.412203 
L 787.982345 106.887974 
L 790.927925 93.760374 
L 793.873506 89.939141 
L 796.819086 91.193708 
L 799.764667 95.225653 
L 802.710247 110.905528 
L 805.655827 105.821317 
L 808.601408 94.541791 
L 811.546988 90.121928 
L 814.492568 94.755959 
L 817.438149 94.05024 
L 820.383729 96.544438 
L 823.32931 118.127978 
L 826.27489 107.434297 
L 829.22047 95.64229 
L 832.166051 90.329473 
L 835.111631 97.463771 
L 838.057211 89.943541 
L 841.002792 102.374996 
L 843.948372 112.576224 
L 846.893953 108.44928 
L 849.839533 87.290616 
L 852.785113 89.861952 
L 855.730694 94.153947 
L 858.676274 95.152886 
L 861.621854 100.272789 
L 864.567435 111.628781 
L 867.513015 113.034759 
L 870.458595 88.922447 
L 873.404176 92.042301 
L 876.349756 96.46451 
L 879.295337 102.078905 
L 882.240917 103.482536 
L 885.186497 103.867737 
L 888.132078 113.773828 
L 891.077658 101.833143 
L 894.023238 95.759053 
L 896.968819 91.824391 
L 899.914399 92.586207 
L 902.85998 96.074029 
L 905.80556 107.965625 
L 908.75114 109.252625 
L 911.696721 82.869848 
L 914.642301 87.792727 
L 917.587881 91.670255 
L 920.533462 91.350938 
L 923.479042 86.345072 
L 926.424623 99.780778 
L 929.370203 109.961811 
L 932.315783 85.435968 
L 935.261364 80.03603 
L 935.261364 80.03603 
" style="fill:none;stroke:#8172b2;stroke-linecap:round;stroke-opacity:0.8;stroke-width:1.5;"/>
   </g>
   <g id="line2d_85">
    <path clip-path="url(#p800db84c8a)" d="M 85.963123 -1 
L 86.934217 120.563432 
L 89.879797 125.06895 
L 92.825377 126.004595 
L 95.770958 91.959114 
L 98.716538 183.79679 
L 101.662119 100.031374 
L 104.607699 98.955621 
L 107.553279 93.691186 
L 110.49886 108.012369 
L 113.44444 113.217972 
L 116.39002 100.249998 
L 119.335601 95.873421 
L 122.281181 96.831611 
L 125.226762 97.596609 
L 128.172342 88.410596 
L 131.117922 113.139682 
L 134.063503 110.787652 
L 137.009083 119.104765 
L 139.954663 91.307927 
L 142.900244 103.851645 
L 145.845824 88.403089 
L 148.791405 75.446464 
L 151.736985 116.329019 
L 154.682565 113.832531 
L 157.628146 96.687868 
L 160.573726 102.847289 
L 163.519306 102.078361 
L 166.464887 94.388138 
L 169.410467 84.150884 
L 172.356047 109.458451 
L 175.301628 117.080651 
L 178.247208 104.684865 
L 181.192789 97.974261 
L 184.138369 100.580053 
L 187.083949 98.245462 
L 190.02953 94.346541 
L 192.97511 97.760363 
L 195.92069 113.504382 
L 198.866271 82.684172 
L 201.811851 107.066101 
L 204.757432 107.039077 
L 207.703012 96.253823 
L 210.648592 75.94137 
L 213.594173 106.195257 
L 216.539753 111.428523 
L 219.485333 89.859433 
L 222.430914 95.687778 
L 225.376494 102.66701 
L 228.322075 103.151866 
L 231.267655 82.989105 
L 234.213235 102.758365 
L 237.158816 114.126034 
L 240.104396 85.644367 
L 243.049976 92.549314 
L 245.995557 98.784204 
L 248.941137 95.339151 
L 251.886718 74.90604 
L 254.832298 117.199227 
L 257.777878 122.963036 
L 260.723459 71.063303 
L 263.669039 84.068466 
L 266.614619 106.102728 
L 269.5602 101.026199 
L 272.50578 91.104298 
L 275.45136 112.116159 
L 278.396941 120.666641 
L 281.342521 88.260468 
L 284.288102 88.895626 
L 287.233682 85.249084 
L 290.179262 108.434856 
L 293.124843 99.474941 
L 296.070423 114.096868 
L 299.016003 120.383636 
L 301.961584 82.849297 
L 304.907164 88.348063 
L 307.852745 82.269314 
L 310.798325 94.587573 
L 313.743905 64.69048 
L 316.689486 104.239817 
L 319.635066 110.442639 
L 322.580646 80.765062 
L 325.526227 84.689957 
L 328.471807 102.118975 
L 331.417388 53.530029 
L 334.362968 79.767698 
L 337.308548 104.868844 
L 340.254129 117.21919 
L 343.199709 82.887362 
L 346.145289 93.698684 
L 349.09087 115.642924 
L 352.03645 98.471391 
L 354.982031 58.040911 
L 357.927611 113.785354 
L 360.873191 139.666735 
L 363.818772 79.344718 
L 366.764352 80.96196 
L 369.709932 118.456591 
L 372.655513 109.911657 
L 375.601093 94.951131 
L 378.546673 106.143249 
L 381.492254 127.392682 
L 384.437834 94.779951 
L 387.383415 90.669475 
L 390.328995 109.500123 
L 393.274575 98.965664 
L 396.220156 75.34273 
L 399.165736 100.372305 
L 402.111316 126.830276 
L 405.056897 87.259368 
L 408.002477 70.424693 
L 410.948058 98.997345 
L 413.893638 94.407733 
L 416.839218 66.409356 
L 419.784799 101.111579 
L 422.730379 124.069056 
L 425.675959 79.647865 
L 428.62154 93.939772 
L 431.56712 98.610487 
L 434.512701 86.022045 
L 437.458281 70.670502 
L 440.403861 112.156918 
L 443.349442 110.732473 
L 446.295022 82.85658 
L 449.240602 94.107409 
L 452.186183 107.316003 
L 455.131763 99.085278 
L 458.077344 74.991363 
L 461.022924 111.812059 
L 463.968504 113.931586 
L 466.914085 96.871025 
L 469.859665 88.37054 
L 472.805245 105.17209 
L 475.750826 97.508955 
L 478.696406 76.534716 
L 481.641986 119.286143 
L 484.587567 124.603869 
L 487.533147 94.993271 
L 490.478728 80.02357 
L 493.424308 77.306587 
L 496.369888 86.621613 
L 499.315469 90.457628 
L 502.261049 98.614761 
L 505.206629 119.571854 
L 508.15221 86.739404 
L 511.09779 98.911479 
L 514.043371 102.294377 
L 516.988951 98.463072 
L 519.934531 89.348404 
L 522.880112 102.678452 
L 525.825692 117.873827 
L 528.771272 85.186346 
L 531.716853 98.313012 
L 534.662433 104.341393 
L 540.553594 88.500331 
L 543.499174 99.798805 
L 546.444755 113.517747 
L 549.390335 107.039193 
L 552.335915 104.494252 
L 555.281496 104.181607 
L 558.227076 100.702909 
L 561.172656 100.416039 
L 564.118237 103.615295 
L 567.063817 115.896602 
L 570.009398 94.844498 
L 575.900558 104.878223 
L 578.846139 93.643953 
L 581.791719 90.60191 
L 584.737299 107.041565 
L 587.68288 115.810927 
L 590.62846 116.961894 
L 593.574041 99.31963 
L 596.519621 108.893568 
L 599.465201 94.623374 
L 602.410782 97.201564 
L 605.356362 102.252169 
L 608.301942 112.504726 
L 611.247523 93.787543 
L 614.193103 103.183673 
L 617.138684 103.56995 
L 620.084264 105.249261 
L 623.029844 89.035325 
L 625.975425 106.15009 
L 628.921005 119.079182 
L 631.866585 96.773285 
L 634.812166 98.722284 
L 637.757746 103.318762 
L 640.703327 107.576022 
L 643.648907 100.035042 
L 646.594487 108.205178 
L 649.540068 125.293543 
L 652.485648 101.818535 
L 655.431228 94.556453 
L 658.376809 98.388404 
L 661.322389 98.652373 
L 664.267969 92.128463 
L 667.21355 104.970712 
L 670.15913 120.034416 
L 673.104711 108.486938 
L 676.050291 94.300848 
L 678.995871 96.398445 
L 681.941452 99.441192 
L 684.887032 94.187965 
L 687.832612 111.950023 
L 690.778193 118.970199 
L 693.723773 96.555622 
L 696.669354 94.166982 
L 699.614934 111.014478 
L 702.560514 95.751997 
L 705.506095 87.916252 
L 708.451675 101.148592 
L 711.397255 124.207606 
L 714.342836 94.388799 
L 717.288416 97.60869 
L 720.233997 111.433898 
L 723.179577 99.480245 
L 726.125157 91.245283 
L 729.070738 101.528821 
L 732.016318 119.971766 
L 734.961898 94.687567 
L 737.907479 85.423495 
L 739.643115 -1 
M 741.923227 -1 
L 743.79864 104.58035 
L 746.74422 78.924282 
L 749.6898 101.457174 
L 752.635381 122.113301 
L 755.580961 83.967798 
L 758.526541 40.197291 
L 761.472122 102.501686 
L 764.417702 85.71161 
L 767.363282 76.294295 
L 770.308863 114.962969 
L 773.254443 122.545261 
L 776.200024 106.539752 
L 779.145604 110.398539 
L 782.091184 91.015472 
L 785.036765 104.640026 
L 787.982345 16.340849 
L 790.927925 91.521745 
L 793.873506 103.474539 
L 796.819086 87.563578 
L 799.764667 95.552132 
L 802.710247 107.444186 
L 805.655827 96.037149 
L 808.601408 87.85591 
L 811.546988 101.343978 
L 814.492568 125.638668 
L 817.438149 86.838231 
L 820.383729 97.872549 
L 823.32931 112.862615 
L 826.27489 87.054154 
L 829.22047 89.324129 
L 832.166051 106.262632 
L 835.111631 123.854123 
L 838.057211 84.995827 
L 841.002792 104.199531 
L 843.948372 103.150704 
L 846.893953 84.362198 
L 849.839533 79.586611 
L 852.785113 111.200383 
L 855.730694 120.846905 
L 858.676274 89.358928 
L 861.621854 94.881669 
L 864.567435 106.658895 
L 867.513015 100.734272 
L 870.458595 80.067317 
L 873.404176 113.679167 
L 876.349756 122.963002 
L 879.295337 98.456837 
L 882.240917 103.139556 
L 885.186497 102.409264 
L 888.132078 97.333193 
L 891.077658 83.503342 
L 894.023238 108.18844 
L 896.968819 98.813574 
L 899.914399 84.672627 
L 902.85998 91.576214 
L 903.86884 217 
M 907.780707 217 
L 908.75114 98.700889 
L 911.696721 71.115739 
L 914.642301 108.916713 
L 917.587881 123.188342 
L 920.533462 79.362898 
L 923.479042 84.042343 
L 926.424623 113.181267 
L 932.315783 72.451273 
L 935.261364 96.467096 
L 935.261364 96.467096 
" style="fill:none;stroke:#ccb974;stroke-linecap:round;stroke-opacity:0.8;stroke-width:1.5;"/>
   </g>
   <g id="line2d_86">
    <path clip-path="url(#p800db84c8a)" d="M 83.988636 66.124242 
L 86.934217 115.378086 
L 89.879797 115.153981 
L 92.825377 105.151 
L 95.770958 98.13636 
L 98.716538 100.966566 
L 101.662119 93.946635 
L 104.607699 91.399141 
L 107.553279 89.933121 
L 108.336136 -1 
M 112.547472 -1 
L 113.44444 108.991291 
L 116.39002 89.114013 
L 119.335601 98.422804 
L 122.281181 90.9463 
L 125.226762 89.958353 
L 128.172342 86.733582 
L 131.117922 112.851745 
L 134.063503 109.224086 
L 137.009083 96.791554 
L 139.954663 173.880008 
L 142.900244 104.756881 
L 145.845824 83.394035 
L 148.791405 70.791103 
L 151.736985 113.739172 
L 154.682565 121.545707 
L 157.628146 100.127223 
L 160.573726 100.276927 
L 163.519306 98.939381 
L 166.464887 102.638558 
L 169.410467 81.903642 
L 171.384956 217 
M 173.537531 217 
L 175.301628 117.792736 
L 178.247208 106.099548 
L 181.192789 99.017228 
L 184.138369 100.853344 
L 187.083949 98.611418 
L 190.02953 87.219323 
L 192.97511 104.724504 
L 195.92069 115.059758 
L 198.866271 84.985735 
L 201.811851 108.673675 
L 204.757432 107.854796 
L 207.703012 96.45075 
L 210.648592 76.438926 
L 213.594173 107.358578 
L 216.539753 112.532832 
L 219.485333 91.271907 
L 222.430914 91.224698 
L 225.376494 101.940464 
L 228.322075 102.094407 
L 231.267655 80.342854 
L 234.213235 101.111266 
L 237.158816 107.495196 
L 240.104396 82.297348 
L 243.049976 82.913509 
L 245.995557 91.435075 
L 246.938123 -1 
M 251.133335 -1 
L 251.886718 66.506318 
L 254.832298 111.792851 
L 257.777878 118.056069 
L 260.723459 95.605388 
L 263.669039 93.974573 
L 266.614619 101.335274 
L 269.5602 95.491167 
L 272.50578 89.186223 
L 275.45136 94.763209 
L 278.396941 117.662776 
L 281.342521 86.504259 
L 284.288102 85.853541 
L 287.233682 81.905966 
L 290.179262 104.447586 
L 291.319087 217 
M 294.965678 217 
L 296.070423 109.990376 
L 299.016003 122.987995 
L 301.961584 85.282999 
L 304.907164 90.099235 
L 307.852745 106.873258 
L 310.798325 95.30176 
L 313.743905 66.039237 
L 316.689486 103.838535 
L 319.635066 112.431667 
L 322.580646 82.893976 
L 325.526227 85.312404 
L 328.471807 96.826234 
L 331.417388 35.50384 
L 334.362968 76.46533 
L 337.308548 97.750926 
L 340.254129 110.676808 
L 343.199709 76.299498 
L 346.145289 86.211692 
L 349.09087 102.404031 
L 352.03645 85.257426 
L 354.982031 48.732394 
L 357.927611 101.200674 
L 360.873191 128.831096 
L 363.818772 69.426421 
L 366.764352 69.125668 
L 369.709932 105.385212 
L 372.655513 97.531042 
L 375.601093 84.948418 
L 378.546673 101.632695 
L 381.492254 127.23305 
L 384.437834 96.098514 
L 387.383415 91.997684 
L 390.328995 110.645784 
L 393.274575 100.317412 
L 396.220156 77.934585 
L 402.111316 131.302372 
L 405.056897 91.981372 
L 408.002477 72.308039 
L 410.948058 103.563591 
L 413.893638 97.874185 
L 416.839218 67.746405 
L 419.784799 104.900427 
L 422.730379 127.851361 
L 425.675959 84.214929 
L 428.62154 97.427326 
L 431.56712 101.629926 
L 434.512701 75.486953 
L 437.458281 73.932495 
L 440.403861 114.956914 
L 443.349442 113.270432 
L 446.295022 85.85466 
L 449.240602 95.178054 
L 452.186183 107.916205 
L 455.131763 99.355729 
L 458.077344 98.120985 
L 461.022924 111.950636 
L 463.968504 115.106505 
L 466.914085 98.383871 
L 469.859665 89.278044 
L 472.805245 105.318131 
L 475.750826 97.653085 
L 478.696406 77.026736 
L 481.641986 120.726484 
L 484.587567 127.386632 
L 487.533147 106.065975 
L 490.478728 81.215986 
L 493.424308 94.620964 
L 496.369888 95.857556 
L 499.315469 89.661685 
L 502.261049 82.428912 
L 505.206629 113.913931 
L 508.15221 38.410949 
L 511.09779 97.890094 
L 514.043371 99.974175 
L 516.988951 95.351051 
L 519.934531 87.473288 
L 522.880112 103.0542 
L 525.825692 117.914741 
L 528.771272 85.680854 
L 531.716853 97.700481 
L 534.662433 102.168772 
L 537.608014 89.724978 
L 540.553594 86.9488 
L 543.499174 100.099621 
L 546.444755 115.402741 
L 549.390335 109.335112 
L 552.335915 103.935533 
L 555.281496 104.4998 
L 558.227076 101.563814 
L 561.172656 101.247922 
L 564.118237 105.024919 
L 567.063817 116.880293 
L 570.009398 98.09105 
L 572.954978 103.501074 
L 575.900558 114.160219 
L 578.846139 95.478006 
L 581.791719 92.448637 
L 584.737299 109.224668 
L 587.68288 119.151245 
L 590.62846 120.949852 
L 593.574041 102.450091 
L 596.519621 110.923327 
L 599.465201 96.479425 
L 602.410782 98.463936 
L 605.356362 101.746348 
L 608.301942 114.522631 
L 611.247523 95.896364 
L 614.193103 104.524827 
L 617.138684 104.088018 
L 620.084264 104.630026 
L 623.029844 88.250977 
L 625.975425 105.846303 
L 628.921005 118.634853 
L 631.866585 96.797012 
L 634.812166 98.567874 
L 637.757746 102.03396 
L 640.703327 100.705867 
L 643.648907 98.043029 
L 646.594487 107.875224 
L 649.540068 125.222751 
L 652.485648 103.274079 
L 655.431228 92.755248 
L 658.376809 102.904959 
L 661.322389 104.222 
L 664.267969 89.425023 
L 667.21355 101.763013 
L 670.15913 117.308453 
L 673.104711 105.722271 
L 676.050291 91.704559 
L 678.995871 96.791149 
L 681.941452 94.386552 
L 684.887032 80.823633 
L 687.832612 108.639433 
L 690.778193 115.243632 
L 693.723773 93.776858 
L 696.669354 90.34431 
L 699.614934 105.790956 
L 702.560514 90.41726 
L 705.506095 83.926732 
L 708.451675 112.041391 
L 711.397255 122.884175 
L 714.342836 92.929432 
L 717.288416 95.060772 
L 720.233997 108.024415 
L 723.179577 96.160688 
L 726.125157 89.248672 
L 729.070738 101.970844 
L 732.016318 120.606704 
L 734.961898 95.495055 
L 737.907479 85.772232 
L 740.853059 100.074623 
L 743.79864 99.812082 
L 746.74422 78.391477 
L 749.6898 98.514938 
L 752.635381 131.925376 
L 755.580961 88.982129 
L 758.526541 102.78682 
L 761.472122 99.04059 
L 764.417702 82.060833 
L 767.363282 73.542001 
L 770.308863 113.657453 
L 773.254443 123.360169 
L 779.145604 91.616416 
L 782.091184 89.2623 
L 785.036765 101.452725 
L 787.982345 88.845595 
L 790.927925 90.807163 
L 793.873506 112.19985 
L 796.819086 87.697389 
L 799.764667 94.70216 
L 802.710247 105.189592 
L 805.655827 93.127206 
L 808.601408 87.272123 
L 811.546988 101.773276 
L 814.492568 126.23777 
L 817.438149 88.096047 
L 820.383729 99.02423 
L 823.32931 112.779632 
L 826.27489 86.159258 
L 829.22047 89.568081 
L 832.166051 115.360574 
L 835.111631 116.370932 
L 838.057211 87.493566 
L 841.002792 104.650235 
L 843.948372 102.432684 
L 846.893953 90.048994 
L 849.839533 76.708935 
L 852.785113 110.406095 
L 855.730694 120.084535 
L 858.676274 89.477394 
L 861.621854 95.679177 
L 864.567435 176.172616 
L 867.513015 100.711 
L 870.458595 80.36634 
L 873.404176 114.569969 
L 876.349756 124.21805 
L 879.295337 100.340432 
L 882.240917 104.038822 
L 885.186497 102.019387 
L 888.132078 95.838392 
L 891.077658 83.109736 
L 894.023238 108.498405 
L 896.968819 106.049521 
L 899.914399 84.920619 
L 902.85998 90.380404 
L 905.80556 95.017157 
L 908.75114 95.048567 
L 911.696721 67.521147 
L 914.642301 107.23806 
L 917.587881 117.11854 
L 920.533462 77.403061 
L 923.479042 80.070172 
L 926.424623 107.829627 
L 929.370203 92.855026 
L 932.315783 66.524224 
L 935.261364 95.474367 
L 935.261364 95.474367 
" style="fill:none;stroke:#64b5cd;stroke-linecap:round;stroke-opacity:0.8;stroke-width:1.5;"/>
   </g>
   <g id="patch_3">
    <path d="M 41.425 180.1 
L 41.425 32.8 
" style="fill:none;stroke:#cccccc;stroke-linecap:square;stroke-linejoin:miter;"/>
   </g>
   <g id="patch_4">
    <path d="M 977.825 180.1 
L 977.825 32.8 
" style="fill:none;stroke:#cccccc;stroke-linecap:square;stroke-linejoin:miter;"/>
   </g>
   <g id="patch_5">
    <path d="M 41.425 180.1 
L 977.825 180.1 
" style="fill:none;stroke:#cccccc;stroke-linecap:square;stroke-linejoin:miter;"/>
   </g>
   <g id="patch_6">
    <path d="M 41.425 32.8 
L 977.825 32.8 
" style="fill:none;stroke:#cccccc;stroke-linecap:square;stroke-linejoin:miter;"/>
   </g>
   <g id="text_18">
    <!-- Feed 0 - P1 All Predictors -->
    <defs>
     <path d="M 40.234375 0 
L 40.234375 6.546875 
Q 35.296875 -1.171875 25.734375 -1.171875 
Q 19.53125 -1.171875 14.328125 2.25 
Q 9.125 5.671875 6.265625 11.796875 
Q 3.421875 17.921875 3.421875 25.875 
Q 3.421875 33.640625 6 39.96875 
Q 8.59375 46.296875 13.765625 49.65625 
Q 18.953125 53.03125 25.34375 53.03125 
Q 30.03125 53.03125 33.6875 51.046875 
Q 37.359375 49.078125 39.65625 45.90625 
L 39.65625 71.578125 
L 48.390625 71.578125 
L 48.390625 0 
z
M 12.453125 25.875 
Q 12.453125 15.921875 16.640625 10.984375 
Q 20.84375 6.0625 26.5625 6.0625 
Q 32.328125 6.0625 36.34375 10.765625 
Q 40.375 15.484375 40.375 25.140625 
Q 40.375 35.796875 36.265625 40.765625 
Q 32.171875 45.75 26.171875 45.75 
Q 20.3125 45.75 16.375 40.96875 
Q 12.453125 36.1875 12.453125 25.875 
z
" id="ArialMT-64"/>
     <path id="ArialMT-20"/>
     <path d="M 3.171875 21.484375 
L 3.171875 30.328125 
L 30.171875 30.328125 
L 30.171875 21.484375 
z
" id="ArialMT-2d"/>
     <path d="M 7.71875 0 
L 7.71875 71.578125 
L 34.71875 71.578125 
Q 41.84375 71.578125 45.609375 70.90625 
Q 50.875 70.015625 54.4375 67.546875 
Q 58.015625 65.09375 60.1875 60.640625 
Q 62.359375 56.203125 62.359375 50.875 
Q 62.359375 41.75 56.546875 35.421875 
Q 50.734375 29.109375 35.546875 29.109375 
L 17.1875 29.109375 
L 17.1875 0 
z
M 17.1875 37.546875 
L 35.6875 37.546875 
Q 44.875 37.546875 48.734375 40.96875 
Q 52.59375 44.390625 52.59375 50.59375 
Q 52.59375 55.078125 50.3125 58.265625 
Q 48.046875 61.46875 44.34375 62.5 
Q 41.9375 63.140625 35.5 63.140625 
L 17.1875 63.140625 
z
" id="ArialMT-50"/>
     <path d="M 6.640625 61.46875 
L 6.640625 71.578125 
L 15.4375 71.578125 
L 15.4375 61.46875 
z
M 6.640625 0 
L 6.640625 51.859375 
L 15.4375 51.859375 
L 15.4375 0 
z
" id="ArialMT-69"/>
     <path d="M 3.078125 15.484375 
L 11.765625 16.84375 
Q 12.5 11.625 15.84375 8.84375 
Q 19.1875 6.0625 25.203125 6.0625 
Q 31.25 6.0625 34.171875 8.515625 
Q 37.109375 10.984375 37.109375 14.3125 
Q 37.109375 17.28125 34.515625 19 
Q 32.71875 20.171875 25.53125 21.96875 
Q 15.875 24.421875 12.140625 26.203125 
Q 8.40625 27.984375 6.46875 31.125 
Q 4.546875 34.28125 4.546875 38.09375 
Q 4.546875 41.546875 6.125 44.5 
Q 7.71875 47.46875 10.453125 49.421875 
Q 12.5 50.921875 16.03125 51.96875 
Q 19.578125 53.03125 23.640625 53.03125 
Q 29.734375 53.03125 34.34375 51.265625 
Q 38.96875 49.515625 41.15625 46.5 
Q 43.359375 43.5 44.1875 38.484375 
L 35.59375 37.3125 
Q 35.015625 41.3125 32.203125 43.546875 
Q 29.390625 45.796875 24.265625 45.796875 
Q 18.21875 45.796875 15.625 43.796875 
Q 13.03125 41.796875 13.03125 39.109375 
Q 13.03125 37.40625 14.109375 36.03125 
Q 15.1875 34.625 17.484375 33.6875 
Q 18.796875 33.203125 25.25 31.453125 
Q 34.578125 28.953125 38.25 27.359375 
Q 41.9375 25.78125 44.03125 22.75 
Q 46.140625 19.734375 46.140625 15.234375 
Q 46.140625 10.84375 43.578125 6.953125 
Q 41.015625 3.078125 36.171875 0.953125 
Q 31.34375 -1.171875 25.25 -1.171875 
Q 15.140625 -1.171875 9.84375 3.03125 
Q 4.546875 7.234375 3.078125 15.484375 
z
" id="ArialMT-73"/>
    </defs>
    <g style="fill:#262626;" transform="translate(384.310938 26.8)scale(0.22 -0.22)">
     <use xlink:href="#ArialMT-46"/>
     <use x="61.083984" xlink:href="#ArialMT-65"/>
     <use x="116.699219" xlink:href="#ArialMT-65"/>
     <use x="172.314453" xlink:href="#ArialMT-64"/>
     <use x="227.929688" xlink:href="#ArialMT-20"/>
     <use x="255.712891" xlink:href="#ArialMT-30"/>
     <use x="311.328125" xlink:href="#ArialMT-20"/>
     <use x="339.111328" xlink:href="#ArialMT-2d"/>
     <use x="372.412109" xlink:href="#ArialMT-20"/>
     <use x="400.195312" xlink:href="#ArialMT-50"/>
     <use x="466.894531" xlink:href="#ArialMT-31"/>
     <use x="522.509766" xlink:href="#ArialMT-20"/>
     <use x="550.214844" xlink:href="#ArialMT-41"/>
     <use x="616.914062" xlink:href="#ArialMT-6c"/>
     <use x="639.130859" xlink:href="#ArialMT-6c"/>
     <use x="661.347656" xlink:href="#ArialMT-20"/>
     <use x="689.130859" xlink:href="#ArialMT-50"/>
     <use x="755.830078" xlink:href="#ArialMT-72"/>
     <use x="789.130859" xlink:href="#ArialMT-65"/>
     <use x="844.746094" xlink:href="#ArialMT-64"/>
     <use x="900.361328" xlink:href="#ArialMT-69"/>
     <use x="922.578125" xlink:href="#ArialMT-63"/>
     <use x="972.578125" xlink:href="#ArialMT-74"/>
     <use x="1000.361328" xlink:href="#ArialMT-6f"/>
     <use x="1055.976562" xlink:href="#ArialMT-72"/>
     <use x="1089.277344" xlink:href="#ArialMT-73"/>
    </g>
   </g>
   <g id="legend_1">
    <g id="line2d_87">
     <path d="M 986.825 70.142187 
L 1006.825 70.142187 
" style="fill:none;stroke:#4c72b0;stroke-linecap:round;stroke-opacity:0.8;stroke-width:1.5;"/>
    </g>
    <g id="line2d_88"/>
    <g id="text_19">
     <!-- predictor_0 -->
     <defs>
      <path d="M -1.515625 -19.875 
L -1.515625 -13.53125 
L 56.734375 -13.53125 
L 56.734375 -19.875 
z
" id="ArialMT-5f"/>
     </defs>
     <g style="fill:#262626;" transform="translate(1014.825 73.642187)scale(0.1 -0.1)">
      <use xlink:href="#ArialMT-70"/>
      <use x="55.615234" xlink:href="#ArialMT-72"/>
      <use x="88.916016" xlink:href="#ArialMT-65"/>
      <use x="144.53125" xlink:href="#ArialMT-64"/>
      <use x="200.146484" xlink:href="#ArialMT-69"/>
      <use x="222.363281" xlink:href="#ArialMT-63"/>
      <use x="272.363281" xlink:href="#ArialMT-74"/>
      <use x="300.146484" xlink:href="#ArialMT-6f"/>
      <use x="355.761719" xlink:href="#ArialMT-72"/>
      <use x="389.0625" xlink:href="#ArialMT-5f"/>
      <use x="444.677734" xlink:href="#ArialMT-30"/>
     </g>
    </g>
    <g id="line2d_89">
     <path d="M 986.825 84.317187 
L 1006.825 84.317187 
" style="fill:none;stroke:#55a868;stroke-linecap:round;stroke-opacity:0.8;stroke-width:1.5;"/>
    </g>
    <g id="line2d_90"/>
    <g id="text_20">
     <!-- predictor_1 -->
     <g style="fill:#262626;" transform="translate(1014.825 87.817187)scale(0.1 -0.1)">
      <use xlink:href="#ArialMT-70"/>
      <use x="55.615234" xlink:href="#ArialMT-72"/>
      <use x="88.916016" xlink:href="#ArialMT-65"/>
      <use x="144.53125" xlink:href="#ArialMT-64"/>
      <use x="200.146484" xlink:href="#ArialMT-69"/>
      <use x="222.363281" xlink:href="#ArialMT-63"/>
      <use x="272.363281" xlink:href="#ArialMT-74"/>
      <use x="300.146484" xlink:href="#ArialMT-6f"/>
      <use x="355.761719" xlink:href="#ArialMT-72"/>
      <use x="389.0625" xlink:href="#ArialMT-5f"/>
      <use x="444.677734" xlink:href="#ArialMT-31"/>
     </g>
    </g>
    <g id="line2d_91">
     <path d="M 986.825 98.492187 
L 1006.825 98.492187 
" style="fill:none;stroke:#c44e52;stroke-linecap:round;stroke-opacity:0.8;stroke-width:1.5;"/>
    </g>
    <g id="line2d_92"/>
    <g id="text_21">
     <!-- predictor_2 -->
     <g style="fill:#262626;" transform="translate(1014.825 101.992187)scale(0.1 -0.1)">
      <use xlink:href="#ArialMT-70"/>
      <use x="55.615234" xlink:href="#ArialMT-72"/>
      <use x="88.916016" xlink:href="#ArialMT-65"/>
      <use x="144.53125" xlink:href="#ArialMT-64"/>
      <use x="200.146484" xlink:href="#ArialMT-69"/>
      <use x="222.363281" xlink:href="#ArialMT-63"/>
      <use x="272.363281" xlink:href="#ArialMT-74"/>
      <use x="300.146484" xlink:href="#ArialMT-6f"/>
      <use x="355.761719" xlink:href="#ArialMT-72"/>
      <use x="389.0625" xlink:href="#ArialMT-5f"/>
      <use x="444.677734" xlink:href="#ArialMT-32"/>
     </g>
    </g>
    <g id="line2d_93">
     <path d="M 986.825 112.667187 
L 1006.825 112.667187 
" style="fill:none;stroke:#8172b2;stroke-linecap:round;stroke-opacity:0.8;stroke-width:1.5;"/>
    </g>
    <g id="line2d_94"/>
    <g id="text_22">
     <!-- predictor_3 -->
     <defs>
      <path d="M 4.203125 18.890625 
L 12.984375 20.0625 
Q 14.5 12.59375 18.140625 9.296875 
Q 21.78125 6 27 6 
Q 33.203125 6 37.46875 10.296875 
Q 41.75 14.59375 41.75 20.953125 
Q 41.75 27 37.796875 30.921875 
Q 33.84375 34.859375 27.734375 34.859375 
Q 25.25 34.859375 21.53125 33.890625 
L 22.515625 41.609375 
Q 23.390625 41.5 23.921875 41.5 
Q 29.546875 41.5 34.03125 44.421875 
Q 38.53125 47.359375 38.53125 53.46875 
Q 38.53125 58.296875 35.25 61.46875 
Q 31.984375 64.65625 26.8125 64.65625 
Q 21.6875 64.65625 18.265625 61.421875 
Q 14.84375 58.203125 13.875 51.765625 
L 5.078125 53.328125 
Q 6.6875 62.15625 12.390625 67.015625 
Q 18.109375 71.875 26.609375 71.875 
Q 32.46875 71.875 37.390625 69.359375 
Q 42.328125 66.84375 44.9375 62.5 
Q 47.5625 58.15625 47.5625 53.265625 
Q 47.5625 48.640625 45.0625 44.828125 
Q 42.578125 41.015625 37.703125 38.765625 
Q 44.046875 37.3125 47.5625 32.6875 
Q 51.078125 28.078125 51.078125 21.140625 
Q 51.078125 11.765625 44.234375 5.25 
Q 37.40625 -1.265625 26.953125 -1.265625 
Q 17.53125 -1.265625 11.296875 4.34375 
Q 5.078125 9.96875 4.203125 18.890625 
z
" id="ArialMT-33"/>
     </defs>
     <g style="fill:#262626;" transform="translate(1014.825 116.167187)scale(0.1 -0.1)">
      <use xlink:href="#ArialMT-70"/>
      <use x="55.615234" xlink:href="#ArialMT-72"/>
      <use x="88.916016" xlink:href="#ArialMT-65"/>
      <use x="144.53125" xlink:href="#ArialMT-64"/>
      <use x="200.146484" xlink:href="#ArialMT-69"/>
      <use x="222.363281" xlink:href="#ArialMT-63"/>
      <use x="272.363281" xlink:href="#ArialMT-74"/>
      <use x="300.146484" xlink:href="#ArialMT-6f"/>
      <use x="355.761719" xlink:href="#ArialMT-72"/>
      <use x="389.0625" xlink:href="#ArialMT-5f"/>
      <use x="444.677734" xlink:href="#ArialMT-33"/>
     </g>
    </g>
    <g id="line2d_95">
     <path d="M 986.825 126.8125 
L 1006.825 126.8125 
" style="fill:none;stroke:#ccb974;stroke-linecap:round;stroke-opacity:0.8;stroke-width:1.5;"/>
    </g>
    <g id="line2d_96"/>
    <g id="text_23">
     <!-- predictor_4 -->
     <defs>
      <path d="M 32.328125 0 
L 32.328125 17.140625 
L 1.265625 17.140625 
L 1.265625 25.203125 
L 33.9375 71.578125 
L 41.109375 71.578125 
L 41.109375 25.203125 
L 50.78125 25.203125 
L 50.78125 17.140625 
L 41.109375 17.140625 
L 41.109375 0 
z
M 32.328125 25.203125 
L 32.328125 57.46875 
L 9.90625 25.203125 
z
" id="ArialMT-34"/>
     </defs>
     <g style="fill:#262626;" transform="translate(1014.825 130.3125)scale(0.1 -0.1)">
      <use xlink:href="#ArialMT-70"/>
      <use x="55.615234" xlink:href="#ArialMT-72"/>
      <use x="88.916016" xlink:href="#ArialMT-65"/>
      <use x="144.53125" xlink:href="#ArialMT-64"/>
      <use x="200.146484" xlink:href="#ArialMT-69"/>
      <use x="222.363281" xlink:href="#ArialMT-63"/>
      <use x="272.363281" xlink:href="#ArialMT-74"/>
      <use x="300.146484" xlink:href="#ArialMT-6f"/>
      <use x="355.761719" xlink:href="#ArialMT-72"/>
      <use x="389.0625" xlink:href="#ArialMT-5f"/>
      <use x="444.677734" xlink:href="#ArialMT-34"/>
     </g>
    </g>
    <g id="line2d_97">
     <path d="M 986.825 140.957812 
L 1006.825 140.957812 
" style="fill:none;stroke:#64b5cd;stroke-linecap:round;stroke-opacity:0.8;stroke-width:1.5;"/>
    </g>
    <g id="line2d_98"/>
    <g id="text_24">
     <!-- predictor_5 -->
     <g style="fill:#262626;" transform="translate(1014.825 144.457812)scale(0.1 -0.1)">
      <use xlink:href="#ArialMT-70"/>
      <use x="55.615234" xlink:href="#ArialMT-72"/>
      <use x="88.916016" xlink:href="#ArialMT-65"/>
      <use x="144.53125" xlink:href="#ArialMT-64"/>
      <use x="200.146484" xlink:href="#ArialMT-69"/>
      <use x="222.363281" xlink:href="#ArialMT-63"/>
      <use x="272.363281" xlink:href="#ArialMT-74"/>
      <use x="300.146484" xlink:href="#ArialMT-6f"/>
      <use x="355.761719" xlink:href="#ArialMT-72"/>
      <use x="389.0625" xlink:href="#ArialMT-5f"/>
      <use x="444.677734" xlink:href="#ArialMT-35"/>
     </g>
    </g>
   </g>
  </g>
 </g>
 <defs>
  <clipPath id="p800db84c8a">
   <rect height="147.3" width="936.4" x="41.425" y="32.8"/>
  </clipPath>
 </defs>
</svg>
