<?xml version="1.0" encoding="utf-8" standalone="no"?>
<!DOCTYPE svg PUBLIC "-//W3C//DTD SVG 1.1//EN"
  "http://www.w3.org/Graphics/SVG/1.1/DTD/svg11.dtd">
<!-- Created with matplotlib (http://matplotlib.org/) -->
<svg height="216pt" version="1.1" viewBox="0 0 1080 216" width="1080pt" xmlns="http://www.w3.org/2000/svg" xmlns:xlink="http://www.w3.org/1999/xlink">
 <defs>
  <style type="text/css">
*{stroke-linecap:butt;stroke-linejoin:round;}
  </style>
 </defs>
 <g id="figure_1">
  <g id="patch_1">
   <path d="M 0 216 
L 1080 216 
L 1080 0 
L 0 0 
z
" style="fill:none;"/>
  </g>
  <g id="axes_1">
   <g id="patch_2">
    <path d="M 41.425 180.1 
L 983.45 180.1 
L 983.45 32.8 
L 41.425 32.8 
z
" style="fill:#ffffff;"/>
   </g>
   <g id="matplotlib.axis_1">
    <g id="xtick_1">
     <g id="line2d_1">
      <path clip-path="url(#pe87f7eefe6)" d="M 131.656712 180.1 
L 131.656712 32.8 
" style="fill:none;stroke:#cccccc;stroke-linecap:round;stroke-width:0.8;"/>
     </g>
     <g id="line2d_2"/>
     <g id="text_1">
      <!-- Feb -->
      <defs>
       <path d="M 8.203125 0 
L 8.203125 71.578125 
L 56.5 71.578125 
L 56.5 63.140625 
L 17.671875 63.140625 
L 17.671875 40.96875 
L 51.265625 40.96875 
L 51.265625 32.515625 
L 17.671875 32.515625 
L 17.671875 0 
z
" id="ArialMT-46"/>
       <path d="M 42.09375 16.703125 
L 51.171875 15.578125 
Q 49.03125 7.625 43.21875 3.21875 
Q 37.40625 -1.171875 28.375 -1.171875 
Q 17 -1.171875 10.328125 5.828125 
Q 3.65625 12.84375 3.65625 25.484375 
Q 3.65625 38.578125 10.390625 45.796875 
Q 17.140625 53.03125 27.875 53.03125 
Q 38.28125 53.03125 44.875 45.953125 
Q 51.46875 38.875 51.46875 26.03125 
Q 51.46875 25.25 51.421875 23.6875 
L 12.75 23.6875 
Q 13.234375 15.140625 17.578125 10.59375 
Q 21.921875 6.0625 28.421875 6.0625 
Q 33.25 6.0625 36.671875 8.59375 
Q 40.09375 11.140625 42.09375 16.703125 
z
M 13.234375 30.90625 
L 42.1875 30.90625 
Q 41.609375 37.453125 38.875 40.71875 
Q 34.671875 45.796875 27.984375 45.796875 
Q 21.921875 45.796875 17.796875 41.75 
Q 13.671875 37.703125 13.234375 30.90625 
z
" id="ArialMT-65"/>
       <path d="M 14.703125 0 
L 6.546875 0 
L 6.546875 71.578125 
L 15.328125 71.578125 
L 15.328125 46.046875 
Q 20.90625 53.03125 29.546875 53.03125 
Q 34.328125 53.03125 38.59375 51.09375 
Q 42.875 49.171875 45.625 45.671875 
Q 48.390625 42.1875 49.953125 37.25 
Q 51.515625 32.328125 51.515625 26.703125 
Q 51.515625 13.375 44.921875 6.09375 
Q 38.328125 -1.171875 29.109375 -1.171875 
Q 19.921875 -1.171875 14.703125 6.5 
z
M 14.59375 26.3125 
Q 14.59375 17 17.140625 12.84375 
Q 21.296875 6.0625 28.375 6.0625 
Q 34.125 6.0625 38.328125 11.0625 
Q 42.53125 16.0625 42.53125 25.984375 
Q 42.53125 36.140625 38.5 40.96875 
Q 34.46875 45.796875 28.765625 45.796875 
Q 23 45.796875 18.796875 40.796875 
Q 14.59375 35.796875 14.59375 26.3125 
z
" id="ArialMT-62"/>
      </defs>
      <g style="fill:#262626;" transform="translate(121.3189 192.189375)scale(0.12 -0.12)">
       <use xlink:href="#ArialMT-46"/>
       <use x="61.083984" xlink:href="#ArialMT-65"/>
       <use x="116.699219" xlink:href="#ArialMT-62"/>
      </g>
      <!-- 2016 -->
      <defs>
       <path d="M 50.34375 8.453125 
L 50.34375 0 
L 3.03125 0 
Q 2.9375 3.171875 4.046875 6.109375 
Q 5.859375 10.9375 9.828125 15.625 
Q 13.8125 20.3125 21.34375 26.46875 
Q 33.015625 36.03125 37.109375 41.625 
Q 41.21875 47.21875 41.21875 52.203125 
Q 41.21875 57.421875 37.46875 61 
Q 33.734375 64.59375 27.734375 64.59375 
Q 21.390625 64.59375 17.578125 60.78125 
Q 13.765625 56.984375 13.71875 50.25 
L 4.6875 51.171875 
Q 5.609375 61.28125 11.65625 66.578125 
Q 17.71875 71.875 27.9375 71.875 
Q 38.234375 71.875 44.234375 66.15625 
Q 50.25 60.453125 50.25 52 
Q 50.25 47.703125 48.484375 43.546875 
Q 46.734375 39.40625 42.65625 34.8125 
Q 38.578125 30.21875 29.109375 22.21875 
Q 21.1875 15.578125 18.9375 13.203125 
Q 16.703125 10.84375 15.234375 8.453125 
z
" id="ArialMT-32"/>
       <path d="M 4.15625 35.296875 
Q 4.15625 48 6.765625 55.734375 
Q 9.375 63.484375 14.515625 67.671875 
Q 19.671875 71.875 27.484375 71.875 
Q 33.25 71.875 37.59375 69.546875 
Q 41.9375 67.234375 44.765625 62.859375 
Q 47.609375 58.5 49.21875 52.21875 
Q 50.828125 45.953125 50.828125 35.296875 
Q 50.828125 22.703125 48.234375 14.96875 
Q 45.65625 7.234375 40.5 3 
Q 35.359375 -1.21875 27.484375 -1.21875 
Q 17.140625 -1.21875 11.234375 6.203125 
Q 4.15625 15.140625 4.15625 35.296875 
z
M 13.1875 35.296875 
Q 13.1875 17.671875 17.3125 11.828125 
Q 21.4375 6 27.484375 6 
Q 33.546875 6 37.671875 11.859375 
Q 41.796875 17.71875 41.796875 35.296875 
Q 41.796875 52.984375 37.671875 58.78125 
Q 33.546875 64.59375 27.390625 64.59375 
Q 21.34375 64.59375 17.71875 59.46875 
Q 13.1875 52.9375 13.1875 35.296875 
z
" id="ArialMT-30"/>
       <path d="M 37.25 0 
L 28.46875 0 
L 28.46875 56 
Q 25.296875 52.984375 20.140625 49.953125 
Q 14.984375 46.921875 10.890625 45.40625 
L 10.890625 53.90625 
Q 18.265625 57.375 23.78125 62.296875 
Q 29.296875 67.234375 31.59375 71.875 
L 37.25 71.875 
z
" id="ArialMT-31"/>
       <path d="M 49.75 54.046875 
L 41.015625 53.375 
Q 39.84375 58.546875 37.703125 60.890625 
Q 34.125 64.65625 28.90625 64.65625 
Q 24.703125 64.65625 21.53125 62.3125 
Q 17.390625 59.28125 14.984375 53.46875 
Q 12.59375 47.65625 12.5 36.921875 
Q 15.671875 41.75 20.265625 44.09375 
Q 24.859375 46.4375 29.890625 46.4375 
Q 38.671875 46.4375 44.84375 39.96875 
Q 51.03125 33.5 51.03125 23.25 
Q 51.03125 16.5 48.125 10.71875 
Q 45.21875 4.9375 40.140625 1.859375 
Q 35.0625 -1.21875 28.609375 -1.21875 
Q 17.625 -1.21875 10.6875 6.859375 
Q 3.765625 14.9375 3.765625 33.5 
Q 3.765625 54.25 11.421875 63.671875 
Q 18.109375 71.875 29.4375 71.875 
Q 37.890625 71.875 43.28125 67.140625 
Q 48.6875 62.40625 49.75 54.046875 
z
M 13.875 23.1875 
Q 13.875 18.65625 15.796875 14.5 
Q 17.71875 10.359375 21.1875 8.171875 
Q 24.65625 6 28.46875 6 
Q 34.03125 6 38.03125 10.484375 
Q 42.046875 14.984375 42.046875 22.703125 
Q 42.046875 30.125 38.078125 34.390625 
Q 34.125 38.671875 28.125 38.671875 
Q 22.171875 38.671875 18.015625 34.390625 
Q 13.875 30.125 13.875 23.1875 
z
" id="ArialMT-36"/>
      </defs>
      <g style="fill:#262626;" transform="translate(118.310462 204.881625)scale(0.12 -0.12)">
       <use xlink:href="#ArialMT-32"/>
       <use x="55.615234" xlink:href="#ArialMT-30"/>
       <use x="111.230469" xlink:href="#ArialMT-31"/>
       <use x="166.845703" xlink:href="#ArialMT-36"/>
      </g>
     </g>
    </g>
    <g id="xtick_2">
     <g id="line2d_3">
      <path clip-path="url(#pe87f7eefe6)" d="M 217.591676 180.1 
L 217.591676 32.8 
" style="fill:none;stroke:#cccccc;stroke-linecap:round;stroke-width:0.8;"/>
     </g>
     <g id="line2d_4"/>
     <g id="text_2">
      <!-- Mar -->
      <defs>
       <path d="M 7.421875 0 
L 7.421875 71.578125 
L 21.6875 71.578125 
L 38.625 20.90625 
Q 40.96875 13.8125 42.046875 10.296875 
Q 43.265625 14.203125 45.84375 21.78125 
L 62.984375 71.578125 
L 75.734375 71.578125 
L 75.734375 0 
L 66.609375 0 
L 66.609375 59.90625 
L 45.796875 0 
L 37.25 0 
L 16.546875 60.9375 
L 16.546875 0 
z
" id="ArialMT-4d"/>
       <path d="M 40.4375 6.390625 
Q 35.546875 2.25 31.03125 0.53125 
Q 26.515625 -1.171875 21.34375 -1.171875 
Q 12.796875 -1.171875 8.203125 3 
Q 3.609375 7.171875 3.609375 13.671875 
Q 3.609375 17.484375 5.34375 20.625 
Q 7.078125 23.78125 9.890625 25.6875 
Q 12.703125 27.59375 16.21875 28.5625 
Q 18.796875 29.25 24.03125 29.890625 
Q 34.671875 31.15625 39.703125 32.90625 
Q 39.75 34.71875 39.75 35.203125 
Q 39.75 40.578125 37.25 42.78125 
Q 33.890625 45.75 27.25 45.75 
Q 21.046875 45.75 18.09375 43.578125 
Q 15.140625 41.40625 13.71875 35.890625 
L 5.125 37.0625 
Q 6.296875 42.578125 8.984375 45.96875 
Q 11.671875 49.359375 16.75 51.1875 
Q 21.828125 53.03125 28.515625 53.03125 
Q 35.15625 53.03125 39.296875 51.46875 
Q 43.453125 49.90625 45.40625 47.53125 
Q 47.359375 45.171875 48.140625 41.546875 
Q 48.578125 39.3125 48.578125 33.453125 
L 48.578125 21.734375 
Q 48.578125 9.46875 49.140625 6.21875 
Q 49.703125 2.984375 51.375 0 
L 42.1875 0 
Q 40.828125 2.734375 40.4375 6.390625 
z
M 39.703125 26.03125 
Q 34.90625 24.078125 25.34375 22.703125 
Q 19.921875 21.921875 17.671875 20.9375 
Q 15.4375 19.96875 14.203125 18.09375 
Q 12.984375 16.21875 12.984375 13.921875 
Q 12.984375 10.40625 15.640625 8.0625 
Q 18.3125 5.71875 23.4375 5.71875 
Q 28.515625 5.71875 32.46875 7.9375 
Q 36.421875 10.15625 38.28125 14.015625 
Q 39.703125 17 39.703125 22.796875 
z
" id="ArialMT-61"/>
       <path d="M 6.5 0 
L 6.5 51.859375 
L 14.40625 51.859375 
L 14.40625 44 
Q 17.4375 49.515625 20 51.265625 
Q 22.5625 53.03125 25.640625 53.03125 
Q 30.078125 53.03125 34.671875 50.203125 
L 31.640625 42.046875 
Q 28.421875 43.953125 25.203125 43.953125 
Q 22.3125 43.953125 20.015625 42.21875 
Q 17.71875 40.484375 16.75 37.40625 
Q 15.28125 32.71875 15.28125 27.15625 
L 15.28125 0 
z
" id="ArialMT-72"/>
      </defs>
      <g style="fill:#262626;" transform="translate(207.259488 192.189375)scale(0.12 -0.12)">
       <use xlink:href="#ArialMT-4d"/>
       <use x="83.300781" xlink:href="#ArialMT-61"/>
       <use x="138.916016" xlink:href="#ArialMT-72"/>
      </g>
     </g>
    </g>
    <g id="xtick_3">
     <g id="line2d_5">
      <path clip-path="url(#pe87f7eefe6)" d="M 309.453189 180.1 
L 309.453189 32.8 
" style="fill:none;stroke:#cccccc;stroke-linecap:round;stroke-width:0.8;"/>
     </g>
     <g id="line2d_6"/>
     <g id="text_3">
      <!-- Apr -->
      <defs>
       <path d="M -0.140625 0 
L 27.34375 71.578125 
L 37.546875 71.578125 
L 66.84375 0 
L 56.0625 0 
L 47.703125 21.6875 
L 17.78125 21.6875 
L 9.90625 0 
z
M 20.515625 29.390625 
L 44.78125 29.390625 
L 37.3125 49.21875 
Q 33.890625 58.25 32.234375 64.0625 
Q 30.859375 57.171875 28.375 50.390625 
z
" id="ArialMT-41"/>
       <path d="M 6.59375 -19.875 
L 6.59375 51.859375 
L 14.59375 51.859375 
L 14.59375 45.125 
Q 17.4375 49.078125 21 51.046875 
Q 24.5625 53.03125 29.640625 53.03125 
Q 36.28125 53.03125 41.359375 49.609375 
Q 46.4375 46.1875 49.015625 39.953125 
Q 51.609375 33.734375 51.609375 26.3125 
Q 51.609375 18.359375 48.75 11.984375 
Q 45.90625 5.609375 40.453125 2.21875 
Q 35.015625 -1.171875 29 -1.171875 
Q 24.609375 -1.171875 21.109375 0.6875 
Q 17.625 2.546875 15.375 5.375 
L 15.375 -19.875 
z
M 14.546875 25.640625 
Q 14.546875 15.625 18.59375 10.84375 
Q 22.65625 6.0625 28.421875 6.0625 
Q 34.28125 6.0625 38.453125 11.015625 
Q 42.625 15.96875 42.625 26.375 
Q 42.625 36.28125 38.546875 41.203125 
Q 34.46875 46.140625 28.8125 46.140625 
Q 23.1875 46.140625 18.859375 40.890625 
Q 14.546875 35.640625 14.546875 25.640625 
z
" id="ArialMT-70"/>
      </defs>
      <g style="fill:#262626;" transform="translate(300.116626 192.189375)scale(0.12 -0.12)">
       <use xlink:href="#ArialMT-41"/>
       <use x="66.699219" xlink:href="#ArialMT-70"/>
       <use x="122.314453" xlink:href="#ArialMT-72"/>
      </g>
     </g>
    </g>
    <g id="xtick_4">
     <g id="line2d_7">
      <path clip-path="url(#pe87f7eefe6)" d="M 398.351427 180.1 
L 398.351427 32.8 
" style="fill:none;stroke:#cccccc;stroke-linecap:round;stroke-width:0.8;"/>
     </g>
     <g id="line2d_8"/>
     <g id="text_4">
      <!-- May -->
      <defs>
       <path d="M 6.203125 -19.96875 
L 5.21875 -11.71875 
Q 8.109375 -12.5 10.25 -12.5 
Q 13.1875 -12.5 14.9375 -11.515625 
Q 16.703125 -10.546875 17.828125 -8.796875 
Q 18.65625 -7.46875 20.515625 -2.25 
Q 20.75 -1.515625 21.296875 -0.09375 
L 1.609375 51.859375 
L 11.078125 51.859375 
L 21.875 21.828125 
Q 23.96875 16.109375 25.640625 9.8125 
Q 27.15625 15.875 29.25 21.625 
L 40.328125 51.859375 
L 49.125 51.859375 
L 29.390625 -0.875 
Q 26.21875 -9.421875 24.46875 -12.640625 
Q 22.125 -17 19.09375 -19.015625 
Q 16.0625 -21.046875 11.859375 -21.046875 
Q 9.328125 -21.046875 6.203125 -19.96875 
z
" id="ArialMT-79"/>
      </defs>
      <g style="fill:#262626;" transform="translate(387.017052 192.189375)scale(0.12 -0.12)">
       <use xlink:href="#ArialMT-4d"/>
       <use x="83.300781" xlink:href="#ArialMT-61"/>
       <use x="138.916016" xlink:href="#ArialMT-79"/>
      </g>
     </g>
    </g>
    <g id="xtick_5">
     <g id="line2d_9">
      <path clip-path="url(#pe87f7eefe6)" d="M 490.21294 180.1 
L 490.21294 32.8 
" style="fill:none;stroke:#cccccc;stroke-linecap:round;stroke-width:0.8;"/>
     </g>
     <g id="line2d_10"/>
     <g id="text_5">
      <!-- Jun -->
      <defs>
       <path d="M 2.875 20.3125 
L 11.421875 21.484375 
Q 11.765625 13.28125 14.5 10.25 
Q 17.234375 7.234375 22.078125 7.234375 
Q 25.640625 7.234375 28.21875 8.859375 
Q 30.8125 10.5 31.78125 13.296875 
Q 32.765625 16.109375 32.765625 22.265625 
L 32.765625 71.578125 
L 42.234375 71.578125 
L 42.234375 22.796875 
Q 42.234375 13.8125 40.0625 8.875 
Q 37.890625 3.953125 33.171875 1.359375 
Q 28.46875 -1.21875 22.125 -1.21875 
Q 12.703125 -1.21875 7.6875 4.203125 
Q 2.6875 9.625 2.875 20.3125 
z
" id="ArialMT-4a"/>
       <path d="M 40.578125 0 
L 40.578125 7.625 
Q 34.515625 -1.171875 24.125 -1.171875 
Q 19.53125 -1.171875 15.546875 0.578125 
Q 11.578125 2.34375 9.640625 5 
Q 7.71875 7.671875 6.9375 11.53125 
Q 6.390625 14.109375 6.390625 19.734375 
L 6.390625 51.859375 
L 15.1875 51.859375 
L 15.1875 23.09375 
Q 15.1875 16.21875 15.71875 13.8125 
Q 16.546875 10.359375 19.234375 8.375 
Q 21.921875 6.390625 25.875 6.390625 
Q 29.828125 6.390625 33.296875 8.421875 
Q 36.765625 10.453125 38.203125 13.9375 
Q 39.65625 17.4375 39.65625 24.078125 
L 39.65625 51.859375 
L 48.4375 51.859375 
L 48.4375 0 
z
" id="ArialMT-75"/>
       <path d="M 6.59375 0 
L 6.59375 51.859375 
L 14.5 51.859375 
L 14.5 44.484375 
Q 20.21875 53.03125 31 53.03125 
Q 35.6875 53.03125 39.625 51.34375 
Q 43.5625 49.65625 45.515625 46.921875 
Q 47.46875 44.1875 48.25 40.4375 
Q 48.734375 37.984375 48.734375 31.890625 
L 48.734375 0 
L 39.9375 0 
L 39.9375 31.546875 
Q 39.9375 36.921875 38.90625 39.578125 
Q 37.890625 42.234375 35.28125 43.8125 
Q 32.671875 45.40625 29.15625 45.40625 
Q 23.53125 45.40625 19.453125 41.84375 
Q 15.375 38.28125 15.375 28.328125 
L 15.375 0 
z
" id="ArialMT-6e"/>
      </defs>
      <g style="fill:#262626;" transform="translate(480.539815 192.189375)scale(0.12 -0.12)">
       <use xlink:href="#ArialMT-4a"/>
       <use x="50" xlink:href="#ArialMT-75"/>
       <use x="105.615234" xlink:href="#ArialMT-6e"/>
      </g>
     </g>
    </g>
    <g id="xtick_6">
     <g id="line2d_11">
      <path clip-path="url(#pe87f7eefe6)" d="M 579.111179 180.1 
L 579.111179 32.8 
" style="fill:none;stroke:#cccccc;stroke-linecap:round;stroke-width:0.8;"/>
     </g>
     <g id="line2d_12"/>
     <g id="text_6">
      <!-- Jul -->
      <defs>
       <path d="M 6.390625 0 
L 6.390625 71.578125 
L 15.1875 71.578125 
L 15.1875 0 
z
" id="ArialMT-6c"/>
      </defs>
      <g style="fill:#262626;" transform="translate(571.441491 192.189375)scale(0.12 -0.12)">
       <use xlink:href="#ArialMT-4a"/>
       <use x="50" xlink:href="#ArialMT-75"/>
       <use x="105.615234" xlink:href="#ArialMT-6c"/>
      </g>
     </g>
    </g>
    <g id="xtick_7">
     <g id="line2d_13">
      <path clip-path="url(#pe87f7eefe6)" d="M 670.972692 180.1 
L 670.972692 32.8 
" style="fill:none;stroke:#cccccc;stroke-linecap:round;stroke-width:0.8;"/>
     </g>
     <g id="line2d_14"/>
     <g id="text_7">
      <!-- Aug -->
      <defs>
       <path d="M 4.984375 -4.296875 
L 13.53125 -5.5625 
Q 14.0625 -9.515625 16.5 -11.328125 
Q 19.78125 -13.765625 25.4375 -13.765625 
Q 31.546875 -13.765625 34.859375 -11.328125 
Q 38.1875 -8.890625 39.359375 -4.5 
Q 40.046875 -1.8125 39.984375 6.78125 
Q 34.234375 0 25.640625 0 
Q 14.9375 0 9.078125 7.71875 
Q 3.21875 15.4375 3.21875 26.21875 
Q 3.21875 33.640625 5.90625 39.90625 
Q 8.59375 46.1875 13.6875 49.609375 
Q 18.796875 53.03125 25.6875 53.03125 
Q 34.859375 53.03125 40.828125 45.609375 
L 40.828125 51.859375 
L 48.921875 51.859375 
L 48.921875 7.03125 
Q 48.921875 -5.078125 46.453125 -10.125 
Q 44 -15.1875 38.640625 -18.109375 
Q 33.296875 -21.046875 25.484375 -21.046875 
Q 16.21875 -21.046875 10.5 -16.875 
Q 4.78125 -12.703125 4.984375 -4.296875 
z
M 12.25 26.859375 
Q 12.25 16.65625 16.296875 11.96875 
Q 20.359375 7.28125 26.46875 7.28125 
Q 32.515625 7.28125 36.609375 11.9375 
Q 40.71875 16.609375 40.71875 26.5625 
Q 40.71875 36.078125 36.5 40.90625 
Q 32.28125 45.75 26.3125 45.75 
Q 20.453125 45.75 16.34375 40.984375 
Q 12.25 36.234375 12.25 26.859375 
z
" id="ArialMT-67"/>
      </defs>
      <g style="fill:#262626;" transform="translate(660.297379 192.189375)scale(0.12 -0.12)">
       <use xlink:href="#ArialMT-41"/>
       <use x="66.699219" xlink:href="#ArialMT-75"/>
       <use x="122.314453" xlink:href="#ArialMT-67"/>
      </g>
     </g>
    </g>
    <g id="xtick_8">
     <g id="line2d_15">
      <path clip-path="url(#pe87f7eefe6)" d="M 762.834205 180.1 
L 762.834205 32.8 
" style="fill:none;stroke:#cccccc;stroke-linecap:round;stroke-width:0.8;"/>
     </g>
     <g id="line2d_16"/>
     <g id="text_8">
      <!-- Sep -->
      <defs>
       <path d="M 4.5 23 
L 13.421875 23.78125 
Q 14.0625 18.40625 16.375 14.96875 
Q 18.703125 11.53125 23.578125 9.40625 
Q 28.46875 7.28125 34.578125 7.28125 
Q 39.984375 7.28125 44.140625 8.890625 
Q 48.296875 10.5 50.3125 13.296875 
Q 52.34375 16.109375 52.34375 19.4375 
Q 52.34375 22.796875 50.390625 25.3125 
Q 48.4375 27.828125 43.953125 29.546875 
Q 41.0625 30.671875 31.203125 33.03125 
Q 21.34375 35.40625 17.390625 37.5 
Q 12.25 40.1875 9.734375 44.15625 
Q 7.234375 48.140625 7.234375 53.078125 
Q 7.234375 58.5 10.296875 63.203125 
Q 13.375 67.921875 19.28125 70.359375 
Q 25.203125 72.796875 32.421875 72.796875 
Q 40.375 72.796875 46.453125 70.234375 
Q 52.546875 67.671875 55.8125 62.6875 
Q 59.078125 57.71875 59.328125 51.421875 
L 50.25 50.734375 
Q 49.515625 57.515625 45.28125 60.984375 
Q 41.0625 64.453125 32.8125 64.453125 
Q 24.21875 64.453125 20.28125 61.296875 
Q 16.359375 58.15625 16.359375 53.71875 
Q 16.359375 49.859375 19.140625 47.359375 
Q 21.875 44.875 33.421875 42.265625 
Q 44.96875 39.65625 49.265625 37.703125 
Q 55.515625 34.8125 58.484375 30.390625 
Q 61.46875 25.984375 61.46875 20.21875 
Q 61.46875 14.5 58.203125 9.4375 
Q 54.9375 4.390625 48.796875 1.578125 
Q 42.671875 -1.21875 35.015625 -1.21875 
Q 25.296875 -1.21875 18.71875 1.609375 
Q 12.15625 4.4375 8.421875 10.125 
Q 4.6875 15.828125 4.5 23 
z
" id="ArialMT-53"/>
      </defs>
      <g style="fill:#262626;" transform="translate(752.158892 192.335625)scale(0.12 -0.12)">
       <use xlink:href="#ArialMT-53"/>
       <use x="66.699219" xlink:href="#ArialMT-65"/>
       <use x="122.314453" xlink:href="#ArialMT-70"/>
      </g>
     </g>
    </g>
    <g id="xtick_9">
     <g id="line2d_17">
      <path clip-path="url(#pe87f7eefe6)" d="M 851.732443 180.1 
L 851.732443 32.8 
" style="fill:none;stroke:#cccccc;stroke-linecap:round;stroke-width:0.8;"/>
     </g>
     <g id="line2d_18"/>
     <g id="text_9">
      <!-- Oct -->
      <defs>
       <path d="M 4.828125 34.859375 
Q 4.828125 52.6875 14.390625 62.765625 
Q 23.96875 72.859375 39.109375 72.859375 
Q 49.03125 72.859375 56.984375 68.109375 
Q 64.9375 63.375 69.109375 54.90625 
Q 73.296875 46.4375 73.296875 35.6875 
Q 73.296875 24.8125 68.890625 16.21875 
Q 64.5 7.625 56.4375 3.203125 
Q 48.390625 -1.21875 39.0625 -1.21875 
Q 28.953125 -1.21875 20.984375 3.65625 
Q 13.03125 8.546875 8.921875 16.984375 
Q 4.828125 25.4375 4.828125 34.859375 
z
M 14.59375 34.71875 
Q 14.59375 21.78125 21.546875 14.328125 
Q 28.515625 6.890625 39.015625 6.890625 
Q 49.703125 6.890625 56.609375 14.40625 
Q 63.53125 21.921875 63.53125 35.75 
Q 63.53125 44.484375 60.578125 51 
Q 57.625 57.515625 51.921875 61.109375 
Q 46.234375 64.703125 39.15625 64.703125 
Q 29.109375 64.703125 21.84375 57.78125 
Q 14.59375 50.875 14.59375 34.71875 
z
" id="ArialMT-4f"/>
       <path d="M 40.4375 19 
L 49.078125 17.875 
Q 47.65625 8.9375 41.8125 3.875 
Q 35.984375 -1.171875 27.484375 -1.171875 
Q 16.84375 -1.171875 10.375 5.78125 
Q 3.90625 12.75 3.90625 25.734375 
Q 3.90625 34.125 6.6875 40.421875 
Q 9.46875 46.734375 15.15625 49.875 
Q 20.84375 53.03125 27.546875 53.03125 
Q 35.984375 53.03125 41.359375 48.75 
Q 46.734375 44.484375 48.25 36.625 
L 39.703125 35.296875 
Q 38.484375 40.53125 35.375 43.15625 
Q 32.28125 45.796875 27.875 45.796875 
Q 21.234375 45.796875 17.078125 41.03125 
Q 12.9375 36.28125 12.9375 25.984375 
Q 12.9375 15.53125 16.9375 10.796875 
Q 20.953125 6.0625 27.390625 6.0625 
Q 32.5625 6.0625 36.03125 9.234375 
Q 39.5 12.40625 40.4375 19 
z
" id="ArialMT-63"/>
       <path d="M 25.78125 7.859375 
L 27.046875 0.09375 
Q 23.34375 -0.6875 20.40625 -0.6875 
Q 15.625 -0.6875 12.984375 0.828125 
Q 10.359375 2.34375 9.28125 4.8125 
Q 8.203125 7.28125 8.203125 15.1875 
L 8.203125 45.015625 
L 1.765625 45.015625 
L 1.765625 51.859375 
L 8.203125 51.859375 
L 8.203125 64.703125 
L 16.9375 69.96875 
L 16.9375 51.859375 
L 25.78125 51.859375 
L 25.78125 45.015625 
L 16.9375 45.015625 
L 16.9375 14.703125 
Q 16.9375 10.9375 17.40625 9.859375 
Q 17.875 8.796875 18.921875 8.15625 
Q 19.96875 7.515625 21.921875 7.515625 
Q 23.390625 7.515625 25.78125 7.859375 
z
" id="ArialMT-74"/>
      </defs>
      <g style="fill:#262626;" transform="translate(842.398693 192.189375)scale(0.12 -0.12)">
       <use xlink:href="#ArialMT-4f"/>
       <use x="77.783203" xlink:href="#ArialMT-63"/>
       <use x="127.783203" xlink:href="#ArialMT-74"/>
      </g>
     </g>
    </g>
    <g id="xtick_10">
     <g id="line2d_19">
      <path clip-path="url(#pe87f7eefe6)" d="M 943.593956 180.1 
L 943.593956 32.8 
" style="fill:none;stroke:#cccccc;stroke-linecap:round;stroke-width:0.8;"/>
     </g>
     <g id="line2d_20"/>
     <g id="text_10">
      <!-- Nov -->
      <defs>
       <path d="M 7.625 0 
L 7.625 71.578125 
L 17.328125 71.578125 
L 54.9375 15.375 
L 54.9375 71.578125 
L 64.015625 71.578125 
L 64.015625 0 
L 54.296875 0 
L 16.703125 56.25 
L 16.703125 0 
z
" id="ArialMT-4e"/>
       <path d="M 3.328125 25.921875 
Q 3.328125 40.328125 11.328125 47.265625 
Q 18.015625 53.03125 27.640625 53.03125 
Q 38.328125 53.03125 45.109375 46.015625 
Q 51.90625 39.015625 51.90625 26.65625 
Q 51.90625 16.65625 48.90625 10.90625 
Q 45.90625 5.171875 40.15625 2 
Q 34.421875 -1.171875 27.640625 -1.171875 
Q 16.75 -1.171875 10.03125 5.8125 
Q 3.328125 12.796875 3.328125 25.921875 
z
M 12.359375 25.921875 
Q 12.359375 15.96875 16.703125 11.015625 
Q 21.046875 6.0625 27.640625 6.0625 
Q 34.1875 6.0625 38.53125 11.03125 
Q 42.875 16.015625 42.875 26.21875 
Q 42.875 35.84375 38.5 40.796875 
Q 34.125 45.75 27.640625 45.75 
Q 21.046875 45.75 16.703125 40.8125 
Q 12.359375 35.890625 12.359375 25.921875 
z
" id="ArialMT-6f"/>
       <path d="M 21 0 
L 1.265625 51.859375 
L 10.546875 51.859375 
L 21.6875 20.796875 
Q 23.484375 15.765625 25 10.359375 
Q 26.171875 14.453125 28.265625 20.21875 
L 39.796875 51.859375 
L 48.828125 51.859375 
L 29.203125 0 
z
" id="ArialMT-76"/>
      </defs>
      <g style="fill:#262626;" transform="translate(932.924269 192.189375)scale(0.12 -0.12)">
       <use xlink:href="#ArialMT-4e"/>
       <use x="72.216797" xlink:href="#ArialMT-6f"/>
       <use x="127.832031" xlink:href="#ArialMT-76"/>
      </g>
     </g>
    </g>
    <g id="xtick_11">
     <g id="line2d_21">
      <path clip-path="url(#pe87f7eefe6)" d="M 982.116526 180.1 
L 982.116526 32.8 
" style="fill:none;stroke:#cccccc;stroke-linecap:round;stroke-width:0.8;"/>
     </g>
     <g id="line2d_22"/>
    </g>
    <g id="xtick_12">
     <g id="line2d_23"/>
    </g>
    <g id="xtick_13">
     <g id="line2d_24"/>
    </g>
    <g id="xtick_14">
     <g id="line2d_25"/>
    </g>
    <g id="xtick_15">
     <g id="line2d_26"/>
    </g>
    <g id="xtick_16">
     <g id="line2d_27"/>
    </g>
    <g id="xtick_17">
     <g id="line2d_28"/>
    </g>
    <g id="xtick_18">
     <g id="line2d_29"/>
    </g>
    <g id="xtick_19">
     <g id="line2d_30"/>
    </g>
    <g id="xtick_20">
     <g id="line2d_31"/>
    </g>
    <g id="xtick_21">
     <g id="line2d_32"/>
    </g>
    <g id="xtick_22">
     <g id="line2d_33"/>
    </g>
    <g id="xtick_23">
     <g id="line2d_34"/>
    </g>
    <g id="xtick_24">
     <g id="line2d_35"/>
    </g>
    <g id="xtick_25">
     <g id="line2d_36"/>
    </g>
    <g id="xtick_26">
     <g id="line2d_37"/>
    </g>
    <g id="xtick_27">
     <g id="line2d_38"/>
    </g>
    <g id="xtick_28">
     <g id="line2d_39"/>
    </g>
    <g id="xtick_29">
     <g id="line2d_40"/>
    </g>
    <g id="xtick_30">
     <g id="line2d_41"/>
    </g>
    <g id="xtick_31">
     <g id="line2d_42"/>
    </g>
    <g id="xtick_32">
     <g id="line2d_43"/>
    </g>
    <g id="xtick_33">
     <g id="line2d_44"/>
    </g>
    <g id="xtick_34">
     <g id="line2d_45"/>
    </g>
    <g id="xtick_35">
     <g id="line2d_46"/>
    </g>
    <g id="xtick_36">
     <g id="line2d_47"/>
    </g>
    <g id="xtick_37">
     <g id="line2d_48"/>
    </g>
    <g id="xtick_38">
     <g id="line2d_49"/>
    </g>
    <g id="xtick_39">
     <g id="line2d_50"/>
    </g>
    <g id="xtick_40">
     <g id="line2d_51"/>
    </g>
    <g id="xtick_41">
     <g id="line2d_52"/>
    </g>
    <g id="xtick_42">
     <g id="line2d_53"/>
    </g>
    <g id="xtick_43">
     <g id="line2d_54"/>
    </g>
    <g id="xtick_44">
     <g id="line2d_55"/>
    </g>
    <g id="xtick_45">
     <g id="line2d_56"/>
    </g>
    <g id="xtick_46">
     <g id="line2d_57"/>
    </g>
    <g id="xtick_47">
     <g id="line2d_58"/>
    </g>
    <g id="xtick_48">
     <g id="line2d_59"/>
    </g>
    <g id="xtick_49">
     <g id="line2d_60"/>
    </g>
    <g id="xtick_50">
     <g id="line2d_61"/>
    </g>
    <g id="xtick_51">
     <g id="line2d_62"/>
    </g>
    <g id="xtick_52">
     <g id="line2d_63"/>
    </g>
    <g id="xtick_53">
     <g id="line2d_64"/>
    </g>
    <g id="xtick_54">
     <g id="line2d_65"/>
    </g>
    <g id="xtick_55">
     <g id="line2d_66"/>
    </g>
   </g>
   <g id="matplotlib.axis_2">
    <g id="ytick_1">
     <g id="line2d_67">
      <path clip-path="url(#pe87f7eefe6)" d="M 41.425 180.1 
L 983.45 180.1 
" style="fill:none;stroke:#cccccc;stroke-linecap:round;stroke-width:0.8;"/>
     </g>
     <g id="line2d_68"/>
     <g id="text_11">
      <!-- −500 -->
      <defs>
       <path d="M 52.828125 31.203125 
L 5.5625 31.203125 
L 5.5625 39.40625 
L 52.828125 39.40625 
z
" id="ArialMT-2212"/>
       <path d="M 4.15625 18.75 
L 13.375 19.53125 
Q 14.40625 12.796875 18.140625 9.390625 
Q 21.875 6 27.15625 6 
Q 33.5 6 37.890625 10.78125 
Q 42.28125 15.578125 42.28125 23.484375 
Q 42.28125 31 38.0625 35.34375 
Q 33.84375 39.703125 27 39.703125 
Q 22.75 39.703125 19.328125 37.765625 
Q 15.921875 35.84375 13.96875 32.765625 
L 5.71875 33.84375 
L 12.640625 70.609375 
L 48.25 70.609375 
L 48.25 62.203125 
L 19.671875 62.203125 
L 15.828125 42.96875 
Q 22.265625 47.46875 29.34375 47.46875 
Q 38.71875 47.46875 45.15625 40.96875 
Q 51.609375 34.46875 51.609375 24.265625 
Q 51.609375 14.546875 45.953125 7.46875 
Q 39.0625 -1.21875 27.15625 -1.21875 
Q 17.390625 -1.21875 11.203125 4.25 
Q 5.03125 9.71875 4.15625 18.75 
z
" id="ArialMT-35"/>
      </defs>
      <g style="fill:#262626;" transform="translate(10.896875 184.394688)scale(0.12 -0.12)">
       <use xlink:href="#ArialMT-2212"/>
       <use x="58.398438" xlink:href="#ArialMT-35"/>
       <use x="114.013672" xlink:href="#ArialMT-30"/>
       <use x="169.628906" xlink:href="#ArialMT-30"/>
      </g>
     </g>
    </g>
    <g id="ytick_2">
     <g id="line2d_69">
      <path clip-path="url(#pe87f7eefe6)" d="M 41.425 155.55 
L 983.45 155.55 
" style="fill:none;stroke:#cccccc;stroke-linecap:round;stroke-width:0.8;"/>
     </g>
     <g id="line2d_70"/>
     <g id="text_12">
      <!-- −250 -->
      <g style="fill:#262626;" transform="translate(10.896875 159.844687)scale(0.12 -0.12)">
       <use xlink:href="#ArialMT-2212"/>
       <use x="58.398438" xlink:href="#ArialMT-32"/>
       <use x="114.013672" xlink:href="#ArialMT-35"/>
       <use x="169.628906" xlink:href="#ArialMT-30"/>
      </g>
     </g>
    </g>
    <g id="ytick_3">
     <g id="line2d_71">
      <path clip-path="url(#pe87f7eefe6)" d="M 41.425 131 
L 983.45 131 
" style="fill:none;stroke:#cccccc;stroke-linecap:round;stroke-width:0.8;"/>
     </g>
     <g id="line2d_72"/>
     <g id="text_13">
      <!-- 0 -->
      <g style="fill:#262626;" transform="translate(31.251875 135.294688)scale(0.12 -0.12)">
       <use xlink:href="#ArialMT-30"/>
      </g>
     </g>
    </g>
    <g id="ytick_4">
     <g id="line2d_73">
      <path clip-path="url(#pe87f7eefe6)" d="M 41.425 106.45 
L 983.45 106.45 
" style="fill:none;stroke:#cccccc;stroke-linecap:round;stroke-width:0.8;"/>
     </g>
     <g id="line2d_74"/>
     <g id="text_14">
      <!-- 250 -->
      <g style="fill:#262626;" transform="translate(17.905625 110.744687)scale(0.12 -0.12)">
       <use xlink:href="#ArialMT-32"/>
       <use x="55.615234" xlink:href="#ArialMT-35"/>
       <use x="111.230469" xlink:href="#ArialMT-30"/>
      </g>
     </g>
    </g>
    <g id="ytick_5">
     <g id="line2d_75">
      <path clip-path="url(#pe87f7eefe6)" d="M 41.425 81.9 
L 983.45 81.9 
" style="fill:none;stroke:#cccccc;stroke-linecap:round;stroke-width:0.8;"/>
     </g>
     <g id="line2d_76"/>
     <g id="text_15">
      <!-- 500 -->
      <g style="fill:#262626;" transform="translate(17.905625 86.194688)scale(0.12 -0.12)">
       <use xlink:href="#ArialMT-35"/>
       <use x="55.615234" xlink:href="#ArialMT-30"/>
       <use x="111.230469" xlink:href="#ArialMT-30"/>
      </g>
     </g>
    </g>
    <g id="ytick_6">
     <g id="line2d_77">
      <path clip-path="url(#pe87f7eefe6)" d="M 41.425 57.35 
L 983.45 57.35 
" style="fill:none;stroke:#cccccc;stroke-linecap:round;stroke-width:0.8;"/>
     </g>
     <g id="line2d_78"/>
     <g id="text_16">
      <!-- 750 -->
      <defs>
       <path d="M 4.734375 62.203125 
L 4.734375 70.65625 
L 51.078125 70.65625 
L 51.078125 63.8125 
Q 44.234375 56.546875 37.515625 44.484375 
Q 30.8125 32.421875 27.15625 19.671875 
Q 24.515625 10.6875 23.78125 0 
L 14.75 0 
Q 14.890625 8.453125 18.0625 20.40625 
Q 21.234375 32.375 27.171875 43.484375 
Q 33.109375 54.59375 39.796875 62.203125 
z
" id="ArialMT-37"/>
      </defs>
      <g style="fill:#262626;" transform="translate(17.905625 61.644688)scale(0.12 -0.12)">
       <use xlink:href="#ArialMT-37"/>
       <use x="55.615234" xlink:href="#ArialMT-35"/>
       <use x="111.230469" xlink:href="#ArialMT-30"/>
      </g>
     </g>
    </g>
    <g id="ytick_7">
     <g id="line2d_79">
      <path clip-path="url(#pe87f7eefe6)" d="M 41.425 32.8 
L 983.45 32.8 
" style="fill:none;stroke:#cccccc;stroke-linecap:round;stroke-width:0.8;"/>
     </g>
     <g id="line2d_80"/>
     <g id="text_17">
      <!-- 1000 -->
      <g style="fill:#262626;" transform="translate(11.2325 37.094688)scale(0.12 -0.12)">
       <use xlink:href="#ArialMT-31"/>
       <use x="55.615234" xlink:href="#ArialMT-30"/>
       <use x="111.230469" xlink:href="#ArialMT-30"/>
       <use x="166.845703" xlink:href="#ArialMT-30"/>
      </g>
     </g>
    </g>
   </g>
   <g id="line2d_81">
    <path clip-path="url(#pe87f7eefe6)" d="M 84.244318 100.058375 
L 87.207593 99.275722 
L 90.170867 93.147699 
L 93.134142 87.839768 
L 96.097417 95.966035 
L 99.060691 98.197449 
L 102.023966 108.609635 
L 104.98724 114.762634 
L 107.950515 103.016867 
L 110.91379 95.382614 
L 113.877064 92.244787 
L 116.840339 94.907247 
L 119.803614 100.233658 
L 122.766888 113.500691 
L 125.730163 115.227179 
L 128.693437 98.457047 
L 131.656712 90.960498 
L 134.619987 93.669996 
L 137.583261 100.547033 
L 140.546536 101.852203 
L 143.50981 114.03559 
L 146.473085 114.60632 
L 149.43636 87.953065 
L 152.399634 90.806091 
L 155.362909 95.654674 
L 158.326184 91.950381 
L 164.252733 108.575492 
L 167.216007 115.422986 
L 170.179282 93.770112 
L 173.142557 89.875082 
L 176.105831 91.873011 
L 179.069106 97.521893 
L 182.03238 99.67128 
L 184.995655 105.314522 
L 187.95893 116.357714 
L 190.922204 102.13784 
L 193.885479 91.216109 
L 196.848754 95.8089 
L 199.812028 94.561405 
L 205.738577 110.53731 
L 208.701852 112.964329 
L 211.665127 102.149305 
L 214.628401 94.560993 
L 217.591676 93.375797 
L 220.55495 94.676533 
L 223.518225 99.229977 
L 226.4815 107.608098 
L 229.444774 111.620583 
L 232.408049 93.537557 
L 235.371324 90.707386 
L 238.334598 99.522601 
L 241.297873 104.758235 
L 244.261147 105.718252 
L 247.224422 112.404723 
L 250.187697 111.512357 
L 253.150971 87.030967 
L 256.114246 87.827624 
L 259.07752 87.384388 
L 262.040795 93.535273 
L 265.00407 91.471575 
L 267.967344 103.377617 
L 270.930619 118.216949 
L 273.893894 123.313662 
L 276.857168 93.366827 
L 279.820443 156.455105 
L 282.783717 96.125978 
L 285.746992 24.856797 
L 288.710267 109.999466 
L 291.673541 106.238643 
L 294.636816 87.702617 
L 297.60009 131.625184 
L 300.563365 82.259427 
L 303.52664 85.139228 
L 306.489914 105.558695 
L 309.453189 122.018143 
L 312.416464 116.407582 
L 315.379738 94.009362 
L 318.343013 94.66048 
L 321.306287 98.788614 
L 324.269562 106.218391 
L 327.232837 97.132326 
L 330.196111 110.455507 
L 333.159386 120.445703 
L 336.12266 100.086964 
L 339.085935 57.819963 
L 342.04921 96.438199 
L 345.012484 65.457817 
L 347.975759 82.870301 
L 350.939034 103.598222 
L 353.902308 106.158023 
L 356.865583 91.16371 
L 359.828857 89.867254 
L 362.792132 104.085248 
L 365.755407 91.995406 
L 368.718681 79.218502 
L 371.681956 98.274928 
L 374.64523 104.215402 
L 377.608505 89.599338 
L 380.57178 82.42126 
L 383.535054 85.896846 
L 386.498329 81.900094 
L 389.461603 88.245714 
L 392.424878 98.784417 
L 395.388153 103.266545 
L 398.351427 90.463247 
L 401.314702 80.656859 
L 404.277977 94.815089 
L 407.241251 102.796223 
L 410.204526 95.113164 
L 413.1678 109.282731 
L 416.131075 113.526831 
L 419.09435 88.585001 
L 422.057624 81.827878 
L 425.020899 94.843346 
L 430.947448 98.04277 
L 433.910723 137.898444 
L 436.873997 107.40295 
L 439.837272 92.191081 
L 442.800547 95.528818 
L 445.763821 92.906819 
L 448.727096 94.12173 
L 451.69037 99.208086 
L 454.653645 109.973964 
L 457.61692 109.239431 
L 460.580194 88.82329 
L 462.605957 -1 
M 464.460634 -1 
L 466.506743 91.738066 
L 469.470018 102.365595 
L 472.433293 99.680751 
L 475.396567 108.915109 
L 478.359842 112.167046 
L 481.323117 89.752318 
L 484.286391 88.187565 
L 487.249666 94.83202 
L 490.21294 95.780237 
L 493.176215 100.52538 
L 496.13949 108.629545 
L 499.102764 115.931534 
L 502.066039 112.124933 
L 505.029313 97.669955 
L 507.992588 86.967591 
L 510.955863 98.607936 
L 513.919137 100.020651 
L 516.882412 112.036461 
L 519.845687 108.017345 
L 522.808961 94.93635 
L 525.772236 87.569607 
L 528.73551 94.206233 
L 531.698785 97.689155 
L 534.66206 100.51079 
L 537.625334 104.52487 
L 540.588609 98.77963 
L 543.551883 95.401923 
L 546.515158 88.573431 
L 549.478433 91.750442 
L 552.441707 94.72815 
L 555.404982 95.484332 
L 558.368257 106.441174 
L 561.331531 108.620173 
L 564.294806 100.843773 
L 567.25808 93.698528 
L 570.221355 96.633632 
L 573.18463 99.990887 
L 576.147904 107.670737 
L 579.111179 112.333253 
L 582.074453 113.751868 
L 585.037728 99.496369 
L 588.001003 96.579435 
L 590.964277 96.908111 
L 593.927552 100.49662 
L 596.890827 101.631775 
L 599.854101 111.931416 
L 602.817376 112.821729 
L 605.78065 110.014955 
L 608.743925 109.319869 
L 611.7072 111.707215 
L 614.670474 102.505599 
L 617.633749 107.909147 
L 620.597023 115.207026 
L 623.560298 112.458648 
L 626.523573 105.847202 
L 629.486847 99.868258 
L 632.450122 102.577872 
L 635.413397 102.549328 
L 638.376671 106.806266 
L 641.339946 108.951577 
L 644.30322 109.36788 
L 647.266495 101.725689 
L 650.22977 95.228524 
L 656.156319 107.49062 
L 662.082868 114.014961 
L 665.046143 114.816488 
L 668.009417 102.838017 
L 670.972692 90.018024 
L 673.935966 95.564342 
L 676.899241 103.046432 
L 679.862516 105.090486 
L 682.82579 115.628514 
L 685.789065 118.169734 
L 688.75234 102.019419 
L 691.715614 94.970271 
L 694.678889 104.092523 
L 697.642163 93.392696 
L 700.605438 96.732201 
L 703.568713 107.111084 
L 706.531987 122.444038 
L 709.495262 106.721806 
L 712.458536 87.342206 
L 715.421811 95.393354 
L 718.385086 95.04294 
L 721.34836 97.933605 
L 724.311635 112.614782 
L 727.27491 113.523428 
L 730.238184 97.03479 
L 733.201459 89.650867 
L 736.164733 95.069924 
L 739.128008 98.015393 
L 742.091283 102.103446 
L 745.054557 110.731218 
L 748.017832 113.785518 
L 750.981106 98.334315 
L 753.944381 52.045012 
L 756.907656 96.034816 
L 759.87093 98.48955 
L 762.834205 95.860607 
L 765.79748 110.411515 
L 768.760754 118.330388 
L 771.724029 97.851246 
L 774.687303 92.451315 
L 777.650578 88.196486 
L 780.613853 87.819915 
L 783.577127 96.036879 
L 786.540402 104.933036 
L 789.503676 120.465063 
L 792.466951 113.492499 
L 795.430226 92.817698 
L 798.3935 95.997881 
L 801.356775 93.768686 
L 804.32005 99.043042 
L 807.283324 106.309185 
L 810.246599 105.933155 
L 813.209873 94.799077 
L 816.173148 89.180102 
L 819.136423 94.539269 
L 822.099697 95.459077 
L 825.062972 98.350554 
L 828.026246 106.501682 
L 830.989521 104.944692 
L 833.952796 95.655378 
L 836.91607 89.143584 
L 839.879345 97.760879 
L 842.84262 95.00069 
L 845.805894 103.414488 
L 848.769169 113.659971 
L 851.732443 107.807499 
L 854.695718 91.473896 
L 857.658993 90.687782 
L 860.622267 95.340663 
L 863.585542 96.048348 
L 866.548816 98.707944 
L 869.512091 110.59276 
L 872.475366 109.91797 
L 875.43864 88.375989 
L 878.401915 92.988434 
L 881.36519 94.667313 
L 884.328464 98.804125 
L 887.291739 102.025364 
L 890.255013 112.650714 
L 893.218288 116.635719 
L 896.181563 102.876391 
L 899.144837 97.698382 
L 902.108112 95.212389 
L 905.071386 97.757026 
L 908.034661 99.136654 
L 910.997936 112.349963 
L 913.96121 112.635346 
L 916.924485 88.355026 
L 919.88776 91.846284 
L 922.851034 96.767152 
L 925.814309 95.9825 
L 928.777583 99.008854 
L 931.740858 108.684372 
L 934.704133 114.024693 
L 937.667407 87.464396 
L 940.630682 86.633557 
L 940.630682 86.633557 
" style="fill:none;stroke:#4c72b0;stroke-linecap:round;stroke-opacity:0.8;stroke-width:1.5;"/>
   </g>
   <g id="line2d_82">
    <path clip-path="url(#pe87f7eefe6)" d="M 84.244318 109.938155 
L 87.207593 98.117367 
L 90.170867 98.910641 
L 93.134142 88.043086 
L 96.097417 99.999361 
L 99.060691 187.804921 
L 102.023966 106.803094 
L 104.98724 113.871815 
L 107.950515 102.914289 
L 110.91379 94.103371 
L 113.877064 91.285994 
L 116.840339 98.643117 
L 119.803614 101.165162 
L 122.766888 114.639727 
L 125.730163 114.864823 
L 128.693437 99.80986 
L 131.656712 91.021248 
L 134.619987 94.658731 
L 137.583261 97.630584 
L 140.546536 107.300263 
L 143.50981 113.666309 
L 146.473085 109.913191 
L 149.43636 84.359386 
L 152.399634 94.161718 
L 155.362909 88.190721 
L 158.326184 91.749222 
L 161.289458 99.491043 
L 164.252733 107.721874 
L 167.216007 116.529269 
L 170.179282 94.022966 
L 173.142557 90.31221 
L 176.105831 91.57848 
L 179.069106 96.400635 
L 182.03238 99.932716 
L 184.995655 105.22049 
L 187.95893 116.654549 
L 190.922204 101.738758 
L 193.885479 94.833651 
L 196.848754 93.706634 
L 199.812028 88.267254 
L 202.775303 102.020783 
L 205.738577 110.401607 
L 208.701852 112.939711 
L 211.665127 92.816204 
L 214.628401 94.046053 
L 217.591676 93.105569 
L 220.55495 95.33136 
L 223.518225 99.182419 
L 226.4815 107.325714 
L 229.444774 111.084994 
L 232.408049 92.960481 
L 235.371324 89.402361 
L 238.334598 102.790194 
L 241.297873 101.301918 
L 244.261147 96.409026 
L 247.224422 105.835015 
L 250.187697 104.725411 
L 253.150971 80.837768 
L 256.114246 82.801027 
L 259.07752 84.321339 
L 262.040795 92.148495 
L 265.00407 90.038911 
L 270.930619 114.304182 
L 273.893894 95.173897 
L 276.857168 91.581578 
L 279.820443 88.899197 
L 282.783717 95.103172 
L 285.746992 97.437881 
L 288.710267 99.392571 
L 291.673541 106.903359 
L 294.636816 81.89568 
L 297.60009 82.223903 
L 300.563365 83.679507 
L 303.52664 83.039426 
L 306.489914 97.837954 
L 309.453189 122.513213 
L 312.416464 115.468878 
L 315.379738 95.648176 
L 318.343013 89.96931 
L 321.306287 96.408166 
L 324.269562 93.216556 
L 327.232837 96.528998 
L 330.196111 95.966072 
L 333.159386 103.514484 
L 336.12266 96.439191 
L 339.085935 98.622859 
L 342.04921 98.69382 
L 345.012484 63.711928 
L 347.975759 78.395948 
L 350.939034 159.716846 
L 353.902308 101.947718 
L 356.865583 87.258364 
L 359.828857 84.200575 
L 362.792132 97.084188 
L 365.755407 94.402362 
L 368.718681 73.477376 
L 371.681956 94.006157 
L 374.64523 103.220521 
L 377.608505 88.02983 
L 380.57178 81.33215 
L 383.535054 85.87701 
L 386.498329 86.022214 
L 389.461603 87.768595 
L 392.424878 99.044951 
L 395.388153 102.103846 
L 398.351427 94.045294 
L 401.314702 85.300429 
L 404.277977 94.735984 
L 407.241251 100.816648 
L 410.204526 92.785147 
L 413.1678 105.576241 
L 416.131075 109.624671 
L 419.09435 86.558006 
L 422.057624 77.405487 
L 425.020899 92.99805 
L 427.984173 95.58649 
L 430.947448 97.119526 
L 433.910723 106.812187 
L 436.873997 106.693091 
L 439.837272 89.301595 
L 442.800547 93.620629 
L 445.763821 92.403422 
L 448.727096 92.941821 
L 451.69037 98.092948 
L 454.653645 108.82716 
L 457.61692 109.351582 
L 460.580194 88.401392 
L 463.543469 94.554168 
L 466.506743 89.731492 
L 469.470018 98.817039 
L 472.433293 94.561119 
L 475.396567 108.974465 
L 478.359842 112.003967 
L 481.323117 89.347498 
L 484.286391 87.549019 
L 487.249666 78.884735 
L 490.21294 88.654946 
L 493.176215 96.407749 
L 496.13949 108.563818 
L 499.102764 117.526696 
L 502.066039 106.813815 
L 507.992588 87.159521 
L 510.955863 96.406017 
L 513.919137 100.363941 
L 516.882412 107.9534 
L 517.104012 217 
M 522.565304 217 
L 522.808961 96.126724 
L 525.772236 87.724791 
L 528.73551 94.109989 
L 531.698785 95.076201 
L 534.66206 100.978976 
L 537.625334 110.934883 
L 540.588609 106.527928 
L 543.551883 97.431301 
L 546.515158 89.759361 
L 549.478433 77.948481 
L 552.441707 85.53116 
L 555.404982 90.814316 
L 558.368257 106.424394 
L 561.331531 109.068757 
L 564.294806 101.606543 
L 567.25808 97.606769 
L 570.221355 94.637351 
L 573.18463 98.135661 
L 576.147904 104.16258 
L 579.111179 111.425923 
L 582.074453 110.505967 
L 585.037728 98.788021 
L 588.001003 96.205408 
L 590.964277 98.605562 
L 593.927552 98.152499 
L 596.890827 100.581638 
L 599.854101 109.678171 
L 602.817376 107.851781 
L 605.78065 101.767461 
L 608.743925 105.390492 
L 611.7072 98.633479 
L 614.670474 96.565129 
L 617.633749 105.609912 
L 620.597023 110.857414 
L 623.560298 112.995022 
L 626.523573 109.644843 
L 629.486847 100.050984 
L 632.450122 102.740403 
L 635.413397 102.44626 
L 638.376671 105.88304 
L 641.339946 109.509055 
L 644.30322 109.559922 
L 647.266495 102.658231 
L 650.22977 95.39024 
L 653.193044 101.355126 
L 656.156319 107.736604 
L 659.119593 112.498406 
L 662.082868 115.953998 
L 665.046143 128.003449 
L 668.009417 101.285713 
L 670.972692 90.752268 
L 673.935966 95.436007 
L 676.899241 104.080717 
L 679.862516 103.621102 
L 682.82579 114.958909 
L 685.789065 110.381461 
L 688.75234 106.887724 
L 691.715614 92.607267 
L 694.678889 92.698202 
L 697.642163 95.928488 
L 700.605438 99.544281 
L 703.568713 128.252005 
L 709.495262 98.439624 
L 712.458536 86.265353 
L 715.421811 103.399132 
L 718.385086 94.757101 
L 721.34836 99.240238 
L 724.311635 111.353376 
L 727.27491 110.595468 
L 730.238184 96.679146 
L 733.201459 89.260663 
L 736.164733 94.350521 
L 739.128008 96.811687 
L 742.091283 101.523714 
L 745.054557 110.360865 
L 748.017832 114.498898 
L 750.981106 104.958955 
L 753.944381 88.121866 
L 756.907656 95.422265 
L 759.87093 98.524819 
L 762.834205 95.800661 
L 765.79748 108.606169 
L 768.760754 114.432012 
L 771.724029 95.721593 
L 774.687303 90.773968 
L 777.650578 87.39952 
L 780.613853 85.617387 
L 783.577127 94.367042 
L 786.540402 105.954188 
L 789.503676 115.267784 
L 792.466951 111.127616 
L 795.430226 93.71888 
L 798.3935 85.350805 
L 801.356775 93.452042 
L 804.32005 99.444947 
L 807.283324 110.371485 
L 810.246599 109.913516 
L 813.209873 95.34764 
L 816.173148 87.308312 
L 819.136423 92.625415 
L 822.099697 91.844609 
L 825.062972 94.353268 
L 828.026246 106.643667 
L 830.989521 104.976314 
L 833.952796 95.104821 
L 836.91607 88.39947 
L 839.879345 96.503258 
L 842.84262 92.702123 
L 848.769169 113.470825 
L 851.732443 110.033548 
L 854.695718 92.112598 
L 857.658993 90.655467 
L 860.622267 95.470861 
L 863.585542 95.835079 
L 866.548816 98.331666 
L 869.512091 108.960572 
L 872.475366 110.013674 
L 875.43864 86.949756 
L 878.401915 93.512196 
L 881.36519 95.242639 
L 884.328464 96.738925 
L 887.291739 96.01843 
L 890.255013 112.29007 
L 893.218288 114.404976 
L 896.181563 106.421654 
L 899.144837 97.313144 
L 902.108112 95.237044 
L 905.071386 97.463263 
L 908.034661 98.940179 
L 910.997936 111.815975 
L 913.96121 112.614485 
L 916.924485 84.328928 
L 919.88776 91.190008 
L 922.851034 96.882966 
L 925.814309 93.98172 
L 928.777583 94.303023 
L 931.740858 103.82276 
L 934.704133 110.794631 
L 937.667407 91.158586 
L 940.630682 82.417238 
L 940.630682 82.417238 
" style="fill:none;stroke:#55a868;stroke-linecap:round;stroke-opacity:0.8;stroke-width:1.5;"/>
   </g>
   <g id="line2d_83">
    <path clip-path="url(#pe87f7eefe6)" d="M 84.244318 171.179498 
L 87.207593 100.095336 
L 90.170867 93.305268 
L 93.134142 89.65892 
L 93.718822 -1 
M 98.406198 -1 
L 99.060691 103.552532 
L 102.023966 113.177882 
L 104.98724 120.792504 
L 107.950515 105.9417 
L 110.91379 97.369676 
L 113.877064 92.704538 
L 116.840339 52.905608 
L 119.803614 102.027197 
L 122.766888 117.65093 
L 125.730163 117.718601 
L 128.693437 99.853801 
L 131.656712 88.183902 
L 134.619987 92.448707 
L 140.546536 101.226573 
L 143.50981 113.370481 
L 146.473085 115.149608 
L 149.43636 88.507815 
L 152.399634 89.503389 
L 155.362909 85.443772 
L 158.326184 91.158978 
L 164.252733 110.938737 
L 167.216007 125.892043 
L 170.179282 96.160669 
L 173.142557 92.412536 
L 179.069106 95.486984 
L 182.03238 102.892132 
L 184.995655 110.695468 
L 187.95893 117.738189 
L 190.922204 102.869768 
L 193.885479 90.165384 
L 196.848754 92.419166 
L 199.812028 82.095928 
L 202.775303 100.81707 
L 205.738577 111.576689 
L 208.701852 113.459751 
L 211.665127 93.27548 
L 214.628401 93.187529 
L 217.591676 92.252259 
L 220.55495 93.540997 
L 223.518225 101.534292 
L 226.4815 107.820996 
L 229.444774 112.955604 
L 232.408049 97.192322 
L 235.371324 89.674035 
L 238.334598 95.719743 
L 241.297873 101.466083 
L 244.261147 103.072586 
L 247.224422 111.313242 
L 250.187697 112.472187 
L 253.150971 84.156696 
L 256.114246 89.624563 
L 259.07752 87.736524 
L 262.040795 92.81279 
L 265.00407 93.349553 
L 267.967344 113.655941 
L 270.930619 108.721683 
L 273.893894 96.925927 
L 276.857168 88.081595 
L 279.820443 85.24472 
L 282.783717 94.346018 
L 285.746992 94.449105 
L 288.710267 108.013753 
L 291.673541 113.144098 
L 294.636816 100.919662 
L 297.60009 93.226398 
L 300.563365 90.735546 
L 303.52664 90.324461 
L 306.489914 109.41223 
L 309.453189 127.316175 
L 312.416464 112.637892 
L 315.379738 86.601215 
L 318.343013 86.203538 
L 321.306287 87.846176 
L 324.269562 90.772151 
L 327.232837 91.440536 
L 330.196111 91.920119 
L 333.159386 105.941223 
L 336.12266 102.378827 
L 339.085935 98.422058 
L 342.04921 80.866952 
L 345.012484 70.06839 
L 347.975759 80.152012 
L 350.939034 114.020445 
L 353.902308 111.493118 
L 356.865583 94.703836 
L 359.828857 109.802531 
L 362.792132 104.960023 
L 365.755407 91.441237 
L 368.718681 79.782564 
L 371.681956 102.178739 
L 374.64523 111.624289 
L 377.608505 94.568056 
L 380.57178 86.069835 
L 383.535054 87.970242 
L 386.498329 90.617536 
L 389.461603 93.586629 
L 392.424878 108.858923 
L 395.388153 100.300166 
L 398.351427 92.494233 
L 401.314702 83.276142 
L 404.277977 93.979946 
L 407.241251 101.722603 
L 410.204526 93.31827 
L 413.1678 104.115154 
L 416.131075 109.98529 
L 419.09435 81.376966 
L 422.057624 77.467177 
L 425.020899 93.085895 
L 430.947448 100.60256 
L 433.910723 104.910843 
L 436.873997 108.706403 
L 439.837272 85.534416 
L 442.800547 94.02746 
L 445.763821 91.909222 
L 448.727096 92.040995 
L 451.69037 98.225904 
L 454.653645 114.727596 
L 457.61692 111.976722 
L 460.580194 94.952488 
L 463.543469 91.775601 
L 466.506743 91.200207 
L 469.470018 97.640484 
L 472.433293 97.31539 
L 475.396567 110.997576 
L 478.359842 113.764604 
L 481.323117 89.735485 
L 484.286391 87.314682 
L 487.249666 93.475458 
L 490.21294 94.472603 
L 493.176215 97.93669 
L 496.13949 109.81088 
L 499.102764 120.083257 
L 502.066039 100.91715 
L 505.029313 96.489508 
L 507.992588 83.507093 
L 510.955863 85.259682 
L 513.919137 98.678649 
L 516.882412 107.713336 
L 519.845687 110.173687 
L 522.808961 98.721922 
L 525.772236 91.45549 
L 528.73551 92.569122 
L 531.698785 91.766843 
L 534.66206 97.877876 
L 537.625334 109.47457 
L 540.588609 107.704945 
L 543.551883 99.112365 
L 546.515158 87.594421 
L 549.478433 88.740047 
L 552.441707 94.525054 
L 555.404982 94.782414 
L 558.368257 101.157495 
L 561.331531 111.553316 
L 564.294806 103.369361 
L 567.25808 94.803115 
L 570.221355 97.121771 
L 573.18463 98.513212 
L 576.147904 102.888249 
L 579.111179 111.317908 
L 582.074453 115.177576 
L 585.037728 101.329647 
L 588.001003 95.688264 
L 590.964277 95.801966 
L 593.927552 98.035289 
L 596.890827 100.922711 
L 599.854101 111.482502 
L 602.817376 119.612654 
L 605.78065 212.239039 
L 608.743925 127.801553 
L 611.7072 102.863208 
L 614.670474 95.342984 
L 617.633749 101.151514 
L 620.597023 111.423636 
L 623.560298 110.018769 
L 626.523573 103.679394 
L 629.486847 98.404434 
L 632.450122 100.004628 
L 635.413397 96.498558 
L 638.376671 103.980165 
L 641.339946 108.5392 
L 644.30322 112.089338 
L 647.266495 104.033245 
L 650.22977 96.418127 
L 653.193044 100.498555 
L 656.156319 104.089684 
L 659.119593 110.259318 
L 662.082868 111.222795 
L 665.046143 115.736213 
L 668.009417 102.293487 
L 670.972692 90.53183 
L 673.935966 93.838925 
L 676.899241 105.810653 
L 679.862516 106.050239 
L 682.82579 114.151243 
L 685.789065 116.246752 
L 688.75234 102.807168 
L 691.715614 93.871567 
L 694.678889 94.321318 
L 697.642163 92.181086 
L 700.605438 99.737309 
L 703.568713 110.975623 
L 706.531987 115.768875 
L 712.458536 87.917627 
L 715.421811 93.470747 
L 718.385086 93.683702 
L 721.34836 99.940941 
L 724.311635 114.071636 
L 727.265456 -1 
M 727.286125 -1 
L 730.238184 95.932081 
L 733.201459 89.962504 
L 736.164733 94.153833 
L 739.128008 96.308788 
L 742.091283 101.144618 
L 745.054557 111.415168 
L 748.017832 108.644973 
L 750.981106 97.492482 
L 753.944381 85.490221 
L 756.907656 92.946398 
L 759.87093 96.394958 
L 762.834205 96.360247 
L 765.79748 105.441861 
L 768.760754 110.208527 
L 771.724029 94.227155 
L 774.687303 90.843898 
L 777.650578 95.083264 
L 780.613853 86.7005 
L 783.577127 95.524666 
L 786.540402 109.498195 
L 789.503676 119.879451 
L 792.466951 100.756372 
L 795.430226 103.651785 
L 798.3935 91.937147 
L 801.356775 91.028503 
L 804.32005 96.160852 
L 807.283324 110.898605 
L 810.246599 109.016328 
L 813.209873 96.927162 
L 816.173148 89.595321 
L 819.136423 102.62696 
L 822.099697 92.503271 
L 825.062972 95.264912 
L 828.026246 118.190713 
L 830.989521 109.892202 
L 833.952796 97.868541 
L 836.91607 94.722934 
L 839.879345 96.61168 
L 842.84262 91.721292 
L 845.805894 101.821877 
L 848.769169 113.449427 
L 851.732443 107.701237 
L 854.695718 89.576268 
L 857.658993 90.733212 
L 860.622267 95.000072 
L 863.585542 95.007166 
L 866.548816 99.276523 
L 869.512091 111.224884 
L 872.475366 113.153387 
L 875.43864 88.552234 
L 878.401915 90.995505 
L 881.36519 101.009154 
L 884.328464 103.397972 
L 887.291739 102.381783 
L 890.255013 111.582703 
L 893.218288 115.511527 
L 896.181563 139.007118 
L 899.144837 95.393922 
L 902.108112 90.223415 
L 905.071386 92.281846 
L 908.034661 97.387699 
L 910.997936 111.175279 
L 913.96121 113.220874 
L 916.924485 86.818225 
L 919.88776 89.638889 
L 922.851034 95.568872 
L 925.814309 93.503459 
L 928.777583 97.443569 
L 931.740858 112.373976 
L 934.704133 103.452039 
L 937.667407 91.94711 
L 940.630682 83.776424 
L 940.630682 83.776424 
" style="fill:none;stroke:#c44e52;stroke-linecap:round;stroke-opacity:0.8;stroke-width:1.5;"/>
   </g>
   <g id="line2d_84">
    <path clip-path="url(#pe87f7eefe6)" d="M 84.244318 180.541236 
L 87.207593 93.446526 
L 90.170867 94.576491 
L 93.134142 115.796317 
L 95.255955 -1 
M 97.004422 -1 
L 99.060691 104.008967 
L 102.023966 106.22384 
L 104.98724 114.136221 
L 107.950515 102.648505 
L 113.877064 89.797682 
L 116.840339 91.141095 
L 119.803614 98.862014 
L 122.766888 111.14288 
L 125.730163 111.605312 
L 128.693437 94.956328 
L 131.656712 87.86797 
L 134.619987 92.338521 
L 137.583261 96.50804 
L 140.546536 97.98859 
L 143.50981 112.114178 
L 146.473085 109.648101 
L 149.43636 83.55408 
L 152.399634 86.657917 
L 155.362909 87.804594 
L 158.326184 90.686311 
L 161.289458 98.226137 
L 164.252733 107.496886 
L 167.216007 120.564783 
L 170.179282 93.665877 
L 173.142557 92.727816 
L 176.105831 91.237928 
L 179.069106 97.01922 
L 184.995655 111.030077 
L 187.95893 117.866081 
L 190.922204 101.537034 
L 193.885479 90.578051 
L 196.848754 94.332854 
L 199.812028 84.832331 
L 202.775303 102.800773 
L 205.738577 112.584626 
L 208.701852 114.318101 
L 211.665127 103.069954 
L 214.628401 95.015576 
L 217.591676 93.614839 
L 220.55495 95.222987 
L 223.518225 101.822844 
L 226.4815 106.760178 
L 229.444774 110.312756 
L 232.408049 96.293292 
L 235.371324 87.795388 
L 238.334598 91.953303 
L 241.297873 101.246325 
L 244.261147 97.008713 
L 247.224422 103.240551 
L 250.187697 92.216436 
L 253.150971 74.930192 
L 256.114246 83.686281 
L 259.07752 94.138842 
L 262.040795 93.342338 
L 265.00407 91.952046 
L 267.967344 108.41963 
L 270.930619 102.546994 
L 273.893894 90.616953 
L 276.857168 84.823557 
L 279.820443 81.944738 
L 282.783717 92.416969 
L 285.746992 91.111283 
L 288.710267 104.341171 
L 291.673541 109.858056 
L 294.636816 107.272245 
L 297.60009 96.025118 
L 300.563365 93.380613 
L 303.52664 93.317331 
L 306.489914 111.56324 
L 309.453189 134.177916 
L 312.416464 113.516286 
L 315.379738 88.259863 
L 318.343013 89.007517 
L 321.306287 90.290708 
L 324.269562 93.390984 
L 327.232837 92.050034 
L 330.196111 100.801114 
L 333.159386 96.361054 
L 336.12266 82.108159 
L 339.085935 90.60388 
L 342.04921 82.31604 
L 345.012484 55.150666 
L 347.975759 71.92857 
L 350.939034 97.528702 
L 353.902308 96.976525 
L 356.865583 77.25006 
L 359.828857 97.637789 
L 362.792132 93.056626 
L 365.755407 80.5457 
L 368.718681 66.779654 
L 371.681956 87.819902 
L 374.64523 98.023738 
L 377.608505 83.579309 
L 380.57178 81.115308 
L 383.535054 87.794023 
L 386.498329 92.206479 
L 389.461603 95.219712 
L 392.424878 110.286078 
L 395.388153 107.450795 
L 398.351427 95.681911 
L 401.314702 88.377618 
L 404.277977 99.477758 
L 407.241251 107.88948 
L 410.204526 99.045975 
L 413.1678 109.739324 
L 416.131075 115.690391 
L 419.09435 85.729632 
L 422.057624 82.134621 
L 425.020899 95.992407 
L 427.984173 102.406463 
L 430.947448 104.990646 
L 433.910723 110.272936 
L 436.873997 107.842137 
L 439.837272 89.547027 
L 442.800547 97.269973 
L 445.763821 95.031768 
L 448.727096 95.728652 
L 451.69037 100.325608 
L 454.653645 111.654381 
L 457.61692 112.495374 
L 460.580194 93.847395 
L 463.543469 93.46286 
L 466.506743 94.035344 
L 469.470018 99.363796 
L 472.433293 98.437226 
L 475.396567 111.096563 
L 478.359842 113.803779 
L 481.323117 90.338939 
L 484.286391 89.085337 
L 487.249666 96.968753 
L 490.21294 98.039871 
L 493.176215 102.70931 
L 496.13949 109.884748 
L 499.102764 117.690328 
L 502.066039 115.539262 
L 505.029313 98.851295 
L 507.992588 83.766774 
L 510.955863 86.05822 
L 513.919137 97.287397 
L 516.882412 105.16729 
L 519.845687 106.759821 
L 522.808961 96.662672 
L 525.772236 91.087762 
L 528.73551 88.244285 
L 531.698785 92.381152 
L 534.66206 97.745857 
L 537.625334 106.621356 
L 540.588609 104.607429 
L 543.551883 97.406658 
L 546.515158 87.601504 
L 549.478433 87.992519 
L 552.441707 94.113755 
L 555.404982 96.437192 
L 558.368257 108.95573 
L 561.331531 105.898185 
L 564.294806 104.405741 
L 567.25808 97.431223 
L 573.18463 101.625754 
L 576.147904 107.428476 
L 579.111179 114.351557 
L 582.074453 114.831585 
L 585.037728 102.734268 
L 588.001003 98.378833 
L 590.964277 99.909979 
L 593.927552 102.939754 
L 596.890827 104.775717 
L 599.854101 115.997146 
L 602.817376 116.475097 
L 605.78065 116.530803 
L 608.743925 112.460793 
L 614.670474 97.937355 
L 617.633749 106.374119 
L 620.597023 112.06185 
L 623.560298 110.078178 
L 626.523573 102.817558 
L 629.486847 98.071739 
L 632.450122 99.515993 
L 635.413397 100.600526 
L 641.339946 107.127768 
L 644.30322 109.742229 
L 647.266495 101.809312 
L 650.22977 96.055207 
L 653.193044 100.420602 
L 656.156319 103.398154 
L 659.119593 107.330538 
L 662.082868 110.083754 
L 665.046143 110.532221 
L 668.009417 95.692367 
L 670.972692 86.247481 
L 673.935966 90.84341 
L 676.899241 102.831863 
L 679.862516 103.198681 
L 682.82579 109.997251 
L 685.789065 110.695046 
L 688.75234 97.585468 
L 691.715614 90.234334 
L 694.678889 89.308707 
L 697.642163 90.753871 
L 700.605438 95.538213 
L 703.568713 105.238837 
L 706.531987 103.851957 
L 712.458536 85.150267 
L 715.421811 91.309832 
L 718.385086 92.078459 
L 721.34836 97.146269 
L 724.311635 110.292097 
L 727.27491 110.59734 
L 730.238184 96.304909 
L 733.201459 90.423681 
L 736.164733 94.925758 
L 739.128008 97.302052 
L 742.091283 101.574071 
L 745.054557 128.45499 
L 748.017832 108.446781 
L 750.981106 72.768442 
L 753.944381 85.866455 
L 756.907656 93.377091 
L 759.87093 98.182316 
L 762.834205 97.519812 
L 765.79748 103.006185 
L 768.760754 105.963549 
L 771.724029 90.920083 
L 774.687303 89.108873 
L 780.613853 88.764141 
L 783.577127 99.617361 
L 786.540402 108.195723 
L 789.503676 116.412203 
L 792.466951 106.887974 
L 795.430226 93.760374 
L 798.3935 89.939141 
L 801.356775 91.193708 
L 804.32005 95.225653 
L 807.283324 110.905528 
L 810.246599 105.821317 
L 813.209873 94.541791 
L 816.173148 90.121928 
L 819.136423 94.755959 
L 822.099697 94.05024 
L 825.062972 96.544438 
L 828.026246 118.127978 
L 830.989521 107.434297 
L 833.952796 95.64229 
L 836.91607 90.329473 
L 839.879345 97.463771 
L 842.84262 89.943541 
L 845.805894 102.374996 
L 848.769169 112.576224 
L 851.732443 108.44928 
L 854.695718 87.290616 
L 857.658993 89.861952 
L 860.622267 94.153947 
L 863.585542 95.152886 
L 866.548816 100.272789 
L 869.512091 111.628781 
L 872.475366 113.034759 
L 875.43864 88.922447 
L 878.401915 92.042301 
L 881.36519 96.46451 
L 884.328464 102.078905 
L 887.291739 103.482536 
L 890.255013 103.867737 
L 893.218288 113.773828 
L 896.181563 101.833143 
L 899.144837 95.759053 
L 902.108112 91.824391 
L 905.071386 92.586207 
L 908.034661 96.074029 
L 910.997936 107.965625 
L 913.96121 109.252625 
L 916.924485 82.869848 
L 919.88776 87.792727 
L 922.851034 91.670255 
L 925.814309 91.350938 
L 928.777583 86.345072 
L 931.740858 99.780778 
L 934.704133 109.961811 
L 937.667407 85.435968 
L 940.630682 80.03603 
L 940.630682 80.03603 
" style="fill:none;stroke:#8172b2;stroke-linecap:round;stroke-opacity:0.8;stroke-width:1.5;"/>
   </g>
   <g id="line2d_85">
    <path clip-path="url(#pe87f7eefe6)" d="M 86.230666 -1 
L 87.207593 120.563432 
L 90.170867 125.06895 
L 93.134142 126.004595 
L 96.097417 91.959114 
L 99.060691 183.79679 
L 102.023966 100.031374 
L 104.98724 98.955621 
L 107.950515 93.691186 
L 110.91379 108.012369 
L 113.877064 113.217972 
L 116.840339 100.249998 
L 119.803614 95.873421 
L 122.766888 96.831611 
L 125.730163 97.596609 
L 128.693437 88.410596 
L 131.656712 113.139682 
L 134.619987 110.787652 
L 137.583261 119.104765 
L 140.546536 91.307927 
L 143.50981 103.851645 
L 146.473085 88.403089 
L 149.43636 75.446464 
L 152.399634 116.329019 
L 155.362909 113.832531 
L 158.326184 96.687868 
L 161.289458 102.847289 
L 164.252733 102.078361 
L 167.216007 94.388138 
L 170.179282 84.150884 
L 173.142557 109.458451 
L 176.105831 117.080651 
L 179.069106 104.684865 
L 182.03238 97.974261 
L 184.995655 100.580053 
L 187.95893 98.245462 
L 190.922204 94.346541 
L 193.885479 97.760363 
L 196.848754 113.504382 
L 199.812028 82.684172 
L 202.775303 107.066101 
L 205.738577 107.039077 
L 208.701852 96.253823 
L 211.665127 75.94137 
L 214.628401 106.195257 
L 217.591676 111.428523 
L 220.55495 89.859433 
L 223.518225 95.687778 
L 226.4815 102.66701 
L 229.444774 103.151866 
L 232.408049 82.989105 
L 235.371324 102.758365 
L 238.334598 114.126034 
L 241.297873 85.644367 
L 244.261147 92.549314 
L 247.224422 98.784204 
L 250.187697 95.339151 
L 253.150971 74.90604 
L 256.114246 117.199227 
L 259.07752 122.963036 
L 262.040795 71.063303 
L 265.00407 84.068466 
L 267.967344 106.102728 
L 270.930619 101.026199 
L 273.893894 91.104298 
L 276.857168 112.116159 
L 279.820443 120.666641 
L 282.783717 88.260468 
L 285.746992 88.895626 
L 288.710267 85.249084 
L 291.673541 108.434856 
L 294.636816 99.474941 
L 297.60009 114.096868 
L 300.563365 120.383636 
L 303.52664 82.849297 
L 306.489914 88.348063 
L 309.453189 82.269314 
L 312.416464 94.587573 
L 315.379738 64.69048 
L 318.343013 104.239817 
L 321.306287 110.442639 
L 324.269562 80.765062 
L 327.232837 84.689957 
L 330.196111 102.118975 
L 333.159386 53.530029 
L 336.12266 79.767698 
L 339.085935 104.868844 
L 342.04921 117.21919 
L 345.012484 82.887362 
L 347.975759 93.698684 
L 350.939034 115.642924 
L 353.902308 98.471391 
L 356.865583 58.040911 
L 359.828857 113.785354 
L 362.792132 139.666735 
L 365.755407 79.344718 
L 368.718681 80.96196 
L 371.681956 118.456591 
L 374.64523 109.911657 
L 377.608505 94.951131 
L 380.57178 106.143249 
L 383.535054 127.392682 
L 386.498329 94.779951 
L 389.461603 90.669475 
L 392.424878 109.500123 
L 395.388153 98.965664 
L 398.351427 75.34273 
L 401.314702 100.372305 
L 404.277977 126.830276 
L 407.241251 87.259368 
L 410.204526 70.424693 
L 413.1678 98.997345 
L 416.131075 94.407733 
L 419.09435 66.409356 
L 422.057624 101.111579 
L 425.020899 124.069056 
L 427.984173 79.647865 
L 430.947448 93.939772 
L 433.910723 98.610487 
L 436.873997 86.022045 
L 439.837272 70.670502 
L 442.800547 112.156918 
L 445.763821 110.732473 
L 448.727096 82.85658 
L 451.69037 94.107409 
L 454.653645 107.316003 
L 457.61692 99.085278 
L 460.580194 74.991363 
L 463.543469 111.812059 
L 466.506743 113.931586 
L 469.470018 96.871025 
L 472.433293 88.37054 
L 475.396567 105.17209 
L 478.359842 97.508955 
L 481.323117 76.534716 
L 484.286391 119.286143 
L 487.249666 124.603869 
L 490.21294 94.993271 
L 493.176215 80.02357 
L 496.13949 77.306587 
L 499.102764 86.621613 
L 502.066039 90.457628 
L 505.029313 98.614761 
L 507.992588 119.571854 
L 510.955863 86.739404 
L 513.919137 98.911479 
L 516.882412 102.294377 
L 519.845687 98.463072 
L 522.808961 89.348404 
L 525.772236 102.678452 
L 528.73551 117.873827 
L 531.698785 85.186346 
L 534.66206 98.313012 
L 537.625334 104.341393 
L 543.551883 88.500331 
L 546.515158 99.798805 
L 549.478433 113.517747 
L 552.441707 107.039193 
L 555.404982 104.494252 
L 558.368257 104.181607 
L 561.331531 100.702909 
L 564.294806 100.416039 
L 567.25808 103.615295 
L 570.221355 115.896602 
L 573.18463 94.844498 
L 579.111179 104.878223 
L 582.074453 93.643953 
L 585.037728 90.60191 
L 588.001003 107.041565 
L 590.964277 115.810927 
L 593.927552 116.961894 
L 596.890827 99.31963 
L 599.854101 108.893568 
L 602.817376 94.623374 
L 605.78065 97.201564 
L 608.743925 102.252169 
L 611.7072 112.504726 
L 614.670474 93.787543 
L 617.633749 103.183673 
L 620.597023 103.56995 
L 623.560298 105.249261 
L 626.523573 89.035325 
L 629.486847 106.15009 
L 632.450122 119.079182 
L 635.413397 96.773285 
L 638.376671 98.722284 
L 641.339946 103.318762 
L 644.30322 107.576022 
L 647.266495 100.035042 
L 650.22977 108.205178 
L 653.193044 125.293543 
L 656.156319 101.818535 
L 659.119593 94.556453 
L 662.082868 98.388404 
L 665.046143 98.652373 
L 668.009417 92.128463 
L 670.972692 104.970712 
L 673.935966 120.034416 
L 676.899241 108.486938 
L 679.862516 94.300848 
L 682.82579 96.398445 
L 685.789065 99.441192 
L 688.75234 94.187965 
L 691.715614 111.950023 
L 694.678889 118.970199 
L 697.642163 96.555622 
L 700.605438 94.166982 
L 703.568713 111.014478 
L 706.531987 95.751997 
L 709.495262 87.916252 
L 712.458536 101.148592 
L 715.421811 124.207606 
L 718.385086 94.388799 
L 721.34836 97.60869 
L 724.311635 111.433898 
L 727.27491 99.480245 
L 730.238184 91.245283 
L 733.201459 101.528821 
L 736.164733 119.971766 
L 739.128008 94.687567 
L 742.091283 85.423495 
L 743.837345 -1 
M 746.131154 -1 
L 748.017832 104.58035 
L 750.981106 78.924282 
L 753.944381 101.457174 
L 756.907656 122.113301 
L 759.87093 83.967798 
L 762.834205 40.197291 
L 765.79748 102.501686 
L 768.760754 85.71161 
L 771.724029 76.294295 
L 774.687303 114.962969 
L 777.650578 122.545261 
L 780.613853 106.539752 
L 783.577127 110.398539 
L 786.540402 91.015472 
L 789.503676 104.640026 
L 792.466951 16.340849 
L 795.430226 91.521745 
L 798.3935 103.474539 
L 801.356775 87.563578 
L 804.32005 95.552132 
L 807.283324 107.444186 
L 810.246599 96.037149 
L 813.209873 87.85591 
L 816.173148 101.343978 
L 819.136423 125.638668 
L 822.099697 86.838231 
L 825.062972 97.872549 
L 828.026246 112.862615 
L 830.989521 87.054154 
L 833.952796 89.324129 
L 836.91607 106.262632 
L 839.879345 123.854123 
L 842.84262 84.995827 
L 845.805894 104.199531 
L 848.769169 103.150704 
L 851.732443 84.362198 
L 854.695718 79.586611 
L 857.658993 111.200383 
L 860.622267 120.846905 
L 863.585542 89.358928 
L 866.548816 94.881669 
L 869.512091 106.658895 
L 872.475366 100.734272 
L 875.43864 80.067317 
L 878.401915 113.679167 
L 881.36519 122.963002 
L 884.328464 98.456837 
L 887.291739 103.139556 
L 890.255013 102.409264 
L 893.218288 97.333193 
L 896.181563 83.503342 
L 899.144837 108.18844 
L 902.108112 98.813574 
L 905.071386 84.672627 
L 908.034661 91.576214 
L 909.049582 217 
M 912.984948 217 
L 913.96121 98.700889 
L 916.924485 71.115739 
L 919.88776 108.916713 
L 922.851034 123.188342 
L 925.814309 79.362898 
L 928.777583 84.042343 
L 931.740858 113.181267 
L 937.667407 72.451273 
L 940.630682 96.467096 
L 940.630682 96.467096 
" style="fill:none;stroke:#ccb974;stroke-linecap:round;stroke-opacity:0.8;stroke-width:1.5;"/>
   </g>
   <g id="line2d_86">
    <path clip-path="url(#pe87f7eefe6)" d="M 84.244318 66.124242 
L 87.207593 115.378086 
L 90.170867 115.153981 
L 93.134142 105.151 
L 96.097417 98.13636 
L 99.060691 100.966566 
L 102.023966 93.946635 
L 104.98724 91.399141 
L 107.950515 89.933121 
L 108.738075 -1 
M 112.974708 -1 
L 113.877064 108.991291 
L 116.840339 89.114013 
L 119.803614 98.422804 
L 122.766888 90.9463 
L 125.730163 89.958353 
L 128.693437 86.733582 
L 131.656712 112.851745 
L 134.619987 109.224086 
L 137.583261 96.791554 
L 140.546536 173.880008 
L 143.50981 104.756881 
L 146.473085 83.394035 
L 149.43636 70.791103 
L 152.399634 113.739172 
L 155.362909 121.545707 
L 158.326184 100.127223 
L 161.289458 100.276927 
L 164.252733 98.939381 
L 167.216007 102.638558 
L 170.179282 81.903642 
L 172.165632 217 
M 174.331138 217 
L 176.105831 117.792736 
L 179.069106 106.099548 
L 182.03238 99.017228 
L 184.995655 100.853344 
L 187.95893 98.611418 
L 190.922204 87.219323 
L 193.885479 104.724504 
L 196.848754 115.059758 
L 199.812028 84.985735 
L 202.775303 108.673675 
L 205.738577 107.854796 
L 208.701852 96.45075 
L 211.665127 76.438926 
L 214.628401 107.358578 
L 217.591676 112.532832 
L 220.55495 91.271907 
L 223.518225 91.224698 
L 226.4815 101.940464 
L 229.444774 102.094407 
L 232.408049 80.342854 
L 235.371324 101.111266 
L 238.334598 107.495196 
L 241.297873 82.297348 
L 244.261147 82.913509 
L 247.224422 91.435075 
L 248.172651 -1 
M 252.393063 -1 
L 253.150971 66.506318 
L 256.114246 111.792851 
L 259.07752 118.056069 
L 262.040795 95.605388 
L 265.00407 93.974573 
L 267.967344 101.335274 
L 270.930619 95.491167 
L 273.893894 89.186223 
L 276.857168 94.763209 
L 279.820443 117.662776 
L 282.783717 86.504259 
L 285.746992 85.853541 
L 288.710267 81.905966 
L 291.673541 104.447586 
L 292.820213 217 
M 296.488709 217 
L 297.60009 109.990376 
L 300.563365 122.987995 
L 303.52664 85.282999 
L 306.489914 90.099235 
L 309.453189 106.873258 
L 312.416464 95.30176 
L 315.379738 66.039237 
L 318.343013 103.838535 
L 321.306287 112.431667 
L 324.269562 82.893976 
L 327.232837 85.312404 
L 330.196111 96.826234 
L 333.159386 35.50384 
L 336.12266 76.46533 
L 339.085935 97.750926 
L 342.04921 110.676808 
L 345.012484 76.299498 
L 347.975759 86.211692 
L 350.939034 102.404031 
L 353.902308 85.257426 
L 356.865583 48.732394 
L 359.828857 101.200674 
L 362.792132 128.831096 
L 365.755407 69.426421 
L 368.718681 69.125668 
L 371.681956 105.385212 
L 374.64523 97.531042 
L 377.608505 84.948418 
L 380.57178 101.632695 
L 383.535054 127.23305 
L 386.498329 96.098514 
L 389.461603 91.997684 
L 392.424878 110.645784 
L 395.388153 100.317412 
L 398.351427 77.934585 
L 404.277977 131.302372 
L 407.241251 91.981372 
L 410.204526 72.308039 
L 413.1678 103.563591 
L 416.131075 97.874185 
L 419.09435 67.746405 
L 422.057624 104.900427 
L 425.020899 127.851361 
L 427.984173 84.214929 
L 430.947448 97.427326 
L 433.910723 101.629926 
L 436.873997 75.486953 
L 439.837272 73.932495 
L 442.800547 114.956914 
L 445.763821 113.270432 
L 448.727096 85.85466 
L 451.69037 95.178054 
L 454.653645 107.916205 
L 457.61692 99.355729 
L 460.580194 98.120985 
L 463.543469 111.950636 
L 466.506743 115.106505 
L 469.470018 98.383871 
L 472.433293 89.278044 
L 475.396567 105.318131 
L 478.359842 97.653085 
L 481.323117 77.026736 
L 484.286391 120.726484 
L 487.249666 127.386632 
L 490.21294 106.065975 
L 493.176215 81.215986 
L 496.13949 94.620964 
L 499.102764 95.857556 
L 502.066039 89.661685 
L 505.029313 82.428912 
L 507.992588 113.913931 
L 510.955863 38.410949 
L 513.919137 97.890094 
L 516.882412 99.974175 
L 519.845687 95.351051 
L 522.808961 87.473288 
L 525.772236 103.0542 
L 528.73551 117.914741 
L 531.698785 85.680854 
L 534.66206 97.700481 
L 537.625334 102.168772 
L 540.588609 89.724978 
L 543.551883 86.9488 
L 546.515158 100.099621 
L 549.478433 115.402741 
L 552.441707 109.335112 
L 555.404982 103.935533 
L 558.368257 104.4998 
L 561.331531 101.563814 
L 564.294806 101.247922 
L 567.25808 105.024919 
L 570.221355 116.880293 
L 573.18463 98.09105 
L 576.147904 103.501074 
L 579.111179 114.160219 
L 582.074453 95.478006 
L 585.037728 92.448637 
L 588.001003 109.224668 
L 590.964277 119.151245 
L 593.927552 120.949852 
L 596.890827 102.450091 
L 599.854101 110.923327 
L 602.817376 96.479425 
L 605.78065 98.463936 
L 608.743925 101.746348 
L 611.7072 114.522631 
L 614.670474 95.896364 
L 617.633749 104.524827 
L 620.597023 104.088018 
L 623.560298 104.630026 
L 626.523573 88.250977 
L 629.486847 105.846303 
L 632.450122 118.634853 
L 635.413397 96.797012 
L 638.376671 98.567874 
L 641.339946 102.03396 
L 644.30322 100.705867 
L 647.266495 98.043029 
L 650.22977 107.875224 
L 653.193044 125.222751 
L 656.156319 103.274079 
L 659.119593 92.755248 
L 662.082868 102.904959 
L 665.046143 104.222 
L 668.009417 89.425023 
L 670.972692 101.763013 
L 673.935966 117.308453 
L 676.899241 105.722271 
L 679.862516 91.704559 
L 682.82579 96.791149 
L 685.789065 94.386552 
L 688.75234 80.823633 
L 691.715614 108.639433 
L 694.678889 115.243632 
L 697.642163 93.776858 
L 700.605438 90.34431 
L 703.568713 105.790956 
L 706.531987 90.41726 
L 709.495262 83.926732 
L 712.458536 112.041391 
L 715.421811 122.884175 
L 718.385086 92.929432 
L 721.34836 95.060772 
L 724.311635 108.024415 
L 727.27491 96.160688 
L 730.238184 89.248672 
L 733.201459 101.970844 
L 736.164733 120.606704 
L 739.128008 95.495055 
L 742.091283 85.772232 
L 745.054557 100.074623 
L 748.017832 99.812082 
L 750.981106 78.391477 
L 753.944381 98.514938 
L 756.907656 131.925376 
L 759.87093 88.982129 
L 762.834205 102.78682 
L 765.79748 99.04059 
L 768.760754 82.060833 
L 771.724029 73.542001 
L 774.687303 113.657453 
L 777.650578 123.360169 
L 783.577127 91.616416 
L 786.540402 89.2623 
L 789.503676 101.452725 
L 792.466951 88.845595 
L 795.430226 90.807163 
L 798.3935 112.19985 
L 801.356775 87.697389 
L 804.32005 94.70216 
L 807.283324 105.189592 
L 810.246599 93.127206 
L 813.209873 87.272123 
L 816.173148 101.773276 
L 819.136423 126.23777 
L 822.099697 88.096047 
L 825.062972 99.02423 
L 828.026246 112.779632 
L 830.989521 86.159258 
L 833.952796 89.568081 
L 836.91607 115.360574 
L 839.879345 116.370932 
L 842.84262 87.493566 
L 845.805894 104.650235 
L 848.769169 102.432684 
L 851.732443 90.048994 
L 854.695718 76.708935 
L 857.658993 110.406095 
L 860.622267 120.084535 
L 863.585542 89.477394 
L 866.548816 95.679177 
L 869.512091 176.172616 
L 872.475366 100.711 
L 875.43864 80.36634 
L 878.401915 114.569969 
L 881.36519 124.21805 
L 884.328464 100.340432 
L 887.291739 104.038822 
L 890.255013 102.019387 
L 893.218288 95.838392 
L 896.181563 83.109736 
L 899.144837 108.498405 
L 902.108112 106.049521 
L 905.071386 84.920619 
L 908.034661 90.380404 
L 910.997936 95.017157 
L 913.96121 95.048567 
L 916.924485 67.521147 
L 919.88776 107.23806 
L 922.851034 117.11854 
L 925.814309 77.403061 
L 928.777583 80.070172 
L 931.740858 107.829627 
L 934.704133 92.855026 
L 937.667407 66.524224 
L 940.630682 95.474367 
L 940.630682 95.474367 
" style="fill:none;stroke:#64b5cd;stroke-linecap:round;stroke-opacity:0.8;stroke-width:1.5;"/>
   </g>
   <g id="patch_3">
    <path d="M 41.425 180.1 
L 41.425 32.8 
" style="fill:none;stroke:#cccccc;stroke-linecap:square;stroke-linejoin:miter;"/>
   </g>
   <g id="patch_4">
    <path d="M 983.45 180.1 
L 983.45 32.8 
" style="fill:none;stroke:#cccccc;stroke-linecap:square;stroke-linejoin:miter;"/>
   </g>
   <g id="patch_5">
    <path d="M 41.425 180.1 
L 983.45 180.1 
" style="fill:none;stroke:#cccccc;stroke-linecap:square;stroke-linejoin:miter;"/>
   </g>
   <g id="patch_6">
    <path d="M 41.425 32.8 
L 983.45 32.8 
" style="fill:none;stroke:#cccccc;stroke-linecap:square;stroke-linejoin:miter;"/>
   </g>
   <g id="text_18">
    <!-- Feed 0 - P1 All Predictors -->
    <defs>
     <path d="M 40.234375 0 
L 40.234375 6.546875 
Q 35.296875 -1.171875 25.734375 -1.171875 
Q 19.53125 -1.171875 14.328125 2.25 
Q 9.125 5.671875 6.265625 11.796875 
Q 3.421875 17.921875 3.421875 25.875 
Q 3.421875 33.640625 6 39.96875 
Q 8.59375 46.296875 13.765625 49.65625 
Q 18.953125 53.03125 25.34375 53.03125 
Q 30.03125 53.03125 33.6875 51.046875 
Q 37.359375 49.078125 39.65625 45.90625 
L 39.65625 71.578125 
L 48.390625 71.578125 
L 48.390625 0 
z
M 12.453125 25.875 
Q 12.453125 15.921875 16.640625 10.984375 
Q 20.84375 6.0625 26.5625 6.0625 
Q 32.328125 6.0625 36.34375 10.765625 
Q 40.375 15.484375 40.375 25.140625 
Q 40.375 35.796875 36.265625 40.765625 
Q 32.171875 45.75 26.171875 45.75 
Q 20.3125 45.75 16.375 40.96875 
Q 12.453125 36.1875 12.453125 25.875 
z
" id="ArialMT-64"/>
     <path id="ArialMT-20"/>
     <path d="M 3.171875 21.484375 
L 3.171875 30.328125 
L 30.171875 30.328125 
L 30.171875 21.484375 
z
" id="ArialMT-2d"/>
     <path d="M 7.71875 0 
L 7.71875 71.578125 
L 34.71875 71.578125 
Q 41.84375 71.578125 45.609375 70.90625 
Q 50.875 70.015625 54.4375 67.546875 
Q 58.015625 65.09375 60.1875 60.640625 
Q 62.359375 56.203125 62.359375 50.875 
Q 62.359375 41.75 56.546875 35.421875 
Q 50.734375 29.109375 35.546875 29.109375 
L 17.1875 29.109375 
L 17.1875 0 
z
M 17.1875 37.546875 
L 35.6875 37.546875 
Q 44.875 37.546875 48.734375 40.96875 
Q 52.59375 44.390625 52.59375 50.59375 
Q 52.59375 55.078125 50.3125 58.265625 
Q 48.046875 61.46875 44.34375 62.5 
Q 41.9375 63.140625 35.5 63.140625 
L 17.1875 63.140625 
z
" id="ArialMT-50"/>
     <path d="M 6.640625 61.46875 
L 6.640625 71.578125 
L 15.4375 71.578125 
L 15.4375 61.46875 
z
M 6.640625 0 
L 6.640625 51.859375 
L 15.4375 51.859375 
L 15.4375 0 
z
" id="ArialMT-69"/>
     <path d="M 3.078125 15.484375 
L 11.765625 16.84375 
Q 12.5 11.625 15.84375 8.84375 
Q 19.1875 6.0625 25.203125 6.0625 
Q 31.25 6.0625 34.171875 8.515625 
Q 37.109375 10.984375 37.109375 14.3125 
Q 37.109375 17.28125 34.515625 19 
Q 32.71875 20.171875 25.53125 21.96875 
Q 15.875 24.421875 12.140625 26.203125 
Q 8.40625 27.984375 6.46875 31.125 
Q 4.546875 34.28125 4.546875 38.09375 
Q 4.546875 41.546875 6.125 44.5 
Q 7.71875 47.46875 10.453125 49.421875 
Q 12.5 50.921875 16.03125 51.96875 
Q 19.578125 53.03125 23.640625 53.03125 
Q 29.734375 53.03125 34.34375 51.265625 
Q 38.96875 49.515625 41.15625 46.5 
Q 43.359375 43.5 44.1875 38.484375 
L 35.59375 37.3125 
Q 35.015625 41.3125 32.203125 43.546875 
Q 29.390625 45.796875 24.265625 45.796875 
Q 18.21875 45.796875 15.625 43.796875 
Q 13.03125 41.796875 13.03125 39.109375 
Q 13.03125 37.40625 14.109375 36.03125 
Q 15.1875 34.625 17.484375 33.6875 
Q 18.796875 33.203125 25.25 31.453125 
Q 34.578125 28.953125 38.25 27.359375 
Q 41.9375 25.78125 44.03125 22.75 
Q 46.140625 19.734375 46.140625 15.234375 
Q 46.140625 10.84375 43.578125 6.953125 
Q 41.015625 3.078125 36.171875 0.953125 
Q 31.34375 -1.171875 25.25 -1.171875 
Q 15.140625 -1.171875 9.84375 3.03125 
Q 4.546875 7.234375 3.078125 15.484375 
z
" id="ArialMT-73"/>
    </defs>
    <g style="fill:#262626;" transform="translate(387.123438 26.8)scale(0.22 -0.22)">
     <use xlink:href="#ArialMT-46"/>
     <use x="61.083984" xlink:href="#ArialMT-65"/>
     <use x="116.699219" xlink:href="#ArialMT-65"/>
     <use x="172.314453" xlink:href="#ArialMT-64"/>
     <use x="227.929688" xlink:href="#ArialMT-20"/>
     <use x="255.712891" xlink:href="#ArialMT-30"/>
     <use x="311.328125" xlink:href="#ArialMT-20"/>
     <use x="339.111328" xlink:href="#ArialMT-2d"/>
     <use x="372.412109" xlink:href="#ArialMT-20"/>
     <use x="400.195312" xlink:href="#ArialMT-50"/>
     <use x="466.894531" xlink:href="#ArialMT-31"/>
     <use x="522.509766" xlink:href="#ArialMT-20"/>
     <use x="550.214844" xlink:href="#ArialMT-41"/>
     <use x="616.914062" xlink:href="#ArialMT-6c"/>
     <use x="639.130859" xlink:href="#ArialMT-6c"/>
     <use x="661.347656" xlink:href="#ArialMT-20"/>
     <use x="689.130859" xlink:href="#ArialMT-50"/>
     <use x="755.830078" xlink:href="#ArialMT-72"/>
     <use x="789.130859" xlink:href="#ArialMT-65"/>
     <use x="844.746094" xlink:href="#ArialMT-64"/>
     <use x="900.361328" xlink:href="#ArialMT-69"/>
     <use x="922.578125" xlink:href="#ArialMT-63"/>
     <use x="972.578125" xlink:href="#ArialMT-74"/>
     <use x="1000.361328" xlink:href="#ArialMT-6f"/>
     <use x="1055.976562" xlink:href="#ArialMT-72"/>
     <use x="1089.277344" xlink:href="#ArialMT-73"/>
    </g>
   </g>
   <g id="legend_1">
    <g id="line2d_87">
     <path d="M 992.45 70.142187 
L 1012.45 70.142187 
" style="fill:none;stroke:#4c72b0;stroke-linecap:round;stroke-opacity:0.8;stroke-width:1.5;"/>
    </g>
    <g id="line2d_88"/>
    <g id="text_19">
     <!-- predictor0 -->
     <g style="fill:#262626;" transform="translate(1020.45 73.642187)scale(0.1 -0.1)">
      <use xlink:href="#ArialMT-70"/>
      <use x="55.615234" xlink:href="#ArialMT-72"/>
      <use x="88.916016" xlink:href="#ArialMT-65"/>
      <use x="144.53125" xlink:href="#ArialMT-64"/>
      <use x="200.146484" xlink:href="#ArialMT-69"/>
      <use x="222.363281" xlink:href="#ArialMT-63"/>
      <use x="272.363281" xlink:href="#ArialMT-74"/>
      <use x="300.146484" xlink:href="#ArialMT-6f"/>
      <use x="355.761719" xlink:href="#ArialMT-72"/>
      <use x="389.0625" xlink:href="#ArialMT-30"/>
     </g>
    </g>
    <g id="line2d_89">
     <path d="M 992.45 84.317187 
L 1012.45 84.317187 
" style="fill:none;stroke:#55a868;stroke-linecap:round;stroke-opacity:0.8;stroke-width:1.5;"/>
    </g>
    <g id="line2d_90"/>
    <g id="text_20">
     <!-- predictor1 -->
     <g style="fill:#262626;" transform="translate(1020.45 87.817187)scale(0.1 -0.1)">
      <use xlink:href="#ArialMT-70"/>
      <use x="55.615234" xlink:href="#ArialMT-72"/>
      <use x="88.916016" xlink:href="#ArialMT-65"/>
      <use x="144.53125" xlink:href="#ArialMT-64"/>
      <use x="200.146484" xlink:href="#ArialMT-69"/>
      <use x="222.363281" xlink:href="#ArialMT-63"/>
      <use x="272.363281" xlink:href="#ArialMT-74"/>
      <use x="300.146484" xlink:href="#ArialMT-6f"/>
      <use x="355.761719" xlink:href="#ArialMT-72"/>
      <use x="389.0625" xlink:href="#ArialMT-31"/>
     </g>
    </g>
    <g id="line2d_91">
     <path d="M 992.45 98.492187 
L 1012.45 98.492187 
" style="fill:none;stroke:#c44e52;stroke-linecap:round;stroke-opacity:0.8;stroke-width:1.5;"/>
    </g>
    <g id="line2d_92"/>
    <g id="text_21">
     <!-- predictor2 -->
     <g style="fill:#262626;" transform="translate(1020.45 101.992187)scale(0.1 -0.1)">
      <use xlink:href="#ArialMT-70"/>
      <use x="55.615234" xlink:href="#ArialMT-72"/>
      <use x="88.916016" xlink:href="#ArialMT-65"/>
      <use x="144.53125" xlink:href="#ArialMT-64"/>
      <use x="200.146484" xlink:href="#ArialMT-69"/>
      <use x="222.363281" xlink:href="#ArialMT-63"/>
      <use x="272.363281" xlink:href="#ArialMT-74"/>
      <use x="300.146484" xlink:href="#ArialMT-6f"/>
      <use x="355.761719" xlink:href="#ArialMT-72"/>
      <use x="389.0625" xlink:href="#ArialMT-32"/>
     </g>
    </g>
    <g id="line2d_93">
     <path d="M 992.45 112.667187 
L 1012.45 112.667187 
" style="fill:none;stroke:#8172b2;stroke-linecap:round;stroke-opacity:0.8;stroke-width:1.5;"/>
    </g>
    <g id="line2d_94"/>
    <g id="text_22">
     <!-- predictor3 -->
     <defs>
      <path d="M 4.203125 18.890625 
L 12.984375 20.0625 
Q 14.5 12.59375 18.140625 9.296875 
Q 21.78125 6 27 6 
Q 33.203125 6 37.46875 10.296875 
Q 41.75 14.59375 41.75 20.953125 
Q 41.75 27 37.796875 30.921875 
Q 33.84375 34.859375 27.734375 34.859375 
Q 25.25 34.859375 21.53125 33.890625 
L 22.515625 41.609375 
Q 23.390625 41.5 23.921875 41.5 
Q 29.546875 41.5 34.03125 44.421875 
Q 38.53125 47.359375 38.53125 53.46875 
Q 38.53125 58.296875 35.25 61.46875 
Q 31.984375 64.65625 26.8125 64.65625 
Q 21.6875 64.65625 18.265625 61.421875 
Q 14.84375 58.203125 13.875 51.765625 
L 5.078125 53.328125 
Q 6.6875 62.15625 12.390625 67.015625 
Q 18.109375 71.875 26.609375 71.875 
Q 32.46875 71.875 37.390625 69.359375 
Q 42.328125 66.84375 44.9375 62.5 
Q 47.5625 58.15625 47.5625 53.265625 
Q 47.5625 48.640625 45.0625 44.828125 
Q 42.578125 41.015625 37.703125 38.765625 
Q 44.046875 37.3125 47.5625 32.6875 
Q 51.078125 28.078125 51.078125 21.140625 
Q 51.078125 11.765625 44.234375 5.25 
Q 37.40625 -1.265625 26.953125 -1.265625 
Q 17.53125 -1.265625 11.296875 4.34375 
Q 5.078125 9.96875 4.203125 18.890625 
z
" id="ArialMT-33"/>
     </defs>
     <g style="fill:#262626;" transform="translate(1020.45 116.167187)scale(0.1 -0.1)">
      <use xlink:href="#ArialMT-70"/>
      <use x="55.615234" xlink:href="#ArialMT-72"/>
      <use x="88.916016" xlink:href="#ArialMT-65"/>
      <use x="144.53125" xlink:href="#ArialMT-64"/>
      <use x="200.146484" xlink:href="#ArialMT-69"/>
      <use x="222.363281" xlink:href="#ArialMT-63"/>
      <use x="272.363281" xlink:href="#ArialMT-74"/>
      <use x="300.146484" xlink:href="#ArialMT-6f"/>
      <use x="355.761719" xlink:href="#ArialMT-72"/>
      <use x="389.0625" xlink:href="#ArialMT-33"/>
     </g>
    </g>
    <g id="line2d_95">
     <path d="M 992.45 126.8125 
L 1012.45 126.8125 
" style="fill:none;stroke:#ccb974;stroke-linecap:round;stroke-opacity:0.8;stroke-width:1.5;"/>
    </g>
    <g id="line2d_96"/>
    <g id="text_23">
     <!-- predictor4 -->
     <defs>
      <path d="M 32.328125 0 
L 32.328125 17.140625 
L 1.265625 17.140625 
L 1.265625 25.203125 
L 33.9375 71.578125 
L 41.109375 71.578125 
L 41.109375 25.203125 
L 50.78125 25.203125 
L 50.78125 17.140625 
L 41.109375 17.140625 
L 41.109375 0 
z
M 32.328125 25.203125 
L 32.328125 57.46875 
L 9.90625 25.203125 
z
" id="ArialMT-34"/>
     </defs>
     <g style="fill:#262626;" transform="translate(1020.45 130.3125)scale(0.1 -0.1)">
      <use xlink:href="#ArialMT-70"/>
      <use x="55.615234" xlink:href="#ArialMT-72"/>
      <use x="88.916016" xlink:href="#ArialMT-65"/>
      <use x="144.53125" xlink:href="#ArialMT-64"/>
      <use x="200.146484" xlink:href="#ArialMT-69"/>
      <use x="222.363281" xlink:href="#ArialMT-63"/>
      <use x="272.363281" xlink:href="#ArialMT-74"/>
      <use x="300.146484" xlink:href="#ArialMT-6f"/>
      <use x="355.761719" xlink:href="#ArialMT-72"/>
      <use x="389.0625" xlink:href="#ArialMT-34"/>
     </g>
    </g>
    <g id="line2d_97">
     <path d="M 992.45 140.957812 
L 1012.45 140.957812 
" style="fill:none;stroke:#64b5cd;stroke-linecap:round;stroke-opacity:0.8;stroke-width:1.5;"/>
    </g>
    <g id="line2d_98"/>
    <g id="text_24">
     <!-- predictor5 -->
     <g style="fill:#262626;" transform="translate(1020.45 144.457812)scale(0.1 -0.1)">
      <use xlink:href="#ArialMT-70"/>
      <use x="55.615234" xlink:href="#ArialMT-72"/>
      <use x="88.916016" xlink:href="#ArialMT-65"/>
      <use x="144.53125" xlink:href="#ArialMT-64"/>
      <use x="200.146484" xlink:href="#ArialMT-69"/>
      <use x="222.363281" xlink:href="#ArialMT-63"/>
      <use x="272.363281" xlink:href="#ArialMT-74"/>
      <use x="300.146484" xlink:href="#ArialMT-6f"/>
      <use x="355.761719" xlink:href="#ArialMT-72"/>
      <use x="389.0625" xlink:href="#ArialMT-35"/>
     </g>
    </g>
   </g>
  </g>
 </g>
 <defs>
  <clipPath id="pe87f7eefe6">
   <rect height="147.3" width="942.025" x="41.425" y="32.8"/>
  </clipPath>
 </defs>
</svg>
