<?xml version="1.0" encoding="utf-8" standalone="no"?>
<!DOCTYPE svg PUBLIC "-//W3C//DTD SVG 1.1//EN"
  "http://www.w3.org/Graphics/SVG/1.1/DTD/svg11.dtd">
<!-- Created with matplotlib (http://matplotlib.org/) -->
<svg height="216pt" version="1.1" viewBox="0 0 1080 216" width="1080pt" xmlns="http://www.w3.org/2000/svg" xmlns:xlink="http://www.w3.org/1999/xlink">
 <defs>
  <style type="text/css">
*{stroke-linecap:butt;stroke-linejoin:round;}
  </style>
 </defs>
 <g id="figure_1">
  <g id="patch_1">
   <path d="M 0 216 
L 1080 216 
L 1080 0 
L 0 0 
z
" style="fill:none;"/>
  </g>
  <g id="axes_1">
   <g id="patch_2">
    <path d="M 40.925 180.1 
L 977.825 180.1 
L 977.825 32.8 
L 40.925 32.8 
z
" style="fill:#ffffff;"/>
   </g>
   <g id="matplotlib.axis_1">
    <g id="xtick_1">
     <g id="line2d_1">
      <path clip-path="url(#p3a23f7ee02)" d="M 130.665815 180.1 
L 130.665815 32.8 
" style="fill:none;stroke:#cccccc;stroke-linecap:round;stroke-width:0.8;"/>
     </g>
     <g id="line2d_2"/>
     <g id="text_1">
      <!-- Feb -->
      <defs>
       <path d="M 8.203125 0 
L 8.203125 71.578125 
L 56.5 71.578125 
L 56.5 63.140625 
L 17.671875 63.140625 
L 17.671875 40.96875 
L 51.265625 40.96875 
L 51.265625 32.515625 
L 17.671875 32.515625 
L 17.671875 0 
z
" id="ArialMT-46"/>
       <path d="M 42.09375 16.703125 
L 51.171875 15.578125 
Q 49.03125 7.625 43.21875 3.21875 
Q 37.40625 -1.171875 28.375 -1.171875 
Q 17 -1.171875 10.328125 5.828125 
Q 3.65625 12.84375 3.65625 25.484375 
Q 3.65625 38.578125 10.390625 45.796875 
Q 17.140625 53.03125 27.875 53.03125 
Q 38.28125 53.03125 44.875 45.953125 
Q 51.46875 38.875 51.46875 26.03125 
Q 51.46875 25.25 51.421875 23.6875 
L 12.75 23.6875 
Q 13.234375 15.140625 17.578125 10.59375 
Q 21.921875 6.0625 28.421875 6.0625 
Q 33.25 6.0625 36.671875 8.59375 
Q 40.09375 11.140625 42.09375 16.703125 
z
M 13.234375 30.90625 
L 42.1875 30.90625 
Q 41.609375 37.453125 38.875 40.71875 
Q 34.671875 45.796875 27.984375 45.796875 
Q 21.921875 45.796875 17.796875 41.75 
Q 13.671875 37.703125 13.234375 30.90625 
z
" id="ArialMT-65"/>
       <path d="M 14.703125 0 
L 6.546875 0 
L 6.546875 71.578125 
L 15.328125 71.578125 
L 15.328125 46.046875 
Q 20.90625 53.03125 29.546875 53.03125 
Q 34.328125 53.03125 38.59375 51.09375 
Q 42.875 49.171875 45.625 45.671875 
Q 48.390625 42.1875 49.953125 37.25 
Q 51.515625 32.328125 51.515625 26.703125 
Q 51.515625 13.375 44.921875 6.09375 
Q 38.328125 -1.171875 29.109375 -1.171875 
Q 19.921875 -1.171875 14.703125 6.5 
z
M 14.59375 26.3125 
Q 14.59375 17 17.140625 12.84375 
Q 21.296875 6.0625 28.375 6.0625 
Q 34.125 6.0625 38.328125 11.0625 
Q 42.53125 16.0625 42.53125 25.984375 
Q 42.53125 36.140625 38.5 40.96875 
Q 34.46875 45.796875 28.765625 45.796875 
Q 23 45.796875 18.796875 40.796875 
Q 14.59375 35.796875 14.59375 26.3125 
z
" id="ArialMT-62"/>
      </defs>
      <g style="fill:#262626;" transform="translate(120.328002 192.189375)scale(0.12 -0.12)">
       <use xlink:href="#ArialMT-46"/>
       <use x="61.083984" xlink:href="#ArialMT-65"/>
       <use x="116.699219" xlink:href="#ArialMT-62"/>
      </g>
      <!-- 2016 -->
      <defs>
       <path d="M 50.34375 8.453125 
L 50.34375 0 
L 3.03125 0 
Q 2.9375 3.171875 4.046875 6.109375 
Q 5.859375 10.9375 9.828125 15.625 
Q 13.8125 20.3125 21.34375 26.46875 
Q 33.015625 36.03125 37.109375 41.625 
Q 41.21875 47.21875 41.21875 52.203125 
Q 41.21875 57.421875 37.46875 61 
Q 33.734375 64.59375 27.734375 64.59375 
Q 21.390625 64.59375 17.578125 60.78125 
Q 13.765625 56.984375 13.71875 50.25 
L 4.6875 51.171875 
Q 5.609375 61.28125 11.65625 66.578125 
Q 17.71875 71.875 27.9375 71.875 
Q 38.234375 71.875 44.234375 66.15625 
Q 50.25 60.453125 50.25 52 
Q 50.25 47.703125 48.484375 43.546875 
Q 46.734375 39.40625 42.65625 34.8125 
Q 38.578125 30.21875 29.109375 22.21875 
Q 21.1875 15.578125 18.9375 13.203125 
Q 16.703125 10.84375 15.234375 8.453125 
z
" id="ArialMT-32"/>
       <path d="M 4.15625 35.296875 
Q 4.15625 48 6.765625 55.734375 
Q 9.375 63.484375 14.515625 67.671875 
Q 19.671875 71.875 27.484375 71.875 
Q 33.25 71.875 37.59375 69.546875 
Q 41.9375 67.234375 44.765625 62.859375 
Q 47.609375 58.5 49.21875 52.21875 
Q 50.828125 45.953125 50.828125 35.296875 
Q 50.828125 22.703125 48.234375 14.96875 
Q 45.65625 7.234375 40.5 3 
Q 35.359375 -1.21875 27.484375 -1.21875 
Q 17.140625 -1.21875 11.234375 6.203125 
Q 4.15625 15.140625 4.15625 35.296875 
z
M 13.1875 35.296875 
Q 13.1875 17.671875 17.3125 11.828125 
Q 21.4375 6 27.484375 6 
Q 33.546875 6 37.671875 11.859375 
Q 41.796875 17.71875 41.796875 35.296875 
Q 41.796875 52.984375 37.671875 58.78125 
Q 33.546875 64.59375 27.390625 64.59375 
Q 21.34375 64.59375 17.71875 59.46875 
Q 13.1875 52.9375 13.1875 35.296875 
z
" id="ArialMT-30"/>
       <path d="M 37.25 0 
L 28.46875 0 
L 28.46875 56 
Q 25.296875 52.984375 20.140625 49.953125 
Q 14.984375 46.921875 10.890625 45.40625 
L 10.890625 53.90625 
Q 18.265625 57.375 23.78125 62.296875 
Q 29.296875 67.234375 31.59375 71.875 
L 37.25 71.875 
z
" id="ArialMT-31"/>
       <path d="M 49.75 54.046875 
L 41.015625 53.375 
Q 39.84375 58.546875 37.703125 60.890625 
Q 34.125 64.65625 28.90625 64.65625 
Q 24.703125 64.65625 21.53125 62.3125 
Q 17.390625 59.28125 14.984375 53.46875 
Q 12.59375 47.65625 12.5 36.921875 
Q 15.671875 41.75 20.265625 44.09375 
Q 24.859375 46.4375 29.890625 46.4375 
Q 38.671875 46.4375 44.84375 39.96875 
Q 51.03125 33.5 51.03125 23.25 
Q 51.03125 16.5 48.125 10.71875 
Q 45.21875 4.9375 40.140625 1.859375 
Q 35.0625 -1.21875 28.609375 -1.21875 
Q 17.625 -1.21875 10.6875 6.859375 
Q 3.765625 14.9375 3.765625 33.5 
Q 3.765625 54.25 11.421875 63.671875 
Q 18.109375 71.875 29.4375 71.875 
Q 37.890625 71.875 43.28125 67.140625 
Q 48.6875 62.40625 49.75 54.046875 
z
M 13.875 23.1875 
Q 13.875 18.65625 15.796875 14.5 
Q 17.71875 10.359375 21.1875 8.171875 
Q 24.65625 6 28.46875 6 
Q 34.03125 6 38.03125 10.484375 
Q 42.046875 14.984375 42.046875 22.703125 
Q 42.046875 30.125 38.078125 34.390625 
Q 34.125 38.671875 28.125 38.671875 
Q 22.171875 38.671875 18.015625 34.390625 
Q 13.875 30.125 13.875 23.1875 
z
" id="ArialMT-36"/>
      </defs>
      <g style="fill:#262626;" transform="translate(117.319565 204.881625)scale(0.12 -0.12)">
       <use xlink:href="#ArialMT-32"/>
       <use x="55.615234" xlink:href="#ArialMT-30"/>
       <use x="111.230469" xlink:href="#ArialMT-31"/>
       <use x="166.845703" xlink:href="#ArialMT-36"/>
      </g>
     </g>
    </g>
    <g id="xtick_2">
     <g id="line2d_3">
      <path clip-path="url(#p3a23f7ee02)" d="M 216.133257 180.1 
L 216.133257 32.8 
" style="fill:none;stroke:#cccccc;stroke-linecap:round;stroke-width:0.8;"/>
     </g>
     <g id="line2d_4"/>
     <g id="text_2">
      <!-- Mar -->
      <defs>
       <path d="M 7.421875 0 
L 7.421875 71.578125 
L 21.6875 71.578125 
L 38.625 20.90625 
Q 40.96875 13.8125 42.046875 10.296875 
Q 43.265625 14.203125 45.84375 21.78125 
L 62.984375 71.578125 
L 75.734375 71.578125 
L 75.734375 0 
L 66.609375 0 
L 66.609375 59.90625 
L 45.796875 0 
L 37.25 0 
L 16.546875 60.9375 
L 16.546875 0 
z
" id="ArialMT-4d"/>
       <path d="M 40.4375 6.390625 
Q 35.546875 2.25 31.03125 0.53125 
Q 26.515625 -1.171875 21.34375 -1.171875 
Q 12.796875 -1.171875 8.203125 3 
Q 3.609375 7.171875 3.609375 13.671875 
Q 3.609375 17.484375 5.34375 20.625 
Q 7.078125 23.78125 9.890625 25.6875 
Q 12.703125 27.59375 16.21875 28.5625 
Q 18.796875 29.25 24.03125 29.890625 
Q 34.671875 31.15625 39.703125 32.90625 
Q 39.75 34.71875 39.75 35.203125 
Q 39.75 40.578125 37.25 42.78125 
Q 33.890625 45.75 27.25 45.75 
Q 21.046875 45.75 18.09375 43.578125 
Q 15.140625 41.40625 13.71875 35.890625 
L 5.125 37.0625 
Q 6.296875 42.578125 8.984375 45.96875 
Q 11.671875 49.359375 16.75 51.1875 
Q 21.828125 53.03125 28.515625 53.03125 
Q 35.15625 53.03125 39.296875 51.46875 
Q 43.453125 49.90625 45.40625 47.53125 
Q 47.359375 45.171875 48.140625 41.546875 
Q 48.578125 39.3125 48.578125 33.453125 
L 48.578125 21.734375 
Q 48.578125 9.46875 49.140625 6.21875 
Q 49.703125 2.984375 51.375 0 
L 42.1875 0 
Q 40.828125 2.734375 40.4375 6.390625 
z
M 39.703125 26.03125 
Q 34.90625 24.078125 25.34375 22.703125 
Q 19.921875 21.921875 17.671875 20.9375 
Q 15.4375 19.96875 14.203125 18.09375 
Q 12.984375 16.21875 12.984375 13.921875 
Q 12.984375 10.40625 15.640625 8.0625 
Q 18.3125 5.71875 23.4375 5.71875 
Q 28.515625 5.71875 32.46875 7.9375 
Q 36.421875 10.15625 38.28125 14.015625 
Q 39.703125 17 39.703125 22.796875 
z
" id="ArialMT-61"/>
       <path d="M 6.5 0 
L 6.5 51.859375 
L 14.40625 51.859375 
L 14.40625 44 
Q 17.4375 49.515625 20 51.265625 
Q 22.5625 53.03125 25.640625 53.03125 
Q 30.078125 53.03125 34.671875 50.203125 
L 31.640625 42.046875 
Q 28.421875 43.953125 25.203125 43.953125 
Q 22.3125 43.953125 20.015625 42.21875 
Q 17.71875 40.484375 16.75 37.40625 
Q 15.28125 32.71875 15.28125 27.15625 
L 15.28125 0 
z
" id="ArialMT-72"/>
      </defs>
      <g style="fill:#262626;" transform="translate(205.80107 192.189375)scale(0.12 -0.12)">
       <use xlink:href="#ArialMT-4d"/>
       <use x="83.300781" xlink:href="#ArialMT-61"/>
       <use x="138.916016" xlink:href="#ArialMT-72"/>
      </g>
     </g>
    </g>
    <g id="xtick_3">
     <g id="line2d_5">
      <path clip-path="url(#p3a23f7ee02)" d="M 307.495006 180.1 
L 307.495006 32.8 
" style="fill:none;stroke:#cccccc;stroke-linecap:round;stroke-width:0.8;"/>
     </g>
     <g id="line2d_6"/>
     <g id="text_3">
      <!-- Apr -->
      <defs>
       <path d="M -0.140625 0 
L 27.34375 71.578125 
L 37.546875 71.578125 
L 66.84375 0 
L 56.0625 0 
L 47.703125 21.6875 
L 17.78125 21.6875 
L 9.90625 0 
z
M 20.515625 29.390625 
L 44.78125 29.390625 
L 37.3125 49.21875 
Q 33.890625 58.25 32.234375 64.0625 
Q 30.859375 57.171875 28.375 50.390625 
z
" id="ArialMT-41"/>
       <path d="M 6.59375 -19.875 
L 6.59375 51.859375 
L 14.59375 51.859375 
L 14.59375 45.125 
Q 17.4375 49.078125 21 51.046875 
Q 24.5625 53.03125 29.640625 53.03125 
Q 36.28125 53.03125 41.359375 49.609375 
Q 46.4375 46.1875 49.015625 39.953125 
Q 51.609375 33.734375 51.609375 26.3125 
Q 51.609375 18.359375 48.75 11.984375 
Q 45.90625 5.609375 40.453125 2.21875 
Q 35.015625 -1.171875 29 -1.171875 
Q 24.609375 -1.171875 21.109375 0.6875 
Q 17.625 2.546875 15.375 5.375 
L 15.375 -19.875 
z
M 14.546875 25.640625 
Q 14.546875 15.625 18.59375 10.84375 
Q 22.65625 6.0625 28.421875 6.0625 
Q 34.28125 6.0625 38.453125 11.015625 
Q 42.625 15.96875 42.625 26.375 
Q 42.625 36.28125 38.546875 41.203125 
Q 34.46875 46.140625 28.8125 46.140625 
Q 23.1875 46.140625 18.859375 40.890625 
Q 14.546875 35.640625 14.546875 25.640625 
z
" id="ArialMT-70"/>
      </defs>
      <g style="fill:#262626;" transform="translate(298.158444 192.189375)scale(0.12 -0.12)">
       <use xlink:href="#ArialMT-41"/>
       <use x="66.699219" xlink:href="#ArialMT-70"/>
       <use x="122.314453" xlink:href="#ArialMT-72"/>
      </g>
     </g>
    </g>
    <g id="xtick_4">
     <g id="line2d_7">
      <path clip-path="url(#p3a23f7ee02)" d="M 395.909602 180.1 
L 395.909602 32.8 
" style="fill:none;stroke:#cccccc;stroke-linecap:round;stroke-width:0.8;"/>
     </g>
     <g id="line2d_8"/>
     <g id="text_4">
      <!-- May -->
      <defs>
       <path d="M 6.203125 -19.96875 
L 5.21875 -11.71875 
Q 8.109375 -12.5 10.25 -12.5 
Q 13.1875 -12.5 14.9375 -11.515625 
Q 16.703125 -10.546875 17.828125 -8.796875 
Q 18.65625 -7.46875 20.515625 -2.25 
Q 20.75 -1.515625 21.296875 -0.09375 
L 1.609375 51.859375 
L 11.078125 51.859375 
L 21.875 21.828125 
Q 23.96875 16.109375 25.640625 9.8125 
Q 27.15625 15.875 29.25 21.625 
L 40.328125 51.859375 
L 49.125 51.859375 
L 29.390625 -0.875 
Q 26.21875 -9.421875 24.46875 -12.640625 
Q 22.125 -17 19.09375 -19.015625 
Q 16.0625 -21.046875 11.859375 -21.046875 
Q 9.328125 -21.046875 6.203125 -19.96875 
z
" id="ArialMT-79"/>
      </defs>
      <g style="fill:#262626;" transform="translate(384.575227 192.189375)scale(0.12 -0.12)">
       <use xlink:href="#ArialMT-4d"/>
       <use x="83.300781" xlink:href="#ArialMT-61"/>
       <use x="138.916016" xlink:href="#ArialMT-79"/>
      </g>
     </g>
    </g>
    <g id="xtick_5">
     <g id="line2d_9">
      <path clip-path="url(#p3a23f7ee02)" d="M 487.271351 180.1 
L 487.271351 32.8 
" style="fill:none;stroke:#cccccc;stroke-linecap:round;stroke-width:0.8;"/>
     </g>
     <g id="line2d_10"/>
     <g id="text_5">
      <!-- Jun -->
      <defs>
       <path d="M 2.875 20.3125 
L 11.421875 21.484375 
Q 11.765625 13.28125 14.5 10.25 
Q 17.234375 7.234375 22.078125 7.234375 
Q 25.640625 7.234375 28.21875 8.859375 
Q 30.8125 10.5 31.78125 13.296875 
Q 32.765625 16.109375 32.765625 22.265625 
L 32.765625 71.578125 
L 42.234375 71.578125 
L 42.234375 22.796875 
Q 42.234375 13.8125 40.0625 8.875 
Q 37.890625 3.953125 33.171875 1.359375 
Q 28.46875 -1.21875 22.125 -1.21875 
Q 12.703125 -1.21875 7.6875 4.203125 
Q 2.6875 9.625 2.875 20.3125 
z
" id="ArialMT-4a"/>
       <path d="M 40.578125 0 
L 40.578125 7.625 
Q 34.515625 -1.171875 24.125 -1.171875 
Q 19.53125 -1.171875 15.546875 0.578125 
Q 11.578125 2.34375 9.640625 5 
Q 7.71875 7.671875 6.9375 11.53125 
Q 6.390625 14.109375 6.390625 19.734375 
L 6.390625 51.859375 
L 15.1875 51.859375 
L 15.1875 23.09375 
Q 15.1875 16.21875 15.71875 13.8125 
Q 16.546875 10.359375 19.234375 8.375 
Q 21.921875 6.390625 25.875 6.390625 
Q 29.828125 6.390625 33.296875 8.421875 
Q 36.765625 10.453125 38.203125 13.9375 
Q 39.65625 17.4375 39.65625 24.078125 
L 39.65625 51.859375 
L 48.4375 51.859375 
L 48.4375 0 
z
" id="ArialMT-75"/>
       <path d="M 6.59375 0 
L 6.59375 51.859375 
L 14.5 51.859375 
L 14.5 44.484375 
Q 20.21875 53.03125 31 53.03125 
Q 35.6875 53.03125 39.625 51.34375 
Q 43.5625 49.65625 45.515625 46.921875 
Q 47.46875 44.1875 48.25 40.4375 
Q 48.734375 37.984375 48.734375 31.890625 
L 48.734375 0 
L 39.9375 0 
L 39.9375 31.546875 
Q 39.9375 36.921875 38.90625 39.578125 
Q 37.890625 42.234375 35.28125 43.8125 
Q 32.671875 45.40625 29.15625 45.40625 
Q 23.53125 45.40625 19.453125 41.84375 
Q 15.375 38.28125 15.375 28.328125 
L 15.375 0 
z
" id="ArialMT-6e"/>
      </defs>
      <g style="fill:#262626;" transform="translate(477.598226 192.189375)scale(0.12 -0.12)">
       <use xlink:href="#ArialMT-4a"/>
       <use x="50" xlink:href="#ArialMT-75"/>
       <use x="105.615234" xlink:href="#ArialMT-6e"/>
      </g>
     </g>
    </g>
    <g id="xtick_6">
     <g id="line2d_11">
      <path clip-path="url(#p3a23f7ee02)" d="M 575.685947 180.1 
L 575.685947 32.8 
" style="fill:none;stroke:#cccccc;stroke-linecap:round;stroke-width:0.8;"/>
     </g>
     <g id="line2d_12"/>
     <g id="text_6">
      <!-- Jul -->
      <defs>
       <path d="M 6.390625 0 
L 6.390625 71.578125 
L 15.1875 71.578125 
L 15.1875 0 
z
" id="ArialMT-6c"/>
      </defs>
      <g style="fill:#262626;" transform="translate(568.016259 192.189375)scale(0.12 -0.12)">
       <use xlink:href="#ArialMT-4a"/>
       <use x="50" xlink:href="#ArialMT-75"/>
       <use x="105.615234" xlink:href="#ArialMT-6c"/>
      </g>
     </g>
    </g>
    <g id="xtick_7">
     <g id="line2d_13">
      <path clip-path="url(#p3a23f7ee02)" d="M 667.047696 180.1 
L 667.047696 32.8 
" style="fill:none;stroke:#cccccc;stroke-linecap:round;stroke-width:0.8;"/>
     </g>
     <g id="line2d_14"/>
     <g id="text_7">
      <!-- Aug -->
      <defs>
       <path d="M 4.984375 -4.296875 
L 13.53125 -5.5625 
Q 14.0625 -9.515625 16.5 -11.328125 
Q 19.78125 -13.765625 25.4375 -13.765625 
Q 31.546875 -13.765625 34.859375 -11.328125 
Q 38.1875 -8.890625 39.359375 -4.5 
Q 40.046875 -1.8125 39.984375 6.78125 
Q 34.234375 0 25.640625 0 
Q 14.9375 0 9.078125 7.71875 
Q 3.21875 15.4375 3.21875 26.21875 
Q 3.21875 33.640625 5.90625 39.90625 
Q 8.59375 46.1875 13.6875 49.609375 
Q 18.796875 53.03125 25.6875 53.03125 
Q 34.859375 53.03125 40.828125 45.609375 
L 40.828125 51.859375 
L 48.921875 51.859375 
L 48.921875 7.03125 
Q 48.921875 -5.078125 46.453125 -10.125 
Q 44 -15.1875 38.640625 -18.109375 
Q 33.296875 -21.046875 25.484375 -21.046875 
Q 16.21875 -21.046875 10.5 -16.875 
Q 4.78125 -12.703125 4.984375 -4.296875 
z
M 12.25 26.859375 
Q 12.25 16.65625 16.296875 11.96875 
Q 20.359375 7.28125 26.46875 7.28125 
Q 32.515625 7.28125 36.609375 11.9375 
Q 40.71875 16.609375 40.71875 26.5625 
Q 40.71875 36.078125 36.5 40.90625 
Q 32.28125 45.75 26.3125 45.75 
Q 20.453125 45.75 16.34375 40.984375 
Q 12.25 36.234375 12.25 26.859375 
z
" id="ArialMT-67"/>
      </defs>
      <g style="fill:#262626;" transform="translate(656.372383 192.189375)scale(0.12 -0.12)">
       <use xlink:href="#ArialMT-41"/>
       <use x="66.699219" xlink:href="#ArialMT-75"/>
       <use x="122.314453" xlink:href="#ArialMT-67"/>
      </g>
     </g>
    </g>
    <g id="xtick_8">
     <g id="line2d_15">
      <path clip-path="url(#p3a23f7ee02)" d="M 758.409445 180.1 
L 758.409445 32.8 
" style="fill:none;stroke:#cccccc;stroke-linecap:round;stroke-width:0.8;"/>
     </g>
     <g id="line2d_16"/>
     <g id="text_8">
      <!-- Sep -->
      <defs>
       <path d="M 4.5 23 
L 13.421875 23.78125 
Q 14.0625 18.40625 16.375 14.96875 
Q 18.703125 11.53125 23.578125 9.40625 
Q 28.46875 7.28125 34.578125 7.28125 
Q 39.984375 7.28125 44.140625 8.890625 
Q 48.296875 10.5 50.3125 13.296875 
Q 52.34375 16.109375 52.34375 19.4375 
Q 52.34375 22.796875 50.390625 25.3125 
Q 48.4375 27.828125 43.953125 29.546875 
Q 41.0625 30.671875 31.203125 33.03125 
Q 21.34375 35.40625 17.390625 37.5 
Q 12.25 40.1875 9.734375 44.15625 
Q 7.234375 48.140625 7.234375 53.078125 
Q 7.234375 58.5 10.296875 63.203125 
Q 13.375 67.921875 19.28125 70.359375 
Q 25.203125 72.796875 32.421875 72.796875 
Q 40.375 72.796875 46.453125 70.234375 
Q 52.546875 67.671875 55.8125 62.6875 
Q 59.078125 57.71875 59.328125 51.421875 
L 50.25 50.734375 
Q 49.515625 57.515625 45.28125 60.984375 
Q 41.0625 64.453125 32.8125 64.453125 
Q 24.21875 64.453125 20.28125 61.296875 
Q 16.359375 58.15625 16.359375 53.71875 
Q 16.359375 49.859375 19.140625 47.359375 
Q 21.875 44.875 33.421875 42.265625 
Q 44.96875 39.65625 49.265625 37.703125 
Q 55.515625 34.8125 58.484375 30.390625 
Q 61.46875 25.984375 61.46875 20.21875 
Q 61.46875 14.5 58.203125 9.4375 
Q 54.9375 4.390625 48.796875 1.578125 
Q 42.671875 -1.21875 35.015625 -1.21875 
Q 25.296875 -1.21875 18.71875 1.609375 
Q 12.15625 4.4375 8.421875 10.125 
Q 4.6875 15.828125 4.5 23 
z
" id="ArialMT-53"/>
      </defs>
      <g style="fill:#262626;" transform="translate(747.734132 192.335625)scale(0.12 -0.12)">
       <use xlink:href="#ArialMT-53"/>
       <use x="66.699219" xlink:href="#ArialMT-65"/>
       <use x="122.314453" xlink:href="#ArialMT-70"/>
      </g>
     </g>
    </g>
    <g id="xtick_9">
     <g id="line2d_17">
      <path clip-path="url(#p3a23f7ee02)" d="M 846.824041 180.1 
L 846.824041 32.8 
" style="fill:none;stroke:#cccccc;stroke-linecap:round;stroke-width:0.8;"/>
     </g>
     <g id="line2d_18"/>
     <g id="text_9">
      <!-- Oct -->
      <defs>
       <path d="M 4.828125 34.859375 
Q 4.828125 52.6875 14.390625 62.765625 
Q 23.96875 72.859375 39.109375 72.859375 
Q 49.03125 72.859375 56.984375 68.109375 
Q 64.9375 63.375 69.109375 54.90625 
Q 73.296875 46.4375 73.296875 35.6875 
Q 73.296875 24.8125 68.890625 16.21875 
Q 64.5 7.625 56.4375 3.203125 
Q 48.390625 -1.21875 39.0625 -1.21875 
Q 28.953125 -1.21875 20.984375 3.65625 
Q 13.03125 8.546875 8.921875 16.984375 
Q 4.828125 25.4375 4.828125 34.859375 
z
M 14.59375 34.71875 
Q 14.59375 21.78125 21.546875 14.328125 
Q 28.515625 6.890625 39.015625 6.890625 
Q 49.703125 6.890625 56.609375 14.40625 
Q 63.53125 21.921875 63.53125 35.75 
Q 63.53125 44.484375 60.578125 51 
Q 57.625 57.515625 51.921875 61.109375 
Q 46.234375 64.703125 39.15625 64.703125 
Q 29.109375 64.703125 21.84375 57.78125 
Q 14.59375 50.875 14.59375 34.71875 
z
" id="ArialMT-4f"/>
       <path d="M 40.4375 19 
L 49.078125 17.875 
Q 47.65625 8.9375 41.8125 3.875 
Q 35.984375 -1.171875 27.484375 -1.171875 
Q 16.84375 -1.171875 10.375 5.78125 
Q 3.90625 12.75 3.90625 25.734375 
Q 3.90625 34.125 6.6875 40.421875 
Q 9.46875 46.734375 15.15625 49.875 
Q 20.84375 53.03125 27.546875 53.03125 
Q 35.984375 53.03125 41.359375 48.75 
Q 46.734375 44.484375 48.25 36.625 
L 39.703125 35.296875 
Q 38.484375 40.53125 35.375 43.15625 
Q 32.28125 45.796875 27.875 45.796875 
Q 21.234375 45.796875 17.078125 41.03125 
Q 12.9375 36.28125 12.9375 25.984375 
Q 12.9375 15.53125 16.9375 10.796875 
Q 20.953125 6.0625 27.390625 6.0625 
Q 32.5625 6.0625 36.03125 9.234375 
Q 39.5 12.40625 40.4375 19 
z
" id="ArialMT-63"/>
       <path d="M 25.78125 7.859375 
L 27.046875 0.09375 
Q 23.34375 -0.6875 20.40625 -0.6875 
Q 15.625 -0.6875 12.984375 0.828125 
Q 10.359375 2.34375 9.28125 4.8125 
Q 8.203125 7.28125 8.203125 15.1875 
L 8.203125 45.015625 
L 1.765625 45.015625 
L 1.765625 51.859375 
L 8.203125 51.859375 
L 8.203125 64.703125 
L 16.9375 69.96875 
L 16.9375 51.859375 
L 25.78125 51.859375 
L 25.78125 45.015625 
L 16.9375 45.015625 
L 16.9375 14.703125 
Q 16.9375 10.9375 17.40625 9.859375 
Q 17.875 8.796875 18.921875 8.15625 
Q 19.96875 7.515625 21.921875 7.515625 
Q 23.390625 7.515625 25.78125 7.859375 
z
" id="ArialMT-74"/>
      </defs>
      <g style="fill:#262626;" transform="translate(837.490291 192.189375)scale(0.12 -0.12)">
       <use xlink:href="#ArialMT-4f"/>
       <use x="77.783203" xlink:href="#ArialMT-63"/>
       <use x="127.783203" xlink:href="#ArialMT-74"/>
      </g>
     </g>
    </g>
    <g id="xtick_10">
     <g id="line2d_19">
      <path clip-path="url(#p3a23f7ee02)" d="M 938.18579 180.1 
L 938.18579 32.8 
" style="fill:none;stroke:#cccccc;stroke-linecap:round;stroke-width:0.8;"/>
     </g>
     <g id="line2d_20"/>
     <g id="text_10">
      <!-- Nov -->
      <defs>
       <path d="M 7.625 0 
L 7.625 71.578125 
L 17.328125 71.578125 
L 54.9375 15.375 
L 54.9375 71.578125 
L 64.015625 71.578125 
L 64.015625 0 
L 54.296875 0 
L 16.703125 56.25 
L 16.703125 0 
z
" id="ArialMT-4e"/>
       <path d="M 3.328125 25.921875 
Q 3.328125 40.328125 11.328125 47.265625 
Q 18.015625 53.03125 27.640625 53.03125 
Q 38.328125 53.03125 45.109375 46.015625 
Q 51.90625 39.015625 51.90625 26.65625 
Q 51.90625 16.65625 48.90625 10.90625 
Q 45.90625 5.171875 40.15625 2 
Q 34.421875 -1.171875 27.640625 -1.171875 
Q 16.75 -1.171875 10.03125 5.8125 
Q 3.328125 12.796875 3.328125 25.921875 
z
M 12.359375 25.921875 
Q 12.359375 15.96875 16.703125 11.015625 
Q 21.046875 6.0625 27.640625 6.0625 
Q 34.1875 6.0625 38.53125 11.03125 
Q 42.875 16.015625 42.875 26.21875 
Q 42.875 35.84375 38.5 40.796875 
Q 34.125 45.75 27.640625 45.75 
Q 21.046875 45.75 16.703125 40.8125 
Q 12.359375 35.890625 12.359375 25.921875 
z
" id="ArialMT-6f"/>
       <path d="M 21 0 
L 1.265625 51.859375 
L 10.546875 51.859375 
L 21.6875 20.796875 
Q 23.484375 15.765625 25 10.359375 
Q 26.171875 14.453125 28.265625 20.21875 
L 39.796875 51.859375 
L 48.828125 51.859375 
L 29.203125 0 
z
" id="ArialMT-76"/>
      </defs>
      <g style="fill:#262626;" transform="translate(927.516102 192.189375)scale(0.12 -0.12)">
       <use xlink:href="#ArialMT-4e"/>
       <use x="72.216797" xlink:href="#ArialMT-6f"/>
       <use x="127.832031" xlink:href="#ArialMT-76"/>
      </g>
     </g>
    </g>
    <g id="xtick_11">
     <g id="line2d_21">
      <path clip-path="url(#p3a23f7ee02)" d="M 976.498781 180.1 
L 976.498781 32.8 
" style="fill:none;stroke:#cccccc;stroke-linecap:round;stroke-width:0.8;"/>
     </g>
     <g id="line2d_22"/>
    </g>
    <g id="xtick_12">
     <g id="line2d_23"/>
    </g>
    <g id="xtick_13">
     <g id="line2d_24"/>
    </g>
    <g id="xtick_14">
     <g id="line2d_25"/>
    </g>
    <g id="xtick_15">
     <g id="line2d_26"/>
    </g>
    <g id="xtick_16">
     <g id="line2d_27"/>
    </g>
    <g id="xtick_17">
     <g id="line2d_28"/>
    </g>
    <g id="xtick_18">
     <g id="line2d_29"/>
    </g>
    <g id="xtick_19">
     <g id="line2d_30"/>
    </g>
    <g id="xtick_20">
     <g id="line2d_31"/>
    </g>
    <g id="xtick_21">
     <g id="line2d_32"/>
    </g>
    <g id="xtick_22">
     <g id="line2d_33"/>
    </g>
    <g id="xtick_23">
     <g id="line2d_34"/>
    </g>
    <g id="xtick_24">
     <g id="line2d_35"/>
    </g>
    <g id="xtick_25">
     <g id="line2d_36"/>
    </g>
    <g id="xtick_26">
     <g id="line2d_37"/>
    </g>
    <g id="xtick_27">
     <g id="line2d_38"/>
    </g>
    <g id="xtick_28">
     <g id="line2d_39"/>
    </g>
    <g id="xtick_29">
     <g id="line2d_40"/>
    </g>
    <g id="xtick_30">
     <g id="line2d_41"/>
    </g>
    <g id="xtick_31">
     <g id="line2d_42"/>
    </g>
    <g id="xtick_32">
     <g id="line2d_43"/>
    </g>
    <g id="xtick_33">
     <g id="line2d_44"/>
    </g>
    <g id="xtick_34">
     <g id="line2d_45"/>
    </g>
    <g id="xtick_35">
     <g id="line2d_46"/>
    </g>
    <g id="xtick_36">
     <g id="line2d_47"/>
    </g>
    <g id="xtick_37">
     <g id="line2d_48"/>
    </g>
    <g id="xtick_38">
     <g id="line2d_49"/>
    </g>
    <g id="xtick_39">
     <g id="line2d_50"/>
    </g>
    <g id="xtick_40">
     <g id="line2d_51"/>
    </g>
    <g id="xtick_41">
     <g id="line2d_52"/>
    </g>
    <g id="xtick_42">
     <g id="line2d_53"/>
    </g>
    <g id="xtick_43">
     <g id="line2d_54"/>
    </g>
    <g id="xtick_44">
     <g id="line2d_55"/>
    </g>
    <g id="xtick_45">
     <g id="line2d_56"/>
    </g>
    <g id="xtick_46">
     <g id="line2d_57"/>
    </g>
    <g id="xtick_47">
     <g id="line2d_58"/>
    </g>
    <g id="xtick_48">
     <g id="line2d_59"/>
    </g>
    <g id="xtick_49">
     <g id="line2d_60"/>
    </g>
    <g id="xtick_50">
     <g id="line2d_61"/>
    </g>
    <g id="xtick_51">
     <g id="line2d_62"/>
    </g>
    <g id="xtick_52">
     <g id="line2d_63"/>
    </g>
    <g id="xtick_53">
     <g id="line2d_64"/>
    </g>
    <g id="xtick_54">
     <g id="line2d_65"/>
    </g>
    <g id="xtick_55">
     <g id="line2d_66"/>
    </g>
   </g>
   <g id="matplotlib.axis_2">
    <g id="ytick_1">
     <g id="line2d_67">
      <path clip-path="url(#p3a23f7ee02)" d="M 40.925 180.1 
L 977.825 180.1 
" style="fill:none;stroke:#cccccc;stroke-linecap:round;stroke-width:0.8;"/>
     </g>
     <g id="line2d_68"/>
     <g id="text_11">
      <!-- 0 -->
      <g style="fill:#262626;" transform="translate(30.751875 184.394688)scale(0.12 -0.12)">
       <use xlink:href="#ArialMT-30"/>
      </g>
     </g>
    </g>
    <g id="ytick_2">
     <g id="line2d_69">
      <path clip-path="url(#p3a23f7ee02)" d="M 40.925 143.275 
L 977.825 143.275 
" style="fill:none;stroke:#cccccc;stroke-linecap:round;stroke-width:0.8;"/>
     </g>
     <g id="line2d_70"/>
     <g id="text_12">
      <!-- 500 -->
      <defs>
       <path d="M 4.15625 18.75 
L 13.375 19.53125 
Q 14.40625 12.796875 18.140625 9.390625 
Q 21.875 6 27.15625 6 
Q 33.5 6 37.890625 10.78125 
Q 42.28125 15.578125 42.28125 23.484375 
Q 42.28125 31 38.0625 35.34375 
Q 33.84375 39.703125 27 39.703125 
Q 22.75 39.703125 19.328125 37.765625 
Q 15.921875 35.84375 13.96875 32.765625 
L 5.71875 33.84375 
L 12.640625 70.609375 
L 48.25 70.609375 
L 48.25 62.203125 
L 19.671875 62.203125 
L 15.828125 42.96875 
Q 22.265625 47.46875 29.34375 47.46875 
Q 38.71875 47.46875 45.15625 40.96875 
Q 51.609375 34.46875 51.609375 24.265625 
Q 51.609375 14.546875 45.953125 7.46875 
Q 39.0625 -1.21875 27.15625 -1.21875 
Q 17.390625 -1.21875 11.203125 4.25 
Q 5.03125 9.71875 4.15625 18.75 
z
" id="ArialMT-35"/>
      </defs>
      <g style="fill:#262626;" transform="translate(17.405625 147.569687)scale(0.12 -0.12)">
       <use xlink:href="#ArialMT-35"/>
       <use x="55.615234" xlink:href="#ArialMT-30"/>
       <use x="111.230469" xlink:href="#ArialMT-30"/>
      </g>
     </g>
    </g>
    <g id="ytick_3">
     <g id="line2d_71">
      <path clip-path="url(#p3a23f7ee02)" d="M 40.925 106.45 
L 977.825 106.45 
" style="fill:none;stroke:#cccccc;stroke-linecap:round;stroke-width:0.8;"/>
     </g>
     <g id="line2d_72"/>
     <g id="text_13">
      <!-- 1000 -->
      <g style="fill:#262626;" transform="translate(10.7325 110.744687)scale(0.12 -0.12)">
       <use xlink:href="#ArialMT-31"/>
       <use x="55.615234" xlink:href="#ArialMT-30"/>
       <use x="111.230469" xlink:href="#ArialMT-30"/>
       <use x="166.845703" xlink:href="#ArialMT-30"/>
      </g>
     </g>
    </g>
    <g id="ytick_4">
     <g id="line2d_73">
      <path clip-path="url(#p3a23f7ee02)" d="M 40.925 69.625 
L 977.825 69.625 
" style="fill:none;stroke:#cccccc;stroke-linecap:round;stroke-width:0.8;"/>
     </g>
     <g id="line2d_74"/>
     <g id="text_14">
      <!-- 1500 -->
      <g style="fill:#262626;" transform="translate(10.7325 73.919688)scale(0.12 -0.12)">
       <use xlink:href="#ArialMT-31"/>
       <use x="55.615234" xlink:href="#ArialMT-35"/>
       <use x="111.230469" xlink:href="#ArialMT-30"/>
       <use x="166.845703" xlink:href="#ArialMT-30"/>
      </g>
     </g>
    </g>
    <g id="ytick_5">
     <g id="line2d_75">
      <path clip-path="url(#p3a23f7ee02)" d="M 40.925 32.8 
L 977.825 32.8 
" style="fill:none;stroke:#cccccc;stroke-linecap:round;stroke-width:0.8;"/>
     </g>
     <g id="line2d_76"/>
     <g id="text_15">
      <!-- 2000 -->
      <g style="fill:#262626;" transform="translate(10.7325 37.094688)scale(0.12 -0.12)">
       <use xlink:href="#ArialMT-32"/>
       <use x="55.615234" xlink:href="#ArialMT-30"/>
       <use x="111.230469" xlink:href="#ArialMT-30"/>
       <use x="166.845703" xlink:href="#ArialMT-30"/>
      </g>
     </g>
    </g>
   </g>
   <g id="line2d_77">
    <path clip-path="url(#p3a23f7ee02)" d="M 83.511364 162.095389 
L 86.458517 144.217672 
L 89.40567 137.376669 
L 92.352823 124.703784 
L 95.299976 123.308421 
L 98.24713 128.633828 
L 101.194283 145.315945 
L 104.141436 159.295546 
L 107.088589 148.285719 
L 110.035742 137.862327 
L 112.982896 132.278484 
L 115.930049 132.842955 
L 118.877202 137.39027 
L 121.824355 151.227645 
L 124.771508 158.64722 
L 127.718662 138.590546 
L 130.665815 134.1004 
L 133.612968 136.755025 
L 136.560121 142.694983 
L 139.507274 140.700288 
L 142.454427 153.364756 
L 145.401581 142.050082 
L 148.348734 140.290421 
L 151.295887 132.630058 
L 154.24304 128.51525 
L 157.190193 128.347214 
L 160.137347 136.931035 
L 163.0845 137.034572 
L 166.031653 158.897079 
L 168.978806 156.433966 
L 171.925959 125.524382 
L 174.873113 161.587508 
L 177.820266 133.008056 
L 180.767419 134.880122 
L 183.714572 150.681632 
L 186.661725 160.578265 
L 192.556032 136.860426 
L 195.503185 131.163651 
L 198.450338 126.707198 
L 201.397491 139.353956 
L 204.344645 149.769285 
L 207.291798 160.775389 
L 210.238951 136.913196 
L 213.186104 128.197058 
L 216.133257 130.803086 
L 219.080411 127.492924 
L 222.027564 130.89707 
L 224.974717 148.504787 
L 227.92187 156.397615 
L 230.869023 137.87468 
L 233.816176 132.162397 
L 236.76333 121.719826 
L 239.710483 130.997522 
L 242.657636 137.149518 
L 245.604789 149.123506 
L 248.551942 155.562976 
L 251.499096 131.090733 
L 254.446249 129.536435 
L 257.393402 131.356221 
L 260.340555 138.678215 
L 263.287708 136.621149 
L 265.853372 217 
M 266.679915 217 
L 269.182015 149.807895 
L 272.129168 128.819794 
L 275.076321 121.42711 
L 278.023474 130.124925 
L 280.970628 128.20382 
L 283.917781 134.20112 
L 286.864934 147.384169 
L 289.812087 143.128074 
L 292.75924 130.138125 
L 295.706394 121.51743 
L 298.653547 117.617247 
L 301.6007 125.363681 
L 304.547853 148.740342 
L 307.495006 115.855808 
L 310.442159 149.503654 
L 313.389313 139.072248 
L 316.336466 142.593508 
L 319.283619 129.907417 
L 322.230772 137.07469 
L 325.177925 137.7146 
L 328.125079 148.162652 
L 331.072232 152.408303 
L 334.019385 131.333837 
L 336.966538 130.842482 
L 339.913691 132.789707 
L 342.860845 126.997923 
L 345.807998 130.080294 
L 348.755151 144.704816 
L 351.702304 154.173394 
L 354.649457 133.616001 
L 357.596611 130.515447 
L 360.543764 133.673634 
L 363.490917 131.389807 
L 366.43807 139.458591 
L 369.385223 153.188351 
L 372.332377 161.025533 
L 375.27953 129.464228 
L 378.226683 115.143487 
L 381.173836 125.50561 
L 384.120989 125.810024 
L 387.068142 128.294985 
L 390.015296 142.01567 
L 392.962449 144.330067 
L 395.909602 128.321377 
L 398.856755 124.110944 
L 401.803908 126.824606 
L 404.751062 133.726338 
L 407.698215 144.746161 
L 410.645368 148.151743 
L 413.592521 161.138544 
L 416.539674 134.091854 
L 419.486828 122.395706 
L 422.433981 130.091998 
L 425.381134 137.157689 
L 428.328287 118.828021 
L 431.27544 108.711042 
L 434.222594 153.04762 
L 437.169747 127.561196 
L 439.527446 -1 
M 440.755793 -1 
L 443.064053 115.125664 
L 446.011206 98.991435 
L 448.95836 104.602671 
L 451.905513 123.573658 
L 454.852666 136.108527 
L 457.799819 103.55016 
L 460.746972 93.028403 
L 463.694126 103.296731 
L 466.641279 103.250964 
L 469.588432 159.734884 
L 472.535585 129.933357 
L 475.482738 123.854231 
L 478.429891 121.841713 
L 481.377045 114.762931 
L 484.324198 131.652735 
L 487.271351 81.75515 
L 490.218504 89.093398 
L 493.165657 97.012477 
L 496.112811 127.618073 
L 499.059964 125.314915 
L 502.007117 100.608947 
L 504.95427 102.137489 
L 507.901423 95.712653 
L 510.848577 90.736794 
L 513.79573 116.918576 
L 516.742883 116.10652 
L 519.690036 84.758888 
L 522.637189 91.872334 
L 525.584343 73.567676 
L 528.531496 79.129849 
L 531.478649 73.522789 
L 534.425802 116.33041 
L 537.372955 142.515082 
L 540.320109 86.788353 
L 543.267262 91.865798 
L 546.214415 109.859202 
L 549.161568 97.07027 
L 552.108721 103.62879 
L 555.055874 130.550263 
L 558.003028 142.02434 
L 560.950181 118.041019 
L 563.897334 129.376334 
L 566.844487 106.67615 
L 569.79164 116.492588 
L 572.738794 90.083158 
L 575.685947 109.719128 
L 578.6331 137.387799 
L 581.580253 118.597238 
L 584.527406 125.696895 
L 587.47456 125.392855 
L 590.421713 119.873106 
L 593.368866 130.290282 
L 596.316019 135.84953 
L 599.263172 137.43953 
L 602.210326 136.137001 
L 605.157479 141.672908 
L 608.104632 136.992642 
L 611.051785 128.936991 
L 613.998938 131.315927 
L 616.946092 147.536723 
L 619.893245 143.419389 
L 622.840398 146.009184 
L 625.787551 140.313344 
L 628.734704 141.593159 
L 631.681858 143.004934 
L 634.629011 144.68012 
L 640.523317 152.915248 
L 643.47047 149.332323 
L 646.417623 145.103453 
L 649.364777 144.557999 
L 652.31193 137.606502 
L 655.259083 136.725155 
L 658.206236 151.211783 
L 661.153389 152.111929 
L 664.100543 143.079696 
L 667.047696 142.914369 
L 669.994849 137.471608 
L 675.889155 145.171087 
L 678.836309 153.431884 
L 681.783462 171.460844 
L 684.730615 159.651828 
L 687.677768 155.780315 
L 690.624921 130.001818 
L 693.572075 139.603083 
L 696.519228 141.159267 
L 699.466381 159.837407 
L 702.413534 171.115651 
L 705.360687 142.453529 
L 708.307841 200.982251 
L 711.254994 113.986568 
L 714.202147 126.203258 
L 717.1493 133.647691 
L 720.096453 146.499374 
L 723.043606 151.768236 
L 725.99076 100.625377 
L 728.937913 131.289172 
L 731.885066 117.381846 
L 734.832219 123.555585 
L 737.779372 127.932123 
L 740.726526 150.801072 
L 743.673679 152.549153 
L 746.620832 129.201473 
L 749.567985 118.974343 
L 752.515138 103.392876 
L 755.462292 113.273453 
L 758.409445 119.74588 
L 761.356598 146.244128 
L 764.303751 144.038183 
L 767.250904 122.224597 
L 770.198058 119.521151 
L 773.145211 119.276498 
L 776.092364 116.260552 
L 777.318455 -1 
M 780.541252 -1 
L 781.98667 157.425817 
L 784.933824 169.757043 
L 787.880977 158.514518 
L 790.82813 134.891785 
L 793.775283 104.469446 
L 796.722436 115.253771 
L 799.669589 116.793919 
L 802.616743 136.435784 
L 805.563896 133.763105 
L 808.511049 115.528146 
L 811.458202 102.476253 
L 814.405355 102.093911 
L 817.352509 106.913469 
L 820.299662 111.985985 
L 823.246815 133.813084 
L 826.193968 135.195362 
L 829.141121 123.282346 
L 832.088275 114.766001 
L 835.035428 110.078827 
L 837.982581 113.806823 
L 840.929734 122.315479 
L 843.876887 138.761675 
L 846.824041 138.985795 
L 849.771194 121.212501 
L 852.718347 114.022756 
L 855.6655 114.12903 
L 858.612653 123.850949 
L 861.559807 117.552492 
L 864.50696 138.957057 
L 867.454113 143.916092 
L 870.401266 114.179927 
L 873.348419 111.716349 
L 876.295573 118.079709 
L 879.242726 127.50234 
L 882.189879 123.134406 
L 885.137032 146.963392 
L 888.084185 146.954599 
L 891.031338 126.486725 
L 893.978492 121.416772 
L 896.925645 120.478945 
L 899.872798 125.864474 
L 902.819951 138.819085 
L 905.767104 149.077725 
L 908.714258 153.4456 
L 911.661411 123.279513 
L 914.608564 120.022844 
L 917.555717 127.520721 
L 920.50287 120.314199 
L 923.450024 124.757592 
L 926.397177 150.240861 
L 929.34433 165.127098 
L 932.291483 121.17252 
L 935.238636 122.502466 
L 935.238636 122.502466 
" style="fill:none;stroke:#4c72b0;stroke-linecap:round;stroke-opacity:0.8;stroke-width:1.5;"/>
   </g>
   <g id="line2d_78">
    <path clip-path="url(#p3a23f7ee02)" d="M 83.511364 157.855473 
L 86.458517 140.658403 
L 89.40567 137.397634 
L 92.352823 120.458629 
L 95.299976 132.976771 
L 98.24713 126.482054 
L 101.194283 138.007363 
L 104.141436 152.831552 
L 107.088589 146.304316 
L 110.035742 141.213393 
L 112.982896 132.426032 
L 115.930049 132.685458 
L 118.877202 137.275539 
L 121.824355 150.973739 
L 124.771508 158.340503 
L 127.718662 140.519208 
L 130.665815 132.681183 
L 133.612968 134.342955 
L 136.560121 140.333246 
L 139.507274 139.718899 
L 142.454427 153.395938 
L 145.401581 155.858067 
L 148.348734 158.602001 
L 151.295887 131.746428 
L 154.24304 127.449826 
L 157.190193 126.036494 
L 160.137347 169.420099 
L 163.0845 148.769843 
L 166.031653 156.516831 
L 168.978806 131.570461 
L 171.925959 123.063927 
L 174.873113 134.340701 
L 177.820266 132.582741 
L 180.767419 136.575509 
L 183.714572 145.83121 
L 186.661725 158.658877 
L 189.608879 145.609835 
L 192.556032 137.130028 
L 198.450338 124.912544 
L 201.397491 139.013939 
L 207.291798 159.775772 
L 210.238951 136.777098 
L 213.186104 128.081744 
L 216.133257 130.451928 
L 219.080411 126.727161 
L 222.027564 130.867751 
L 224.974717 146.314663 
L 227.92187 152.752183 
L 230.869023 137.563446 
L 233.816176 129.825818 
L 236.76333 120.246846 
L 239.710483 130.847367 
L 242.657636 138.521224 
L 245.604789 155.104072 
L 248.551942 154.225686 
L 251.499096 130.477369 
L 254.446249 129.406642 
L 257.393402 131.276297 
L 260.340555 138.37592 
L 263.287708 125.105509 
L 266.234862 148.265063 
L 269.182015 154.098953 
L 272.129168 133.741291 
L 275.076321 123.90777 
L 278.023474 129.86084 
L 280.970628 127.593948 
L 283.917781 134.168835 
L 286.864934 147.693562 
L 289.812087 142.566656 
L 292.75924 122.998438 
L 295.706394 115.469261 
L 298.653547 109.946248 
L 304.547853 150.700843 
L 307.495006 171.198763 
L 310.442159 144.280979 
L 313.389313 120.269001 
L 316.336466 137.844802 
L 319.283619 127.494311 
L 322.230772 133.716078 
L 325.177925 135.840458 
L 328.125079 149.760419 
L 331.072232 152.59718 
L 334.019385 131.579558 
L 336.966538 130.402549 
L 339.913691 132.64215 
L 342.860845 126.764411 
L 345.807998 129.401882 
L 348.755151 142.998913 
L 351.702304 151.91513 
L 354.649457 131.431227 
L 357.596611 127.347409 
L 360.543764 128.740736 
L 363.490917 100.191922 
L 366.43807 132.211313 
L 369.385223 88.406764 
L 372.332377 151.616279 
L 375.27953 129.896888 
L 378.226683 127.30661 
L 381.173836 123.116659 
L 384.120989 124.414234 
L 387.068142 131.67232 
L 390.015296 142.342752 
L 392.962449 154.263998 
L 395.909602 127.067745 
L 398.856755 123.818748 
L 401.803908 125.15705 
L 404.751062 144.250129 
L 407.698215 134.268472 
L 410.645368 142.007801 
L 413.592521 78.104779 
L 416.539674 120.864428 
L 419.486828 111.162459 
L 422.433981 111.746713 
L 425.381134 111.288883 
L 428.328287 88.693169 
L 431.27544 68.238144 
L 434.222594 106.783151 
L 437.169747 45.078397 
L 440.1169 90.614089 
L 443.064053 80.166326 
L 446.011206 62.977486 
L 448.95836 43.760696 
L 451.905513 70.936781 
L 454.852666 111.400897 
L 457.799819 43.360414 
L 460.746972 60.664171 
L 463.694126 84.345113 
L 466.641279 90.620282 
L 469.588432 95.31689 
L 472.535585 118.436478 
L 475.482738 112.290796 
L 478.429891 114.012113 
L 481.377045 158.146017 
L 484.324198 140.088794 
L 487.271351 79.979232 
L 490.218504 87.601993 
L 493.165657 94.498391 
L 496.112811 126.666719 
L 499.059964 107.798149 
L 502.007117 75.743744 
L 504.95427 74.700397 
L 507.901423 84.334243 
L 510.848577 89.370187 
L 513.79573 112.720718 
L 516.742883 115.497415 
L 519.690036 82.559135 
L 522.637189 83.754963 
L 525.584343 66.546935 
L 528.531496 71.256447 
L 531.478649 64.292923 
L 534.425802 107.156991 
L 537.372955 117.57714 
L 540.320109 81.880673 
L 543.267262 86.175302 
L 546.214415 90.239071 
L 549.161568 96.977176 
L 552.108721 103.030484 
L 555.055874 131.484105 
L 558.003028 145.92641 
L 560.950181 121.319901 
L 563.897334 127.965589 
L 566.844487 114.105888 
L 569.79164 123.111328 
L 572.738794 126.620039 
L 575.685947 107.496294 
L 578.6331 142.958195 
L 581.580253 118.760479 
L 584.527406 143.375513 
L 587.47456 131.628405 
L 590.421713 124.122244 
L 593.368866 151.407366 
L 596.316019 130.216264 
L 599.263172 143.68869 
L 602.210326 140.687231 
L 605.157479 142.105346 
L 608.104632 130.61049 
L 611.051785 132.380319 
L 613.998938 141.430756 
L 616.946092 142.005629 
L 619.893245 144.089474 
L 622.840398 144.155399 
L 625.787551 142.977693 
L 628.734704 143.789589 
L 631.681858 139.74573 
L 634.629011 144.190483 
L 637.576164 150.45531 
L 640.523317 151.521474 
L 643.47047 146.732659 
L 646.417623 143.247672 
L 649.364777 143.092208 
L 652.31193 137.980869 
L 655.259083 137.186816 
L 658.206236 150.595749 
L 661.153389 151.98806 
L 664.100543 143.297593 
L 667.047696 135.934574 
L 669.372096 -1 
M 670.605838 -1 
L 672.942002 139.277565 
L 675.889155 137.754342 
L 678.836309 138.196142 
L 681.783462 148.950309 
L 684.730615 153.431105 
L 687.677768 131.329142 
L 690.624921 112.394133 
L 693.572075 113.359619 
L 696.519228 113.558022 
L 699.466381 114.142582 
L 702.413534 131.432417 
L 705.360687 104.724473 
L 708.307841 108.070171 
L 711.254994 89.945219 
L 714.202147 122.899532 
L 717.1493 127.050546 
L 720.096453 128.500801 
L 723.043606 146.229424 
L 725.99076 123.661114 
L 728.937913 123.244646 
L 731.885066 105.279809 
L 737.779372 122.116697 
L 740.726526 144.27421 
L 743.673679 139.577449 
L 746.620832 126.635428 
L 749.567985 111.240018 
L 752.515138 127.748247 
L 755.462292 110.142953 
L 758.409445 118.934063 
L 761.356598 146.088006 
L 764.303751 144.109142 
L 767.250904 122.211502 
L 770.198058 118.617858 
L 773.145211 110.526083 
L 776.092364 113.524941 
L 779.039517 138.722068 
L 781.98667 157.242843 
L 784.933824 174.626796 
L 787.880977 157.17059 
L 790.82813 117.55554 
L 793.775283 89.974533 
L 796.722436 99.100861 
L 799.669589 111.359185 
L 802.616743 130.755497 
L 805.563896 134.826116 
L 808.511049 117.116769 
L 811.458202 104.071025 
L 814.405355 102.180041 
L 817.352509 107.16039 
L 820.299662 112.362945 
L 823.246815 134.378077 
L 826.193968 134.639164 
L 829.141121 122.483654 
L 832.088275 114.665574 
L 835.035428 108.892455 
L 837.982581 111.259701 
L 840.929734 122.861468 
L 843.876887 140.724623 
L 846.824041 139.156964 
L 849.771194 124.031151 
L 852.718347 116.605322 
L 855.6655 115.996645 
L 858.612653 117.969864 
L 861.559807 122.471268 
L 864.50696 141.032867 
L 867.454113 145.934854 
L 870.401266 117.907249 
L 873.348419 115.280854 
L 876.295573 118.342661 
L 879.242726 126.418469 
L 882.189879 125.881344 
L 885.137032 141.522227 
L 888.084185 150.243657 
L 891.031338 127.954381 
L 893.978492 124.165923 
L 896.925645 114.536532 
L 899.872798 120.457854 
L 902.819951 123.491294 
L 905.767104 147.591427 
L 908.714258 151.687452 
L 911.661411 122.581508 
L 914.608564 117.714779 
L 917.555717 128.363609 
L 920.50287 121.20284 
L 923.450024 123.724702 
L 926.397177 140.08285 
L 929.34433 165.011584 
L 932.291483 121.003848 
L 935.238636 122.467215 
L 935.238636 122.467215 
" style="fill:none;stroke:#55a868;stroke-linecap:round;stroke-opacity:0.8;stroke-width:1.5;"/>
   </g>
   <g id="line2d_79">
    <path clip-path="url(#p3a23f7ee02)" d="M 83.511364 188.079611 
L 86.458517 149.798649 
L 89.40567 147.127471 
L 92.352823 128.451607 
L 95.299976 128.276614 
L 98.24713 134.127215 
L 101.194283 148.947847 
L 104.141436 162.299069 
L 107.088589 149.352886 
L 110.035742 148.142118 
L 112.982896 124.794785 
L 115.930049 134.747335 
L 118.877202 142.828961 
L 121.824355 159.569973 
L 124.771508 161.377959 
L 127.718662 140.155137 
L 130.665815 131.778477 
L 133.612968 132.725904 
L 136.560121 138.498369 
L 139.507274 138.603204 
L 142.454427 146.108335 
L 145.401581 154.364883 
L 148.348734 134.269638 
L 151.295887 132.092525 
L 154.24304 126.835226 
L 155.184438 -1 
M 159.42818 -1 
L 160.137347 85.306982 
L 163.0845 148.994384 
L 166.031653 160.50596 
L 168.978806 137.814213 
L 171.925959 128.253127 
L 174.873113 140.772237 
L 177.820266 142.559289 
L 180.767419 137.112628 
L 183.714572 152.278157 
L 186.661725 165.526064 
L 189.608879 150.659091 
L 192.556032 144.003632 
L 195.503185 127.75455 
L 198.450338 122.023486 
L 201.397491 134.690155 
L 207.291798 167.932815 
L 210.238951 143.30242 
L 213.186104 124.964584 
L 216.133257 129.32829 
L 219.080411 127.895265 
L 222.027564 127.52119 
L 224.974717 148.872335 
L 225.306894 217 
M 230.547423 217 
L 230.869023 151.307324 
L 233.816176 131.57616 
L 236.76333 115.256581 
L 239.710483 129.04722 
L 242.657636 138.525589 
L 245.604789 151.586916 
L 248.551942 157.769836 
L 251.499096 137.678023 
L 254.446249 130.744332 
L 257.393402 132.188357 
L 260.340555 133.80301 
L 263.287708 127.370846 
L 266.234862 148.607159 
L 269.182015 155.731211 
L 272.129168 130.934975 
L 275.076321 119.664879 
L 278.023474 129.071142 
L 280.970628 126.001187 
L 283.917781 133.162742 
L 286.864934 155.714354 
L 289.812087 148.658717 
L 292.75924 132.133222 
L 295.706394 123.627714 
L 298.653547 133.460841 
L 301.6007 140.958554 
L 304.547853 151.190358 
L 307.495006 171.341193 
L 310.442159 150.273409 
L 313.389313 116.309916 
L 316.336466 136.436455 
L 319.283619 121.180971 
L 325.177925 133.561597 
L 328.125079 144.988733 
L 331.072232 151.561831 
L 334.019385 126.819644 
L 336.966538 122.731891 
L 339.913691 121.252068 
L 342.860845 125.162541 
L 345.807998 127.377901 
L 348.755151 147.203117 
L 351.702304 160.017223 
L 354.649457 139.693247 
L 357.596611 134.554774 
L 360.543764 128.664005 
L 363.490917 48.984856 
L 366.43807 138.925226 
L 369.385223 154.294337 
L 372.332377 163.74444 
L 375.27953 128.652977 
L 378.226683 120.726159 
L 381.173836 127.929631 
L 384.120989 125.798061 
L 387.068142 139.824044 
L 390.015296 150.014339 
L 392.962449 139.617492 
L 395.909602 125.1121 
L 398.856755 125.02526 
L 401.803908 119.314998 
L 404.751062 122.477706 
L 407.698215 134.646814 
L 410.645368 148.338121 
L 413.592521 24.119406 
L 416.539674 77.532516 
L 419.486828 110.777174 
L 422.433981 128.157048 
L 425.381134 119.985114 
L 428.328287 93.401873 
L 431.27544 105.153527 
L 434.222594 157.019139 
L 437.169747 127.017029 
L 440.1169 95.17386 
L 443.064053 107.534497 
L 446.011206 104.211584 
L 448.95836 97.703788 
L 451.905513 142.723031 
L 454.852666 143.922262 
L 457.799819 113.52872 
L 460.746972 116.248866 
L 463.694126 154.167957 
L 466.641279 157.444471 
L 469.588432 173.650788 
L 472.535585 159.46075 
L 478.429891 112.365651 
L 481.377045 119.2169 
L 484.324198 130.199019 
L 487.271351 83.839994 
L 490.218504 75.556092 
L 493.165657 99.471089 
L 496.112811 144.380018 
L 499.059964 124.418778 
L 502.007117 88.544922 
L 504.95427 70.627039 
L 507.901423 83.022896 
L 510.848577 53.32036 
L 513.553589 -1 
M 514.753492 -1 
L 516.742883 9.10006 
L 519.690036 48.524014 
L 522.637189 72.646262 
L 525.584343 47.780671 
L 528.531496 62.789499 
L 531.478649 66.749735 
L 534.425802 122.653696 
L 537.372955 158.959456 
L 540.320109 110.476473 
L 543.267262 104.088246 
L 546.214415 146.047471 
L 549.161568 136.99485 
L 552.108721 136.389261 
L 555.055874 152.798003 
L 558.003028 171.078919 
L 560.950181 141.789201 
L 563.897334 130.03031 
L 566.844487 112.751827 
L 569.79164 105.522831 
L 572.738794 113.558709 
L 575.685947 106.149056 
L 578.6331 129.118971 
L 581.580253 109.974336 
L 584.527406 122.762863 
L 587.47456 116.099858 
L 590.421713 101.845428 
L 593.368866 114.144598 
L 596.316019 125.19993 
L 599.263172 135.043839 
L 602.210326 135.104554 
L 605.157479 126.012667 
L 608.104632 131.444598 
L 611.051785 122.509195 
L 613.998938 132.196229 
L 616.946092 147.728285 
L 619.893245 119.157155 
L 622.840398 145.118588 
L 625.787551 141.620593 
L 628.734704 141.859836 
L 631.681858 137.95315 
L 634.629011 145.542886 
L 637.576164 149.644037 
L 640.523317 145.41052 
L 643.47047 142.158511 
L 646.417623 141.431335 
L 649.364777 142.130477 
L 652.31193 136.079406 
L 655.259083 131.610609 
L 658.206236 149.937349 
L 661.153389 152.256365 
L 664.100543 142.666245 
L 667.047696 135.152834 
L 669.994849 132.814547 
L 672.942002 137.881131 
L 675.889155 140.175259 
L 678.836309 139.327834 
L 681.783462 153.099022 
L 684.730615 150.483101 
L 687.677768 144.254686 
L 690.624921 118.945379 
L 693.572075 129.252575 
L 696.519228 131.463325 
L 699.466381 154.498078 
L 702.413534 167.814881 
L 705.360687 136.023477 
L 708.307841 132.427092 
L 711.254994 112.518988 
L 714.202147 133.266905 
L 717.1493 140.963965 
L 720.096453 146.98359 
L 723.043606 161.20141 
L 725.99076 140.803429 
L 728.937913 132.43074 
L 731.885066 123.598867 
L 734.832219 126.81248 
L 737.779372 132.716052 
L 740.726526 159.137864 
L 743.673679 149.086147 
L 746.620832 124.20633 
L 749.567985 119.371978 
L 752.515138 107.270671 
L 755.462292 93.538809 
L 758.409445 134.512814 
L 761.356598 150.720182 
L 764.303751 142.159816 
L 767.250904 119.081774 
L 770.198058 118.925684 
L 773.145211 111.760779 
L 776.092364 114.586116 
L 779.039517 124.089308 
L 781.98667 134.559397 
L 784.933824 159.219879 
L 787.880977 154.522279 
L 790.82813 118.959958 
L 793.775283 88.978042 
L 796.722436 100.177652 
L 799.669589 103.835993 
L 802.616743 131.657156 
L 805.563896 144.841323 
L 808.511049 126.249662 
L 811.458202 124.383163 
L 814.405355 93.167904 
L 817.352509 110.361394 
L 820.299662 115.156526 
L 823.246815 141.903979 
L 826.193968 144.311153 
L 829.141121 130.175743 
L 832.088275 133.896633 
L 835.035428 111.048453 
L 837.982581 114.832196 
L 840.929734 120.082269 
L 843.876887 142.084925 
L 846.824041 139.779698 
L 849.771194 118.402039 
L 852.718347 116.481082 
L 855.6655 111.804203 
L 861.559807 117.187161 
L 864.50696 142.430998 
L 867.454113 145.439881 
L 870.401266 113.467049 
L 873.348419 112.631355 
L 876.295573 121.481822 
L 879.242726 127.004968 
L 882.189879 121.565984 
L 885.137032 139.945765 
L 888.084185 151.795505 
L 891.031338 130.029353 
L 893.978492 123.788704 
L 896.925645 117.075985 
L 899.872798 120.067278 
L 902.819951 152.069649 
L 905.767104 150.124765 
L 908.714258 156.309369 
L 911.661411 121.288551 
L 914.608564 119.626291 
L 917.555717 116.849406 
L 920.50287 127.846319 
L 923.450024 110.137905 
L 926.397177 140.192467 
L 929.34433 137.582501 
L 932.291483 122.159842 
L 935.238636 120.989536 
L 935.238636 120.989536 
" style="fill:none;stroke:#c44e52;stroke-linecap:round;stroke-opacity:0.8;stroke-width:1.5;"/>
   </g>
   <g id="line2d_80">
    <path clip-path="url(#p3a23f7ee02)" d="M 83.511364 173.202008 
L 86.458517 140.283554 
L 89.40567 143.860746 
L 92.352823 125.790461 
L 95.299976 124.582979 
L 98.24713 130.446836 
L 101.194283 143.903801 
L 104.141436 158.391261 
L 107.088589 148.74156 
L 110.035742 142.190183 
L 112.982896 133.921723 
L 115.930049 135.104132 
L 118.877202 137.972819 
L 121.824355 159.116838 
L 124.771508 160.854636 
L 127.718662 140.69425 
L 130.665815 135.024792 
L 133.612968 136.135948 
L 136.560121 142.118138 
L 139.507274 140.117054 
L 142.454427 145.152447 
L 145.401581 150.917687 
L 148.348734 130.026622 
L 151.295887 130.218393 
L 154.24304 124.284772 
L 157.190193 125.302057 
L 160.137347 131.03523 
L 163.0845 142.959169 
L 166.031653 160.307524 
L 168.978806 129.991626 
L 171.925959 121.057964 
L 174.873113 132.672129 
L 177.820266 140.350626 
L 180.767419 134.13125 
L 186.661725 159.123306 
L 189.608879 145.211029 
L 192.556032 136.528445 
L 195.503185 121.197576 
L 198.450338 123.23777 
L 201.397491 139.303503 
L 207.291798 157.824053 
L 210.238951 129.959557 
L 213.186104 124.742789 
L 216.133257 130.07835 
L 219.080411 129.68042 
L 222.027564 127.612683 
L 224.974717 147.056322 
L 225.103348 217 
M 230.586362 217 
L 230.869023 54.416465 
L 233.816176 129.661626 
L 236.76333 117.223393 
L 239.710483 128.718549 
L 242.657636 135.703465 
L 245.604789 146.020206 
L 248.551942 151.101451 
L 251.499096 131.510246 
L 254.446249 126.952708 
L 257.393402 128.969827 
L 260.340555 132.103252 
L 263.287708 125.738819 
L 266.234862 145.326959 
L 269.182015 150.845457 
L 272.129168 126.041277 
L 275.076321 117.604847 
L 278.023474 127.138114 
L 280.970628 126.822941 
L 283.917781 132.938075 
L 286.864934 147.921961 
L 289.812087 148.877836 
L 292.75924 134.126275 
L 295.706394 127.013924 
L 298.653547 129.591882 
L 301.6007 137.326339 
L 304.547853 155.002602 
L 307.495006 174.43729 
L 310.442159 151.830366 
L 313.389313 117.967178 
L 316.336466 140.192585 
L 319.283619 124.108448 
L 325.177925 135.574829 
L 328.125079 145.862842 
L 331.072232 151.188057 
L 334.019385 126.390319 
L 336.966538 123.387631 
L 339.913691 129.757054 
L 342.860845 125.955329 
L 345.807998 125.813244 
L 348.755151 141.990533 
L 351.702304 152.604653 
L 354.649457 132.182804 
L 357.596611 128.65267 
L 360.543764 120.937701 
L 363.490917 119.97104 
L 366.43807 126.976366 
L 369.385223 139.739387 
L 372.332377 147.17231 
L 375.27953 112.531285 
L 378.226683 110.113081 
L 381.173836 121.143975 
L 384.120989 122.348904 
L 387.068142 135.105609 
L 390.015296 138.768162 
L 392.962449 133.190305 
L 395.909602 129.822219 
L 398.856755 123.5717 
L 401.803908 115.386377 
L 404.751062 119.2691 
L 407.698215 128.624784 
L 410.645368 138.3704 
L 413.592521 183.288425 
L 416.539674 56.997228 
L 419.486828 92.451802 
L 422.433981 91.219899 
L 425.381134 91.192963 
L 428.328287 56.992981 
L 431.27544 61.128615 
L 434.222594 105.830913 
L 437.169747 75.032246 
L 440.1169 46.845045 
L 443.064053 54.864216 
L 446.011206 43.268734 
L 448.95836 39.381024 
L 451.905513 81.597569 
L 454.852666 89.659631 
L 457.799819 61.749976 
L 460.746972 72.851399 
L 463.694126 117.060549 
L 466.641279 127.4109 
L 469.588432 136.290347 
L 472.535585 135.95044 
L 475.482738 113.300046 
L 478.429891 97.400457 
L 481.377045 136.687625 
L 484.324198 134.398309 
L 487.271351 88.714619 
L 490.218504 82.997599 
L 493.165657 107.152739 
L 496.112811 22.894294 
L 499.059964 135.539474 
L 502.007117 102.373706 
L 504.95427 83.300597 
L 507.901423 96.414588 
L 510.848577 75.821367 
L 513.79573 101.03282 
L 516.742883 106.81921 
L 519.690036 65.422772 
L 522.637189 72.882598 
L 525.584343 37.079427 
L 528.531496 53.208334 
L 531.478649 49.046176 
L 534.425802 98.017517 
L 537.372955 128.266167 
L 540.320109 81.375705 
L 543.267262 81.773612 
L 546.214415 135.588924 
L 549.161568 135.441927 
L 552.108721 131.542391 
L 555.055874 157.69811 
L 558.003028 176.510242 
L 560.950181 148.313087 
L 563.897334 139.767479 
L 566.844487 128.180923 
L 569.79164 125.467406 
L 572.738794 136.884044 
L 575.685947 129.275914 
L 578.6331 153.567796 
L 581.580253 135.112544 
L 584.527406 149.280941 
L 587.47456 146.110231 
L 590.421713 135.285796 
L 593.368866 146.813959 
L 596.316019 156.444329 
L 599.263172 163.029386 
L 602.210326 160.643085 
L 605.157479 152.185832 
L 608.104632 139.328838 
L 611.051785 142.55894 
L 613.998938 151.171993 
L 616.946092 162.896985 
L 619.893245 151.228387 
L 622.840398 151.391656 
L 625.787551 148.315557 
L 628.734704 147.401327 
L 631.681858 143.756161 
L 634.629011 151.432678 
L 637.576164 154.474988 
L 640.523317 149.072944 
L 643.47047 145.562189 
L 646.417623 145.65301 
L 649.364777 146.553611 
L 652.31193 126.898012 
L 655.259083 124.036755 
L 658.206236 146.796702 
L 661.153389 152.480035 
L 664.100543 138.773935 
L 667.047696 133.133468 
L 669.994849 130.132513 
L 672.942002 134.509869 
L 675.889155 135.354529 
L 678.836309 129.287072 
L 681.783462 144.265082 
L 684.730615 144.926785 
L 687.677768 129.72081 
L 690.624921 113.528095 
L 693.572075 112.218247 
L 696.519228 108.640294 
L 699.466381 126.038929 
L 702.413534 138.378231 
L 705.360687 108.019747 
L 708.307841 90.528759 
L 711.254994 90.427671 
L 717.1493 132.106734 
L 720.096453 124.658699 
L 723.043606 139.319456 
L 725.99076 122.333433 
L 728.937913 117.74841 
L 731.885066 106.636295 
L 734.832219 56.776239 
L 737.779372 120.985125 
L 740.726526 139.516829 
L 743.673679 135.678492 
L 746.620832 115.043985 
L 749.567985 131.21437 
L 752.515138 105.243216 
L 755.462292 112.375246 
L 758.409445 127.005468 
L 761.356598 151.075565 
L 764.303751 146.510459 
L 767.250904 118.938706 
L 770.198058 120.414352 
L 773.145211 121.254941 
L 776.092364 118.293095 
L 779.039517 125.494256 
L 781.98667 128.88426 
L 784.933824 147.984208 
L 787.880977 121.886773 
L 790.82813 108.467737 
L 793.775283 78.351906 
L 796.722436 90.254807 
L 799.669589 92.411883 
L 802.616743 116.373854 
L 805.563896 127.855177 
L 808.511049 110.894452 
L 811.458202 115.038981 
L 814.405355 97.47067 
L 817.352509 100.233125 
L 820.299662 111.554854 
L 823.246815 137.483284 
L 826.193968 138.624402 
L 829.141121 125.754218 
L 835.035428 113.190374 
L 837.982581 119.134419 
L 840.929734 123.823275 
L 843.876887 145.75182 
L 846.824041 143.15855 
L 849.771194 122.47611 
L 852.718347 121.972478 
L 855.6655 117.530859 
L 858.612653 122.209558 
L 861.559807 127.131945 
L 864.50696 150.511213 
L 867.454113 152.336528 
L 870.401266 122.417181 
L 873.348419 119.114885 
L 876.295573 128.085226 
L 879.242726 141.008668 
L 882.189879 127.973095 
L 888.084185 156.216828 
L 891.031338 132.724337 
L 893.978492 127.117206 
L 896.925645 120.498322 
L 899.872798 125.397603 
L 902.819951 155.852636 
L 905.767104 149.723855 
L 908.714258 157.575597 
L 911.661411 121.778916 
L 914.608564 126.516084 
L 917.555717 116.784596 
L 920.50287 93.386782 
L 923.450024 124.835132 
L 926.397177 140.414397 
L 929.34433 135.58873 
L 932.291483 120.486534 
L 935.238636 121.468516 
L 935.238636 121.468516 
" style="fill:none;stroke:#8172b2;stroke-linecap:round;stroke-opacity:0.8;stroke-width:1.5;"/>
   </g>
   <g id="line2d_81">
    <path clip-path="url(#p3a23f7ee02)" d="M 86.100024 -1 
L 86.458517 159.328537 
L 89.40567 164.23073 
L 92.352823 142.680598 
L 95.299976 145.577629 
L 98.24713 142.78252 
L 101.194283 142.914527 
L 104.141436 149.024639 
L 107.088589 133.720189 
L 110.035742 153.825847 
L 112.982896 160.056701 
L 115.930049 136.135087 
L 118.877202 135.895846 
L 121.824355 151.384562 
L 124.771508 147.879274 
L 127.718662 120.831308 
L 130.665815 145.079498 
L 133.612968 157.755999 
L 136.560121 134.964107 
L 139.507274 125.182861 
L 142.454427 139.146552 
L 145.401581 134.169452 
L 148.348734 103.028643 
L 151.295887 138.469624 
L 154.24304 159.223823 
L 157.190193 133.188734 
L 160.137347 123.129488 
L 163.0845 163.539656 
L 168.978806 113.747646 
L 171.925959 166.912874 
L 174.873113 172.400642 
L 177.820266 144.905244 
L 180.767419 141.845316 
L 183.714572 150.463882 
L 186.661725 137.257897 
L 189.608879 135.581285 
L 192.556032 140.62436 
L 195.503185 161.005245 
L 198.450338 114.176968 
L 201.397491 127.179401 
L 204.344645 99.207542 
L 207.291798 151.717749 
L 210.238951 97.25609 
L 213.186104 140.373253 
L 216.133257 162.200443 
L 219.080411 125.496262 
L 222.027564 133.631376 
L 224.974717 135.417495 
L 227.92187 134.004112 
L 230.869023 119.923773 
L 233.816176 146.974775 
L 236.76333 144.479493 
L 239.710483 130.679704 
L 242.657636 145.155664 
L 245.604789 152.559545 
L 248.551942 142.122922 
L 251.499096 112.477348 
L 254.446249 143.652484 
L 257.393402 158.630971 
L 260.340555 135.352671 
L 263.287708 117.309547 
L 266.234862 142.179081 
L 269.182015 136.580673 
L 272.129168 115.869294 
L 275.076321 145.67839 
L 278.023474 164.358256 
L 280.970628 119.648413 
L 283.917781 135.341202 
L 286.864934 143.972626 
L 289.812087 135.274777 
L 292.75924 123.334477 
L 295.706394 177.678029 
L 298.653547 164.319334 
L 301.6007 136.543447 
L 304.547853 159.515216 
L 307.495006 133.0543 
L 310.442159 111.981592 
L 313.389313 107.514323 
L 316.336466 146.988679 
L 319.283619 147.017728 
L 322.230772 127.344978 
L 325.177925 121.676178 
L 328.125079 142.319298 
L 331.072232 131.855058 
L 334.019385 101.980859 
L 336.966538 135.870211 
L 339.913691 166.757497 
L 342.860845 118.490422 
L 345.807998 127.373215 
L 348.755151 140.455179 
L 351.702304 142.581692 
L 354.649457 117.162953 
L 360.543764 163.098645 
L 363.490917 118.774469 
L 366.43807 133.229889 
L 369.385223 136.808885 
L 372.332377 148.343814 
L 375.27953 109.074916 
L 378.226683 147.478932 
L 381.173836 173.432022 
L 384.120989 125.365201 
L 387.068142 144.432602 
L 390.015296 156.913013 
L 392.962449 125.635676 
L 395.909602 129.055389 
L 398.856755 139.642021 
L 401.803908 155.351068 
L 404.751062 97.124514 
L 406.697354 -1 
M 408.662993 -1 
L 410.645368 102.681503 
L 413.592521 113.079356 
L 416.539674 90.496656 
L 419.486828 106.968627 
L 422.433981 172.064752 
L 422.527279 217 
M 427.963296 217 
L 428.328287 22.712497 
L 431.27544 34.222817 
L 434.222594 117.111552 
L 437.169747 110.12437 
L 443.064053 175.406295 
L 446.011206 104.090271 
L 448.95836 88.69947 
L 451.905513 101.049182 
L 454.852666 128.282197 
L 457.799819 70.285209 
L 460.746972 200.422546 
L 463.694126 183.061148 
L 466.641279 154.156464 
L 469.588432 139.450677 
L 472.535585 164.649908 
L 475.482738 122.791454 
L 478.429891 108.311094 
L 481.377045 128.288124 
L 484.324198 153.43361 
L 487.271351 115.288905 
L 490.218504 82.031571 
L 493.165657 108.56817 
L 496.112811 103.126677 
L 499.059964 62.975532 
L 502.007117 74.237904 
L 503.49472 217 
M 506.385492 217 
L 507.901423 68.639696 
L 510.848577 52.811634 
L 513.79573 95.207669 
L 516.742883 48.01313 
L 519.690036 7.208776 
L 522.637189 77.14454 
L 525.584343 122.549888 
L 528.531496 57.544356 
L 531.478649 53.655325 
L 534.425802 142.746685 
L 537.372955 125.765677 
L 540.320109 75.643075 
L 543.267262 130.584572 
L 546.214415 197.309584 
L 549.161568 148.917 
L 552.108721 157.939236 
L 555.055874 157.246843 
L 558.003028 145.426586 
L 560.950181 131.953039 
L 563.897334 144.81798 
L 566.844487 136.635021 
L 569.79164 122.651194 
L 572.738794 113.142555 
L 575.685947 112.719302 
L 578.6331 98.5015 
L 581.580253 106.875054 
L 584.527406 117.883143 
L 587.47456 120.430255 
L 590.421713 128.082325 
L 593.368866 114.306976 
L 596.316019 118.863426 
L 599.263172 118.002359 
L 602.210326 113.524 
L 608.104632 129.570034 
L 611.051785 115.923295 
L 613.998938 128.674192 
L 616.946092 133.425794 
L 619.893245 130.673148 
L 622.840398 125.478885 
L 625.787551 150.745285 
L 628.734704 155.949823 
L 631.681858 138.723278 
L 634.629011 139.939515 
L 637.576164 150.244686 
L 640.523317 137.196111 
L 643.47047 119.71442 
L 646.417623 146.540719 
L 649.364777 157.728869 
L 652.31193 134.484262 
L 655.259083 129.073402 
L 658.206236 138.406057 
L 661.153389 133.429009 
L 664.100543 128.831086 
L 667.047696 138.640782 
L 669.994849 157.628928 
L 672.942002 147.613515 
L 675.889155 133.036807 
L 678.836309 142.700347 
L 684.730615 114.555651 
L 687.677768 138.271625 
L 690.624921 164.337232 
L 693.572075 136.799471 
L 696.519228 105.06501 
L 699.466381 143.366745 
L 702.413534 136.063551 
L 705.360687 115.496292 
L 708.307841 134.231092 
L 711.254994 167.423233 
L 714.202147 160.668165 
L 717.1493 144.401169 
L 720.096453 150.643768 
L 723.043606 119.335634 
L 725.99076 128.784535 
L 728.937913 164.140217 
L 731.885066 166.342283 
L 734.832219 133.340836 
L 737.779372 138.026515 
L 740.726526 141.094777 
L 743.673679 110.973568 
L 746.620832 64.192078 
L 749.567985 147.472976 
L 752.515138 144.530847 
L 755.462292 124.576436 
L 758.409445 130.234535 
L 761.356598 143.090854 
L 764.303751 97.809693 
L 767.250904 102.604098 
L 770.198058 143.113419 
L 773.145211 135.175513 
L 776.092364 138.669012 
L 779.039517 49.309508 
L 781.98667 102.549423 
L 784.933824 97.58019 
L 787.880977 109.079052 
L 790.82813 96.779694 
L 793.775283 128.884688 
L 796.722436 130.215202 
L 799.669589 113.888859 
L 802.616743 140.065273 
L 805.563896 115.345813 
L 808.511049 112.410812 
L 811.458202 57.166713 
L 814.405355 157.738303 
L 817.352509 124.022165 
L 820.299662 129.489518 
L 823.246815 136.252143 
L 826.193968 111.367615 
L 829.141121 111.136403 
L 832.088275 141.99075 
L 835.035428 154.676487 
L 837.982581 111.716701 
L 840.929734 128.101057 
L 843.876887 139.857849 
L 846.824041 112.416818 
L 849.771194 99.13316 
L 852.718347 134.439891 
L 855.384764 -1 
M 855.993807 -1 
L 858.612653 112.748644 
L 861.559807 107.216817 
L 864.50696 132.278802 
L 867.454113 126.99233 
L 870.401266 88.491134 
L 873.348419 137.398409 
L 876.295573 154.367813 
L 879.242726 144.279761 
L 882.189879 105.572499 
L 885.137032 132.97314 
L 888.084185 122.866054 
L 891.031338 106.765828 
L 893.978492 139.769124 
L 896.925645 148.720768 
L 899.872798 119.630218 
L 902.819951 125.171534 
L 905.767104 142.079128 
L 908.714258 146.970953 
L 911.661411 96.487355 
L 914.608564 130.47552 
L 917.555717 167.79505 
L 917.728892 217 
M 923.102908 217 
L 923.450024 111.774531 
L 926.397177 159.906391 
L 929.34433 104.491785 
L 932.291483 81.974149 
L 935.238636 142.615748 
L 935.238636 142.615748 
" style="fill:none;stroke:#ccb974;stroke-linecap:round;stroke-opacity:0.8;stroke-width:1.5;"/>
   </g>
   <g id="line2d_82">
    <path clip-path="url(#p3a23f7ee02)" d="M 83.511364 47.954813 
L 86.458517 99.022605 
L 89.40567 163.614488 
L 92.352823 140.402488 
L 95.299976 142.390152 
L 98.24713 139.590781 
L 101.194283 151.494816 
L 104.141436 145.583857 
L 107.088589 125.06669 
L 110.035742 155.499596 
L 112.982896 161.537393 
L 115.930049 135.585074 
L 118.877202 135.678645 
L 121.824355 144.32296 
L 124.771508 147.404514 
L 127.718662 121.269477 
L 130.665815 147.715653 
L 133.612968 160.532483 
L 136.560121 138.666363 
L 139.507274 126.466001 
L 142.454427 138.276491 
L 145.401581 130.959095 
L 148.348734 98.973739 
L 151.295887 136.763197 
L 154.24304 156.88259 
L 157.190193 131.411669 
L 160.137347 119.625165 
L 163.0845 140.864433 
L 166.031653 183.317182 
L 168.978806 106.627046 
L 171.925959 162.141951 
L 174.873113 169.368447 
L 177.820266 143.616814 
L 180.767419 139.132741 
L 183.714572 143.363455 
L 186.661725 131.429516 
L 189.608879 132.578442 
L 192.556032 156.961627 
L 195.503185 160.260728 
L 198.450338 130.377964 
L 201.397491 126.850079 
L 204.344645 161.76822 
L 207.291798 163.566758 
L 210.238951 98.869761 
L 213.186104 140.483868 
L 216.133257 162.809535 
L 219.080411 126.955901 
L 222.027564 133.706464 
L 224.974717 133.605773 
L 227.92187 131.004068 
L 230.869023 116.645812 
L 233.816176 145.232899 
L 236.76333 142.014136 
L 239.710483 129.505687 
L 242.657636 142.792661 
L 245.604789 142.481923 
L 248.551942 135.994597 
L 251.499096 106.998593 
L 254.446249 140.428473 
L 257.393402 155.699112 
L 260.340555 133.813128 
L 263.287708 116.134138 
L 266.234862 139.187394 
L 269.182015 131.952503 
L 272.129168 111.601071 
L 275.076321 141.415427 
L 278.023474 162.597543 
L 280.970628 120.315194 
L 283.917781 135.14432 
L 286.864934 142.619988 
L 289.812087 135.449905 
L 292.75924 124.952118 
L 295.706394 180.432568 
L 298.653547 167.25256 
L 301.6007 139.504881 
L 304.547853 159.717375 
L 307.495006 135.602145 
L 310.442159 113.241339 
L 313.389313 108.882139 
L 316.336466 149.489407 
L 319.283619 151.470428 
L 322.230772 132.625312 
L 325.177925 123.312233 
L 328.125079 143.029826 
L 331.072232 131.514556 
L 334.019385 101.589697 
L 336.966538 136.40356 
L 339.913691 159.729157 
L 342.860845 119.135546 
L 345.807998 125.947604 
L 348.755151 136.042069 
L 351.702304 135.833231 
L 357.596611 134.327378 
L 360.543764 156.072216 
L 363.490917 114.282811 
L 366.43807 122.354553 
L 369.385223 123.559786 
L 372.332377 133.258549 
L 375.27953 94.398735 
L 378.226683 83.020693 
L 381.173836 169.301413 
L 384.120989 122.225454 
L 387.068142 132.03707 
L 390.015296 144.767736 
L 392.962449 116.22342 
L 395.909602 124.981281 
L 398.856755 138.319348 
L 401.803908 150.024833 
L 404.751062 94.20399 
L 407.698215 96.895258 
L 410.645368 93.60657 
L 413.592521 122.999449 
L 416.539674 71.804272 
L 419.486828 89.286192 
L 422.433981 149.676728 
L 425.381134 41.660295 
L 428.328287 36.974737 
L 429.372037 -1 
M 432.725314 -1 
L 434.222594 70.515824 
L 437.169747 38.993457 
L 440.1169 98.410705 
L 443.064053 127.457908 
L 446.011206 32.192017 
L 448.95836 56.2624 
L 451.905513 45.380756 
L 454.852666 73.914548 
L 457.799819 23.148665 
L 460.746972 160.916032 
L 463.694126 149.20018 
L 466.641279 126.849393 
L 469.588432 115.809438 
L 472.535585 143.248821 
L 475.482738 102.539696 
L 478.429891 94.690082 
L 484.324198 156.848936 
L 487.271351 121.167568 
L 490.218504 88.082497 
L 493.165657 126.170627 
L 496.112811 113.398014 
L 499.059964 72.019208 
L 502.007117 85.482707 
L 504.95427 135.768633 
L 507.901423 79.526212 
L 510.848577 60.222362 
L 513.79573 98.371148 
L 516.742883 46.257806 
L 519.690036 4.014832 
L 522.637189 71.181607 
L 525.584343 114.074036 
L 528.531496 48.824164 
L 531.478649 37.52482 
L 534.425802 129.229385 
L 537.372955 92.472136 
L 540.320109 51.852257 
L 543.267262 109.470937 
L 546.214415 182.616865 
L 549.161568 145.968218 
L 552.108721 160.502 
L 555.055874 160.182427 
L 558.003028 153.334367 
L 560.950181 139.877395 
L 563.897334 154.844261 
L 566.844487 149.181901 
L 569.79164 139.050647 
L 572.738794 132.427785 
L 575.685947 131.524168 
L 578.6331 118.380921 
L 581.580253 126.661606 
L 584.527406 146.114495 
L 587.47456 158.697676 
L 590.421713 155.273628 
L 593.368866 138.831811 
L 596.316019 143.330835 
L 599.263172 136.702887 
L 602.210326 135.514307 
L 605.157479 138.988415 
L 608.104632 154.776112 
L 611.051785 133.917749 
L 616.946092 149.948053 
L 619.893245 142.703504 
L 622.840398 132.798136 
L 625.787551 156.189084 
L 628.734704 160.455771 
L 631.681858 142.74042 
L 634.629011 144.728059 
L 637.576164 154.171283 
L 640.523317 140.172551 
L 643.47047 122.481871 
L 646.417623 149.97308 
L 649.364777 161.362331 
L 652.31193 138.451843 
L 655.259083 131.505332 
L 658.206236 140.475489 
L 661.153389 133.489621 
L 664.100543 126.074178 
L 667.047696 136.706533 
L 669.994849 155.187958 
L 672.942002 144.544456 
L 675.889155 128.661851 
L 678.836309 139.571345 
L 681.783462 115.625226 
L 684.730615 99.994764 
L 690.624921 149.933121 
L 693.572075 116.978276 
L 696.519228 82.736052 
L 699.466381 114.761282 
L 702.413534 94.088178 
L 705.360687 115.937513 
L 708.307841 145.462223 
L 711.254994 148.522308 
L 714.202147 131.329395 
L 717.1493 121.127382 
L 720.096453 129.101979 
L 723.043606 106.199931 
L 725.99076 111.971508 
L 728.937913 141.333282 
L 731.885066 154.064696 
L 734.832219 123.114086 
L 737.779372 127.425447 
L 740.726526 140.875777 
L 743.673679 98.769245 
L 746.620832 94.216188 
L 749.567985 136.544768 
L 752.515138 141.719681 
L 755.462292 136.160702 
L 758.409445 132.010169 
L 761.356598 143.388189 
L 764.303751 97.590585 
L 767.250904 82.302411 
L 770.198058 144.323093 
L 773.145211 142.930934 
L 776.092364 155.594929 
L 779.039517 30.219389 
L 781.98667 97.382213 
L 784.933824 107.269763 
L 787.880977 80.034582 
L 790.82813 103.217362 
L 793.775283 119.210014 
L 796.722436 121.181511 
L 799.669589 103.487739 
L 802.616743 126.150958 
L 805.563896 102.671273 
L 808.511049 105.137882 
L 811.458202 118.937987 
L 814.405355 152.210192 
L 817.352509 122.522026 
L 820.299662 127.016262 
L 823.246815 132.228462 
L 826.193968 106.19153 
L 829.141121 107.113115 
L 832.088275 142.221104 
L 835.035428 156.419301 
L 837.982581 117.154426 
L 840.929734 131.159736 
L 843.876887 142.799945 
L 846.824041 121.136623 
L 849.771194 102.435675 
L 852.718347 138.902533 
L 855.485871 -1 
M 855.872841 -1 
L 858.612653 118.990671 
L 861.559807 115.078385 
L 864.50696 138.746262 
L 867.454113 131.733398 
L 870.401266 92.964736 
L 873.348419 142.485171 
L 876.295573 159.751518 
L 879.242726 142.988263 
L 880.133229 217 
M 884.19245 217 
L 885.137032 136.373555 
L 888.084185 125.258068 
L 891.031338 108.959417 
L 893.978492 142.468925 
L 896.925645 151.503955 
L 899.872798 123.153956 
L 900.767039 217 
M 905.012889 217 
L 905.767104 142.902899 
L 908.714258 123.856903 
L 911.661411 95.993228 
L 917.555717 169.260732 
L 920.50287 117.909623 
L 923.450024 113.380561 
L 926.397177 160.082623 
L 929.34433 102.677571 
L 932.291483 79.572578 
L 935.238636 152.65949 
L 935.238636 152.65949 
" style="fill:none;stroke:#64b5cd;stroke-linecap:round;stroke-opacity:0.8;stroke-width:1.5;"/>
   </g>
   <g id="patch_3">
    <path d="M 40.925 180.1 
L 40.925 32.8 
" style="fill:none;stroke:#cccccc;stroke-linecap:square;stroke-linejoin:miter;"/>
   </g>
   <g id="patch_4">
    <path d="M 977.825 180.1 
L 977.825 32.8 
" style="fill:none;stroke:#cccccc;stroke-linecap:square;stroke-linejoin:miter;"/>
   </g>
   <g id="patch_5">
    <path d="M 40.925 180.1 
L 977.825 180.1 
" style="fill:none;stroke:#cccccc;stroke-linecap:square;stroke-linejoin:miter;"/>
   </g>
   <g id="patch_6">
    <path d="M 40.925 32.8 
L 977.825 32.8 
" style="fill:none;stroke:#cccccc;stroke-linecap:square;stroke-linejoin:miter;"/>
   </g>
   <g id="text_16">
    <!-- Feed 5 - P1 All Predictors -->
    <defs>
     <path d="M 40.234375 0 
L 40.234375 6.546875 
Q 35.296875 -1.171875 25.734375 -1.171875 
Q 19.53125 -1.171875 14.328125 2.25 
Q 9.125 5.671875 6.265625 11.796875 
Q 3.421875 17.921875 3.421875 25.875 
Q 3.421875 33.640625 6 39.96875 
Q 8.59375 46.296875 13.765625 49.65625 
Q 18.953125 53.03125 25.34375 53.03125 
Q 30.03125 53.03125 33.6875 51.046875 
Q 37.359375 49.078125 39.65625 45.90625 
L 39.65625 71.578125 
L 48.390625 71.578125 
L 48.390625 0 
z
M 12.453125 25.875 
Q 12.453125 15.921875 16.640625 10.984375 
Q 20.84375 6.0625 26.5625 6.0625 
Q 32.328125 6.0625 36.34375 10.765625 
Q 40.375 15.484375 40.375 25.140625 
Q 40.375 35.796875 36.265625 40.765625 
Q 32.171875 45.75 26.171875 45.75 
Q 20.3125 45.75 16.375 40.96875 
Q 12.453125 36.1875 12.453125 25.875 
z
" id="ArialMT-64"/>
     <path id="ArialMT-20"/>
     <path d="M 3.171875 21.484375 
L 3.171875 30.328125 
L 30.171875 30.328125 
L 30.171875 21.484375 
z
" id="ArialMT-2d"/>
     <path d="M 7.71875 0 
L 7.71875 71.578125 
L 34.71875 71.578125 
Q 41.84375 71.578125 45.609375 70.90625 
Q 50.875 70.015625 54.4375 67.546875 
Q 58.015625 65.09375 60.1875 60.640625 
Q 62.359375 56.203125 62.359375 50.875 
Q 62.359375 41.75 56.546875 35.421875 
Q 50.734375 29.109375 35.546875 29.109375 
L 17.1875 29.109375 
L 17.1875 0 
z
M 17.1875 37.546875 
L 35.6875 37.546875 
Q 44.875 37.546875 48.734375 40.96875 
Q 52.59375 44.390625 52.59375 50.59375 
Q 52.59375 55.078125 50.3125 58.265625 
Q 48.046875 61.46875 44.34375 62.5 
Q 41.9375 63.140625 35.5 63.140625 
L 17.1875 63.140625 
z
" id="ArialMT-50"/>
     <path d="M 6.640625 61.46875 
L 6.640625 71.578125 
L 15.4375 71.578125 
L 15.4375 61.46875 
z
M 6.640625 0 
L 6.640625 51.859375 
L 15.4375 51.859375 
L 15.4375 0 
z
" id="ArialMT-69"/>
     <path d="M 3.078125 15.484375 
L 11.765625 16.84375 
Q 12.5 11.625 15.84375 8.84375 
Q 19.1875 6.0625 25.203125 6.0625 
Q 31.25 6.0625 34.171875 8.515625 
Q 37.109375 10.984375 37.109375 14.3125 
Q 37.109375 17.28125 34.515625 19 
Q 32.71875 20.171875 25.53125 21.96875 
Q 15.875 24.421875 12.140625 26.203125 
Q 8.40625 27.984375 6.46875 31.125 
Q 4.546875 34.28125 4.546875 38.09375 
Q 4.546875 41.546875 6.125 44.5 
Q 7.71875 47.46875 10.453125 49.421875 
Q 12.5 50.921875 16.03125 51.96875 
Q 19.578125 53.03125 23.640625 53.03125 
Q 29.734375 53.03125 34.34375 51.265625 
Q 38.96875 49.515625 41.15625 46.5 
Q 43.359375 43.5 44.1875 38.484375 
L 35.59375 37.3125 
Q 35.015625 41.3125 32.203125 43.546875 
Q 29.390625 45.796875 24.265625 45.796875 
Q 18.21875 45.796875 15.625 43.796875 
Q 13.03125 41.796875 13.03125 39.109375 
Q 13.03125 37.40625 14.109375 36.03125 
Q 15.1875 34.625 17.484375 33.6875 
Q 18.796875 33.203125 25.25 31.453125 
Q 34.578125 28.953125 38.25 27.359375 
Q 41.9375 25.78125 44.03125 22.75 
Q 46.140625 19.734375 46.140625 15.234375 
Q 46.140625 10.84375 43.578125 6.953125 
Q 41.015625 3.078125 36.171875 0.953125 
Q 31.34375 -1.171875 25.25 -1.171875 
Q 15.140625 -1.171875 9.84375 3.03125 
Q 4.546875 7.234375 3.078125 15.484375 
z
" id="ArialMT-73"/>
    </defs>
    <g style="fill:#262626;" transform="translate(384.060938 26.8)scale(0.22 -0.22)">
     <use xlink:href="#ArialMT-46"/>
     <use x="61.083984" xlink:href="#ArialMT-65"/>
     <use x="116.699219" xlink:href="#ArialMT-65"/>
     <use x="172.314453" xlink:href="#ArialMT-64"/>
     <use x="227.929688" xlink:href="#ArialMT-20"/>
     <use x="255.712891" xlink:href="#ArialMT-35"/>
     <use x="311.328125" xlink:href="#ArialMT-20"/>
     <use x="339.111328" xlink:href="#ArialMT-2d"/>
     <use x="372.412109" xlink:href="#ArialMT-20"/>
     <use x="400.195312" xlink:href="#ArialMT-50"/>
     <use x="466.894531" xlink:href="#ArialMT-31"/>
     <use x="522.509766" xlink:href="#ArialMT-20"/>
     <use x="550.214844" xlink:href="#ArialMT-41"/>
     <use x="616.914062" xlink:href="#ArialMT-6c"/>
     <use x="639.130859" xlink:href="#ArialMT-6c"/>
     <use x="661.347656" xlink:href="#ArialMT-20"/>
     <use x="689.130859" xlink:href="#ArialMT-50"/>
     <use x="755.830078" xlink:href="#ArialMT-72"/>
     <use x="789.130859" xlink:href="#ArialMT-65"/>
     <use x="844.746094" xlink:href="#ArialMT-64"/>
     <use x="900.361328" xlink:href="#ArialMT-69"/>
     <use x="922.578125" xlink:href="#ArialMT-63"/>
     <use x="972.578125" xlink:href="#ArialMT-74"/>
     <use x="1000.361328" xlink:href="#ArialMT-6f"/>
     <use x="1055.976562" xlink:href="#ArialMT-72"/>
     <use x="1089.277344" xlink:href="#ArialMT-73"/>
    </g>
   </g>
   <g id="legend_1">
    <g id="line2d_83">
     <path d="M 986.825 70.142187 
L 1006.825 70.142187 
" style="fill:none;stroke:#4c72b0;stroke-linecap:round;stroke-opacity:0.8;stroke-width:1.5;"/>
    </g>
    <g id="line2d_84"/>
    <g id="text_17">
     <!-- predictor_0 -->
     <defs>
      <path d="M -1.515625 -19.875 
L -1.515625 -13.53125 
L 56.734375 -13.53125 
L 56.734375 -19.875 
z
" id="ArialMT-5f"/>
     </defs>
     <g style="fill:#262626;" transform="translate(1014.825 73.642187)scale(0.1 -0.1)">
      <use xlink:href="#ArialMT-70"/>
      <use x="55.615234" xlink:href="#ArialMT-72"/>
      <use x="88.916016" xlink:href="#ArialMT-65"/>
      <use x="144.53125" xlink:href="#ArialMT-64"/>
      <use x="200.146484" xlink:href="#ArialMT-69"/>
      <use x="222.363281" xlink:href="#ArialMT-63"/>
      <use x="272.363281" xlink:href="#ArialMT-74"/>
      <use x="300.146484" xlink:href="#ArialMT-6f"/>
      <use x="355.761719" xlink:href="#ArialMT-72"/>
      <use x="389.0625" xlink:href="#ArialMT-5f"/>
      <use x="444.677734" xlink:href="#ArialMT-30"/>
     </g>
    </g>
    <g id="line2d_85">
     <path d="M 986.825 84.317187 
L 1006.825 84.317187 
" style="fill:none;stroke:#55a868;stroke-linecap:round;stroke-opacity:0.8;stroke-width:1.5;"/>
    </g>
    <g id="line2d_86"/>
    <g id="text_18">
     <!-- predictor_1 -->
     <g style="fill:#262626;" transform="translate(1014.825 87.817187)scale(0.1 -0.1)">
      <use xlink:href="#ArialMT-70"/>
      <use x="55.615234" xlink:href="#ArialMT-72"/>
      <use x="88.916016" xlink:href="#ArialMT-65"/>
      <use x="144.53125" xlink:href="#ArialMT-64"/>
      <use x="200.146484" xlink:href="#ArialMT-69"/>
      <use x="222.363281" xlink:href="#ArialMT-63"/>
      <use x="272.363281" xlink:href="#ArialMT-74"/>
      <use x="300.146484" xlink:href="#ArialMT-6f"/>
      <use x="355.761719" xlink:href="#ArialMT-72"/>
      <use x="389.0625" xlink:href="#ArialMT-5f"/>
      <use x="444.677734" xlink:href="#ArialMT-31"/>
     </g>
    </g>
    <g id="line2d_87">
     <path d="M 986.825 98.492187 
L 1006.825 98.492187 
" style="fill:none;stroke:#c44e52;stroke-linecap:round;stroke-opacity:0.8;stroke-width:1.5;"/>
    </g>
    <g id="line2d_88"/>
    <g id="text_19">
     <!-- predictor_2 -->
     <g style="fill:#262626;" transform="translate(1014.825 101.992187)scale(0.1 -0.1)">
      <use xlink:href="#ArialMT-70"/>
      <use x="55.615234" xlink:href="#ArialMT-72"/>
      <use x="88.916016" xlink:href="#ArialMT-65"/>
      <use x="144.53125" xlink:href="#ArialMT-64"/>
      <use x="200.146484" xlink:href="#ArialMT-69"/>
      <use x="222.363281" xlink:href="#ArialMT-63"/>
      <use x="272.363281" xlink:href="#ArialMT-74"/>
      <use x="300.146484" xlink:href="#ArialMT-6f"/>
      <use x="355.761719" xlink:href="#ArialMT-72"/>
      <use x="389.0625" xlink:href="#ArialMT-5f"/>
      <use x="444.677734" xlink:href="#ArialMT-32"/>
     </g>
    </g>
    <g id="line2d_89">
     <path d="M 986.825 112.667187 
L 1006.825 112.667187 
" style="fill:none;stroke:#8172b2;stroke-linecap:round;stroke-opacity:0.8;stroke-width:1.5;"/>
    </g>
    <g id="line2d_90"/>
    <g id="text_20">
     <!-- predictor_3 -->
     <defs>
      <path d="M 4.203125 18.890625 
L 12.984375 20.0625 
Q 14.5 12.59375 18.140625 9.296875 
Q 21.78125 6 27 6 
Q 33.203125 6 37.46875 10.296875 
Q 41.75 14.59375 41.75 20.953125 
Q 41.75 27 37.796875 30.921875 
Q 33.84375 34.859375 27.734375 34.859375 
Q 25.25 34.859375 21.53125 33.890625 
L 22.515625 41.609375 
Q 23.390625 41.5 23.921875 41.5 
Q 29.546875 41.5 34.03125 44.421875 
Q 38.53125 47.359375 38.53125 53.46875 
Q 38.53125 58.296875 35.25 61.46875 
Q 31.984375 64.65625 26.8125 64.65625 
Q 21.6875 64.65625 18.265625 61.421875 
Q 14.84375 58.203125 13.875 51.765625 
L 5.078125 53.328125 
Q 6.6875 62.15625 12.390625 67.015625 
Q 18.109375 71.875 26.609375 71.875 
Q 32.46875 71.875 37.390625 69.359375 
Q 42.328125 66.84375 44.9375 62.5 
Q 47.5625 58.15625 47.5625 53.265625 
Q 47.5625 48.640625 45.0625 44.828125 
Q 42.578125 41.015625 37.703125 38.765625 
Q 44.046875 37.3125 47.5625 32.6875 
Q 51.078125 28.078125 51.078125 21.140625 
Q 51.078125 11.765625 44.234375 5.25 
Q 37.40625 -1.265625 26.953125 -1.265625 
Q 17.53125 -1.265625 11.296875 4.34375 
Q 5.078125 9.96875 4.203125 18.890625 
z
" id="ArialMT-33"/>
     </defs>
     <g style="fill:#262626;" transform="translate(1014.825 116.167187)scale(0.1 -0.1)">
      <use xlink:href="#ArialMT-70"/>
      <use x="55.615234" xlink:href="#ArialMT-72"/>
      <use x="88.916016" xlink:href="#ArialMT-65"/>
      <use x="144.53125" xlink:href="#ArialMT-64"/>
      <use x="200.146484" xlink:href="#ArialMT-69"/>
      <use x="222.363281" xlink:href="#ArialMT-63"/>
      <use x="272.363281" xlink:href="#ArialMT-74"/>
      <use x="300.146484" xlink:href="#ArialMT-6f"/>
      <use x="355.761719" xlink:href="#ArialMT-72"/>
      <use x="389.0625" xlink:href="#ArialMT-5f"/>
      <use x="444.677734" xlink:href="#ArialMT-33"/>
     </g>
    </g>
    <g id="line2d_91">
     <path d="M 986.825 126.8125 
L 1006.825 126.8125 
" style="fill:none;stroke:#ccb974;stroke-linecap:round;stroke-opacity:0.8;stroke-width:1.5;"/>
    </g>
    <g id="line2d_92"/>
    <g id="text_21">
     <!-- predictor_4 -->
     <defs>
      <path d="M 32.328125 0 
L 32.328125 17.140625 
L 1.265625 17.140625 
L 1.265625 25.203125 
L 33.9375 71.578125 
L 41.109375 71.578125 
L 41.109375 25.203125 
L 50.78125 25.203125 
L 50.78125 17.140625 
L 41.109375 17.140625 
L 41.109375 0 
z
M 32.328125 25.203125 
L 32.328125 57.46875 
L 9.90625 25.203125 
z
" id="ArialMT-34"/>
     </defs>
     <g style="fill:#262626;" transform="translate(1014.825 130.3125)scale(0.1 -0.1)">
      <use xlink:href="#ArialMT-70"/>
      <use x="55.615234" xlink:href="#ArialMT-72"/>
      <use x="88.916016" xlink:href="#ArialMT-65"/>
      <use x="144.53125" xlink:href="#ArialMT-64"/>
      <use x="200.146484" xlink:href="#ArialMT-69"/>
      <use x="222.363281" xlink:href="#ArialMT-63"/>
      <use x="272.363281" xlink:href="#ArialMT-74"/>
      <use x="300.146484" xlink:href="#ArialMT-6f"/>
      <use x="355.761719" xlink:href="#ArialMT-72"/>
      <use x="389.0625" xlink:href="#ArialMT-5f"/>
      <use x="444.677734" xlink:href="#ArialMT-34"/>
     </g>
    </g>
    <g id="line2d_93">
     <path d="M 986.825 140.957812 
L 1006.825 140.957812 
" style="fill:none;stroke:#64b5cd;stroke-linecap:round;stroke-opacity:0.8;stroke-width:1.5;"/>
    </g>
    <g id="line2d_94"/>
    <g id="text_22">
     <!-- predictor_5 -->
     <g style="fill:#262626;" transform="translate(1014.825 144.457812)scale(0.1 -0.1)">
      <use xlink:href="#ArialMT-70"/>
      <use x="55.615234" xlink:href="#ArialMT-72"/>
      <use x="88.916016" xlink:href="#ArialMT-65"/>
      <use x="144.53125" xlink:href="#ArialMT-64"/>
      <use x="200.146484" xlink:href="#ArialMT-69"/>
      <use x="222.363281" xlink:href="#ArialMT-63"/>
      <use x="272.363281" xlink:href="#ArialMT-74"/>
      <use x="300.146484" xlink:href="#ArialMT-6f"/>
      <use x="355.761719" xlink:href="#ArialMT-72"/>
      <use x="389.0625" xlink:href="#ArialMT-5f"/>
      <use x="444.677734" xlink:href="#ArialMT-35"/>
     </g>
    </g>
   </g>
  </g>
 </g>
 <defs>
  <clipPath id="p3a23f7ee02">
   <rect height="147.3" width="936.9" x="40.925" y="32.8"/>
  </clipPath>
 </defs>
</svg>
