<?xml version="1.0" encoding="utf-8" standalone="no"?>
<!DOCTYPE svg PUBLIC "-//W3C//DTD SVG 1.1//EN"
  "http://www.w3.org/Graphics/SVG/1.1/DTD/svg11.dtd">
<!-- Created with matplotlib (http://matplotlib.org/) -->
<svg height="216pt" version="1.1" viewBox="0 0 1080 216" width="1080pt" xmlns="http://www.w3.org/2000/svg" xmlns:xlink="http://www.w3.org/1999/xlink">
 <defs>
  <style type="text/css">
*{stroke-linecap:butt;stroke-linejoin:round;}
  </style>
 </defs>
 <g id="figure_1">
  <g id="patch_1">
   <path d="M 0 216 
L 1080 216 
L 1080 0 
L 0 0 
z
" style="fill:none;"/>
  </g>
  <g id="axes_1">
   <g id="patch_2">
    <path d="M 41.425 180.1 
L 960 180.1 
L 960 32.8 
L 41.425 32.8 
z
" style="fill:#ffffff;"/>
   </g>
   <g id="matplotlib.axis_1">
    <g id="xtick_1">
     <g id="line2d_1">
      <path clip-path="url(#p8816c6001b)" d="M 129.410558 180.1 
L 129.410558 32.8 
" style="fill:none;stroke:#cccccc;stroke-linecap:round;stroke-width:0.8;"/>
     </g>
     <g id="line2d_2"/>
     <g id="text_1">
      <!-- Feb -->
      <defs>
       <path d="M 8.203125 0 
L 8.203125 71.578125 
L 56.5 71.578125 
L 56.5 63.140625 
L 17.671875 63.140625 
L 17.671875 40.96875 
L 51.265625 40.96875 
L 51.265625 32.515625 
L 17.671875 32.515625 
L 17.671875 0 
z
" id="ArialMT-46"/>
       <path d="M 42.09375 16.703125 
L 51.171875 15.578125 
Q 49.03125 7.625 43.21875 3.21875 
Q 37.40625 -1.171875 28.375 -1.171875 
Q 17 -1.171875 10.328125 5.828125 
Q 3.65625 12.84375 3.65625 25.484375 
Q 3.65625 38.578125 10.390625 45.796875 
Q 17.140625 53.03125 27.875 53.03125 
Q 38.28125 53.03125 44.875 45.953125 
Q 51.46875 38.875 51.46875 26.03125 
Q 51.46875 25.25 51.421875 23.6875 
L 12.75 23.6875 
Q 13.234375 15.140625 17.578125 10.59375 
Q 21.921875 6.0625 28.421875 6.0625 
Q 33.25 6.0625 36.671875 8.59375 
Q 40.09375 11.140625 42.09375 16.703125 
z
M 13.234375 30.90625 
L 42.1875 30.90625 
Q 41.609375 37.453125 38.875 40.71875 
Q 34.671875 45.796875 27.984375 45.796875 
Q 21.921875 45.796875 17.796875 41.75 
Q 13.671875 37.703125 13.234375 30.90625 
z
" id="ArialMT-65"/>
       <path d="M 14.703125 0 
L 6.546875 0 
L 6.546875 71.578125 
L 15.328125 71.578125 
L 15.328125 46.046875 
Q 20.90625 53.03125 29.546875 53.03125 
Q 34.328125 53.03125 38.59375 51.09375 
Q 42.875 49.171875 45.625 45.671875 
Q 48.390625 42.1875 49.953125 37.25 
Q 51.515625 32.328125 51.515625 26.703125 
Q 51.515625 13.375 44.921875 6.09375 
Q 38.328125 -1.171875 29.109375 -1.171875 
Q 19.921875 -1.171875 14.703125 6.5 
z
M 14.59375 26.3125 
Q 14.59375 17 17.140625 12.84375 
Q 21.296875 6.0625 28.375 6.0625 
Q 34.125 6.0625 38.328125 11.0625 
Q 42.53125 16.0625 42.53125 25.984375 
Q 42.53125 36.140625 38.5 40.96875 
Q 34.46875 45.796875 28.765625 45.796875 
Q 23 45.796875 18.796875 40.796875 
Q 14.59375 35.796875 14.59375 26.3125 
z
" id="ArialMT-62"/>
      </defs>
      <g style="fill:#262626;" transform="translate(119.072745 192.189375)scale(0.12 -0.12)">
       <use xlink:href="#ArialMT-46"/>
       <use x="61.083984" xlink:href="#ArialMT-65"/>
       <use x="116.699219" xlink:href="#ArialMT-62"/>
      </g>
      <!-- 2016 -->
      <defs>
       <path d="M 50.34375 8.453125 
L 50.34375 0 
L 3.03125 0 
Q 2.9375 3.171875 4.046875 6.109375 
Q 5.859375 10.9375 9.828125 15.625 
Q 13.8125 20.3125 21.34375 26.46875 
Q 33.015625 36.03125 37.109375 41.625 
Q 41.21875 47.21875 41.21875 52.203125 
Q 41.21875 57.421875 37.46875 61 
Q 33.734375 64.59375 27.734375 64.59375 
Q 21.390625 64.59375 17.578125 60.78125 
Q 13.765625 56.984375 13.71875 50.25 
L 4.6875 51.171875 
Q 5.609375 61.28125 11.65625 66.578125 
Q 17.71875 71.875 27.9375 71.875 
Q 38.234375 71.875 44.234375 66.15625 
Q 50.25 60.453125 50.25 52 
Q 50.25 47.703125 48.484375 43.546875 
Q 46.734375 39.40625 42.65625 34.8125 
Q 38.578125 30.21875 29.109375 22.21875 
Q 21.1875 15.578125 18.9375 13.203125 
Q 16.703125 10.84375 15.234375 8.453125 
z
" id="ArialMT-32"/>
       <path d="M 4.15625 35.296875 
Q 4.15625 48 6.765625 55.734375 
Q 9.375 63.484375 14.515625 67.671875 
Q 19.671875 71.875 27.484375 71.875 
Q 33.25 71.875 37.59375 69.546875 
Q 41.9375 67.234375 44.765625 62.859375 
Q 47.609375 58.5 49.21875 52.21875 
Q 50.828125 45.953125 50.828125 35.296875 
Q 50.828125 22.703125 48.234375 14.96875 
Q 45.65625 7.234375 40.5 3 
Q 35.359375 -1.21875 27.484375 -1.21875 
Q 17.140625 -1.21875 11.234375 6.203125 
Q 4.15625 15.140625 4.15625 35.296875 
z
M 13.1875 35.296875 
Q 13.1875 17.671875 17.3125 11.828125 
Q 21.4375 6 27.484375 6 
Q 33.546875 6 37.671875 11.859375 
Q 41.796875 17.71875 41.796875 35.296875 
Q 41.796875 52.984375 37.671875 58.78125 
Q 33.546875 64.59375 27.390625 64.59375 
Q 21.34375 64.59375 17.71875 59.46875 
Q 13.1875 52.9375 13.1875 35.296875 
z
" id="ArialMT-30"/>
       <path d="M 37.25 0 
L 28.46875 0 
L 28.46875 56 
Q 25.296875 52.984375 20.140625 49.953125 
Q 14.984375 46.921875 10.890625 45.40625 
L 10.890625 53.90625 
Q 18.265625 57.375 23.78125 62.296875 
Q 29.296875 67.234375 31.59375 71.875 
L 37.25 71.875 
z
" id="ArialMT-31"/>
       <path d="M 49.75 54.046875 
L 41.015625 53.375 
Q 39.84375 58.546875 37.703125 60.890625 
Q 34.125 64.65625 28.90625 64.65625 
Q 24.703125 64.65625 21.53125 62.3125 
Q 17.390625 59.28125 14.984375 53.46875 
Q 12.59375 47.65625 12.5 36.921875 
Q 15.671875 41.75 20.265625 44.09375 
Q 24.859375 46.4375 29.890625 46.4375 
Q 38.671875 46.4375 44.84375 39.96875 
Q 51.03125 33.5 51.03125 23.25 
Q 51.03125 16.5 48.125 10.71875 
Q 45.21875 4.9375 40.140625 1.859375 
Q 35.0625 -1.21875 28.609375 -1.21875 
Q 17.625 -1.21875 10.6875 6.859375 
Q 3.765625 14.9375 3.765625 33.5 
Q 3.765625 54.25 11.421875 63.671875 
Q 18.109375 71.875 29.4375 71.875 
Q 37.890625 71.875 43.28125 67.140625 
Q 48.6875 62.40625 49.75 54.046875 
z
M 13.875 23.1875 
Q 13.875 18.65625 15.796875 14.5 
Q 17.71875 10.359375 21.1875 8.171875 
Q 24.65625 6 28.46875 6 
Q 34.03125 6 38.03125 10.484375 
Q 42.046875 14.984375 42.046875 22.703125 
Q 42.046875 30.125 38.078125 34.390625 
Q 34.125 38.671875 28.125 38.671875 
Q 22.171875 38.671875 18.015625 34.390625 
Q 13.875 30.125 13.875 23.1875 
z
" id="ArialMT-36"/>
      </defs>
      <g style="fill:#262626;" transform="translate(116.064308 204.881625)scale(0.12 -0.12)">
       <use xlink:href="#ArialMT-32"/>
       <use x="55.615234" xlink:href="#ArialMT-30"/>
       <use x="111.230469" xlink:href="#ArialMT-31"/>
       <use x="166.845703" xlink:href="#ArialMT-36"/>
      </g>
     </g>
    </g>
    <g id="xtick_2">
     <g id="line2d_3">
      <path clip-path="url(#p8816c6001b)" d="M 213.206327 180.1 
L 213.206327 32.8 
" style="fill:none;stroke:#cccccc;stroke-linecap:round;stroke-width:0.8;"/>
     </g>
     <g id="line2d_4"/>
     <g id="text_2">
      <!-- Mar -->
      <defs>
       <path d="M 7.421875 0 
L 7.421875 71.578125 
L 21.6875 71.578125 
L 38.625 20.90625 
Q 40.96875 13.8125 42.046875 10.296875 
Q 43.265625 14.203125 45.84375 21.78125 
L 62.984375 71.578125 
L 75.734375 71.578125 
L 75.734375 0 
L 66.609375 0 
L 66.609375 59.90625 
L 45.796875 0 
L 37.25 0 
L 16.546875 60.9375 
L 16.546875 0 
z
" id="ArialMT-4d"/>
       <path d="M 40.4375 6.390625 
Q 35.546875 2.25 31.03125 0.53125 
Q 26.515625 -1.171875 21.34375 -1.171875 
Q 12.796875 -1.171875 8.203125 3 
Q 3.609375 7.171875 3.609375 13.671875 
Q 3.609375 17.484375 5.34375 20.625 
Q 7.078125 23.78125 9.890625 25.6875 
Q 12.703125 27.59375 16.21875 28.5625 
Q 18.796875 29.25 24.03125 29.890625 
Q 34.671875 31.15625 39.703125 32.90625 
Q 39.75 34.71875 39.75 35.203125 
Q 39.75 40.578125 37.25 42.78125 
Q 33.890625 45.75 27.25 45.75 
Q 21.046875 45.75 18.09375 43.578125 
Q 15.140625 41.40625 13.71875 35.890625 
L 5.125 37.0625 
Q 6.296875 42.578125 8.984375 45.96875 
Q 11.671875 49.359375 16.75 51.1875 
Q 21.828125 53.03125 28.515625 53.03125 
Q 35.15625 53.03125 39.296875 51.46875 
Q 43.453125 49.90625 45.40625 47.53125 
Q 47.359375 45.171875 48.140625 41.546875 
Q 48.578125 39.3125 48.578125 33.453125 
L 48.578125 21.734375 
Q 48.578125 9.46875 49.140625 6.21875 
Q 49.703125 2.984375 51.375 0 
L 42.1875 0 
Q 40.828125 2.734375 40.4375 6.390625 
z
M 39.703125 26.03125 
Q 34.90625 24.078125 25.34375 22.703125 
Q 19.921875 21.921875 17.671875 20.9375 
Q 15.4375 19.96875 14.203125 18.09375 
Q 12.984375 16.21875 12.984375 13.921875 
Q 12.984375 10.40625 15.640625 8.0625 
Q 18.3125 5.71875 23.4375 5.71875 
Q 28.515625 5.71875 32.46875 7.9375 
Q 36.421875 10.15625 38.28125 14.015625 
Q 39.703125 17 39.703125 22.796875 
z
" id="ArialMT-61"/>
       <path d="M 6.5 0 
L 6.5 51.859375 
L 14.40625 51.859375 
L 14.40625 44 
Q 17.4375 49.515625 20 51.265625 
Q 22.5625 53.03125 25.640625 53.03125 
Q 30.078125 53.03125 34.671875 50.203125 
L 31.640625 42.046875 
Q 28.421875 43.953125 25.203125 43.953125 
Q 22.3125 43.953125 20.015625 42.21875 
Q 17.71875 40.484375 16.75 37.40625 
Q 15.28125 32.71875 15.28125 27.15625 
L 15.28125 0 
z
" id="ArialMT-72"/>
      </defs>
      <g style="fill:#262626;" transform="translate(202.874139 192.189375)scale(0.12 -0.12)">
       <use xlink:href="#ArialMT-4d"/>
       <use x="83.300781" xlink:href="#ArialMT-61"/>
       <use x="138.916016" xlink:href="#ArialMT-72"/>
      </g>
     </g>
    </g>
    <g id="xtick_3">
     <g id="line2d_5">
      <path clip-path="url(#p8816c6001b)" d="M 302.781114 180.1 
L 302.781114 32.8 
" style="fill:none;stroke:#cccccc;stroke-linecap:round;stroke-width:0.8;"/>
     </g>
     <g id="line2d_6"/>
     <g id="text_3">
      <!-- Apr -->
      <defs>
       <path d="M -0.140625 0 
L 27.34375 71.578125 
L 37.546875 71.578125 
L 66.84375 0 
L 56.0625 0 
L 47.703125 21.6875 
L 17.78125 21.6875 
L 9.90625 0 
z
M 20.515625 29.390625 
L 44.78125 29.390625 
L 37.3125 49.21875 
Q 33.890625 58.25 32.234375 64.0625 
Q 30.859375 57.171875 28.375 50.390625 
z
" id="ArialMT-41"/>
       <path d="M 6.59375 -19.875 
L 6.59375 51.859375 
L 14.59375 51.859375 
L 14.59375 45.125 
Q 17.4375 49.078125 21 51.046875 
Q 24.5625 53.03125 29.640625 53.03125 
Q 36.28125 53.03125 41.359375 49.609375 
Q 46.4375 46.1875 49.015625 39.953125 
Q 51.609375 33.734375 51.609375 26.3125 
Q 51.609375 18.359375 48.75 11.984375 
Q 45.90625 5.609375 40.453125 2.21875 
Q 35.015625 -1.171875 29 -1.171875 
Q 24.609375 -1.171875 21.109375 0.6875 
Q 17.625 2.546875 15.375 5.375 
L 15.375 -19.875 
z
M 14.546875 25.640625 
Q 14.546875 15.625 18.59375 10.84375 
Q 22.65625 6.0625 28.421875 6.0625 
Q 34.28125 6.0625 38.453125 11.015625 
Q 42.625 15.96875 42.625 26.375 
Q 42.625 36.28125 38.546875 41.203125 
Q 34.46875 46.140625 28.8125 46.140625 
Q 23.1875 46.140625 18.859375 40.890625 
Q 14.546875 35.640625 14.546875 25.640625 
z
" id="ArialMT-70"/>
      </defs>
      <g style="fill:#262626;" transform="translate(293.444552 192.189375)scale(0.12 -0.12)">
       <use xlink:href="#ArialMT-41"/>
       <use x="66.699219" xlink:href="#ArialMT-70"/>
       <use x="122.314453" xlink:href="#ArialMT-72"/>
      </g>
     </g>
    </g>
    <g id="xtick_4">
     <g id="line2d_7">
      <path clip-path="url(#p8816c6001b)" d="M 389.466393 180.1 
L 389.466393 32.8 
" style="fill:none;stroke:#cccccc;stroke-linecap:round;stroke-width:0.8;"/>
     </g>
     <g id="line2d_8"/>
     <g id="text_4">
      <!-- May -->
      <defs>
       <path d="M 6.203125 -19.96875 
L 5.21875 -11.71875 
Q 8.109375 -12.5 10.25 -12.5 
Q 13.1875 -12.5 14.9375 -11.515625 
Q 16.703125 -10.546875 17.828125 -8.796875 
Q 18.65625 -7.46875 20.515625 -2.25 
Q 20.75 -1.515625 21.296875 -0.09375 
L 1.609375 51.859375 
L 11.078125 51.859375 
L 21.875 21.828125 
Q 23.96875 16.109375 25.640625 9.8125 
Q 27.15625 15.875 29.25 21.625 
L 40.328125 51.859375 
L 49.125 51.859375 
L 29.390625 -0.875 
Q 26.21875 -9.421875 24.46875 -12.640625 
Q 22.125 -17 19.09375 -19.015625 
Q 16.0625 -21.046875 11.859375 -21.046875 
Q 9.328125 -21.046875 6.203125 -19.96875 
z
" id="ArialMT-79"/>
      </defs>
      <g style="fill:#262626;" transform="translate(378.132018 192.189375)scale(0.12 -0.12)">
       <use xlink:href="#ArialMT-4d"/>
       <use x="83.300781" xlink:href="#ArialMT-61"/>
       <use x="138.916016" xlink:href="#ArialMT-79"/>
      </g>
     </g>
    </g>
    <g id="xtick_5">
     <g id="line2d_9">
      <path clip-path="url(#p8816c6001b)" d="M 479.04118 180.1 
L 479.04118 32.8 
" style="fill:none;stroke:#cccccc;stroke-linecap:round;stroke-width:0.8;"/>
     </g>
     <g id="line2d_10"/>
     <g id="text_5">
      <!-- Jun -->
      <defs>
       <path d="M 2.875 20.3125 
L 11.421875 21.484375 
Q 11.765625 13.28125 14.5 10.25 
Q 17.234375 7.234375 22.078125 7.234375 
Q 25.640625 7.234375 28.21875 8.859375 
Q 30.8125 10.5 31.78125 13.296875 
Q 32.765625 16.109375 32.765625 22.265625 
L 32.765625 71.578125 
L 42.234375 71.578125 
L 42.234375 22.796875 
Q 42.234375 13.8125 40.0625 8.875 
Q 37.890625 3.953125 33.171875 1.359375 
Q 28.46875 -1.21875 22.125 -1.21875 
Q 12.703125 -1.21875 7.6875 4.203125 
Q 2.6875 9.625 2.875 20.3125 
z
" id="ArialMT-4a"/>
       <path d="M 40.578125 0 
L 40.578125 7.625 
Q 34.515625 -1.171875 24.125 -1.171875 
Q 19.53125 -1.171875 15.546875 0.578125 
Q 11.578125 2.34375 9.640625 5 
Q 7.71875 7.671875 6.9375 11.53125 
Q 6.390625 14.109375 6.390625 19.734375 
L 6.390625 51.859375 
L 15.1875 51.859375 
L 15.1875 23.09375 
Q 15.1875 16.21875 15.71875 13.8125 
Q 16.546875 10.359375 19.234375 8.375 
Q 21.921875 6.390625 25.875 6.390625 
Q 29.828125 6.390625 33.296875 8.421875 
Q 36.765625 10.453125 38.203125 13.9375 
Q 39.65625 17.4375 39.65625 24.078125 
L 39.65625 51.859375 
L 48.4375 51.859375 
L 48.4375 0 
z
" id="ArialMT-75"/>
       <path d="M 6.59375 0 
L 6.59375 51.859375 
L 14.5 51.859375 
L 14.5 44.484375 
Q 20.21875 53.03125 31 53.03125 
Q 35.6875 53.03125 39.625 51.34375 
Q 43.5625 49.65625 45.515625 46.921875 
Q 47.46875 44.1875 48.25 40.4375 
Q 48.734375 37.984375 48.734375 31.890625 
L 48.734375 0 
L 39.9375 0 
L 39.9375 31.546875 
Q 39.9375 36.921875 38.90625 39.578125 
Q 37.890625 42.234375 35.28125 43.8125 
Q 32.671875 45.40625 29.15625 45.40625 
Q 23.53125 45.40625 19.453125 41.84375 
Q 15.375 38.28125 15.375 28.328125 
L 15.375 0 
z
" id="ArialMT-6e"/>
      </defs>
      <g style="fill:#262626;" transform="translate(469.368055 192.189375)scale(0.12 -0.12)">
       <use xlink:href="#ArialMT-4a"/>
       <use x="50" xlink:href="#ArialMT-75"/>
       <use x="105.615234" xlink:href="#ArialMT-6e"/>
      </g>
     </g>
    </g>
    <g id="xtick_6">
     <g id="line2d_11">
      <path clip-path="url(#p8816c6001b)" d="M 565.726459 180.1 
L 565.726459 32.8 
" style="fill:none;stroke:#cccccc;stroke-linecap:round;stroke-width:0.8;"/>
     </g>
     <g id="line2d_12"/>
     <g id="text_6">
      <!-- Jul -->
      <defs>
       <path d="M 6.390625 0 
L 6.390625 71.578125 
L 15.1875 71.578125 
L 15.1875 0 
z
" id="ArialMT-6c"/>
      </defs>
      <g style="fill:#262626;" transform="translate(558.056771 192.189375)scale(0.12 -0.12)">
       <use xlink:href="#ArialMT-4a"/>
       <use x="50" xlink:href="#ArialMT-75"/>
       <use x="105.615234" xlink:href="#ArialMT-6c"/>
      </g>
     </g>
    </g>
    <g id="xtick_7">
     <g id="line2d_13">
      <path clip-path="url(#p8816c6001b)" d="M 655.301246 180.1 
L 655.301246 32.8 
" style="fill:none;stroke:#cccccc;stroke-linecap:round;stroke-width:0.8;"/>
     </g>
     <g id="line2d_14"/>
     <g id="text_7">
      <!-- Aug -->
      <defs>
       <path d="M 4.984375 -4.296875 
L 13.53125 -5.5625 
Q 14.0625 -9.515625 16.5 -11.328125 
Q 19.78125 -13.765625 25.4375 -13.765625 
Q 31.546875 -13.765625 34.859375 -11.328125 
Q 38.1875 -8.890625 39.359375 -4.5 
Q 40.046875 -1.8125 39.984375 6.78125 
Q 34.234375 0 25.640625 0 
Q 14.9375 0 9.078125 7.71875 
Q 3.21875 15.4375 3.21875 26.21875 
Q 3.21875 33.640625 5.90625 39.90625 
Q 8.59375 46.1875 13.6875 49.609375 
Q 18.796875 53.03125 25.6875 53.03125 
Q 34.859375 53.03125 40.828125 45.609375 
L 40.828125 51.859375 
L 48.921875 51.859375 
L 48.921875 7.03125 
Q 48.921875 -5.078125 46.453125 -10.125 
Q 44 -15.1875 38.640625 -18.109375 
Q 33.296875 -21.046875 25.484375 -21.046875 
Q 16.21875 -21.046875 10.5 -16.875 
Q 4.78125 -12.703125 4.984375 -4.296875 
z
M 12.25 26.859375 
Q 12.25 16.65625 16.296875 11.96875 
Q 20.359375 7.28125 26.46875 7.28125 
Q 32.515625 7.28125 36.609375 11.9375 
Q 40.71875 16.609375 40.71875 26.5625 
Q 40.71875 36.078125 36.5 40.90625 
Q 32.28125 45.75 26.3125 45.75 
Q 20.453125 45.75 16.34375 40.984375 
Q 12.25 36.234375 12.25 26.859375 
z
" id="ArialMT-67"/>
      </defs>
      <g style="fill:#262626;" transform="translate(644.625934 192.189375)scale(0.12 -0.12)">
       <use xlink:href="#ArialMT-41"/>
       <use x="66.699219" xlink:href="#ArialMT-75"/>
       <use x="122.314453" xlink:href="#ArialMT-67"/>
      </g>
     </g>
    </g>
    <g id="xtick_8">
     <g id="line2d_15">
      <path clip-path="url(#p8816c6001b)" d="M 744.876034 180.1 
L 744.876034 32.8 
" style="fill:none;stroke:#cccccc;stroke-linecap:round;stroke-width:0.8;"/>
     </g>
     <g id="line2d_16"/>
     <g id="text_8">
      <!-- Sep -->
      <defs>
       <path d="M 4.5 23 
L 13.421875 23.78125 
Q 14.0625 18.40625 16.375 14.96875 
Q 18.703125 11.53125 23.578125 9.40625 
Q 28.46875 7.28125 34.578125 7.28125 
Q 39.984375 7.28125 44.140625 8.890625 
Q 48.296875 10.5 50.3125 13.296875 
Q 52.34375 16.109375 52.34375 19.4375 
Q 52.34375 22.796875 50.390625 25.3125 
Q 48.4375 27.828125 43.953125 29.546875 
Q 41.0625 30.671875 31.203125 33.03125 
Q 21.34375 35.40625 17.390625 37.5 
Q 12.25 40.1875 9.734375 44.15625 
Q 7.234375 48.140625 7.234375 53.078125 
Q 7.234375 58.5 10.296875 63.203125 
Q 13.375 67.921875 19.28125 70.359375 
Q 25.203125 72.796875 32.421875 72.796875 
Q 40.375 72.796875 46.453125 70.234375 
Q 52.546875 67.671875 55.8125 62.6875 
Q 59.078125 57.71875 59.328125 51.421875 
L 50.25 50.734375 
Q 49.515625 57.515625 45.28125 60.984375 
Q 41.0625 64.453125 32.8125 64.453125 
Q 24.21875 64.453125 20.28125 61.296875 
Q 16.359375 58.15625 16.359375 53.71875 
Q 16.359375 49.859375 19.140625 47.359375 
Q 21.875 44.875 33.421875 42.265625 
Q 44.96875 39.65625 49.265625 37.703125 
Q 55.515625 34.8125 58.484375 30.390625 
Q 61.46875 25.984375 61.46875 20.21875 
Q 61.46875 14.5 58.203125 9.4375 
Q 54.9375 4.390625 48.796875 1.578125 
Q 42.671875 -1.21875 35.015625 -1.21875 
Q 25.296875 -1.21875 18.71875 1.609375 
Q 12.15625 4.4375 8.421875 10.125 
Q 4.6875 15.828125 4.5 23 
z
" id="ArialMT-53"/>
      </defs>
      <g style="fill:#262626;" transform="translate(734.200722 192.335625)scale(0.12 -0.12)">
       <use xlink:href="#ArialMT-53"/>
       <use x="66.699219" xlink:href="#ArialMT-65"/>
       <use x="122.314453" xlink:href="#ArialMT-70"/>
      </g>
     </g>
    </g>
    <g id="xtick_9">
     <g id="line2d_17">
      <path clip-path="url(#p8816c6001b)" d="M 831.561313 180.1 
L 831.561313 32.8 
" style="fill:none;stroke:#cccccc;stroke-linecap:round;stroke-width:0.8;"/>
     </g>
     <g id="line2d_18"/>
     <g id="text_9">
      <!-- Oct -->
      <defs>
       <path d="M 4.828125 34.859375 
Q 4.828125 52.6875 14.390625 62.765625 
Q 23.96875 72.859375 39.109375 72.859375 
Q 49.03125 72.859375 56.984375 68.109375 
Q 64.9375 63.375 69.109375 54.90625 
Q 73.296875 46.4375 73.296875 35.6875 
Q 73.296875 24.8125 68.890625 16.21875 
Q 64.5 7.625 56.4375 3.203125 
Q 48.390625 -1.21875 39.0625 -1.21875 
Q 28.953125 -1.21875 20.984375 3.65625 
Q 13.03125 8.546875 8.921875 16.984375 
Q 4.828125 25.4375 4.828125 34.859375 
z
M 14.59375 34.71875 
Q 14.59375 21.78125 21.546875 14.328125 
Q 28.515625 6.890625 39.015625 6.890625 
Q 49.703125 6.890625 56.609375 14.40625 
Q 63.53125 21.921875 63.53125 35.75 
Q 63.53125 44.484375 60.578125 51 
Q 57.625 57.515625 51.921875 61.109375 
Q 46.234375 64.703125 39.15625 64.703125 
Q 29.109375 64.703125 21.84375 57.78125 
Q 14.59375 50.875 14.59375 34.71875 
z
" id="ArialMT-4f"/>
       <path d="M 40.4375 19 
L 49.078125 17.875 
Q 47.65625 8.9375 41.8125 3.875 
Q 35.984375 -1.171875 27.484375 -1.171875 
Q 16.84375 -1.171875 10.375 5.78125 
Q 3.90625 12.75 3.90625 25.734375 
Q 3.90625 34.125 6.6875 40.421875 
Q 9.46875 46.734375 15.15625 49.875 
Q 20.84375 53.03125 27.546875 53.03125 
Q 35.984375 53.03125 41.359375 48.75 
Q 46.734375 44.484375 48.25 36.625 
L 39.703125 35.296875 
Q 38.484375 40.53125 35.375 43.15625 
Q 32.28125 45.796875 27.875 45.796875 
Q 21.234375 45.796875 17.078125 41.03125 
Q 12.9375 36.28125 12.9375 25.984375 
Q 12.9375 15.53125 16.9375 10.796875 
Q 20.953125 6.0625 27.390625 6.0625 
Q 32.5625 6.0625 36.03125 9.234375 
Q 39.5 12.40625 40.4375 19 
z
" id="ArialMT-63"/>
       <path d="M 25.78125 7.859375 
L 27.046875 0.09375 
Q 23.34375 -0.6875 20.40625 -0.6875 
Q 15.625 -0.6875 12.984375 0.828125 
Q 10.359375 2.34375 9.28125 4.8125 
Q 8.203125 7.28125 8.203125 15.1875 
L 8.203125 45.015625 
L 1.765625 45.015625 
L 1.765625 51.859375 
L 8.203125 51.859375 
L 8.203125 64.703125 
L 16.9375 69.96875 
L 16.9375 51.859375 
L 25.78125 51.859375 
L 25.78125 45.015625 
L 16.9375 45.015625 
L 16.9375 14.703125 
Q 16.9375 10.9375 17.40625 9.859375 
Q 17.875 8.796875 18.921875 8.15625 
Q 19.96875 7.515625 21.921875 7.515625 
Q 23.390625 7.515625 25.78125 7.859375 
z
" id="ArialMT-74"/>
      </defs>
      <g style="fill:#262626;" transform="translate(822.227563 192.189375)scale(0.12 -0.12)">
       <use xlink:href="#ArialMT-4f"/>
       <use x="77.783203" xlink:href="#ArialMT-63"/>
       <use x="127.783203" xlink:href="#ArialMT-74"/>
      </g>
     </g>
    </g>
    <g id="xtick_10">
     <g id="line2d_19">
      <path clip-path="url(#p8816c6001b)" d="M 921.1361 180.1 
L 921.1361 32.8 
" style="fill:none;stroke:#cccccc;stroke-linecap:round;stroke-width:0.8;"/>
     </g>
     <g id="line2d_20"/>
     <g id="text_10">
      <!-- Nov -->
      <defs>
       <path d="M 7.625 0 
L 7.625 71.578125 
L 17.328125 71.578125 
L 54.9375 15.375 
L 54.9375 71.578125 
L 64.015625 71.578125 
L 64.015625 0 
L 54.296875 0 
L 16.703125 56.25 
L 16.703125 0 
z
" id="ArialMT-4e"/>
       <path d="M 3.328125 25.921875 
Q 3.328125 40.328125 11.328125 47.265625 
Q 18.015625 53.03125 27.640625 53.03125 
Q 38.328125 53.03125 45.109375 46.015625 
Q 51.90625 39.015625 51.90625 26.65625 
Q 51.90625 16.65625 48.90625 10.90625 
Q 45.90625 5.171875 40.15625 2 
Q 34.421875 -1.171875 27.640625 -1.171875 
Q 16.75 -1.171875 10.03125 5.8125 
Q 3.328125 12.796875 3.328125 25.921875 
z
M 12.359375 25.921875 
Q 12.359375 15.96875 16.703125 11.015625 
Q 21.046875 6.0625 27.640625 6.0625 
Q 34.1875 6.0625 38.53125 11.03125 
Q 42.875 16.015625 42.875 26.21875 
Q 42.875 35.84375 38.5 40.796875 
Q 34.125 45.75 27.640625 45.75 
Q 21.046875 45.75 16.703125 40.8125 
Q 12.359375 35.890625 12.359375 25.921875 
z
" id="ArialMT-6f"/>
       <path d="M 21 0 
L 1.265625 51.859375 
L 10.546875 51.859375 
L 21.6875 20.796875 
Q 23.484375 15.765625 25 10.359375 
Q 26.171875 14.453125 28.265625 20.21875 
L 39.796875 51.859375 
L 48.828125 51.859375 
L 29.203125 0 
z
" id="ArialMT-76"/>
      </defs>
      <g style="fill:#262626;" transform="translate(910.466413 192.189375)scale(0.12 -0.12)">
       <use xlink:href="#ArialMT-4e"/>
       <use x="72.216797" xlink:href="#ArialMT-6f"/>
       <use x="127.832031" xlink:href="#ArialMT-76"/>
      </g>
     </g>
    </g>
    <g id="xtick_11">
     <g id="line2d_21">
      <path clip-path="url(#p8816c6001b)" d="M 958.699721 180.1 
L 958.699721 32.8 
" style="fill:none;stroke:#cccccc;stroke-linecap:round;stroke-width:0.8;"/>
     </g>
     <g id="line2d_22"/>
    </g>
    <g id="xtick_12">
     <g id="line2d_23"/>
    </g>
    <g id="xtick_13">
     <g id="line2d_24"/>
    </g>
    <g id="xtick_14">
     <g id="line2d_25"/>
    </g>
    <g id="xtick_15">
     <g id="line2d_26"/>
    </g>
    <g id="xtick_16">
     <g id="line2d_27"/>
    </g>
    <g id="xtick_17">
     <g id="line2d_28"/>
    </g>
    <g id="xtick_18">
     <g id="line2d_29"/>
    </g>
    <g id="xtick_19">
     <g id="line2d_30"/>
    </g>
    <g id="xtick_20">
     <g id="line2d_31"/>
    </g>
    <g id="xtick_21">
     <g id="line2d_32"/>
    </g>
    <g id="xtick_22">
     <g id="line2d_33"/>
    </g>
    <g id="xtick_23">
     <g id="line2d_34"/>
    </g>
    <g id="xtick_24">
     <g id="line2d_35"/>
    </g>
    <g id="xtick_25">
     <g id="line2d_36"/>
    </g>
    <g id="xtick_26">
     <g id="line2d_37"/>
    </g>
    <g id="xtick_27">
     <g id="line2d_38"/>
    </g>
    <g id="xtick_28">
     <g id="line2d_39"/>
    </g>
    <g id="xtick_29">
     <g id="line2d_40"/>
    </g>
    <g id="xtick_30">
     <g id="line2d_41"/>
    </g>
    <g id="xtick_31">
     <g id="line2d_42"/>
    </g>
    <g id="xtick_32">
     <g id="line2d_43"/>
    </g>
    <g id="xtick_33">
     <g id="line2d_44"/>
    </g>
    <g id="xtick_34">
     <g id="line2d_45"/>
    </g>
    <g id="xtick_35">
     <g id="line2d_46"/>
    </g>
    <g id="xtick_36">
     <g id="line2d_47"/>
    </g>
    <g id="xtick_37">
     <g id="line2d_48"/>
    </g>
    <g id="xtick_38">
     <g id="line2d_49"/>
    </g>
    <g id="xtick_39">
     <g id="line2d_50"/>
    </g>
    <g id="xtick_40">
     <g id="line2d_51"/>
    </g>
    <g id="xtick_41">
     <g id="line2d_52"/>
    </g>
    <g id="xtick_42">
     <g id="line2d_53"/>
    </g>
    <g id="xtick_43">
     <g id="line2d_54"/>
    </g>
    <g id="xtick_44">
     <g id="line2d_55"/>
    </g>
    <g id="xtick_45">
     <g id="line2d_56"/>
    </g>
    <g id="xtick_46">
     <g id="line2d_57"/>
    </g>
    <g id="xtick_47">
     <g id="line2d_58"/>
    </g>
    <g id="xtick_48">
     <g id="line2d_59"/>
    </g>
    <g id="xtick_49">
     <g id="line2d_60"/>
    </g>
    <g id="xtick_50">
     <g id="line2d_61"/>
    </g>
    <g id="xtick_51">
     <g id="line2d_62"/>
    </g>
    <g id="xtick_52">
     <g id="line2d_63"/>
    </g>
    <g id="xtick_53">
     <g id="line2d_64"/>
    </g>
    <g id="xtick_54">
     <g id="line2d_65"/>
    </g>
    <g id="xtick_55">
     <g id="line2d_66"/>
    </g>
   </g>
   <g id="matplotlib.axis_2">
    <g id="ytick_1">
     <g id="line2d_67">
      <path clip-path="url(#p8816c6001b)" d="M 41.425 180.1 
L 960 180.1 
" style="fill:none;stroke:#cccccc;stroke-linecap:round;stroke-width:0.8;"/>
     </g>
     <g id="line2d_68"/>
     <g id="text_11">
      <!-- −500 -->
      <defs>
       <path d="M 52.828125 31.203125 
L 5.5625 31.203125 
L 5.5625 39.40625 
L 52.828125 39.40625 
z
" id="ArialMT-2212"/>
       <path d="M 4.15625 18.75 
L 13.375 19.53125 
Q 14.40625 12.796875 18.140625 9.390625 
Q 21.875 6 27.15625 6 
Q 33.5 6 37.890625 10.78125 
Q 42.28125 15.578125 42.28125 23.484375 
Q 42.28125 31 38.0625 35.34375 
Q 33.84375 39.703125 27 39.703125 
Q 22.75 39.703125 19.328125 37.765625 
Q 15.921875 35.84375 13.96875 32.765625 
L 5.71875 33.84375 
L 12.640625 70.609375 
L 48.25 70.609375 
L 48.25 62.203125 
L 19.671875 62.203125 
L 15.828125 42.96875 
Q 22.265625 47.46875 29.34375 47.46875 
Q 38.71875 47.46875 45.15625 40.96875 
Q 51.609375 34.46875 51.609375 24.265625 
Q 51.609375 14.546875 45.953125 7.46875 
Q 39.0625 -1.21875 27.15625 -1.21875 
Q 17.390625 -1.21875 11.203125 4.25 
Q 5.03125 9.71875 4.15625 18.75 
z
" id="ArialMT-35"/>
      </defs>
      <g style="fill:#262626;" transform="translate(10.896875 184.394688)scale(0.12 -0.12)">
       <use xlink:href="#ArialMT-2212"/>
       <use x="58.398438" xlink:href="#ArialMT-35"/>
       <use x="114.013672" xlink:href="#ArialMT-30"/>
       <use x="169.628906" xlink:href="#ArialMT-30"/>
      </g>
     </g>
    </g>
    <g id="ytick_2">
     <g id="line2d_69">
      <path clip-path="url(#p8816c6001b)" d="M 41.425 155.55 
L 960 155.55 
" style="fill:none;stroke:#cccccc;stroke-linecap:round;stroke-width:0.8;"/>
     </g>
     <g id="line2d_70"/>
     <g id="text_12">
      <!-- −250 -->
      <g style="fill:#262626;" transform="translate(10.896875 159.844687)scale(0.12 -0.12)">
       <use xlink:href="#ArialMT-2212"/>
       <use x="58.398438" xlink:href="#ArialMT-32"/>
       <use x="114.013672" xlink:href="#ArialMT-35"/>
       <use x="169.628906" xlink:href="#ArialMT-30"/>
      </g>
     </g>
    </g>
    <g id="ytick_3">
     <g id="line2d_71">
      <path clip-path="url(#p8816c6001b)" d="M 41.425 131 
L 960 131 
" style="fill:none;stroke:#cccccc;stroke-linecap:round;stroke-width:0.8;"/>
     </g>
     <g id="line2d_72"/>
     <g id="text_13">
      <!-- 0 -->
      <g style="fill:#262626;" transform="translate(31.251875 135.294688)scale(0.12 -0.12)">
       <use xlink:href="#ArialMT-30"/>
      </g>
     </g>
    </g>
    <g id="ytick_4">
     <g id="line2d_73">
      <path clip-path="url(#p8816c6001b)" d="M 41.425 106.45 
L 960 106.45 
" style="fill:none;stroke:#cccccc;stroke-linecap:round;stroke-width:0.8;"/>
     </g>
     <g id="line2d_74"/>
     <g id="text_14">
      <!-- 250 -->
      <g style="fill:#262626;" transform="translate(17.905625 110.744687)scale(0.12 -0.12)">
       <use xlink:href="#ArialMT-32"/>
       <use x="55.615234" xlink:href="#ArialMT-35"/>
       <use x="111.230469" xlink:href="#ArialMT-30"/>
      </g>
     </g>
    </g>
    <g id="ytick_5">
     <g id="line2d_75">
      <path clip-path="url(#p8816c6001b)" d="M 41.425 81.9 
L 960 81.9 
" style="fill:none;stroke:#cccccc;stroke-linecap:round;stroke-width:0.8;"/>
     </g>
     <g id="line2d_76"/>
     <g id="text_15">
      <!-- 500 -->
      <g style="fill:#262626;" transform="translate(17.905625 86.194688)scale(0.12 -0.12)">
       <use xlink:href="#ArialMT-35"/>
       <use x="55.615234" xlink:href="#ArialMT-30"/>
       <use x="111.230469" xlink:href="#ArialMT-30"/>
      </g>
     </g>
    </g>
    <g id="ytick_6">
     <g id="line2d_77">
      <path clip-path="url(#p8816c6001b)" d="M 41.425 57.35 
L 960 57.35 
" style="fill:none;stroke:#cccccc;stroke-linecap:round;stroke-width:0.8;"/>
     </g>
     <g id="line2d_78"/>
     <g id="text_16">
      <!-- 750 -->
      <defs>
       <path d="M 4.734375 62.203125 
L 4.734375 70.65625 
L 51.078125 70.65625 
L 51.078125 63.8125 
Q 44.234375 56.546875 37.515625 44.484375 
Q 30.8125 32.421875 27.15625 19.671875 
Q 24.515625 10.6875 23.78125 0 
L 14.75 0 
Q 14.890625 8.453125 18.0625 20.40625 
Q 21.234375 32.375 27.171875 43.484375 
Q 33.109375 54.59375 39.796875 62.203125 
z
" id="ArialMT-37"/>
      </defs>
      <g style="fill:#262626;" transform="translate(17.905625 61.644688)scale(0.12 -0.12)">
       <use xlink:href="#ArialMT-37"/>
       <use x="55.615234" xlink:href="#ArialMT-35"/>
       <use x="111.230469" xlink:href="#ArialMT-30"/>
      </g>
     </g>
    </g>
    <g id="ytick_7">
     <g id="line2d_79">
      <path clip-path="url(#p8816c6001b)" d="M 41.425 32.8 
L 960 32.8 
" style="fill:none;stroke:#cccccc;stroke-linecap:round;stroke-width:0.8;"/>
     </g>
     <g id="line2d_80"/>
     <g id="text_17">
      <!-- 1000 -->
      <g style="fill:#262626;" transform="translate(11.2325 37.094688)scale(0.12 -0.12)">
       <use xlink:href="#ArialMT-31"/>
       <use x="55.615234" xlink:href="#ArialMT-30"/>
       <use x="111.230469" xlink:href="#ArialMT-30"/>
       <use x="166.845703" xlink:href="#ArialMT-30"/>
      </g>
     </g>
    </g>
   </g>
   <g id="line2d_81">
    <path clip-path="url(#p8816c6001b)" d="M 83.178409 100.058375 
L 86.067918 99.275722 
L 88.957428 93.147699 
L 91.846937 87.839768 
L 94.736446 95.966035 
L 97.625955 98.197449 
L 100.515465 108.609635 
L 103.404974 114.762634 
L 106.294483 103.016867 
L 109.183993 95.382614 
L 112.073502 92.244787 
L 114.963011 94.907247 
L 117.85252 100.233658 
L 120.74203 113.500691 
L 123.631539 115.227179 
L 126.521048 98.457047 
L 129.410558 90.960498 
L 132.300067 93.669996 
L 135.189576 100.547033 
L 138.079085 101.852203 
L 140.968595 114.03559 
L 143.858104 114.60632 
L 146.747613 87.953065 
L 149.637123 90.806091 
L 152.526632 95.654674 
L 155.416141 91.950381 
L 161.19516 108.575492 
L 164.084669 115.422986 
L 166.974178 93.770112 
L 169.863687 89.875082 
L 172.753197 91.873011 
L 175.642706 97.521893 
L 178.532215 99.67128 
L 181.421725 105.314522 
L 184.311234 116.357714 
L 187.200743 102.13784 
L 190.090252 91.216109 
L 192.979762 95.8089 
L 195.869271 94.561405 
L 201.64829 110.53731 
L 204.537799 112.964329 
L 207.427308 102.149305 
L 210.316817 94.560993 
L 213.206327 93.375797 
L 216.095836 94.676533 
L 218.985345 99.229977 
L 221.874855 107.608098 
L 224.764364 111.620583 
L 227.653873 93.537557 
L 230.543382 90.707386 
L 233.432892 99.522601 
L 236.322401 104.758235 
L 239.21191 105.718252 
L 242.101419 112.404723 
L 244.990929 111.512357 
L 247.880438 87.030967 
L 250.769947 87.827624 
L 253.659457 87.384388 
L 256.548966 93.535273 
L 259.438475 91.471575 
L 262.327984 103.377617 
L 265.217494 118.216949 
L 268.107003 123.313662 
L 270.996512 93.366827 
L 273.886022 156.455105 
L 276.775531 96.125978 
L 279.66504 24.856797 
L 282.554549 109.999466 
L 285.444059 106.238643 
L 288.333568 87.702617 
L 291.223077 131.625184 
L 294.112587 82.259427 
L 297.002096 85.139228 
L 299.891605 105.558695 
L 302.781114 122.018143 
L 305.670624 116.407582 
L 308.560133 94.009362 
L 311.449642 94.66048 
L 314.339151 98.788614 
L 317.228661 106.218391 
L 320.11817 97.132326 
L 323.007679 110.455507 
L 325.897189 120.445703 
L 328.786698 100.086964 
L 331.676207 57.819963 
L 334.565716 96.438199 
L 337.455226 65.457817 
L 340.344735 82.870301 
L 343.234244 103.598222 
L 346.123754 106.158023 
L 349.013263 91.16371 
L 351.902772 89.867254 
L 354.792281 104.085248 
L 357.681791 91.995406 
L 360.5713 79.218502 
L 363.460809 98.274928 
L 366.350318 104.215402 
L 369.239828 89.599338 
L 372.129337 82.42126 
L 375.018846 85.896846 
L 377.908356 81.900094 
L 380.797865 88.245714 
L 383.687374 98.784417 
L 386.576883 103.266545 
L 389.466393 90.463247 
L 392.355902 80.656859 
L 395.245411 94.815089 
L 398.134921 102.796223 
L 401.02443 95.113164 
L 403.913939 109.282731 
L 406.803448 113.526831 
L 409.692958 88.585001 
L 412.582467 81.827878 
L 415.471976 94.843346 
L 421.250995 98.04277 
L 424.140504 137.898444 
L 427.030013 107.40295 
L 429.919523 92.191081 
L 432.809032 95.528818 
L 435.698541 92.906819 
L 438.58805 94.12173 
L 441.47756 99.208086 
L 444.367069 109.973964 
L 447.256578 109.239431 
L 450.146088 88.82329 
L 452.121423 -1 
M 453.929931 -1 
L 455.925106 91.738066 
L 458.814615 102.365595 
L 461.704125 99.680751 
L 464.593634 108.915109 
L 467.483143 112.167046 
L 470.372653 89.752318 
L 473.262162 88.187565 
L 476.151671 94.83202 
L 479.04118 95.780237 
L 481.93069 100.52538 
L 484.820199 108.629545 
L 487.709708 115.931534 
L 490.599218 112.124933 
L 493.488727 97.669955 
L 496.378236 86.967591 
L 499.267745 98.607936 
L 502.157255 100.020651 
L 505.046764 112.036461 
L 507.936273 108.017345 
L 510.825782 94.93635 
L 513.715292 87.569607 
L 516.604801 94.206233 
L 519.49431 97.689155 
L 522.38382 100.51079 
L 525.273329 104.52487 
L 528.162838 98.77963 
L 531.052347 95.401923 
L 533.941857 88.573431 
L 536.831366 91.750442 
L 539.720875 94.72815 
L 542.610385 95.484332 
L 545.499894 106.441174 
L 548.389403 108.620173 
L 551.278912 100.843773 
L 554.168422 93.698528 
L 557.057931 96.633632 
L 559.94744 99.990887 
L 562.83695 107.670737 
L 565.726459 112.333253 
L 568.615968 113.751868 
L 571.505477 99.496369 
L 574.394987 96.579435 
L 577.284496 96.908111 
L 580.174005 100.49662 
L 583.063514 101.631775 
L 585.953024 111.931416 
L 588.842533 112.821729 
L 591.732042 110.014955 
L 594.621552 109.319869 
L 597.511061 111.707215 
L 600.40057 102.505599 
L 603.290079 107.909147 
L 606.179589 115.207026 
L 609.069098 112.458648 
L 611.958607 105.847202 
L 614.848117 99.868258 
L 617.737626 102.577872 
L 620.627135 102.549328 
L 623.516644 106.806266 
L 626.406154 108.951577 
L 629.295663 109.36788 
L 632.185172 101.725689 
L 635.074682 95.228524 
L 640.8537 107.49062 
L 646.632719 114.014961 
L 649.522228 114.816488 
L 652.411737 102.838017 
L 655.301246 90.018024 
L 658.190756 95.564342 
L 661.080265 103.046432 
L 663.969774 105.090486 
L 666.859284 115.628514 
L 669.748793 118.169734 
L 672.638302 102.019419 
L 675.527811 94.970271 
L 678.417321 104.092523 
L 681.30683 93.392696 
L 684.196339 96.732201 
L 687.085849 107.111084 
L 689.975358 122.444038 
L 692.864867 106.721806 
L 695.754376 87.342206 
L 698.643886 95.393354 
L 701.533395 95.04294 
L 704.422904 97.933605 
L 707.312413 112.614782 
L 710.201923 113.523428 
L 713.091432 97.03479 
L 715.980941 89.650867 
L 718.870451 95.069924 
L 721.75996 98.015393 
L 724.649469 102.103446 
L 727.538978 110.731218 
L 730.428488 113.785518 
L 733.317997 98.334315 
L 736.207506 52.045012 
L 739.097016 96.034816 
L 741.986525 98.48955 
L 744.876034 95.860607 
L 747.765543 110.411515 
L 750.655053 118.330388 
L 753.544562 97.851246 
L 756.434071 92.451315 
L 759.323581 88.196486 
L 762.21309 87.819915 
L 765.102599 96.036879 
L 767.992108 104.933036 
L 770.881618 120.465063 
L 773.771127 113.492499 
L 776.660636 92.817698 
L 779.550145 95.997881 
L 782.439655 93.768686 
L 785.329164 99.043042 
L 788.218673 106.309185 
L 791.108183 105.933155 
L 793.997692 94.799077 
L 796.887201 89.180102 
L 799.77671 94.539269 
L 802.66622 95.459077 
L 805.555729 98.350554 
L 808.445238 106.501682 
L 811.334748 104.944692 
L 814.224257 95.655378 
L 817.113766 89.143584 
L 820.003275 97.760879 
L 822.892785 95.00069 
L 825.782294 103.414488 
L 828.671803 113.659971 
L 831.561313 107.807499 
L 834.450822 91.473896 
L 837.340331 90.687782 
L 840.22984 95.340663 
L 843.11935 96.048348 
L 846.008859 98.707944 
L 848.898368 110.59276 
L 851.787877 109.91797 
L 854.677387 88.375989 
L 857.566896 92.988434 
L 860.456405 94.667313 
L 863.345915 98.804125 
L 866.235424 102.025364 
L 869.124933 112.650714 
L 872.014442 116.635719 
L 874.903952 102.876391 
L 877.793461 97.698382 
L 880.68297 95.212389 
L 883.57248 97.757026 
L 886.461989 99.136654 
L 889.351498 112.349963 
L 892.241007 112.635346 
L 895.130517 88.355026 
L 898.020026 91.846284 
L 900.909535 96.767152 
L 903.799045 95.9825 
L 906.688554 99.008854 
L 909.578063 108.684372 
L 912.467572 114.024693 
L 915.357082 87.464396 
L 918.246591 86.633557 
L 918.246591 86.633557 
" style="fill:none;stroke:#4c72b0;stroke-linecap:round;stroke-opacity:0.8;stroke-width:1.5;"/>
   </g>
   <g id="line2d_82">
    <path clip-path="url(#p8816c6001b)" d="M 83.178409 109.938155 
L 86.067918 98.117367 
L 88.957428 98.910641 
L 91.846937 88.043086 
L 94.736446 99.999361 
L 97.625955 187.804921 
L 100.515465 106.803094 
L 103.404974 113.871815 
L 106.294483 102.914289 
L 109.183993 94.103371 
L 112.073502 91.285994 
L 114.963011 98.643117 
L 117.85252 101.165162 
L 120.74203 114.639727 
L 123.631539 114.864823 
L 126.521048 99.80986 
L 129.410558 91.021248 
L 132.300067 94.658731 
L 135.189576 97.630584 
L 138.079085 107.300263 
L 140.968595 113.666309 
L 143.858104 109.913191 
L 146.747613 84.359386 
L 149.637123 94.161718 
L 152.526632 88.190721 
L 155.416141 91.749222 
L 158.30565 99.491043 
L 161.19516 107.721874 
L 164.084669 116.529269 
L 166.974178 94.022966 
L 169.863687 90.31221 
L 172.753197 91.57848 
L 175.642706 96.400635 
L 178.532215 99.932716 
L 181.421725 105.22049 
L 184.311234 116.654549 
L 187.200743 101.738758 
L 190.090252 94.833651 
L 192.979762 93.706634 
L 195.869271 88.267254 
L 198.75878 102.020783 
L 201.64829 110.401607 
L 204.537799 112.939711 
L 207.427308 92.816204 
L 210.316817 94.046053 
L 213.206327 93.105569 
L 216.095836 95.33136 
L 218.985345 99.182419 
L 221.874855 107.325714 
L 224.764364 111.084994 
L 227.653873 92.960481 
L 230.543382 89.402361 
L 233.432892 102.790194 
L 236.322401 101.301918 
L 239.21191 96.409026 
L 242.101419 105.835015 
L 244.990929 104.725411 
L 247.880438 80.837768 
L 250.769947 82.801027 
L 253.659457 84.321339 
L 256.548966 92.148495 
L 259.438475 90.038911 
L 265.217494 114.304182 
L 268.107003 95.173897 
L 270.996512 91.581578 
L 273.886022 88.899197 
L 276.775531 95.103172 
L 279.66504 97.437881 
L 282.554549 99.392571 
L 285.444059 106.903359 
L 288.333568 81.89568 
L 291.223077 82.223903 
L 294.112587 83.679507 
L 297.002096 83.039426 
L 299.891605 97.837954 
L 302.781114 122.513213 
L 305.670624 115.468878 
L 308.560133 95.648176 
L 311.449642 89.96931 
L 314.339151 96.408166 
L 317.228661 93.216556 
L 320.11817 96.528998 
L 323.007679 95.966072 
L 325.897189 103.514484 
L 328.786698 96.439191 
L 331.676207 98.622859 
L 334.565716 98.69382 
L 337.455226 63.711928 
L 340.344735 78.395948 
L 343.234244 159.716846 
L 346.123754 101.947718 
L 349.013263 87.258364 
L 351.902772 84.200575 
L 354.792281 97.084188 
L 357.681791 94.402362 
L 360.5713 73.477376 
L 363.460809 94.006157 
L 366.350318 103.220521 
L 369.239828 88.02983 
L 372.129337 81.33215 
L 375.018846 85.87701 
L 377.908356 86.022214 
L 380.797865 87.768595 
L 383.687374 99.044951 
L 386.576883 102.103846 
L 389.466393 94.045294 
L 392.355902 85.300429 
L 395.245411 94.735984 
L 398.134921 100.816648 
L 401.02443 92.785147 
L 403.913939 105.576241 
L 406.803448 109.624671 
L 409.692958 86.558006 
L 412.582467 77.405487 
L 415.471976 92.99805 
L 418.361486 95.58649 
L 421.250995 97.119526 
L 424.140504 106.812187 
L 427.030013 106.693091 
L 429.919523 89.301595 
L 432.809032 93.620629 
L 435.698541 92.403422 
L 438.58805 92.941821 
L 441.47756 98.092948 
L 444.367069 108.82716 
L 447.256578 109.351582 
L 450.146088 88.401392 
L 453.035597 94.554168 
L 455.925106 89.731492 
L 458.814615 98.817039 
L 461.704125 94.561119 
L 464.593634 108.974465 
L 467.483143 112.003967 
L 470.372653 89.347498 
L 473.262162 87.549019 
L 476.151671 78.884735 
L 479.04118 88.654946 
L 481.93069 96.407749 
L 484.820199 108.563818 
L 487.709708 117.526696 
L 490.599218 106.813815 
L 496.378236 87.159521 
L 499.267745 96.406017 
L 502.157255 100.363941 
L 505.046764 107.9534 
L 505.262848 217 
M 510.58819 217 
L 510.825782 96.126724 
L 513.715292 87.724791 
L 516.604801 94.109989 
L 519.49431 95.076201 
L 522.38382 100.978976 
L 525.273329 110.934883 
L 528.162838 106.527928 
L 531.052347 97.431301 
L 533.941857 89.759361 
L 536.831366 77.948481 
L 539.720875 85.53116 
L 542.610385 90.814316 
L 545.499894 106.424394 
L 548.389403 109.068757 
L 551.278912 101.606543 
L 554.168422 97.606769 
L 557.057931 94.637351 
L 559.94744 98.135661 
L 562.83695 104.16258 
L 565.726459 111.425923 
L 568.615968 110.505967 
L 571.505477 98.788021 
L 574.394987 96.205408 
L 577.284496 98.605562 
L 580.174005 98.152499 
L 583.063514 100.581638 
L 585.953024 109.678171 
L 588.842533 107.851781 
L 591.732042 101.767461 
L 594.621552 105.390492 
L 597.511061 98.633479 
L 600.40057 96.565129 
L 603.290079 105.609912 
L 606.179589 110.857414 
L 609.069098 112.995022 
L 611.958607 109.644843 
L 614.848117 100.050984 
L 617.737626 102.740403 
L 620.627135 102.44626 
L 623.516644 105.88304 
L 626.406154 109.509055 
L 629.295663 109.559922 
L 632.185172 102.658231 
L 635.074682 95.39024 
L 637.964191 101.355126 
L 640.8537 107.736604 
L 643.743209 112.498406 
L 646.632719 115.953998 
L 649.522228 128.003449 
L 652.411737 101.285713 
L 655.301246 90.752268 
L 658.190756 95.436007 
L 661.080265 104.080717 
L 663.969774 103.621102 
L 666.859284 114.958909 
L 669.748793 110.381461 
L 672.638302 106.887724 
L 675.527811 92.607267 
L 678.417321 92.698202 
L 681.30683 95.928488 
L 684.196339 99.544281 
L 687.085849 128.252005 
L 692.864867 98.439624 
L 695.754376 86.265353 
L 698.643886 103.399132 
L 701.533395 94.757101 
L 704.422904 99.240238 
L 707.312413 111.353376 
L 710.201923 110.595468 
L 713.091432 96.679146 
L 715.980941 89.260663 
L 718.870451 94.350521 
L 721.75996 96.811687 
L 724.649469 101.523714 
L 727.538978 110.360865 
L 730.428488 114.498898 
L 733.317997 104.958955 
L 736.207506 88.121866 
L 739.097016 95.422265 
L 741.986525 98.524819 
L 744.876034 95.800661 
L 747.765543 108.606169 
L 750.655053 114.432012 
L 753.544562 95.721593 
L 756.434071 90.773968 
L 759.323581 87.39952 
L 762.21309 85.617387 
L 765.102599 94.367042 
L 767.992108 105.954188 
L 770.881618 115.267784 
L 773.771127 111.127616 
L 776.660636 93.71888 
L 779.550145 85.350805 
L 782.439655 93.452042 
L 785.329164 99.444947 
L 788.218673 110.371485 
L 791.108183 109.913516 
L 793.997692 95.34764 
L 796.887201 87.308312 
L 799.77671 92.625415 
L 802.66622 91.844609 
L 805.555729 94.353268 
L 808.445238 106.643667 
L 811.334748 104.976314 
L 814.224257 95.104821 
L 817.113766 88.39947 
L 820.003275 96.503258 
L 822.892785 92.702123 
L 828.671803 113.470825 
L 831.561313 110.033548 
L 834.450822 92.112598 
L 837.340331 90.655467 
L 840.22984 95.470861 
L 843.11935 95.835079 
L 846.008859 98.331666 
L 848.898368 108.960572 
L 851.787877 110.013674 
L 854.677387 86.949756 
L 857.566896 93.512196 
L 860.456405 95.242639 
L 863.345915 96.738925 
L 866.235424 96.01843 
L 869.124933 112.29007 
L 872.014442 114.404976 
L 874.903952 106.421654 
L 877.793461 97.313144 
L 880.68297 95.237044 
L 883.57248 97.463263 
L 886.461989 98.940179 
L 889.351498 111.815975 
L 892.241007 112.614485 
L 895.130517 84.328928 
L 898.020026 91.190008 
L 900.909535 96.882966 
L 903.799045 93.98172 
L 906.688554 94.303023 
L 909.578063 103.82276 
L 912.467572 110.794631 
L 915.357082 91.158586 
L 918.246591 82.417238 
L 918.246591 82.417238 
" style="fill:none;stroke:#55a868;stroke-linecap:round;stroke-opacity:0.8;stroke-width:1.5;"/>
   </g>
   <g id="line2d_83">
    <path clip-path="url(#p8816c6001b)" d="M 83.178409 171.179498 
L 86.067918 100.095336 
L 88.957428 93.305268 
L 91.846937 89.65892 
L 92.417063 -1 
M 96.987755 -1 
L 97.625955 103.552532 
L 100.515465 113.177882 
L 103.404974 120.792504 
L 106.294483 105.9417 
L 109.183993 97.369676 
L 112.073502 92.704538 
L 114.963011 52.905608 
L 117.85252 102.027197 
L 120.74203 117.65093 
L 123.631539 117.718601 
L 126.521048 99.853801 
L 129.410558 88.183902 
L 132.300067 92.448707 
L 138.079085 101.226573 
L 140.968595 113.370481 
L 143.858104 115.149608 
L 146.747613 88.507815 
L 149.637123 89.503389 
L 152.526632 85.443772 
L 155.416141 91.158978 
L 161.19516 110.938737 
L 164.084669 125.892043 
L 166.974178 96.160669 
L 169.863687 92.412536 
L 175.642706 95.486984 
L 178.532215 102.892132 
L 181.421725 110.695468 
L 184.311234 117.738189 
L 187.200743 102.869768 
L 190.090252 90.165384 
L 192.979762 92.419166 
L 195.869271 82.095928 
L 198.75878 100.81707 
L 201.64829 111.576689 
L 204.537799 113.459751 
L 207.427308 93.27548 
L 210.316817 93.187529 
L 213.206327 92.252259 
L 216.095836 93.540997 
L 218.985345 101.534292 
L 221.874855 107.820996 
L 224.764364 112.955604 
L 227.653873 97.192322 
L 230.543382 89.674035 
L 233.432892 95.719743 
L 236.322401 101.466083 
L 239.21191 103.072586 
L 242.101419 111.313242 
L 244.990929 112.472187 
L 247.880438 84.156696 
L 250.769947 89.624563 
L 253.659457 87.736524 
L 256.548966 92.81279 
L 259.438475 93.349553 
L 262.327984 113.655941 
L 265.217494 108.721683 
L 268.107003 96.925927 
L 270.996512 88.081595 
L 273.886022 85.24472 
L 276.775531 94.346018 
L 279.66504 94.449105 
L 282.554549 108.013753 
L 285.444059 113.144098 
L 288.333568 100.919662 
L 291.223077 93.226398 
L 294.112587 90.735546 
L 297.002096 90.324461 
L 299.891605 109.41223 
L 302.781114 127.316175 
L 305.670624 112.637892 
L 308.560133 86.601215 
L 311.449642 86.203538 
L 314.339151 87.846176 
L 317.228661 90.772151 
L 320.11817 91.440536 
L 323.007679 91.920119 
L 325.897189 105.941223 
L 328.786698 102.378827 
L 331.676207 98.422058 
L 334.565716 80.866952 
L 337.455226 70.06839 
L 340.344735 80.152012 
L 343.234244 114.020445 
L 346.123754 111.493118 
L 349.013263 94.703836 
L 351.902772 109.802531 
L 354.792281 104.960023 
L 357.681791 91.441237 
L 360.5713 79.782564 
L 363.460809 102.178739 
L 366.350318 111.624289 
L 369.239828 94.568056 
L 372.129337 86.069835 
L 375.018846 87.970242 
L 377.908356 90.617536 
L 380.797865 93.586629 
L 383.687374 108.858923 
L 386.576883 100.300166 
L 389.466393 92.494233 
L 392.355902 83.276142 
L 395.245411 93.979946 
L 398.134921 101.722603 
L 401.02443 93.31827 
L 403.913939 104.115154 
L 406.803448 109.98529 
L 409.692958 81.376966 
L 412.582467 77.467177 
L 415.471976 93.085895 
L 421.250995 100.60256 
L 424.140504 104.910843 
L 427.030013 108.706403 
L 429.919523 85.534416 
L 432.809032 94.02746 
L 435.698541 91.909222 
L 438.58805 92.040995 
L 441.47756 98.225904 
L 444.367069 114.727596 
L 447.256578 111.976722 
L 450.146088 94.952488 
L 453.035597 91.775601 
L 455.925106 91.200207 
L 458.814615 97.640484 
L 461.704125 97.31539 
L 464.593634 110.997576 
L 467.483143 113.764604 
L 470.372653 89.735485 
L 473.262162 87.314682 
L 476.151671 93.475458 
L 479.04118 94.472603 
L 481.93069 97.93669 
L 484.820199 109.81088 
L 487.709708 120.083257 
L 490.599218 100.91715 
L 493.488727 96.489508 
L 496.378236 83.507093 
L 499.267745 85.259682 
L 502.157255 98.678649 
L 505.046764 107.713336 
L 507.936273 110.173687 
L 510.825782 98.721922 
L 513.715292 91.45549 
L 516.604801 92.569122 
L 519.49431 91.766843 
L 522.38382 97.877876 
L 525.273329 109.47457 
L 528.162838 107.704945 
L 531.052347 99.112365 
L 533.941857 87.594421 
L 536.831366 88.740047 
L 539.720875 94.525054 
L 542.610385 94.782414 
L 545.499894 101.157495 
L 548.389403 111.553316 
L 551.278912 103.369361 
L 554.168422 94.803115 
L 557.057931 97.121771 
L 559.94744 98.513212 
L 562.83695 102.888249 
L 565.726459 111.317908 
L 568.615968 115.177576 
L 571.505477 101.329647 
L 574.394987 95.688264 
L 577.284496 95.801966 
L 580.174005 98.035289 
L 583.063514 100.922711 
L 585.953024 111.482502 
L 588.842533 119.612654 
L 591.732042 212.239039 
L 594.621552 127.801553 
L 597.511061 102.863208 
L 600.40057 95.342984 
L 603.290079 101.151514 
L 606.179589 111.423636 
L 609.069098 110.018769 
L 611.958607 103.679394 
L 614.848117 98.404434 
L 617.737626 100.004628 
L 620.627135 96.498558 
L 623.516644 103.980165 
L 626.406154 108.5392 
L 629.295663 112.089338 
L 632.185172 104.033245 
L 635.074682 96.418127 
L 637.964191 100.498555 
L 640.8537 104.089684 
L 643.743209 110.259318 
L 646.632719 111.222795 
L 649.522228 115.736213 
L 652.411737 102.293487 
L 655.301246 90.53183 
L 658.190756 93.838925 
L 661.080265 105.810653 
L 663.969774 106.050239 
L 666.859284 114.151243 
L 669.748793 116.246752 
L 672.638302 102.807168 
L 675.527811 93.871567 
L 678.417321 94.321318 
L 681.30683 92.181086 
L 684.196339 99.737309 
L 687.085849 110.975623 
L 689.975358 115.768875 
L 695.754376 87.917627 
L 698.643886 93.470747 
L 701.533395 93.683702 
L 704.422904 99.940941 
L 707.312413 114.071636 
L 710.192705 -1 
M 710.212859 -1 
L 713.091432 95.932081 
L 715.980941 89.962504 
L 718.870451 94.153833 
L 721.75996 96.308788 
L 724.649469 101.144618 
L 727.538978 111.415168 
L 730.428488 108.644973 
L 733.317997 97.492482 
L 736.207506 85.490221 
L 739.097016 92.946398 
L 741.986525 96.394958 
L 744.876034 96.360247 
L 747.765543 105.441861 
L 750.655053 110.208527 
L 753.544562 94.227155 
L 756.434071 90.843898 
L 759.323581 95.083264 
L 762.21309 86.7005 
L 765.102599 95.524666 
L 767.992108 109.498195 
L 770.881618 119.879451 
L 773.771127 100.756372 
L 776.660636 103.651785 
L 779.550145 91.937147 
L 782.439655 91.028503 
L 785.329164 96.160852 
L 788.218673 110.898605 
L 791.108183 109.016328 
L 793.997692 96.927162 
L 796.887201 89.595321 
L 799.77671 102.62696 
L 802.66622 92.503271 
L 805.555729 95.264912 
L 808.445238 118.190713 
L 811.334748 109.892202 
L 814.224257 97.868541 
L 817.113766 94.722934 
L 820.003275 96.61168 
L 822.892785 91.721292 
L 825.782294 101.821877 
L 828.671803 113.449427 
L 831.561313 107.701237 
L 834.450822 89.576268 
L 837.340331 90.733212 
L 840.22984 95.000072 
L 843.11935 95.007166 
L 846.008859 99.276523 
L 848.898368 111.224884 
L 851.787877 113.153387 
L 854.677387 88.552234 
L 857.566896 90.995505 
L 860.456405 101.009154 
L 863.345915 103.397972 
L 866.235424 102.381783 
L 869.124933 111.582703 
L 872.014442 115.511527 
L 874.903952 139.007118 
L 877.793461 95.393922 
L 880.68297 90.223415 
L 883.57248 92.281846 
L 886.461989 97.387699 
L 889.351498 111.175279 
L 892.241007 113.220874 
L 895.130517 86.818225 
L 898.020026 89.638889 
L 900.909535 95.568872 
L 903.799045 93.503459 
L 906.688554 97.443569 
L 909.578063 112.373976 
L 912.467572 103.452039 
L 915.357082 91.94711 
L 918.246591 83.776424 
L 918.246591 83.776424 
" style="fill:none;stroke:#c44e52;stroke-linecap:round;stroke-opacity:0.8;stroke-width:1.5;"/>
   </g>
   <g id="line2d_84">
    <path clip-path="url(#p8816c6001b)" d="M 83.178409 180.541236 
L 86.067918 93.446526 
L 88.957428 94.576491 
L 91.846937 115.796317 
L 93.915931 -1 
M 95.620873 -1 
L 97.625955 104.008967 
L 100.515465 106.22384 
L 103.404974 114.136221 
L 106.294483 102.648505 
L 112.073502 89.797682 
L 114.963011 91.141095 
L 117.85252 98.862014 
L 120.74203 111.14288 
L 123.631539 111.605312 
L 126.521048 94.956328 
L 129.410558 87.86797 
L 132.300067 92.338521 
L 135.189576 96.50804 
L 138.079085 97.98859 
L 140.968595 112.114178 
L 143.858104 109.648101 
L 146.747613 83.55408 
L 149.637123 86.657917 
L 152.526632 87.804594 
L 155.416141 90.686311 
L 158.30565 98.226137 
L 161.19516 107.496886 
L 164.084669 120.564783 
L 166.974178 93.665877 
L 169.863687 92.727816 
L 172.753197 91.237928 
L 175.642706 97.01922 
L 181.421725 111.030077 
L 184.311234 117.866081 
L 187.200743 101.537034 
L 190.090252 90.578051 
L 192.979762 94.332854 
L 195.869271 84.832331 
L 198.75878 102.800773 
L 201.64829 112.584626 
L 204.537799 114.318101 
L 207.427308 103.069954 
L 210.316817 95.015576 
L 213.206327 93.614839 
L 216.095836 95.222987 
L 218.985345 101.822844 
L 221.874855 106.760178 
L 224.764364 110.312756 
L 227.653873 96.293292 
L 230.543382 87.795388 
L 233.432892 91.953303 
L 236.322401 101.246325 
L 239.21191 97.008713 
L 242.101419 103.240551 
L 244.990929 92.216436 
L 247.880438 74.930192 
L 250.769947 83.686281 
L 253.659457 94.138842 
L 256.548966 93.342338 
L 259.438475 91.952046 
L 262.327984 108.41963 
L 265.217494 102.546994 
L 268.107003 90.616953 
L 270.996512 84.823557 
L 273.886022 81.944738 
L 276.775531 92.416969 
L 279.66504 91.111283 
L 282.554549 104.341171 
L 285.444059 109.858056 
L 288.333568 107.272245 
L 291.223077 96.025118 
L 294.112587 93.380613 
L 297.002096 93.317331 
L 299.891605 111.56324 
L 302.781114 134.177916 
L 305.670624 113.516286 
L 308.560133 88.259863 
L 311.449642 89.007517 
L 314.339151 90.290708 
L 317.228661 93.390984 
L 320.11817 92.050034 
L 323.007679 100.801114 
L 325.897189 96.361054 
L 328.786698 82.108159 
L 331.676207 90.60388 
L 334.565716 82.31604 
L 337.455226 55.150666 
L 340.344735 71.92857 
L 343.234244 97.528702 
L 346.123754 96.976525 
L 349.013263 77.25006 
L 351.902772 97.637789 
L 354.792281 93.056626 
L 357.681791 80.5457 
L 360.5713 66.779654 
L 363.460809 87.819902 
L 366.350318 98.023738 
L 369.239828 83.579309 
L 372.129337 81.115308 
L 375.018846 87.794023 
L 377.908356 92.206479 
L 380.797865 95.219712 
L 383.687374 110.286078 
L 386.576883 107.450795 
L 389.466393 95.681911 
L 392.355902 88.377618 
L 395.245411 99.477758 
L 398.134921 107.88948 
L 401.02443 99.045975 
L 403.913939 109.739324 
L 406.803448 115.690391 
L 409.692958 85.729632 
L 412.582467 82.134621 
L 415.471976 95.992407 
L 418.361486 102.406463 
L 421.250995 104.990646 
L 424.140504 110.272936 
L 427.030013 107.842137 
L 429.919523 89.547027 
L 432.809032 97.269973 
L 435.698541 95.031768 
L 438.58805 95.728652 
L 441.47756 100.325608 
L 444.367069 111.654381 
L 447.256578 112.495374 
L 450.146088 93.847395 
L 453.035597 93.46286 
L 455.925106 94.035344 
L 458.814615 99.363796 
L 461.704125 98.437226 
L 464.593634 111.096563 
L 467.483143 113.803779 
L 470.372653 90.338939 
L 473.262162 89.085337 
L 476.151671 96.968753 
L 479.04118 98.039871 
L 481.93069 102.70931 
L 484.820199 109.884748 
L 487.709708 117.690328 
L 490.599218 115.539262 
L 493.488727 98.851295 
L 496.378236 83.766774 
L 499.267745 86.05822 
L 502.157255 97.287397 
L 505.046764 105.16729 
L 507.936273 106.759821 
L 510.825782 96.662672 
L 513.715292 91.087762 
L 516.604801 88.244285 
L 519.49431 92.381152 
L 522.38382 97.745857 
L 525.273329 106.621356 
L 528.162838 104.607429 
L 531.052347 97.406658 
L 533.941857 87.601504 
L 536.831366 87.992519 
L 539.720875 94.113755 
L 542.610385 96.437192 
L 545.499894 108.95573 
L 548.389403 105.898185 
L 551.278912 104.405741 
L 554.168422 97.431223 
L 559.94744 101.625754 
L 562.83695 107.428476 
L 565.726459 114.351557 
L 568.615968 114.831585 
L 571.505477 102.734268 
L 574.394987 98.378833 
L 577.284496 99.909979 
L 580.174005 102.939754 
L 583.063514 104.775717 
L 585.953024 115.997146 
L 588.842533 116.475097 
L 591.732042 116.530803 
L 594.621552 112.460793 
L 600.40057 97.937355 
L 603.290079 106.374119 
L 606.179589 112.06185 
L 609.069098 110.078178 
L 611.958607 102.817558 
L 614.848117 98.071739 
L 617.737626 99.515993 
L 620.627135 100.600526 
L 626.406154 107.127768 
L 629.295663 109.742229 
L 632.185172 101.809312 
L 635.074682 96.055207 
L 637.964191 100.420602 
L 640.8537 103.398154 
L 643.743209 107.330538 
L 646.632719 110.083754 
L 649.522228 110.532221 
L 652.411737 95.692367 
L 655.301246 86.247481 
L 658.190756 90.84341 
L 661.080265 102.831863 
L 663.969774 103.198681 
L 666.859284 109.997251 
L 669.748793 110.695046 
L 672.638302 97.585468 
L 675.527811 90.234334 
L 678.417321 89.308707 
L 681.30683 90.753871 
L 684.196339 95.538213 
L 687.085849 105.238837 
L 689.975358 103.851957 
L 695.754376 85.150267 
L 698.643886 91.309832 
L 701.533395 92.078459 
L 704.422904 97.146269 
L 707.312413 110.292097 
L 710.201923 110.59734 
L 713.091432 96.304909 
L 715.980941 90.423681 
L 718.870451 94.925758 
L 721.75996 97.302052 
L 724.649469 101.574071 
L 727.538978 128.45499 
L 730.428488 108.446781 
L 733.317997 72.768442 
L 736.207506 85.866455 
L 739.097016 93.377091 
L 741.986525 98.182316 
L 744.876034 97.519812 
L 747.765543 103.006185 
L 750.655053 105.963549 
L 753.544562 90.920083 
L 756.434071 89.108873 
L 762.21309 88.764141 
L 765.102599 99.617361 
L 767.992108 108.195723 
L 770.881618 116.412203 
L 773.771127 106.887974 
L 776.660636 93.760374 
L 779.550145 89.939141 
L 782.439655 91.193708 
L 785.329164 95.225653 
L 788.218673 110.905528 
L 791.108183 105.821317 
L 793.997692 94.541791 
L 796.887201 90.121928 
L 799.77671 94.755959 
L 802.66622 94.05024 
L 805.555729 96.544438 
L 808.445238 118.127978 
L 811.334748 107.434297 
L 814.224257 95.64229 
L 817.113766 90.329473 
L 820.003275 97.463771 
L 822.892785 89.943541 
L 825.782294 102.374996 
L 828.671803 112.576224 
L 831.561313 108.44928 
L 834.450822 87.290616 
L 837.340331 89.861952 
L 840.22984 94.153947 
L 843.11935 95.152886 
L 846.008859 100.272789 
L 848.898368 111.628781 
L 851.787877 113.034759 
L 854.677387 88.922447 
L 857.566896 92.042301 
L 860.456405 96.46451 
L 863.345915 102.078905 
L 866.235424 103.482536 
L 869.124933 103.867737 
L 872.014442 113.773828 
L 874.903952 101.833143 
L 877.793461 95.759053 
L 880.68297 91.824391 
L 883.57248 92.586207 
L 886.461989 96.074029 
L 889.351498 107.965625 
L 892.241007 109.252625 
L 895.130517 82.869848 
L 898.020026 87.792727 
L 900.909535 91.670255 
L 903.799045 91.350938 
L 906.688554 86.345072 
L 909.578063 99.780778 
L 912.467572 109.961811 
L 915.357082 85.435968 
L 918.246591 80.03603 
L 918.246591 80.03603 
" style="fill:none;stroke:#8172b2;stroke-linecap:round;stroke-opacity:0.8;stroke-width:1.5;"/>
   </g>
   <g id="line2d_85">
    <path clip-path="url(#p8816c6001b)" d="M 85.11531 -1 
L 86.067918 120.563432 
L 88.957428 125.06895 
L 91.846937 126.004595 
L 94.736446 91.959114 
L 97.625955 183.79679 
L 100.515465 100.031374 
L 103.404974 98.955621 
L 106.294483 93.691186 
L 109.183993 108.012369 
L 112.073502 113.217972 
L 114.963011 100.249998 
L 117.85252 95.873421 
L 120.74203 96.831611 
L 123.631539 97.596609 
L 126.521048 88.410596 
L 129.410558 113.139682 
L 132.300067 110.787652 
L 135.189576 119.104765 
L 138.079085 91.307927 
L 140.968595 103.851645 
L 143.858104 88.403089 
L 146.747613 75.446464 
L 149.637123 116.329019 
L 152.526632 113.832531 
L 155.416141 96.687868 
L 158.30565 102.847289 
L 161.19516 102.078361 
L 164.084669 94.388138 
L 166.974178 84.150884 
L 169.863687 109.458451 
L 172.753197 117.080651 
L 175.642706 104.684865 
L 178.532215 97.974261 
L 181.421725 100.580053 
L 184.311234 98.245462 
L 187.200743 94.346541 
L 190.090252 97.760363 
L 192.979762 113.504382 
L 195.869271 82.684172 
L 198.75878 107.066101 
L 201.64829 107.039077 
L 204.537799 96.253823 
L 207.427308 75.94137 
L 210.316817 106.195257 
L 213.206327 111.428523 
L 216.095836 89.859433 
L 218.985345 95.687778 
L 221.874855 102.66701 
L 224.764364 103.151866 
L 227.653873 82.989105 
L 230.543382 102.758365 
L 233.432892 114.126034 
L 236.322401 85.644367 
L 239.21191 92.549314 
L 242.101419 98.784204 
L 244.990929 95.339151 
L 247.880438 74.90604 
L 250.769947 117.199227 
L 253.659457 122.963036 
L 256.548966 71.063303 
L 259.438475 84.068466 
L 262.327984 106.102728 
L 265.217494 101.026199 
L 268.107003 91.104298 
L 270.996512 112.116159 
L 273.886022 120.666641 
L 276.775531 88.260468 
L 279.66504 88.895626 
L 282.554549 85.249084 
L 285.444059 108.434856 
L 288.333568 99.474941 
L 291.223077 114.096868 
L 294.112587 120.383636 
L 297.002096 82.849297 
L 299.891605 88.348063 
L 302.781114 82.269314 
L 305.670624 94.587573 
L 308.560133 64.69048 
L 311.449642 104.239817 
L 314.339151 110.442639 
L 317.228661 80.765062 
L 320.11817 84.689957 
L 323.007679 102.118975 
L 325.897189 53.530029 
L 328.786698 79.767698 
L 331.676207 104.868844 
L 334.565716 117.21919 
L 337.455226 82.887362 
L 340.344735 93.698684 
L 343.234244 115.642924 
L 346.123754 98.471391 
L 349.013263 58.040911 
L 351.902772 113.785354 
L 354.792281 139.666735 
L 357.681791 79.344718 
L 360.5713 80.96196 
L 363.460809 118.456591 
L 366.350318 109.911657 
L 369.239828 94.951131 
L 372.129337 106.143249 
L 375.018846 127.392682 
L 377.908356 94.779951 
L 380.797865 90.669475 
L 383.687374 109.500123 
L 386.576883 98.965664 
L 389.466393 75.34273 
L 392.355902 100.372305 
L 395.245411 126.830276 
L 398.134921 87.259368 
L 401.02443 70.424693 
L 403.913939 98.997345 
L 406.803448 94.407733 
L 409.692958 66.409356 
L 412.582467 101.111579 
L 415.471976 124.069056 
L 418.361486 79.647865 
L 421.250995 93.939772 
L 424.140504 98.610487 
L 427.030013 86.022045 
L 429.919523 70.670502 
L 432.809032 112.156918 
L 435.698541 110.732473 
L 438.58805 82.85658 
L 441.47756 94.107409 
L 444.367069 107.316003 
L 447.256578 99.085278 
L 450.146088 74.991363 
L 453.035597 111.812059 
L 455.925106 113.931586 
L 458.814615 96.871025 
L 461.704125 88.37054 
L 464.593634 105.17209 
L 467.483143 97.508955 
L 470.372653 76.534716 
L 473.262162 119.286143 
L 476.151671 124.603869 
L 479.04118 94.993271 
L 481.93069 80.02357 
L 484.820199 77.306587 
L 487.709708 86.621613 
L 490.599218 90.457628 
L 493.488727 98.614761 
L 496.378236 119.571854 
L 499.267745 86.739404 
L 502.157255 98.911479 
L 505.046764 102.294377 
L 507.936273 98.463072 
L 510.825782 89.348404 
L 513.715292 102.678452 
L 516.604801 117.873827 
L 519.49431 85.186346 
L 522.38382 98.313012 
L 525.273329 104.341393 
L 531.052347 88.500331 
L 533.941857 99.798805 
L 536.831366 113.517747 
L 539.720875 107.039193 
L 542.610385 104.494252 
L 545.499894 104.181607 
L 548.389403 100.702909 
L 551.278912 100.416039 
L 554.168422 103.615295 
L 557.057931 115.896602 
L 559.94744 94.844498 
L 565.726459 104.878223 
L 568.615968 93.643953 
L 571.505477 90.60191 
L 574.394987 107.041565 
L 577.284496 115.810927 
L 580.174005 116.961894 
L 583.063514 99.31963 
L 585.953024 108.893568 
L 588.842533 94.623374 
L 591.732042 97.201564 
L 594.621552 102.252169 
L 597.511061 112.504726 
L 600.40057 93.787543 
L 603.290079 103.183673 
L 606.179589 103.56995 
L 609.069098 105.249261 
L 611.958607 89.035325 
L 614.848117 106.15009 
L 617.737626 119.079182 
L 620.627135 96.773285 
L 623.516644 98.722284 
L 626.406154 103.318762 
L 629.295663 107.576022 
L 632.185172 100.035042 
L 635.074682 108.205178 
L 637.964191 125.293543 
L 640.8537 101.818535 
L 643.743209 94.556453 
L 646.632719 98.388404 
L 649.522228 98.652373 
L 652.411737 92.128463 
L 655.301246 104.970712 
L 658.190756 120.034416 
L 661.080265 108.486938 
L 663.969774 94.300848 
L 666.859284 96.398445 
L 669.748793 99.441192 
L 672.638302 94.187965 
L 675.527811 111.950023 
L 678.417321 118.970199 
L 681.30683 96.555622 
L 684.196339 94.166982 
L 687.085849 111.014478 
L 689.975358 95.751997 
L 692.864867 87.916252 
L 695.754376 101.148592 
L 698.643886 124.207606 
L 701.533395 94.388799 
L 704.422904 97.60869 
L 707.312413 111.433898 
L 710.201923 99.480245 
L 713.091432 91.245283 
L 715.980941 101.528821 
L 718.870451 119.971766 
L 721.75996 94.687567 
L 724.649469 85.423495 
L 726.352067 -1 
M 728.588775 -1 
L 730.428488 104.58035 
L 733.317997 78.924282 
L 736.207506 101.457174 
L 739.097016 122.113301 
L 741.986525 83.967798 
L 744.876034 40.197291 
L 747.765543 102.501686 
L 750.655053 85.71161 
L 753.544562 76.294295 
L 756.434071 114.962969 
L 759.323581 122.545261 
L 762.21309 106.539752 
L 765.102599 110.398539 
L 767.992108 91.015472 
L 770.881618 104.640026 
L 773.771127 16.340849 
L 776.660636 91.521745 
L 779.550145 103.474539 
L 782.439655 87.563578 
L 785.329164 95.552132 
L 788.218673 107.444186 
L 791.108183 96.037149 
L 793.997692 87.85591 
L 796.887201 101.343978 
L 799.77671 125.638668 
L 802.66622 86.838231 
L 805.555729 97.872549 
L 808.445238 112.862615 
L 811.334748 87.054154 
L 814.224257 89.324129 
L 820.003275 123.854123 
L 822.892785 84.995827 
L 825.782294 104.199531 
L 828.671803 103.150704 
L 831.561313 84.362198 
L 834.450822 79.586611 
L 837.340331 111.200383 
L 840.22984 120.846905 
L 843.11935 89.358928 
L 846.008859 94.881669 
L 848.898368 106.658895 
L 851.787877 100.734272 
L 854.677387 80.067317 
L 857.566896 113.679167 
L 860.456405 122.963002 
L 863.345915 98.456837 
L 866.235424 103.139556 
L 869.124933 102.409264 
L 872.014442 97.333193 
L 874.903952 83.503342 
L 877.793461 108.18844 
L 880.68297 98.813574 
L 883.57248 84.672627 
L 886.461989 91.576214 
L 887.451645 217 
M 891.289047 217 
L 892.241007 98.700889 
L 895.130517 71.115739 
L 898.020026 108.916713 
L 900.909535 123.188342 
L 903.799045 79.362898 
L 906.688554 84.042343 
L 909.578063 113.181267 
L 915.357082 72.451273 
L 918.246591 96.467096 
L 918.246591 96.467096 
" style="fill:none;stroke:#ccb974;stroke-linecap:round;stroke-opacity:0.8;stroke-width:1.5;"/>
   </g>
   <g id="line2d_86">
    <path clip-path="url(#p8816c6001b)" d="M 83.178409 66.124242 
L 86.067918 115.378086 
L 88.957428 115.153981 
L 91.846937 105.151 
L 94.736446 98.13636 
L 97.625955 100.966566 
L 100.515465 93.946635 
L 103.404974 91.399141 
L 106.294483 89.933121 
L 107.062438 -1 
M 111.193608 -1 
L 112.073502 108.991291 
L 114.963011 89.114013 
L 117.85252 98.422804 
L 120.74203 90.9463 
L 123.631539 89.958353 
L 126.521048 86.733582 
L 129.410558 112.851745 
L 132.300067 109.224086 
L 135.189576 96.791554 
L 138.079085 173.880008 
L 140.968595 104.756881 
L 143.858104 83.394035 
L 146.747613 70.791103 
L 149.637123 113.739172 
L 152.526632 121.545707 
L 155.416141 100.127223 
L 158.30565 100.276927 
L 161.19516 98.939381 
L 164.084669 102.638558 
L 166.974178 81.903642 
L 168.911082 217 
M 171.022681 217 
L 172.753197 117.792736 
L 175.642706 106.099548 
L 178.532215 99.017228 
L 181.421725 100.853344 
L 184.311234 98.611418 
L 187.200743 87.219323 
L 190.090252 104.724504 
L 192.979762 115.059758 
L 195.869271 84.985735 
L 198.75878 108.673675 
L 201.64829 107.854796 
L 204.537799 96.45075 
L 207.427308 76.438926 
L 210.316817 107.358578 
L 213.206327 112.532832 
L 216.095836 91.271907 
L 218.985345 91.224698 
L 221.874855 101.940464 
L 224.764364 102.094407 
L 227.653873 80.342854 
L 230.543382 101.111266 
L 233.432892 107.495196 
L 236.322401 82.297348 
L 239.21191 82.913509 
L 242.101419 91.435075 
L 243.026044 -1 
M 247.141397 -1 
L 247.880438 66.506318 
L 250.769947 111.792851 
L 253.659457 118.056069 
L 256.548966 95.605388 
L 259.438475 93.974573 
L 262.327984 101.335274 
L 265.217494 95.491167 
L 268.107003 89.186223 
L 270.996512 94.763209 
L 273.886022 117.662776 
L 276.775531 86.504259 
L 279.66504 85.853541 
L 282.554549 81.905966 
L 285.444059 104.447586 
L 286.562186 217 
M 290.139362 217 
L 291.223077 109.990376 
L 294.112587 122.987995 
L 297.002096 85.282999 
L 299.891605 90.099235 
L 302.781114 106.873258 
L 305.670624 95.30176 
L 308.560133 66.039237 
L 311.449642 103.838535 
L 314.339151 112.431667 
L 317.228661 82.893976 
L 320.11817 85.312404 
L 323.007679 96.826234 
L 325.897189 35.50384 
L 328.786698 76.46533 
L 331.676207 97.750926 
L 334.565716 110.676808 
L 337.455226 76.299498 
L 340.344735 86.211692 
L 343.234244 102.404031 
L 346.123754 85.257426 
L 349.013263 48.732394 
L 351.902772 101.200674 
L 354.792281 128.831096 
L 357.681791 69.426421 
L 360.5713 69.125668 
L 363.460809 105.385212 
L 366.350318 97.531042 
L 369.239828 84.948418 
L 372.129337 101.632695 
L 375.018846 127.23305 
L 377.908356 96.098514 
L 380.797865 91.997684 
L 383.687374 110.645784 
L 386.576883 100.317412 
L 389.466393 77.934585 
L 395.245411 131.302372 
L 398.134921 91.981372 
L 401.02443 72.308039 
L 403.913939 103.563591 
L 406.803448 97.874185 
L 409.692958 67.746405 
L 412.582467 104.900427 
L 415.471976 127.851361 
L 418.361486 84.214929 
L 421.250995 97.427326 
L 424.140504 101.629926 
L 427.030013 75.486953 
L 429.919523 73.932495 
L 432.809032 114.956914 
L 435.698541 113.270432 
L 438.58805 85.85466 
L 441.47756 95.178054 
L 444.367069 107.916205 
L 447.256578 99.355729 
L 450.146088 98.120985 
L 453.035597 111.950636 
L 455.925106 115.106505 
L 458.814615 98.383871 
L 461.704125 89.278044 
L 464.593634 105.318131 
L 467.483143 97.653085 
L 470.372653 77.026736 
L 473.262162 120.726484 
L 476.151671 127.386632 
L 479.04118 106.065975 
L 481.93069 81.215986 
L 484.820199 94.620964 
L 487.709708 95.857556 
L 490.599218 89.661685 
L 493.488727 82.428912 
L 496.378236 113.913931 
L 499.267745 38.410949 
L 502.157255 97.890094 
L 505.046764 99.974175 
L 507.936273 95.351051 
L 510.825782 87.473288 
L 513.715292 103.0542 
L 516.604801 117.914741 
L 519.49431 85.680854 
L 522.38382 97.700481 
L 525.273329 102.168772 
L 528.162838 89.724978 
L 531.052347 86.9488 
L 533.941857 100.099621 
L 536.831366 115.402741 
L 539.720875 109.335112 
L 542.610385 103.935533 
L 545.499894 104.4998 
L 548.389403 101.563814 
L 551.278912 101.247922 
L 554.168422 105.024919 
L 557.057931 116.880293 
L 559.94744 98.09105 
L 562.83695 103.501074 
L 565.726459 114.160219 
L 568.615968 95.478006 
L 571.505477 92.448637 
L 574.394987 109.224668 
L 577.284496 119.151245 
L 580.174005 120.949852 
L 583.063514 102.450091 
L 585.953024 110.923327 
L 588.842533 96.479425 
L 591.732042 98.463936 
L 594.621552 101.746348 
L 597.511061 114.522631 
L 600.40057 95.896364 
L 603.290079 104.524827 
L 606.179589 104.088018 
L 609.069098 104.630026 
L 611.958607 88.250977 
L 614.848117 105.846303 
L 617.737626 118.634853 
L 620.627135 96.797012 
L 623.516644 98.567874 
L 626.406154 102.03396 
L 629.295663 100.705867 
L 632.185172 98.043029 
L 635.074682 107.875224 
L 637.964191 125.222751 
L 640.8537 103.274079 
L 643.743209 92.755248 
L 646.632719 102.904959 
L 649.522228 104.222 
L 652.411737 89.425023 
L 655.301246 101.763013 
L 658.190756 117.308453 
L 661.080265 105.722271 
L 663.969774 91.704559 
L 666.859284 96.791149 
L 669.748793 94.386552 
L 672.638302 80.823633 
L 675.527811 108.639433 
L 678.417321 115.243632 
L 681.30683 93.776858 
L 684.196339 90.34431 
L 687.085849 105.790956 
L 689.975358 90.41726 
L 692.864867 83.926732 
L 695.754376 112.041391 
L 698.643886 122.884175 
L 701.533395 92.929432 
L 704.422904 95.060772 
L 707.312413 108.024415 
L 710.201923 96.160688 
L 713.091432 89.248672 
L 715.980941 101.970844 
L 718.870451 120.606704 
L 721.75996 95.495055 
L 724.649469 85.772232 
L 727.538978 100.074623 
L 730.428488 99.812082 
L 733.317997 78.391477 
L 736.207506 98.514938 
L 739.097016 131.925376 
L 741.986525 88.982129 
L 744.876034 102.78682 
L 747.765543 99.04059 
L 750.655053 82.060833 
L 753.544562 73.542001 
L 756.434071 113.657453 
L 759.323581 123.360169 
L 765.102599 91.616416 
L 767.992108 89.2623 
L 770.881618 101.452725 
L 773.771127 88.845595 
L 776.660636 90.807163 
L 779.550145 112.19985 
L 782.439655 87.697389 
L 785.329164 94.70216 
L 788.218673 105.189592 
L 791.108183 93.127206 
L 793.997692 87.272123 
L 796.887201 101.773276 
L 799.77671 126.23777 
L 802.66622 88.096047 
L 805.555729 99.02423 
L 808.445238 112.779632 
L 811.334748 86.159258 
L 814.224257 89.568081 
L 817.113766 115.360574 
L 820.003275 116.370932 
L 822.892785 87.493566 
L 825.782294 104.650235 
L 828.671803 102.432684 
L 831.561313 90.048994 
L 834.450822 76.708935 
L 837.340331 110.406095 
L 840.22984 120.084535 
L 843.11935 89.477394 
L 846.008859 95.679177 
L 848.898368 176.172616 
L 851.787877 100.711 
L 854.677387 80.36634 
L 857.566896 114.569969 
L 860.456405 124.21805 
L 863.345915 100.340432 
L 866.235424 104.038822 
L 869.124933 102.019387 
L 872.014442 95.838392 
L 874.903952 83.109736 
L 877.793461 108.498405 
L 880.68297 106.049521 
L 883.57248 84.920619 
L 886.461989 90.380404 
L 889.351498 95.017157 
L 892.241007 95.048567 
L 895.130517 67.521147 
L 898.020026 107.23806 
L 900.909535 117.11854 
L 903.799045 77.403061 
L 906.688554 80.070172 
L 909.578063 107.829627 
L 912.467572 92.855026 
L 915.357082 66.524224 
L 918.246591 95.474367 
L 918.246591 95.474367 
" style="fill:none;stroke:#64b5cd;stroke-linecap:round;stroke-opacity:0.8;stroke-width:1.5;"/>
   </g>
   <g id="patch_3">
    <path d="M 41.425 180.1 
L 41.425 32.8 
" style="fill:none;stroke:#cccccc;stroke-linecap:square;stroke-linejoin:miter;"/>
   </g>
   <g id="patch_4">
    <path d="M 960 180.1 
L 960 32.8 
" style="fill:none;stroke:#cccccc;stroke-linecap:square;stroke-linejoin:miter;"/>
   </g>
   <g id="patch_5">
    <path d="M 41.425 180.1 
L 960 180.1 
" style="fill:none;stroke:#cccccc;stroke-linecap:square;stroke-linejoin:miter;"/>
   </g>
   <g id="patch_6">
    <path d="M 41.425 32.8 
L 960 32.8 
" style="fill:none;stroke:#cccccc;stroke-linecap:square;stroke-linejoin:miter;"/>
   </g>
   <g id="text_18">
    <!-- Feed 0 - P1 All Predictors -->
    <defs>
     <path d="M 40.234375 0 
L 40.234375 6.546875 
Q 35.296875 -1.171875 25.734375 -1.171875 
Q 19.53125 -1.171875 14.328125 2.25 
Q 9.125 5.671875 6.265625 11.796875 
Q 3.421875 17.921875 3.421875 25.875 
Q 3.421875 33.640625 6 39.96875 
Q 8.59375 46.296875 13.765625 49.65625 
Q 18.953125 53.03125 25.34375 53.03125 
Q 30.03125 53.03125 33.6875 51.046875 
Q 37.359375 49.078125 39.65625 45.90625 
L 39.65625 71.578125 
L 48.390625 71.578125 
L 48.390625 0 
z
M 12.453125 25.875 
Q 12.453125 15.921875 16.640625 10.984375 
Q 20.84375 6.0625 26.5625 6.0625 
Q 32.328125 6.0625 36.34375 10.765625 
Q 40.375 15.484375 40.375 25.140625 
Q 40.375 35.796875 36.265625 40.765625 
Q 32.171875 45.75 26.171875 45.75 
Q 20.3125 45.75 16.375 40.96875 
Q 12.453125 36.1875 12.453125 25.875 
z
" id="ArialMT-64"/>
     <path id="ArialMT-20"/>
     <path d="M 3.171875 21.484375 
L 3.171875 30.328125 
L 30.171875 30.328125 
L 30.171875 21.484375 
z
" id="ArialMT-2d"/>
     <path d="M 7.71875 0 
L 7.71875 71.578125 
L 34.71875 71.578125 
Q 41.84375 71.578125 45.609375 70.90625 
Q 50.875 70.015625 54.4375 67.546875 
Q 58.015625 65.09375 60.1875 60.640625 
Q 62.359375 56.203125 62.359375 50.875 
Q 62.359375 41.75 56.546875 35.421875 
Q 50.734375 29.109375 35.546875 29.109375 
L 17.1875 29.109375 
L 17.1875 0 
z
M 17.1875 37.546875 
L 35.6875 37.546875 
Q 44.875 37.546875 48.734375 40.96875 
Q 52.59375 44.390625 52.59375 50.59375 
Q 52.59375 55.078125 50.3125 58.265625 
Q 48.046875 61.46875 44.34375 62.5 
Q 41.9375 63.140625 35.5 63.140625 
L 17.1875 63.140625 
z
" id="ArialMT-50"/>
     <path d="M 6.640625 61.46875 
L 6.640625 71.578125 
L 15.4375 71.578125 
L 15.4375 61.46875 
z
M 6.640625 0 
L 6.640625 51.859375 
L 15.4375 51.859375 
L 15.4375 0 
z
" id="ArialMT-69"/>
     <path d="M 3.078125 15.484375 
L 11.765625 16.84375 
Q 12.5 11.625 15.84375 8.84375 
Q 19.1875 6.0625 25.203125 6.0625 
Q 31.25 6.0625 34.171875 8.515625 
Q 37.109375 10.984375 37.109375 14.3125 
Q 37.109375 17.28125 34.515625 19 
Q 32.71875 20.171875 25.53125 21.96875 
Q 15.875 24.421875 12.140625 26.203125 
Q 8.40625 27.984375 6.46875 31.125 
Q 4.546875 34.28125 4.546875 38.09375 
Q 4.546875 41.546875 6.125 44.5 
Q 7.71875 47.46875 10.453125 49.421875 
Q 12.5 50.921875 16.03125 51.96875 
Q 19.578125 53.03125 23.640625 53.03125 
Q 29.734375 53.03125 34.34375 51.265625 
Q 38.96875 49.515625 41.15625 46.5 
Q 43.359375 43.5 44.1875 38.484375 
L 35.59375 37.3125 
Q 35.015625 41.3125 32.203125 43.546875 
Q 29.390625 45.796875 24.265625 45.796875 
Q 18.21875 45.796875 15.625 43.796875 
Q 13.03125 41.796875 13.03125 39.109375 
Q 13.03125 37.40625 14.109375 36.03125 
Q 15.1875 34.625 17.484375 33.6875 
Q 18.796875 33.203125 25.25 31.453125 
Q 34.578125 28.953125 38.25 27.359375 
Q 41.9375 25.78125 44.03125 22.75 
Q 46.140625 19.734375 46.140625 15.234375 
Q 46.140625 10.84375 43.578125 6.953125 
Q 41.015625 3.078125 36.171875 0.953125 
Q 31.34375 -1.171875 25.25 -1.171875 
Q 15.140625 -1.171875 9.84375 3.03125 
Q 4.546875 7.234375 3.078125 15.484375 
z
" id="ArialMT-73"/>
    </defs>
    <g style="fill:#262626;" transform="translate(375.398437 26.8)scale(0.22 -0.22)">
     <use xlink:href="#ArialMT-46"/>
     <use x="61.083984" xlink:href="#ArialMT-65"/>
     <use x="116.699219" xlink:href="#ArialMT-65"/>
     <use x="172.314453" xlink:href="#ArialMT-64"/>
     <use x="227.929688" xlink:href="#ArialMT-20"/>
     <use x="255.712891" xlink:href="#ArialMT-30"/>
     <use x="311.328125" xlink:href="#ArialMT-20"/>
     <use x="339.111328" xlink:href="#ArialMT-2d"/>
     <use x="372.412109" xlink:href="#ArialMT-20"/>
     <use x="400.195312" xlink:href="#ArialMT-50"/>
     <use x="466.894531" xlink:href="#ArialMT-31"/>
     <use x="522.509766" xlink:href="#ArialMT-20"/>
     <use x="550.214844" xlink:href="#ArialMT-41"/>
     <use x="616.914062" xlink:href="#ArialMT-6c"/>
     <use x="639.130859" xlink:href="#ArialMT-6c"/>
     <use x="661.347656" xlink:href="#ArialMT-20"/>
     <use x="689.130859" xlink:href="#ArialMT-50"/>
     <use x="755.830078" xlink:href="#ArialMT-72"/>
     <use x="789.130859" xlink:href="#ArialMT-65"/>
     <use x="844.746094" xlink:href="#ArialMT-64"/>
     <use x="900.361328" xlink:href="#ArialMT-69"/>
     <use x="922.578125" xlink:href="#ArialMT-63"/>
     <use x="972.578125" xlink:href="#ArialMT-74"/>
     <use x="1000.361328" xlink:href="#ArialMT-6f"/>
     <use x="1055.976562" xlink:href="#ArialMT-72"/>
     <use x="1089.277344" xlink:href="#ArialMT-73"/>
    </g>
   </g>
   <g id="legend_1">
    <g id="patch_7">
     <path d="M 968.4 159.244375 
L 1066.83 159.244375 
Q 1069.23 159.244375 1069.23 156.844375 
L 1069.23 56.055625 
Q 1069.23 53.655625 1066.83 53.655625 
L 968.4 53.655625 
Q 966 53.655625 966 56.055625 
L 966 156.844375 
Q 966 159.244375 968.4 159.244375 
z
" style="fill:#ffffff;opacity:0.8;stroke:#cccccc;stroke-linejoin:miter;"/>
    </g>
    <g id="line2d_87">
     <path d="M 970.8 62.880625 
L 994.8 62.880625 
" style="fill:none;stroke:#4c72b0;stroke-linecap:round;stroke-opacity:0.8;stroke-width:1.5;"/>
    </g>
    <g id="line2d_88"/>
    <g id="text_19">
     <!-- predictor_0 -->
     <defs>
      <path d="M -1.515625 -19.875 
L -1.515625 -13.53125 
L 56.734375 -13.53125 
L 56.734375 -19.875 
z
" id="ArialMT-5f"/>
     </defs>
     <g style="fill:#262626;" transform="translate(1004.4 67.080625)scale(0.12 -0.12)">
      <use xlink:href="#ArialMT-70"/>
      <use x="55.615234" xlink:href="#ArialMT-72"/>
      <use x="88.916016" xlink:href="#ArialMT-65"/>
      <use x="144.53125" xlink:href="#ArialMT-64"/>
      <use x="200.146484" xlink:href="#ArialMT-69"/>
      <use x="222.363281" xlink:href="#ArialMT-63"/>
      <use x="272.363281" xlink:href="#ArialMT-74"/>
      <use x="300.146484" xlink:href="#ArialMT-6f"/>
      <use x="355.761719" xlink:href="#ArialMT-72"/>
      <use x="389.0625" xlink:href="#ArialMT-5f"/>
      <use x="444.677734" xlink:href="#ArialMT-30"/>
     </g>
    </g>
    <g id="line2d_89">
     <path d="M 970.8 79.890625 
L 994.8 79.890625 
" style="fill:none;stroke:#55a868;stroke-linecap:round;stroke-opacity:0.8;stroke-width:1.5;"/>
    </g>
    <g id="line2d_90"/>
    <g id="text_20">
     <!-- predictor_1 -->
     <g style="fill:#262626;" transform="translate(1004.4 84.090625)scale(0.12 -0.12)">
      <use xlink:href="#ArialMT-70"/>
      <use x="55.615234" xlink:href="#ArialMT-72"/>
      <use x="88.916016" xlink:href="#ArialMT-65"/>
      <use x="144.53125" xlink:href="#ArialMT-64"/>
      <use x="200.146484" xlink:href="#ArialMT-69"/>
      <use x="222.363281" xlink:href="#ArialMT-63"/>
      <use x="272.363281" xlink:href="#ArialMT-74"/>
      <use x="300.146484" xlink:href="#ArialMT-6f"/>
      <use x="355.761719" xlink:href="#ArialMT-72"/>
      <use x="389.0625" xlink:href="#ArialMT-5f"/>
      <use x="444.677734" xlink:href="#ArialMT-31"/>
     </g>
    </g>
    <g id="line2d_91">
     <path d="M 970.8 96.900625 
L 994.8 96.900625 
" style="fill:none;stroke:#c44e52;stroke-linecap:round;stroke-opacity:0.8;stroke-width:1.5;"/>
    </g>
    <g id="line2d_92"/>
    <g id="text_21">
     <!-- predictor_2 -->
     <g style="fill:#262626;" transform="translate(1004.4 101.100625)scale(0.12 -0.12)">
      <use xlink:href="#ArialMT-70"/>
      <use x="55.615234" xlink:href="#ArialMT-72"/>
      <use x="88.916016" xlink:href="#ArialMT-65"/>
      <use x="144.53125" xlink:href="#ArialMT-64"/>
      <use x="200.146484" xlink:href="#ArialMT-69"/>
      <use x="222.363281" xlink:href="#ArialMT-63"/>
      <use x="272.363281" xlink:href="#ArialMT-74"/>
      <use x="300.146484" xlink:href="#ArialMT-6f"/>
      <use x="355.761719" xlink:href="#ArialMT-72"/>
      <use x="389.0625" xlink:href="#ArialMT-5f"/>
      <use x="444.677734" xlink:href="#ArialMT-32"/>
     </g>
    </g>
    <g id="line2d_93">
     <path d="M 970.8 113.910625 
L 994.8 113.910625 
" style="fill:none;stroke:#8172b2;stroke-linecap:round;stroke-opacity:0.8;stroke-width:1.5;"/>
    </g>
    <g id="line2d_94"/>
    <g id="text_22">
     <!-- predictor_3 -->
     <defs>
      <path d="M 4.203125 18.890625 
L 12.984375 20.0625 
Q 14.5 12.59375 18.140625 9.296875 
Q 21.78125 6 27 6 
Q 33.203125 6 37.46875 10.296875 
Q 41.75 14.59375 41.75 20.953125 
Q 41.75 27 37.796875 30.921875 
Q 33.84375 34.859375 27.734375 34.859375 
Q 25.25 34.859375 21.53125 33.890625 
L 22.515625 41.609375 
Q 23.390625 41.5 23.921875 41.5 
Q 29.546875 41.5 34.03125 44.421875 
Q 38.53125 47.359375 38.53125 53.46875 
Q 38.53125 58.296875 35.25 61.46875 
Q 31.984375 64.65625 26.8125 64.65625 
Q 21.6875 64.65625 18.265625 61.421875 
Q 14.84375 58.203125 13.875 51.765625 
L 5.078125 53.328125 
Q 6.6875 62.15625 12.390625 67.015625 
Q 18.109375 71.875 26.609375 71.875 
Q 32.46875 71.875 37.390625 69.359375 
Q 42.328125 66.84375 44.9375 62.5 
Q 47.5625 58.15625 47.5625 53.265625 
Q 47.5625 48.640625 45.0625 44.828125 
Q 42.578125 41.015625 37.703125 38.765625 
Q 44.046875 37.3125 47.5625 32.6875 
Q 51.078125 28.078125 51.078125 21.140625 
Q 51.078125 11.765625 44.234375 5.25 
Q 37.40625 -1.265625 26.953125 -1.265625 
Q 17.53125 -1.265625 11.296875 4.34375 
Q 5.078125 9.96875 4.203125 18.890625 
z
" id="ArialMT-33"/>
     </defs>
     <g style="fill:#262626;" transform="translate(1004.4 118.110625)scale(0.12 -0.12)">
      <use xlink:href="#ArialMT-70"/>
      <use x="55.615234" xlink:href="#ArialMT-72"/>
      <use x="88.916016" xlink:href="#ArialMT-65"/>
      <use x="144.53125" xlink:href="#ArialMT-64"/>
      <use x="200.146484" xlink:href="#ArialMT-69"/>
      <use x="222.363281" xlink:href="#ArialMT-63"/>
      <use x="272.363281" xlink:href="#ArialMT-74"/>
      <use x="300.146484" xlink:href="#ArialMT-6f"/>
      <use x="355.761719" xlink:href="#ArialMT-72"/>
      <use x="389.0625" xlink:href="#ArialMT-5f"/>
      <use x="444.677734" xlink:href="#ArialMT-33"/>
     </g>
    </g>
    <g id="line2d_95">
     <path d="M 970.8 130.885 
L 994.8 130.885 
" style="fill:none;stroke:#ccb974;stroke-linecap:round;stroke-opacity:0.8;stroke-width:1.5;"/>
    </g>
    <g id="line2d_96"/>
    <g id="text_23">
     <!-- predictor_4 -->
     <defs>
      <path d="M 32.328125 0 
L 32.328125 17.140625 
L 1.265625 17.140625 
L 1.265625 25.203125 
L 33.9375 71.578125 
L 41.109375 71.578125 
L 41.109375 25.203125 
L 50.78125 25.203125 
L 50.78125 17.140625 
L 41.109375 17.140625 
L 41.109375 0 
z
M 32.328125 25.203125 
L 32.328125 57.46875 
L 9.90625 25.203125 
z
" id="ArialMT-34"/>
     </defs>
     <g style="fill:#262626;" transform="translate(1004.4 135.085)scale(0.12 -0.12)">
      <use xlink:href="#ArialMT-70"/>
      <use x="55.615234" xlink:href="#ArialMT-72"/>
      <use x="88.916016" xlink:href="#ArialMT-65"/>
      <use x="144.53125" xlink:href="#ArialMT-64"/>
      <use x="200.146484" xlink:href="#ArialMT-69"/>
      <use x="222.363281" xlink:href="#ArialMT-63"/>
      <use x="272.363281" xlink:href="#ArialMT-74"/>
      <use x="300.146484" xlink:href="#ArialMT-6f"/>
      <use x="355.761719" xlink:href="#ArialMT-72"/>
      <use x="389.0625" xlink:href="#ArialMT-5f"/>
      <use x="444.677734" xlink:href="#ArialMT-34"/>
     </g>
    </g>
    <g id="line2d_97">
     <path d="M 970.8 147.859375 
L 994.8 147.859375 
" style="fill:none;stroke:#64b5cd;stroke-linecap:round;stroke-opacity:0.8;stroke-width:1.5;"/>
    </g>
    <g id="line2d_98"/>
    <g id="text_24">
     <!-- predictor_5 -->
     <g style="fill:#262626;" transform="translate(1004.4 152.059375)scale(0.12 -0.12)">
      <use xlink:href="#ArialMT-70"/>
      <use x="55.615234" xlink:href="#ArialMT-72"/>
      <use x="88.916016" xlink:href="#ArialMT-65"/>
      <use x="144.53125" xlink:href="#ArialMT-64"/>
      <use x="200.146484" xlink:href="#ArialMT-69"/>
      <use x="222.363281" xlink:href="#ArialMT-63"/>
      <use x="272.363281" xlink:href="#ArialMT-74"/>
      <use x="300.146484" xlink:href="#ArialMT-6f"/>
      <use x="355.761719" xlink:href="#ArialMT-72"/>
      <use x="389.0625" xlink:href="#ArialMT-5f"/>
      <use x="444.677734" xlink:href="#ArialMT-35"/>
     </g>
    </g>
   </g>
  </g>
 </g>
 <defs>
  <clipPath id="p8816c6001b">
   <rect height="147.3" width="918.575" x="41.425" y="32.8"/>
  </clipPath>
 </defs>
</svg>
